<?xml version="1.0" encoding="utf-8" standalone="no"?>
<!DOCTYPE svg PUBLIC "-//W3C//DTD SVG 1.1//EN"
  "http://www.w3.org/Graphics/SVG/1.1/DTD/svg11.dtd">
<svg xmlns:xlink="http://www.w3.org/1999/xlink" width="238.965625pt" height="183.35625pt" viewBox="0 0 238.965625 183.35625" xmlns="http://www.w3.org/2000/svg" version="1.1">
 <metadata>
  <rdf:RDF xmlns:dc="http://purl.org/dc/elements/1.1/" xmlns:cc="http://creativecommons.org/ns#" xmlns:rdf="http://www.w3.org/1999/02/22-rdf-syntax-ns#">
   <cc:Work>
    <dc:type rdf:resource="http://purl.org/dc/dcmitype/StillImage"/>
    <dc:date>2025-08-14T11:20:51.067753</dc:date>
    <dc:format>image/svg+xml</dc:format>
    <dc:creator>
     <cc:Agent>
      <dc:title>Matplotlib v3.7.2, https://matplotlib.org/</dc:title>
     </cc:Agent>
    </dc:creator>
   </cc:Work>
  </rdf:RDF>
 </metadata>
 <defs>
  <style type="text/css">*{stroke-linejoin: round; stroke-linecap: butt}</style>
 </defs>
 <g id="figure_1">
  <g id="patch_1">
   <path d="M 0 183.35625 
L 238.965625 183.35625 
L 238.965625 0 
L 0 0 
z
" style="fill: #ffffff"/>
  </g>
  <g id="axes_1">
   <g id="patch_2">
    <path d="M 30.103125 145.8 
L 225.403125 145.8 
L 225.403125 7.2 
L 30.103125 7.2 
z
" style="fill: #ffffff"/>
   </g>
   <g id="matplotlib.axis_1">
    <g id="xtick_1">
     <g id="line2d_1">
      <path d="M 30.103125 145.8 
L 30.103125 7.2 
" clip-path="url(#p6d17624dfe)" style="fill: none; stroke: #b0b0b0; stroke-width: 0.8; stroke-linecap: square"/>
     </g>
     <g id="line2d_2">
      <defs>
       <path id="m603ee5baa3" d="M 0 0 
L 0 3.5 
" style="stroke: #000000; stroke-width: 0.8"/>
      </defs>
      <g>
       <use xlink:href="#m603ee5baa3" x="30.103125" y="145.8" style="stroke: #000000; stroke-width: 0.8"/>
      </g>
     </g>
     <g id="text_1">
      <!-- 0 -->
      <g transform="translate(26.921875 160.398438) scale(0.1 -0.1)">
       <defs>
        <path id="DejaVuSans-30" d="M 2034 4250 
Q 1547 4250 1301 3770 
Q 1056 3291 1056 2328 
Q 1056 1369 1301 889 
Q 1547 409 2034 409 
Q 2525 409 2770 889 
Q 3016 1369 3016 2328 
Q 3016 3291 2770 3770 
Q 2525 4250 2034 4250 
z
M 2034 4750 
Q 2819 4750 3233 4129 
Q 3647 3509 3647 2328 
Q 3647 1150 3233 529 
Q 2819 -91 2034 -91 
Q 1250 -91 836 529 
Q 422 1150 422 2328 
Q 422 3509 836 4129 
Q 1250 4750 2034 4750 
z
" transform="scale(0.015625)"/>
       </defs>
       <use xlink:href="#DejaVuSans-30"/>
      </g>
     </g>
    </g>
    <g id="xtick_2">
     <g id="line2d_3">
      <path d="M 62.653125 145.8 
L 62.653125 7.2 
" clip-path="url(#p6d17624dfe)" style="fill: none; stroke: #b0b0b0; stroke-width: 0.8; stroke-linecap: square"/>
     </g>
     <g id="line2d_4">
      <g>
       <use xlink:href="#m603ee5baa3" x="62.653125" y="145.8" style="stroke: #000000; stroke-width: 0.8"/>
      </g>
     </g>
     <g id="text_2">
      <!-- 5 -->
      <g transform="translate(59.471875 160.398438) scale(0.1 -0.1)">
       <defs>
        <path id="DejaVuSans-35" d="M 691 4666 
L 3169 4666 
L 3169 4134 
L 1269 4134 
L 1269 2991 
Q 1406 3038 1543 3061 
Q 1681 3084 1819 3084 
Q 2600 3084 3056 2656 
Q 3513 2228 3513 1497 
Q 3513 744 3044 326 
Q 2575 -91 1722 -91 
Q 1428 -91 1123 -41 
Q 819 9 494 109 
L 494 744 
Q 775 591 1075 516 
Q 1375 441 1709 441 
Q 2250 441 2565 725 
Q 2881 1009 2881 1497 
Q 2881 1984 2565 2268 
Q 2250 2553 1709 2553 
Q 1456 2553 1204 2497 
Q 953 2441 691 2322 
L 691 4666 
z
" transform="scale(0.015625)"/>
       </defs>
       <use xlink:href="#DejaVuSans-35"/>
      </g>
     </g>
    </g>
    <g id="xtick_3">
     <g id="line2d_5">
      <path d="M 95.203125 145.8 
L 95.203125 7.2 
" clip-path="url(#p6d17624dfe)" style="fill: none; stroke: #b0b0b0; stroke-width: 0.8; stroke-linecap: square"/>
     </g>
     <g id="line2d_6">
      <g>
       <use xlink:href="#m603ee5baa3" x="95.203125" y="145.8" style="stroke: #000000; stroke-width: 0.8"/>
      </g>
     </g>
     <g id="text_3">
      <!-- 10 -->
      <g transform="translate(88.840625 160.398438) scale(0.1 -0.1)">
       <defs>
        <path id="DejaVuSans-31" d="M 794 531 
L 1825 531 
L 1825 4091 
L 703 3866 
L 703 4441 
L 1819 4666 
L 2450 4666 
L 2450 531 
L 3481 531 
L 3481 0 
L 794 0 
L 794 531 
z
" transform="scale(0.015625)"/>
       </defs>
       <use xlink:href="#DejaVuSans-31"/>
       <use xlink:href="#DejaVuSans-30" x="63.623047"/>
      </g>
     </g>
    </g>
    <g id="xtick_4">
     <g id="line2d_7">
      <path d="M 127.753125 145.8 
L 127.753125 7.2 
" clip-path="url(#p6d17624dfe)" style="fill: none; stroke: #b0b0b0; stroke-width: 0.8; stroke-linecap: square"/>
     </g>
     <g id="line2d_8">
      <g>
       <use xlink:href="#m603ee5baa3" x="127.753125" y="145.8" style="stroke: #000000; stroke-width: 0.8"/>
      </g>
     </g>
     <g id="text_4">
      <!-- 15 -->
      <g transform="translate(121.390625 160.398438) scale(0.1 -0.1)">
       <use xlink:href="#DejaVuSans-31"/>
       <use xlink:href="#DejaVuSans-35" x="63.623047"/>
      </g>
     </g>
    </g>
    <g id="xtick_5">
     <g id="line2d_9">
      <path d="M 160.303125 145.8 
L 160.303125 7.2 
" clip-path="url(#p6d17624dfe)" style="fill: none; stroke: #b0b0b0; stroke-width: 0.8; stroke-linecap: square"/>
     </g>
     <g id="line2d_10">
      <g>
       <use xlink:href="#m603ee5baa3" x="160.303125" y="145.8" style="stroke: #000000; stroke-width: 0.8"/>
      </g>
     </g>
     <g id="text_5">
      <!-- 20 -->
      <g transform="translate(153.940625 160.398438) scale(0.1 -0.1)">
       <defs>
        <path id="DejaVuSans-32" d="M 1228 531 
L 3431 531 
L 3431 0 
L 469 0 
L 469 531 
Q 828 903 1448 1529 
Q 2069 2156 2228 2338 
Q 2531 2678 2651 2914 
Q 2772 3150 2772 3378 
Q 2772 3750 2511 3984 
Q 2250 4219 1831 4219 
Q 1534 4219 1204 4116 
Q 875 4013 500 3803 
L 500 4441 
Q 881 4594 1212 4672 
Q 1544 4750 1819 4750 
Q 2544 4750 2975 4387 
Q 3406 4025 3406 3419 
Q 3406 3131 3298 2873 
Q 3191 2616 2906 2266 
Q 2828 2175 2409 1742 
Q 1991 1309 1228 531 
z
" transform="scale(0.015625)"/>
       </defs>
       <use xlink:href="#DejaVuSans-32"/>
       <use xlink:href="#DejaVuSans-30" x="63.623047"/>
      </g>
     </g>
    </g>
    <g id="xtick_6">
     <g id="line2d_11">
      <path d="M 192.853125 145.8 
L 192.853125 7.2 
" clip-path="url(#p6d17624dfe)" style="fill: none; stroke: #b0b0b0; stroke-width: 0.8; stroke-linecap: square"/>
     </g>
     <g id="line2d_12">
      <g>
       <use xlink:href="#m603ee5baa3" x="192.853125" y="145.8" style="stroke: #000000; stroke-width: 0.8"/>
      </g>
     </g>
     <g id="text_6">
      <!-- 25 -->
      <g transform="translate(186.490625 160.398438) scale(0.1 -0.1)">
       <use xlink:href="#DejaVuSans-32"/>
       <use xlink:href="#DejaVuSans-35" x="63.623047"/>
      </g>
     </g>
    </g>
    <g id="xtick_7">
     <g id="line2d_13">
      <path d="M 225.403125 145.8 
L 225.403125 7.2 
" clip-path="url(#p6d17624dfe)" style="fill: none; stroke: #b0b0b0; stroke-width: 0.8; stroke-linecap: square"/>
     </g>
     <g id="line2d_14">
      <g>
       <use xlink:href="#m603ee5baa3" x="225.403125" y="145.8" style="stroke: #000000; stroke-width: 0.8"/>
      </g>
     </g>
     <g id="text_7">
      <!-- 30 -->
      <g transform="translate(219.040625 160.398438) scale(0.1 -0.1)">
       <defs>
        <path id="DejaVuSans-33" d="M 2597 2516 
Q 3050 2419 3304 2112 
Q 3559 1806 3559 1356 
Q 3559 666 3084 287 
Q 2609 -91 1734 -91 
Q 1441 -91 1130 -33 
Q 819 25 488 141 
L 488 750 
Q 750 597 1062 519 
Q 1375 441 1716 441 
Q 2309 441 2620 675 
Q 2931 909 2931 1356 
Q 2931 1769 2642 2001 
Q 2353 2234 1838 2234 
L 1294 2234 
L 1294 2753 
L 1863 2753 
Q 2328 2753 2575 2939 
Q 2822 3125 2822 3475 
Q 2822 3834 2567 4026 
Q 2313 4219 1838 4219 
Q 1578 4219 1281 4162 
Q 984 4106 628 3988 
L 628 4550 
Q 988 4650 1302 4700 
Q 1616 4750 1894 4750 
Q 2613 4750 3031 4423 
Q 3450 4097 3450 3541 
Q 3450 3153 3228 2886 
Q 3006 2619 2597 2516 
z
" transform="scale(0.015625)"/>
       </defs>
       <use xlink:href="#DejaVuSans-33"/>
       <use xlink:href="#DejaVuSans-30" x="63.623047"/>
      </g>
     </g>
    </g>
    <g id="text_8">
     <!-- epoch -->
     <g transform="translate(112.525 174.076563) scale(0.1 -0.1)">
      <defs>
       <path id="DejaVuSans-65" d="M 3597 1894 
L 3597 1613 
L 953 1613 
Q 991 1019 1311 708 
Q 1631 397 2203 397 
Q 2534 397 2845 478 
Q 3156 559 3463 722 
L 3463 178 
Q 3153 47 2828 -22 
Q 2503 -91 2169 -91 
Q 1331 -91 842 396 
Q 353 884 353 1716 
Q 353 2575 817 3079 
Q 1281 3584 2069 3584 
Q 2775 3584 3186 3129 
Q 3597 2675 3597 1894 
z
M 3022 2063 
Q 3016 2534 2758 2815 
Q 2500 3097 2075 3097 
Q 1594 3097 1305 2825 
Q 1016 2553 972 2059 
L 3022 2063 
z
" transform="scale(0.015625)"/>
       <path id="DejaVuSans-70" d="M 1159 525 
L 1159 -1331 
L 581 -1331 
L 581 3500 
L 1159 3500 
L 1159 2969 
Q 1341 3281 1617 3432 
Q 1894 3584 2278 3584 
Q 2916 3584 3314 3078 
Q 3713 2572 3713 1747 
Q 3713 922 3314 415 
Q 2916 -91 2278 -91 
Q 1894 -91 1617 61 
Q 1341 213 1159 525 
z
M 3116 1747 
Q 3116 2381 2855 2742 
Q 2594 3103 2138 3103 
Q 1681 3103 1420 2742 
Q 1159 2381 1159 1747 
Q 1159 1113 1420 752 
Q 1681 391 2138 391 
Q 2594 391 2855 752 
Q 3116 1113 3116 1747 
z
" transform="scale(0.015625)"/>
       <path id="DejaVuSans-6f" d="M 1959 3097 
Q 1497 3097 1228 2736 
Q 959 2375 959 1747 
Q 959 1119 1226 758 
Q 1494 397 1959 397 
Q 2419 397 2687 759 
Q 2956 1122 2956 1747 
Q 2956 2369 2687 2733 
Q 2419 3097 1959 3097 
z
M 1959 3584 
Q 2709 3584 3137 3096 
Q 3566 2609 3566 1747 
Q 3566 888 3137 398 
Q 2709 -91 1959 -91 
Q 1206 -91 779 398 
Q 353 888 353 1747 
Q 353 2609 779 3096 
Q 1206 3584 1959 3584 
z
" transform="scale(0.015625)"/>
       <path id="DejaVuSans-63" d="M 3122 3366 
L 3122 2828 
Q 2878 2963 2633 3030 
Q 2388 3097 2138 3097 
Q 1578 3097 1268 2742 
Q 959 2388 959 1747 
Q 959 1106 1268 751 
Q 1578 397 2138 397 
Q 2388 397 2633 464 
Q 2878 531 3122 666 
L 3122 134 
Q 2881 22 2623 -34 
Q 2366 -91 2075 -91 
Q 1284 -91 818 406 
Q 353 903 353 1747 
Q 353 2603 823 3093 
Q 1294 3584 2113 3584 
Q 2378 3584 2631 3529 
Q 2884 3475 3122 3366 
z
" transform="scale(0.015625)"/>
       <path id="DejaVuSans-68" d="M 3513 2113 
L 3513 0 
L 2938 0 
L 2938 2094 
Q 2938 2591 2744 2837 
Q 2550 3084 2163 3084 
Q 1697 3084 1428 2787 
Q 1159 2491 1159 1978 
L 1159 0 
L 581 0 
L 581 4863 
L 1159 4863 
L 1159 2956 
Q 1366 3272 1645 3428 
Q 1925 3584 2291 3584 
Q 2894 3584 3203 3211 
Q 3513 2838 3513 2113 
z
" transform="scale(0.015625)"/>
      </defs>
      <use xlink:href="#DejaVuSans-65"/>
      <use xlink:href="#DejaVuSans-70" x="61.523438"/>
      <use xlink:href="#DejaVuSans-6f" x="125"/>
      <use xlink:href="#DejaVuSans-63" x="186.181641"/>
      <use xlink:href="#DejaVuSans-68" x="241.162109"/>
     </g>
    </g>
   </g>
   <g id="matplotlib.axis_2">
    <g id="ytick_1">
     <g id="line2d_15">
      <path d="M 30.103125 120.479713 
L 225.403125 120.479713 
" clip-path="url(#p6d17624dfe)" style="fill: none; stroke: #b0b0b0; stroke-width: 0.8; stroke-linecap: square"/>
     </g>
     <g id="line2d_16">
      <defs>
       <path id="mcb2d01978e" d="M 0 0 
L -3.5 0 
" style="stroke: #000000; stroke-width: 0.8"/>
      </defs>
      <g>
       <use xlink:href="#mcb2d01978e" x="30.103125" y="120.479713" style="stroke: #000000; stroke-width: 0.8"/>
      </g>
     </g>
     <g id="text_9">
      <!-- 0.5 -->
      <g transform="translate(7.2 124.278932) scale(0.1 -0.1)">
       <defs>
        <path id="DejaVuSans-2e" d="M 684 794 
L 1344 794 
L 1344 0 
L 684 0 
L 684 794 
z
" transform="scale(0.015625)"/>
       </defs>
       <use xlink:href="#DejaVuSans-30"/>
       <use xlink:href="#DejaVuSans-2e" x="63.623047"/>
       <use xlink:href="#DejaVuSans-35" x="95.410156"/>
      </g>
     </g>
    </g>
    <g id="ytick_2">
     <g id="line2d_17">
      <path d="M 30.103125 90.408114 
L 225.403125 90.408114 
" clip-path="url(#p6d17624dfe)" style="fill: none; stroke: #b0b0b0; stroke-width: 0.8; stroke-linecap: square"/>
     </g>
     <g id="line2d_18">
      <g>
       <use xlink:href="#mcb2d01978e" x="30.103125" y="90.408114" style="stroke: #000000; stroke-width: 0.8"/>
      </g>
     </g>
     <g id="text_10">
      <!-- 1.0 -->
      <g transform="translate(7.2 94.207333) scale(0.1 -0.1)">
       <use xlink:href="#DejaVuSans-31"/>
       <use xlink:href="#DejaVuSans-2e" x="63.623047"/>
       <use xlink:href="#DejaVuSans-30" x="95.410156"/>
      </g>
     </g>
    </g>
    <g id="ytick_3">
     <g id="line2d_19">
      <path d="M 30.103125 60.336515 
L 225.403125 60.336515 
" clip-path="url(#p6d17624dfe)" style="fill: none; stroke: #b0b0b0; stroke-width: 0.8; stroke-linecap: square"/>
     </g>
     <g id="line2d_20">
      <g>
       <use xlink:href="#mcb2d01978e" x="30.103125" y="60.336515" style="stroke: #000000; stroke-width: 0.8"/>
      </g>
     </g>
     <g id="text_11">
      <!-- 1.5 -->
      <g transform="translate(7.2 64.135734) scale(0.1 -0.1)">
       <use xlink:href="#DejaVuSans-31"/>
       <use xlink:href="#DejaVuSans-2e" x="63.623047"/>
       <use xlink:href="#DejaVuSans-35" x="95.410156"/>
      </g>
     </g>
    </g>
    <g id="ytick_4">
     <g id="line2d_21">
      <path d="M 30.103125 30.264916 
L 225.403125 30.264916 
" clip-path="url(#p6d17624dfe)" style="fill: none; stroke: #b0b0b0; stroke-width: 0.8; stroke-linecap: square"/>
     </g>
     <g id="line2d_22">
      <g>
       <use xlink:href="#mcb2d01978e" x="30.103125" y="30.264916" style="stroke: #000000; stroke-width: 0.8"/>
      </g>
     </g>
     <g id="text_12">
      <!-- 2.0 -->
      <g transform="translate(7.2 34.064134) scale(0.1 -0.1)">
       <use xlink:href="#DejaVuSans-32"/>
       <use xlink:href="#DejaVuSans-2e" x="63.623047"/>
       <use xlink:href="#DejaVuSans-30" x="95.410156"/>
      </g>
     </g>
    </g>
   </g>
   <g id="line2d_23">
    <path d="M 31.460529 13.5 
L 32.845636 27.892822 
L 34.230742 45.636716 
L 35.615848 56.692048 
L 37.970529 95.749644 
L 39.355636 98.028518 
L 40.740742 99.21761 
L 42.125848 100.346348 
L 44.480529 104.531137 
L 45.865636 105.464819 
L 47.250742 105.978576 
L 48.635848 106.509222 
L 50.990529 108.5655 
L 52.375636 108.99213 
L 53.760742 109.255819 
L 55.145848 109.62277 
L 57.500529 110.803841 
L 58.885636 111.179692 
L 60.270742 111.361871 
L 61.655848 111.664709 
L 64.010529 112.513869 
L 65.395636 112.847366 
L 66.780742 112.967873 
L 68.165848 113.224137 
L 70.520529 113.921797 
L 71.905636 114.224968 
L 73.290742 114.307365 
L 74.675848 114.531045 
L 77.030529 115.131723 
L 78.415636 115.390204 
L 79.800742 115.442129 
L 81.185848 115.633752 
L 83.540529 116.129335 
L 84.925636 116.364306 
L 86.310742 116.401315 
L 87.695848 116.569048 
L 90.050529 116.999337 
L 91.435636 117.209381 
L 92.820742 117.239481 
L 94.205848 117.387827 
L 96.560529 117.766178 
L 97.945636 117.942971 
L 99.330742 117.968114 
L 100.715848 118.099722 
L 103.070529 118.45068 
L 104.455636 118.607737 
L 105.840742 118.625086 
L 107.225848 118.745642 
L 109.580529 119.057937 
L 110.965636 119.195813 
L 112.350742 119.209248 
L 113.735848 119.319806 
L 116.090529 119.60189 
L 117.475636 119.724261 
L 118.860742 119.732897 
L 120.245848 119.839778 
L 122.600529 120.097205 
L 123.985636 120.210384 
L 125.370742 120.210938 
L 126.755848 120.313487 
L 129.110529 120.552601 
L 130.495636 120.648092 
L 131.880742 120.649215 
L 133.265848 120.748513 
L 135.620529 120.974715 
L 137.005636 121.060073 
L 138.390742 121.061561 
L 139.775848 121.157459 
L 142.130529 121.36279 
L 143.515636 121.439728 
L 144.900742 121.442162 
L 146.285848 121.53626 
L 148.640529 121.727202 
L 150.025636 121.792402 
L 151.410742 121.793752 
L 152.795848 121.886531 
L 155.150529 122.055497 
L 156.535636 122.117125 
L 157.920742 122.121454 
L 159.305848 122.214274 
L 161.660529 122.378015 
L 163.045636 122.430085 
L 164.430742 122.434885 
L 165.815848 122.524905 
L 168.170529 122.669812 
L 169.555636 122.714825 
L 170.940742 122.727152 
L 172.325848 122.816622 
L 174.680529 122.955241 
L 176.065636 122.990801 
L 177.450742 123.003255 
L 178.835848 123.090153 
L 181.190529 123.223388 
L 182.575636 123.248672 
L 183.960742 123.260939 
L 185.345848 123.351234 
L 187.700529 123.47691 
L 189.085636 123.499973 
L 190.470742 123.511359 
L 191.855848 123.600499 
L 194.210529 123.713593 
L 195.595636 123.734559 
L 196.980742 123.745075 
L 198.365848 123.833925 
L 200.720529 123.938805 
L 202.105636 123.955528 
L 203.490742 123.963119 
L 204.875848 124.052807 
L 207.230529 124.151819 
L 208.615636 124.167575 
L 210.000742 124.174386 
L 211.385848 124.26516 
L 213.740529 124.355516 
L 215.125636 124.368922 
L 216.510742 124.375536 
L 217.895848 124.467113 
L 220.250529 124.550803 
L 221.635636 124.562205 
L 223.020742 124.566635 
L 224.405848 124.65863 
" clip-path="url(#p6d17624dfe)" style="fill: none; stroke: #1f77b4; stroke-width: 1.5; stroke-linecap: square"/>
   </g>
   <g id="line2d_24">
    <path d="M 31.460529 139.5 
L 32.845636 132.940632 
L 34.230742 127.792437 
L 35.615848 124.204598 
L 37.970529 110.372837 
L 39.355636 109.628095 
L 40.740742 109.212261 
L 42.125848 108.799951 
L 44.480529 106.980385 
L 45.865636 106.731354 
L 47.250742 106.557503 
L 48.635848 106.355459 
L 50.990529 105.425119 
L 52.375636 105.345241 
L 53.760742 105.287291 
L 55.145848 105.130276 
L 57.500529 104.621644 
L 58.885636 104.591102 
L 60.270742 104.521405 
L 61.655848 104.397281 
L 64.010529 103.935635 
L 65.395636 103.930937 
L 66.780742 103.896479 
L 68.165848 103.798199 
L 70.520529 103.320107 
L 71.905636 103.360046 
L 73.290742 103.329505 
L 74.675848 103.233181 
L 77.030529 102.817348 
L 78.415636 102.878431 
L 79.800742 102.850238 
L 81.185848 102.764487 
L 83.540529 102.319287 
L 84.925636 102.441453 
L 86.310742 102.385068 
L 87.695848 102.320461 
L 90.050529 102.009173 
L 91.435636 102.063208 
L 92.820742 102.023269 
L 94.205848 101.946916 
L 96.560529 101.595689 
L 97.945636 101.66382 
L 99.330742 101.648941 
L 100.715848 101.59334 
L 103.070529 101.294973 
L 104.455636 101.330213 
L 105.840742 101.318466 
L 107.225848 101.258558 
L 109.580529 101.022449 
L 110.965636 101.09058 
L 112.350742 101.107025 
L 113.735848 101.047117 
L 116.090529 100.886187 
L 117.475636 100.895584 
L 118.860742 100.906548 
L 120.245848 100.834502 
L 122.600529 100.717034 
L 123.985636 100.742877 
L 125.370742 100.74366 
L 126.755848 100.672397 
L 129.110529 100.4821 
L 130.495636 100.533786 
L 131.880742 100.54005 
L 133.265848 100.472703 
L 135.620529 100.388126 
L 137.005636 100.421017 
L 138.390742 100.402222 
L 139.775848 100.33879 
L 142.130529 100.261262 
L 143.515636 100.298851 
L 144.900742 100.27849 
L 146.285848 100.203703 
L 148.640529 100.181384 
L 150.025636 100.186083 
L 151.410742 100.164155 
L 152.795848 100.079188 
L 155.150529 100.01693 
L 156.535636 100.040423 
L 157.920742 100.02946 
L 159.305848 99.941751 
L 161.660529 99.955847 
L 163.045636 99.965244 
L 164.430742 99.94645 
L 165.815848 99.853651 
L 168.170529 99.894764 
L 169.555636 99.904161 
L 170.940742 99.882234 
L 172.325848 99.78552 
L 174.680529 99.716214 
L 176.065636 99.767899 
L 177.450742 99.756936 
L 178.835848 99.679799 
L 181.190529 99.631638 
L 182.575636 99.678624 
L 183.960742 99.677058 
L 185.345848 99.594048 
L 187.700529 99.556459 
L 189.085636 99.617541 
L 190.470742 99.630071 
L 191.855848 99.530616 
L 194.210529 99.448389 
L 195.595636 99.535314 
L 196.980742 99.547061 
L 198.365848 99.451913 
L 200.720529 99.33562 
L 202.105636 99.448389 
L 203.490742 99.465617 
L 204.875848 99.375559 
L 207.230529 99.283935 
L 208.615636 99.392004 
L 210.000742 99.392004 
L 211.385848 99.292157 
L 213.740529 99.19466 
L 215.125636 99.288633 
L 216.510742 99.283935 
L 217.895848 99.204057 
L 220.250529 99.095987 
L 221.635636 99.222852 
L 223.020742 99.216587 
L 224.405848 99.144149 
" clip-path="url(#p6d17624dfe)" style="fill: none; stroke-dasharray: 5.55,2.4; stroke-dashoffset: 0; stroke: #bf00bf; stroke-width: 1.5"/>
   </g>
   <g id="line2d_25">
    <path d="M 36.613125 112.348353 
L 43.123125 108.547303 
L 49.633125 106.58062 
L 56.143125 105.666444 
L 62.653125 105.046969 
L 69.163125 104.493651 
L 75.673125 104.072649 
L 82.183125 103.651647 
L 88.693125 103.260716 
L 95.203125 102.935942 
L 101.713125 102.623198 
L 108.223125 102.304439 
L 114.733125 102.093938 
L 121.243125 101.907494 
L 127.753125 101.715036 
L 134.263125 101.480477 
L 140.773125 101.366205 
L 147.283125 101.197804 
L 153.793125 101.029403 
L 160.303125 100.891074 
L 166.813125 100.78883 
L 173.323125 100.70463 
L 179.833125 100.596372 
L 186.343125 100.560286 
L 192.853125 100.488114 
L 199.363125 100.427971 
L 205.873125 100.355799 
L 212.383125 100.30167 
L 218.893125 100.169355 
L 225.403125 100.091169 
" clip-path="url(#p6d17624dfe)" style="fill: none; stroke-dasharray: 9.6,2.4,1.5,2.4; stroke-dashoffset: 0; stroke: #008000; stroke-width: 1.5"/>
   </g>
   <g id="patch_3">
    <path d="M 30.103125 145.8 
L 30.103125 7.2 
" style="fill: none; stroke: #000000; stroke-width: 0.8; stroke-linejoin: miter; stroke-linecap: square"/>
   </g>
   <g id="patch_4">
    <path d="M 225.403125 145.8 
L 225.403125 7.2 
" style="fill: none; stroke: #000000; stroke-width: 0.8; stroke-linejoin: miter; stroke-linecap: square"/>
   </g>
   <g id="patch_5">
    <path d="M 30.103125 145.8 
L 225.403125 145.8 
" style="fill: none; stroke: #000000; stroke-width: 0.8; stroke-linejoin: miter; stroke-linecap: square"/>
   </g>
   <g id="patch_6">
    <path d="M 30.103125 7.2 
L 225.403125 7.2 
" style="fill: none; stroke: #000000; stroke-width: 0.8; stroke-linejoin: miter; stroke-linecap: square"/>
   </g>
   <g id="legend_1">
    <g id="patch_7">
     <path d="M 140.634375 59.234375 
L 218.403125 59.234375 
Q 220.403125 59.234375 220.403125 57.234375 
L 220.403125 14.2 
Q 220.403125 12.2 218.403125 12.2 
L 140.634375 12.2 
Q 138.634375 12.2 138.634375 14.2 
L 138.634375 57.234375 
Q 138.634375 59.234375 140.634375 59.234375 
z
" style="fill: #ffffff; opacity: 0.8; stroke: #cccccc; stroke-linejoin: miter"/>
    </g>
    <g id="line2d_26">
     <path d="M 142.634375 20.298438 
L 152.634375 20.298438 
L 162.634375 20.298438 
" style="fill: none; stroke: #1f77b4; stroke-width: 1.5; stroke-linecap: square"/>
    </g>
    <g id="text_13">
     <!-- train loss -->
     <g transform="translate(170.634375 23.798438) scale(0.1 -0.1)">
      <defs>
       <path id="DejaVuSans-74" d="M 1172 4494 
L 1172 3500 
L 2356 3500 
L 2356 3053 
L 1172 3053 
L 1172 1153 
Q 1172 725 1289 603 
Q 1406 481 1766 481 
L 2356 481 
L 2356 0 
L 1766 0 
Q 1100 0 847 248 
Q 594 497 594 1153 
L 594 3053 
L 172 3053 
L 172 3500 
L 594 3500 
L 594 4494 
L 1172 4494 
z
" transform="scale(0.015625)"/>
       <path id="DejaVuSans-72" d="M 2631 2963 
Q 2534 3019 2420 3045 
Q 2306 3072 2169 3072 
Q 1681 3072 1420 2755 
Q 1159 2438 1159 1844 
L 1159 0 
L 581 0 
L 581 3500 
L 1159 3500 
L 1159 2956 
Q 1341 3275 1631 3429 
Q 1922 3584 2338 3584 
Q 2397 3584 2469 3576 
Q 2541 3569 2628 3553 
L 2631 2963 
z
" transform="scale(0.015625)"/>
       <path id="DejaVuSans-61" d="M 2194 1759 
Q 1497 1759 1228 1600 
Q 959 1441 959 1056 
Q 959 750 1161 570 
Q 1363 391 1709 391 
Q 2188 391 2477 730 
Q 2766 1069 2766 1631 
L 2766 1759 
L 2194 1759 
z
M 3341 1997 
L 3341 0 
L 2766 0 
L 2766 531 
Q 2569 213 2275 61 
Q 1981 -91 1556 -91 
Q 1019 -91 701 211 
Q 384 513 384 1019 
Q 384 1609 779 1909 
Q 1175 2209 1959 2209 
L 2766 2209 
L 2766 2266 
Q 2766 2663 2505 2880 
Q 2244 3097 1772 3097 
Q 1472 3097 1187 3025 
Q 903 2953 641 2809 
L 641 3341 
Q 956 3463 1253 3523 
Q 1550 3584 1831 3584 
Q 2591 3584 2966 3190 
Q 3341 2797 3341 1997 
z
" transform="scale(0.015625)"/>
       <path id="DejaVuSans-69" d="M 603 3500 
L 1178 3500 
L 1178 0 
L 603 0 
L 603 3500 
z
M 603 4863 
L 1178 4863 
L 1178 4134 
L 603 4134 
L 603 4863 
z
" transform="scale(0.015625)"/>
       <path id="DejaVuSans-6e" d="M 3513 2113 
L 3513 0 
L 2938 0 
L 2938 2094 
Q 2938 2591 2744 2837 
Q 2550 3084 2163 3084 
Q 1697 3084 1428 2787 
Q 1159 2491 1159 1978 
L 1159 0 
L 581 0 
L 581 3500 
L 1159 3500 
L 1159 2956 
Q 1366 3272 1645 3428 
Q 1925 3584 2291 3584 
Q 2894 3584 3203 3211 
Q 3513 2838 3513 2113 
z
" transform="scale(0.015625)"/>
       <path id="DejaVuSans-20" transform="scale(0.015625)"/>
       <path id="DejaVuSans-6c" d="M 603 4863 
L 1178 4863 
L 1178 0 
L 603 0 
L 603 4863 
z
" transform="scale(0.015625)"/>
       <path id="DejaVuSans-73" d="M 2834 3397 
L 2834 2853 
Q 2591 2978 2328 3040 
Q 2066 3103 1784 3103 
Q 1356 3103 1142 2972 
Q 928 2841 928 2578 
Q 928 2378 1081 2264 
Q 1234 2150 1697 2047 
L 1894 2003 
Q 2506 1872 2764 1633 
Q 3022 1394 3022 966 
Q 3022 478 2636 193 
Q 2250 -91 1575 -91 
Q 1294 -91 989 -36 
Q 684 19 347 128 
L 347 722 
Q 666 556 975 473 
Q 1284 391 1588 391 
Q 1994 391 2212 530 
Q 2431 669 2431 922 
Q 2431 1156 2273 1281 
Q 2116 1406 1581 1522 
L 1381 1569 
Q 847 1681 609 1914 
Q 372 2147 372 2553 
Q 372 3047 722 3315 
Q 1072 3584 1716 3584 
Q 2034 3584 2315 3537 
Q 2597 3491 2834 3397 
z
" transform="scale(0.015625)"/>
      </defs>
      <use xlink:href="#DejaVuSans-74"/>
      <use xlink:href="#DejaVuSans-72" x="39.208984"/>
      <use xlink:href="#DejaVuSans-61" x="80.322266"/>
      <use xlink:href="#DejaVuSans-69" x="141.601562"/>
      <use xlink:href="#DejaVuSans-6e" x="169.384766"/>
      <use xlink:href="#DejaVuSans-20" x="232.763672"/>
      <use xlink:href="#DejaVuSans-6c" x="264.550781"/>
      <use xlink:href="#DejaVuSans-6f" x="292.333984"/>
      <use xlink:href="#DejaVuSans-73" x="353.515625"/>
      <use xlink:href="#DejaVuSans-73" x="405.615234"/>
     </g>
    </g>
    <g id="line2d_27">
     <path d="M 142.634375 34.976563 
L 152.634375 34.976563 
L 162.634375 34.976563 
" style="fill: none; stroke-dasharray: 5.55,2.4; stroke-dashoffset: 0; stroke: #bf00bf; stroke-width: 1.5"/>
    </g>
    <g id="text_14">
     <!-- train acc -->
     <g transform="translate(170.634375 38.476563) scale(0.1 -0.1)">
      <use xlink:href="#DejaVuSans-74"/>
      <use xlink:href="#DejaVuSans-72" x="39.208984"/>
      <use xlink:href="#DejaVuSans-61" x="80.322266"/>
      <use xlink:href="#DejaVuSans-69" x="141.601562"/>
      <use xlink:href="#DejaVuSans-6e" x="169.384766"/>
      <use xlink:href="#DejaVuSans-20" x="232.763672"/>
      <use xlink:href="#DejaVuSans-61" x="264.550781"/>
      <use xlink:href="#DejaVuSans-63" x="325.830078"/>
      <use xlink:href="#DejaVuSans-63" x="380.810547"/>
     </g>
    </g>
    <g id="line2d_28">
     <path d="M 142.634375 49.654688 
L 152.634375 49.654688 
L 162.634375 49.654688 
" style="fill: none; stroke-dasharray: 9.6,2.4,1.5,2.4; stroke-dashoffset: 0; stroke: #008000; stroke-width: 1.5"/>
    </g>
    <g id="text_15">
     <!-- test acc -->
     <g transform="translate(170.634375 53.154688) scale(0.1 -0.1)">
      <use xlink:href="#DejaVuSans-74"/>
      <use xlink:href="#DejaVuSans-65" x="39.208984"/>
      <use xlink:href="#DejaVuSans-73" x="100.732422"/>
      <use xlink:href="#DejaVuSans-74" x="152.832031"/>
      <use xlink:href="#DejaVuSans-20" x="192.041016"/>
      <use xlink:href="#DejaVuSans-61" x="223.828125"/>
      <use xlink:href="#DejaVuSans-63" x="285.107422"/>
      <use xlink:href="#DejaVuSans-63" x="340.087891"/>
     </g>
    </g>
   </g>
  </g>
 </g>
 <defs>
  <clipPath id="p6d17624dfe">
   <rect x="30.103125" y="7.2" width="195.3" height="138.6"/>
  </clipPath>
 </defs>
</svg>
