<?xml version="1.0" encoding="utf-8" standalone="no"?>
<!DOCTYPE svg PUBLIC "-//W3C//DTD SVG 1.1//EN"
  "http://www.w3.org/Graphics/SVG/1.1/DTD/svg11.dtd">
<svg xmlns:xlink="http://www.w3.org/1999/xlink" width="169.715408pt" height="168.910565pt" viewBox="0 0 169.715408 168.910565" xmlns="http://www.w3.org/2000/svg" version="1.1">
 <metadata>
  <rdf:RDF xmlns:dc="http://purl.org/dc/elements/1.1/" xmlns:cc="http://creativecommons.org/ns#" xmlns:rdf="http://www.w3.org/1999/02/22-rdf-syntax-ns#">
   <cc:Work>
    <dc:type rdf:resource="http://purl.org/dc/dcmitype/StillImage"/>
    <dc:date>2025-08-11T14:11:40.876487</dc:date>
    <dc:format>image/svg+xml</dc:format>
    <dc:creator>
     <cc:Agent>
      <dc:title>Matplotlib v3.7.2, https://matplotlib.org/</dc:title>
     </cc:Agent>
    </dc:creator>
   </cc:Work>
  </rdf:RDF>
 </metadata>
 <defs>
  <style type="text/css">*{stroke-linejoin: round; stroke-linecap: butt}</style>
 </defs>
 <g id="figure_1">
  <g id="patch_1">
   <path d="M 0 168.910565 
L 169.715408 168.910565 
L 169.715408 0 
L 0 0 
z
" style="fill: #ffffff"/>
  </g>
  <g id="patch_2">
   <path d="M 7.2 145.8 
L 145.8 145.8 
L 145.8 7.2 
L 7.2 7.2 
z
" style="fill: #ffffff"/>
  </g>
  <g id="pane3d_1">
   <g id="patch_3">
    <path d="M 17.665256 111.625682 
L 63.435502 73.260154 
L 62.799252 17.930204 
L 14.838663 52.929657 
" style="fill: #f2f2f2; opacity: 0.5; stroke: #f2f2f2; stroke-linejoin: miter"/>
   </g>
  </g>
  <g id="pane3d_2">
   <g id="patch_4">
    <path d="M 63.435502 73.260154 
L 136.880417 94.607691 
L 139.501407 37.371964 
L 62.799252 17.930204 
" style="fill: #e6e6e6; opacity: 0.5; stroke: #e6e6e6; stroke-linejoin: miter"/>
   </g>
  </g>
  <g id="pane3d_3">
   <g id="patch_5">
    <path d="M 17.665256 111.625682 
L 95.520453 137.053189 
L 136.880417 94.607691 
L 63.435502 73.260154 
" style="fill: #ececec; opacity: 0.5; stroke: #ececec; stroke-linejoin: miter"/>
   </g>
  </g>
  <g id="axis3d_1">
   <g id="line2d_1">
    <path d="M 17.665256 111.625682 
L 95.520453 137.053189 
" style="fill: none; stroke: #000000; stroke-width: 0.8; stroke-linecap: square"/>
   </g>
   <g id="text_1">
    <!-- x -->
    <g transform="translate(36.190346 162.307234) scale(0.1 -0.1)">
     <defs>
      <path id="DejaVuSans-78" d="M 3513 3500 
L 2247 1797 
L 3578 0 
L 2900 0 
L 1881 1375 
L 863 0 
L 184 0 
L 1544 1831 
L 300 3500 
L 978 3500 
L 1906 2253 
L 2834 3500 
L 3513 3500 
z
" transform="scale(0.015625)"/>
     </defs>
     <use xlink:href="#DejaVuSans-78"/>
    </g>
   </g>
   <g id="Line3DCollection_1">
    <path d="M 22.380575 113.165705 
L 67.902197 74.558445 
L 67.454802 19.11025 
" style="fill: none; stroke: #b0b0b0; stroke-width: 0.8"/>
    <path d="M 55.566605 124.004262 
L 99.270858 83.676077 
L 100.18343 27.406003 
" style="fill: none; stroke: #b0b0b0; stroke-width: 0.8"/>
    <path d="M 90.315667 135.353306 
L 131.990658 93.186431 
L 134.384718 36.075033 
" style="fill: none; stroke: #b0b0b0; stroke-width: 0.8"/>
   </g>
   <g id="xtick_1">
    <g id="line2d_2">
     <path d="M 22.776975 112.829515 
L 21.586075 113.839527 
" style="fill: none; stroke: #000000; stroke-width: 0.8; stroke-linecap: square"/>
    </g>
    <g id="text_2">
     <!-- −1 -->
     <g transform="translate(7.454595 136.528767) scale(0.1 -0.1)">
      <defs>
       <path id="DejaVuSans-2212" d="M 678 2272 
L 4684 2272 
L 4684 1741 
L 678 1741 
L 678 2272 
z
" transform="scale(0.015625)"/>
       <path id="DejaVuSans-31" d="M 794 531 
L 1825 531 
L 1825 4091 
L 703 3866 
L 703 4441 
L 1819 4666 
L 2450 4666 
L 2450 531 
L 3481 531 
L 3481 0 
L 794 0 
L 794 531 
z
" transform="scale(0.015625)"/>
      </defs>
      <use xlink:href="#DejaVuSans-2212"/>
      <use xlink:href="#DejaVuSans-31" x="83.789062"/>
     </g>
    </g>
   </g>
   <g id="xtick_2">
    <g id="line2d_3">
     <path d="M 55.94789 123.65243 
L 54.80236 124.709471 
" style="fill: none; stroke: #000000; stroke-width: 0.8; stroke-linecap: square"/>
    </g>
    <g id="text_3">
     <!-- 0 -->
     <g transform="translate(44.898548 147.812111) scale(0.1 -0.1)">
      <defs>
       <path id="DejaVuSans-30" d="M 2034 4250 
Q 1547 4250 1301 3770 
Q 1056 3291 1056 2328 
Q 1056 1369 1301 889 
Q 1547 409 2034 409 
Q 2525 409 2770 889 
Q 3016 1369 3016 2328 
Q 3016 3291 2770 3770 
Q 2525 4250 2034 4250 
z
M 2034 4750 
Q 2819 4750 3233 4129 
Q 3647 3509 3647 2328 
Q 3647 1150 3233 529 
Q 2819 -91 2034 -91 
Q 1250 -91 836 529 
Q 422 1150 422 2328 
Q 422 3509 836 4129 
Q 1250 4750 2034 4750 
z
" transform="scale(0.015625)"/>
      </defs>
      <use xlink:href="#DejaVuSans-30"/>
     </g>
    </g>
   </g>
   <g id="xtick_3">
    <g id="line2d_4">
     <path d="M 90.679959 134.984714 
L 89.585446 136.092146 
" style="fill: none; stroke: #000000; stroke-width: 0.8; stroke-linecap: square"/>
    </g>
    <g id="text_4">
     <!-- 1 -->
     <g transform="translate(79.730646 159.630877) scale(0.1 -0.1)">
      <use xlink:href="#DejaVuSans-31"/>
     </g>
    </g>
   </g>
  </g>
  <g id="axis3d_2">
   <g id="line2d_5">
    <path d="M 136.880417 94.607691 
L 95.520453 137.053189 
" style="fill: none; stroke: #000000; stroke-width: 0.8; stroke-linecap: square"/>
   </g>
   <g id="text_5">
    <!-- y -->
    <g transform="translate(141.167797 145.683654) scale(0.1 -0.1)">
     <defs>
      <path id="DejaVuSans-79" d="M 2059 -325 
Q 1816 -950 1584 -1140 
Q 1353 -1331 966 -1331 
L 506 -1331 
L 506 -850 
L 844 -850 
Q 1081 -850 1212 -737 
Q 1344 -625 1503 -206 
L 1606 56 
L 191 3500 
L 800 3500 
L 1894 763 
L 2988 3500 
L 3597 3500 
L 2059 -325 
z
" transform="scale(0.015625)"/>
     </defs>
     <use xlink:href="#DejaVuSans-79"/>
    </g>
   </g>
   <g id="Line3DCollection_2">
    <path d="M 18.155257 50.509358 
L 20.819213 108.981973 
L 98.382242 134.116289 
" style="fill: none; stroke: #b0b0b0; stroke-width: 0.8"/>
    <path d="M 39.885822 34.651381 
L 41.525154 91.625842 
L 117.126847 114.879713 
" style="fill: none; stroke: #b0b0b0; stroke-width: 0.8"/>
    <path d="M 59.991995 19.978812 
L 60.746858 75.513829 
L 134.460919 97.090691 
" style="fill: none; stroke: #b0b0b0; stroke-width: 0.8"/>
   </g>
   <g id="xtick_4">
    <g id="line2d_6">
     <path d="M 97.728616 133.904481 
L 99.691184 134.540452 
" style="fill: none; stroke: #000000; stroke-width: 0.8; stroke-linecap: square"/>
    </g>
    <g id="text_6">
     <!-- −1 -->
     <g transform="translate(103.898882 155.145417) scale(0.1 -0.1)">
      <use xlink:href="#DejaVuSans-2212"/>
      <use xlink:href="#DejaVuSans-31" x="83.789062"/>
     </g>
    </g>
   </g>
   <g id="xtick_5">
    <g id="line2d_7">
     <path d="M 116.491011 114.68414 
L 118.400099 115.271345 
" style="fill: none; stroke: #000000; stroke-width: 0.8; stroke-linecap: square"/>
    </g>
    <g id="text_7">
     <!-- 0 -->
     <g transform="translate(126.349632 135.361913) scale(0.1 -0.1)">
      <use xlink:href="#DejaVuSans-30"/>
     </g>
    </g>
   </g>
   <g id="xtick_6">
    <g id="line2d_8">
     <path d="M 133.842096 96.909555 
L 135.700045 97.453396 
" style="fill: none; stroke: #000000; stroke-width: 0.8; stroke-linecap: square"/>
    </g>
    <g id="text_8">
     <!-- 1 -->
     <g transform="translate(143.234942 117.068702) scale(0.1 -0.1)">
      <use xlink:href="#DejaVuSans-31"/>
     </g>
    </g>
   </g>
  </g>
  <g id="axis3d_3">
   <g id="line2d_9">
    <path d="M 136.880417 94.607691 
L 139.501407 37.371964 
" style="fill: none; stroke: #000000; stroke-width: 0.8; stroke-linecap: square"/>
   </g>
   <g id="Line3DCollection_3">
    <path d="M 136.930632 93.511118 
L 63.423287 72.197896 
L 17.611191 110.502989 
" style="fill: none; stroke: #b0b0b0; stroke-width: 0.8"/>
    <path d="M 138.162202 66.616789 
L 63.124011 46.172077 
L 16.284113 82.945357 
" style="fill: none; stroke: #b0b0b0; stroke-width: 0.8"/>
    <path d="M 139.446688 38.566888 
L 62.812508 19.082955 
L 14.897772 54.157093 
" style="fill: none; stroke: #b0b0b0; stroke-width: 0.8"/>
   </g>
   <g id="xtick_7">
    <g id="line2d_10">
     <path d="M 136.313678 93.332234 
L 138.166009 93.869311 
" style="fill: none; stroke: #000000; stroke-width: 0.8; stroke-linecap: square"/>
    </g>
    <g id="text_9">
     <!-- −1 -->
     <g transform="translate(147.773221 98.515807) scale(0.1 -0.1)">
      <use xlink:href="#DejaVuSans-2212"/>
      <use xlink:href="#DejaVuSans-31" x="83.789062"/>
     </g>
    </g>
   </g>
   <g id="xtick_8">
    <g id="line2d_11">
     <path d="M 137.531779 66.445026 
L 139.424579 66.960733 
" style="fill: none; stroke: #000000; stroke-width: 0.8; stroke-linecap: square"/>
    </g>
    <g id="text_10">
     <!-- 0 -->
     <g transform="translate(153.568228 71.725004) scale(0.1 -0.1)">
      <use xlink:href="#DejaVuSans-30"/>
     </g>
    </g>
   </g>
   <g id="xtick_9">
    <g id="line2d_12">
     <path d="M 138.802197 38.403029 
L 140.737271 38.895014 
" style="fill: none; stroke: #000000; stroke-width: 0.8; stroke-linecap: square"/>
    </g>
    <g id="text_11">
     <!-- 1 -->
     <g transform="translate(155.241948 43.789973) scale(0.1 -0.1)">
      <use xlink:href="#DejaVuSans-31"/>
     </g>
    </g>
   </g>
  </g>
  <g id="axes_1">
   <g id="line2d_13">
    <defs>
     <path id="ma3eb27151d" d="M -3 3 
L 3 -3 
M -3 -3 
L 3 3 
" style="stroke: #ff0000"/>
    </defs>
    <g clip-path="url(#paf1a436900)">
     <use xlink:href="#ma3eb27151d" x="78.372973" y="74.627027" style="fill: #ff0000; stroke: #ff0000"/>
    </g>
   </g>
   <g id="Line3DCollection_4">
    <path d="M 24.318635 81.868935 
L 25.025641 83.18289 
L 25.731157 84.473353 
L 26.435223 85.740417 
L 27.13788 86.984182 
L 27.839158 88.204727 
L 28.5391 89.40214 
L 29.237744 90.576511 
L 29.935126 91.727918 
L 30.631289 92.85645 
L 31.326261 93.962169 
L 32.020084 95.045156 
L 32.712795 96.105485 
L 33.40443 97.143225 
L 34.095027 98.158442 
L 34.784621 99.151202 
L 35.473248 100.121566 
L 36.160951 101.069603 
L 36.847755 101.995358 
L 37.533702 102.89889 
L 38.218828 103.780253 
L 38.903167 104.639499 
L 39.586761 105.476681 
L 40.269636 106.291836 
L 40.951833 107.085012 
L 41.633386 107.856249 
L 42.314331 108.60559 
L 42.994704 109.333068 
L 43.67454 110.03872 
L 44.353874 110.722579 
L 45.032744 111.384675 
L 45.711179 112.025033 
L 46.389219 112.643682 
L 47.0669 113.240647 
L 47.744252 113.815943 
L 48.421313 114.369592 
L 49.09812 114.901613 
L 49.774705 115.412017 
L 50.451104 115.900818 
L 51.127353 116.368028 
L 51.803488 116.813651 
L 52.479541 117.237696 
L 53.15555 117.640163 
L 53.831552 118.021057 
L 54.507577 118.380372 
L 55.183663 118.718108 
L 55.859848 119.034258 
L 56.536162 119.328813 
L 57.212644 119.601764 
L 57.88933 119.853099 
L 58.566253 120.082803 
L 59.243451 120.290857 
L 59.920959 120.477244 
L 60.598813 120.641939 
L 61.277054 120.784923 
L 61.955709 120.906165 
L 62.634819 121.005638 
L 63.314421 121.083311 
L 63.99455 121.13915 
L 64.675244 121.173121 
L 65.356544 121.185183 
L 66.038478 121.175298 
L 66.721087 121.14342 
L 67.40441 121.089506 
L 68.088483 121.013509 
L 68.773344 120.915375 
L 69.459036 120.795054 
L 70.145587 120.65249 
L 70.833041 120.487625 
L 71.521436 120.300398 
L 72.210811 120.090747 
L 72.901205 119.858607 
L 73.59266 119.603906 
L 74.285209 119.326579 
L 74.978895 119.026549 
L 75.673757 118.703739 
L 76.369837 118.358075 
L 77.067175 117.98947 
L 77.765811 117.597842 
L 78.46579 117.183102 
L 79.167147 116.745165 
L 79.869926 116.283935 
L 80.574169 115.799318 
L 81.279919 115.291211 
L 81.987219 114.759518 
L 82.696116 114.204129 
L 83.406645 113.624942 
L 84.118853 113.021846 
L 84.832785 112.394726 
L 85.548485 111.743465 
L 86.265999 111.067944 
L 86.985375 110.368035 
L 87.706652 109.643621 
L 88.429879 108.89457 
L 89.155103 108.120745 
L 89.882371 107.322013 
L 90.611731 106.498232 
L 91.343235 105.649258 
L 92.076922 104.774952 
L 92.812847 103.875156 
L 93.551058 102.94972 
" clip-path="url(#paf1a436900)" style="fill: none; stroke: #1f77b4; stroke-width: 1.5"/>
    <path d="M 28.279657 68.264611 
L 28.985002 69.583974 
L 29.688928 70.879606 
L 30.391473 72.151599 
L 31.09268 73.400056 
L 31.792578 74.625055 
L 32.49121 75.826686 
L 33.188612 77.005037 
L 33.884823 78.160187 
L 34.579884 79.292227 
L 35.273823 80.401218 
L 35.966683 81.487242 
L 36.658499 82.550373 
L 37.349308 83.590679 
L 38.039148 84.608229 
L 38.728054 85.603087 
L 39.416062 86.575318 
L 40.103214 87.524984 
L 40.789537 88.452136 
L 41.47507 89.356832 
L 42.15985 90.239126 
L 42.843913 91.099069 
L 43.527299 91.936715 
L 44.210034 92.752101 
L 44.892159 93.545274 
L 45.573709 94.316276 
L 46.25472 95.065147 
L 46.935228 95.791925 
L 47.615265 96.496643 
L 48.29487 97.179333 
L 48.974079 97.840028 
L 49.652922 98.47875 
L 50.331438 99.09553 
L 51.009664 99.690392 
L 51.687629 100.263351 
L 52.365373 100.814428 
L 53.04293 101.343643 
L 53.720335 101.851005 
L 54.397623 102.336531 
L 55.074829 102.800228 
L 55.751991 103.242103 
L 56.429141 103.662163 
L 57.106315 104.060409 
L 57.783552 104.436844 
L 58.460881 104.791463 
L 59.138341 105.124264 
L 59.815971 105.435241 
L 60.493799 105.724383 
L 61.171865 105.991682 
L 61.850206 106.237124 
L 62.528854 106.460694 
L 63.207848 106.662372 
L 63.887223 106.842142 
L 64.567016 106.999976 
L 65.247266 107.135855 
L 65.928002 107.249748 
L 66.609265 107.341626 
L 67.291091 107.411459 
L 67.973518 107.459209 
L 68.656581 107.484846 
L 69.340323 107.488323 
L 70.024772 107.469604 
L 70.70997 107.428642 
L 71.395954 107.365393 
L 72.082763 107.279807 
L 72.770434 107.171831 
L 73.45901 107.041414 
L 74.148521 106.888498 
L 74.839009 106.713023 
L 75.530514 106.514929 
L 76.223074 106.294153 
L 76.916729 106.050625 
L 77.611522 105.784277 
L 78.307485 105.495038 
L 79.004663 105.182832 
L 79.703095 104.847583 
L 80.402822 104.489209 
L 81.103885 104.107629 
L 81.806326 103.702755 
L 82.510189 103.274497 
L 83.215509 102.82277 
L 83.922331 102.347476 
L 84.630699 101.848517 
L 85.340654 101.325793 
L 86.052241 100.779203 
L 86.765506 100.208636 
L 87.480486 99.613989 
L 88.197228 98.995148 
L 88.915778 98.351997 
L 89.63618 97.684417 
L 90.35848 96.992288 
L 91.082728 96.275478 
L 91.808962 95.53387 
L 92.537233 94.767328 
L 93.267587 93.975715 
L 94.000073 93.158896 
L 94.734739 92.316724 
L 95.471638 91.449056 
L 96.21081 90.555749 
L 96.952309 89.636645 
L 97.696185 88.691588 
" clip-path="url(#paf1a436900)" style="fill: none; stroke: #1f77b4; stroke-width: 1.5"/>
    <path d="M 32.320305 56.954651 
L 33.022734 58.27619 
L 33.723818 59.573841 
L 34.423597 60.847698 
L 35.122112 62.097867 
L 35.819392 63.324421 
L 36.515479 64.527452 
L 37.210411 65.707049 
L 37.904225 66.863291 
L 38.596962 67.996268 
L 39.28865 69.106041 
L 39.979331 70.192692 
L 40.669041 71.256296 
L 41.357817 72.296921 
L 42.045695 73.314634 
L 42.73271 74.309502 
L 43.4189 75.281587 
L 44.104305 76.230954 
L 44.788951 77.15765 
L 45.47288 78.061737 
L 46.156126 78.943266 
L 46.838726 79.802289 
L 47.520718 80.638861 
L 48.202131 81.453017 
L 48.883004 82.244804 
L 49.563372 83.014266 
L 50.24327 83.761441 
L 50.922735 84.486366 
L 51.601801 85.189075 
L 52.280502 85.8696 
L 52.958878 86.527975 
L 53.636957 87.16422 
L 54.314778 87.778365 
L 54.992379 88.370434 
L 55.669789 88.940444 
L 56.347046 89.488416 
L 57.024186 90.014365 
L 57.701242 90.518306 
L 58.378251 91.00025 
L 59.055248 91.460206 
L 59.732268 91.898183 
L 60.409346 92.314183 
L 61.086517 92.708211 
L 61.76382 93.080267 
L 62.441285 93.430346 
L 63.118949 93.758447 
L 63.796852 94.064562 
L 64.475022 94.348681 
L 65.1535 94.610794 
L 65.83232 94.850887 
L 66.511519 95.068944 
L 67.191131 95.264948 
L 67.871195 95.438876 
L 68.551745 95.590707 
L 69.232822 95.720416 
L 69.914455 95.827975 
L 70.596685 95.913351 
L 71.279547 95.976515 
L 71.963079 96.017432 
L 72.647319 96.036063 
L 73.332307 96.032369 
L 74.018072 96.006308 
L 74.704657 95.957836 
L 75.392098 95.886905 
L 76.080435 95.793465 
L 76.769705 95.677467 
L 77.45995 95.538851 
L 78.151202 95.377564 
L 78.843502 95.193547 
L 79.53689 94.986734 
L 80.231406 94.757063 
L 80.927088 94.504465 
L 81.623981 94.228869 
L 82.322116 93.930205 
L 83.021538 93.608396 
L 83.722287 93.263363 
L 84.424405 92.895026 
L 85.127931 92.503301 
L 85.832909 92.0881 
L 86.539384 91.649333 
L 87.247389 91.186912 
L 87.956971 90.700739 
L 88.668173 90.190716 
L 89.381037 89.656741 
L 90.095609 89.098712 
L 90.811934 88.516516 
L 91.53005 87.910052 
L 92.250005 87.279203 
L 92.971844 86.623851 
L 93.695613 85.943878 
L 94.421357 85.239161 
L 95.149126 84.509568 
L 95.878959 83.75498 
L 96.610908 82.975261 
L 97.34502 82.170272 
L 98.081342 81.339876 
L 98.819925 80.483928 
L 99.56082 79.602279 
L 100.304069 78.69479 
L 101.049726 77.761296 
L 101.797842 76.801644 
" clip-path="url(#paf1a436900)" style="fill: none; stroke: #1f77b4; stroke-width: 1.5"/>
    <path d="M 36.419139 47.985381 
L 37.117426 49.30585 
L 37.814448 50.602362 
L 38.510242 51.875011 
L 39.204851 53.123899 
L 39.898303 54.349102 
L 40.590639 55.550711 
L 41.281897 56.728815 
L 41.972113 57.883491 
L 42.661329 59.014831 
L 43.349571 60.122894 
L 44.036882 61.207762 
L 44.723296 62.269511 
L 45.408851 63.308207 
L 46.093582 64.323918 
L 46.777525 65.316709 
L 47.460716 66.286644 
L 48.143195 67.233786 
L 48.824989 68.158183 
L 49.506137 69.059895 
L 50.186676 69.938975 
L 50.866641 70.795473 
L 51.54607 71.629443 
L 52.224991 72.440921 
L 52.903443 73.229955 
L 53.581462 73.996586 
L 54.259082 74.740853 
L 54.93634 75.462793 
L 55.613268 76.162439 
L 56.289902 76.839824 
L 56.966281 77.49498 
L 57.642433 78.127928 
L 58.318396 78.738697 
L 58.994209 79.327311 
L 59.669899 79.893786 
L 60.345506 80.438143 
L 61.021065 80.960399 
L 61.696608 81.460566 
L 62.372173 81.938655 
L 63.047794 82.394676 
L 63.723507 82.828636 
L 64.399345 83.240538 
L 65.075345 83.630386 
L 65.751544 83.998181 
L 66.427972 84.343916 
L 67.104668 84.66759 
L 67.78167 84.969196 
L 68.459007 85.248723 
L 69.136718 85.50616 
L 69.81484 85.741494 
L 70.493407 85.954707 
L 71.172455 86.145783 
L 71.852021 86.314699 
L 72.53214 86.461433 
L 73.212854 86.585959 
L 73.89419 86.688248 
L 74.576189 86.768271 
L 75.258888 86.825995 
L 75.942324 86.861384 
L 76.626534 86.874402 
L 77.311558 86.865007 
L 77.997428 86.833159 
L 78.684183 86.778811 
L 79.371861 86.701916 
L 80.060502 86.602425 
L 80.750143 86.480285 
L 81.440826 86.33544 
L 82.132581 86.167834 
L 82.825453 85.977408 
L 83.519479 85.764097 
L 84.2147 85.527837 
L 84.911154 85.26856 
L 85.608886 84.986194 
L 86.307927 84.680668 
L 87.008323 84.351906 
L 87.710113 83.999829 
L 88.413338 83.624354 
L 89.118041 83.225399 
L 89.824262 82.802877 
L 90.532047 82.356694 
L 91.241431 81.886764 
L 91.95246 81.392988 
L 92.665176 80.875268 
L 93.379624 80.333502 
L 94.095847 79.767586 
L 94.813892 79.177408 
L 95.533797 78.562868 
L 96.255609 77.923845 
L 96.979374 77.260224 
L 97.705138 76.571885 
L 98.432946 75.858705 
L 99.16285 75.120552 
L 99.894887 74.357307 
L 100.629109 73.568834 
L 101.365565 72.754991 
L 102.104301 71.915643 
L 102.845368 71.050644 
L 103.588819 70.159845 
L 104.334694 69.243105 
L 105.083049 68.300263 
L 105.833934 67.331161 
" clip-path="url(#paf1a436900)" style="fill: none; stroke: #1f77b4; stroke-width: 1.5"/>
    <path d="M 40.554333 41.378444 
L 41.247297 42.69463 
L 41.939077 43.986875 
L 42.629712 45.25527 
L 43.319241 46.499917 
L 44.007694 47.720894 
L 44.695112 48.918288 
L 45.38153 50.092189 
L 46.066985 51.242673 
L 46.751517 52.369831 
L 47.435155 53.473722 
L 48.117937 54.554428 
L 48.799901 55.612022 
L 49.481081 56.646572 
L 50.161513 57.658143 
L 50.841233 58.646802 
L 51.520276 59.612611 
L 52.198681 60.555632 
L 52.876475 61.475914 
L 53.553698 62.373516 
L 54.230384 63.248489 
L 54.906568 64.100884 
L 55.58229 64.930755 
L 56.257576 65.738137 
L 56.932465 66.523077 
L 57.606991 67.285616 
L 58.28119 68.025792 
L 58.955098 68.743643 
L 59.628745 69.4392 
L 60.30217 70.112497 
L 60.975408 70.763565 
L 61.648489 71.392424 
L 62.32145 71.999103 
L 62.994329 72.583627 
L 63.667155 73.146011 
L 64.339964 73.686275 
L 65.012794 74.204435 
L 65.685676 74.700504 
L 66.358646 75.174493 
L 67.03174 75.626411 
L 67.704992 76.056265 
L 68.378436 76.464059 
L 69.052108 76.849794 
L 69.726045 77.213472 
L 70.400277 77.555088 
L 71.074842 77.874638 
L 71.749779 78.172115 
L 72.425115 78.447509 
L 73.100891 78.700809 
L 73.777142 78.932001 
L 74.453902 79.141067 
L 75.131207 79.327991 
L 75.809095 79.49275 
L 76.4876 79.635321 
L 77.166763 79.75568 
L 77.846612 79.853796 
L 78.527187 79.929641 
L 79.208525 79.983181 
L 79.890663 80.014381 
L 80.573638 80.023203 
L 81.257491 80.009608 
L 81.94225 79.973553 
L 82.627958 79.914993 
L 83.314652 79.833882 
L 84.00237 79.730167 
L 84.69115 79.603799 
L 85.381034 79.45472 
L 86.072053 79.282876 
L 86.764249 79.088205 
L 87.457662 78.870645 
L 88.15233 78.630131 
L 88.848294 78.366594 
L 89.545596 78.079963 
L 90.24427 77.770168 
L 90.944358 77.437133 
L 91.645902 77.080778 
L 92.348943 76.701022 
L 93.053522 76.297781 
L 93.75968 75.870969 
L 94.467464 75.420494 
L 95.176906 74.946268 
L 95.888054 74.448194 
L 96.600951 73.926172 
L 97.31564 73.380103 
L 98.032164 72.809881 
L 98.750572 72.215397 
L 99.470899 71.596548 
L 100.193195 70.953218 
L 100.917504 70.285288 
L 101.643872 69.592639 
L 102.372345 68.87515 
L 103.102974 68.132689 
L 103.835798 67.365138 
L 104.570867 66.572359 
L 105.308229 65.754214 
L 106.047934 64.910567 
L 106.790029 64.041271 
L 107.534568 63.146181 
L 108.281593 62.225153 
L 109.031158 61.278028 
L 109.783314 60.30465 
" clip-path="url(#paf1a436900)" style="fill: none; stroke: #1f77b4; stroke-width: 1.5"/>
    <path d="M 44.704078 37.130816 
L 45.390591 38.439578 
L 46.076005 39.724498 
L 46.760356 40.985666 
L 47.443685 42.223183 
L 48.12602 43.437124 
L 48.8074 44.627577 
L 49.487862 45.79463 
L 50.167442 46.938358 
L 50.846178 48.058852 
L 51.524098 49.156169 
L 52.201242 50.230391 
L 52.877644 51.28159 
L 53.55334 52.309831 
L 54.228365 53.315182 
L 54.902753 54.297706 
L 55.57654 55.257465 
L 56.249764 56.194521 
L 56.922452 57.108922 
L 57.594642 58.000725 
L 58.266369 58.869983 
L 58.937668 59.716744 
L 59.608576 60.541062 
L 60.27912 61.342971 
L 60.949338 62.122518 
L 61.619265 62.879744 
L 62.288935 63.614686 
L 62.958383 64.327382 
L 63.627641 65.017861 
L 64.296745 65.686157 
L 64.965731 66.332301 
L 65.634628 66.956313 
L 66.303473 67.558222 
L 66.972304 68.13805 
L 67.641147 68.695814 
L 68.310042 69.231534 
L 68.979022 69.745225 
L 69.648121 70.236899 
L 70.317373 70.706567 
L 70.986814 71.154239 
L 71.656477 71.57992 
L 72.326397 71.983614 
L 72.996608 72.365324 
L 73.667148 72.72505 
L 74.338047 73.062786 
L 75.00934 73.37853 
L 75.681068 73.672275 
L 76.353258 73.94401 
L 77.025948 74.193723 
L 77.699176 74.421401 
L 78.372973 74.627027 
L 79.047377 74.810583 
L 79.722423 74.972048 
L 80.398147 75.111398 
L 81.074588 75.22861 
L 81.751775 75.323652 
L 82.429748 75.396496 
L 83.108543 75.44711 
L 83.788196 75.475458 
L 84.468744 75.481503 
L 85.150228 75.465205 
L 85.832677 75.426522 
L 86.516131 75.365409 
L 87.200629 75.28182 
L 87.886208 75.175705 
L 88.572906 75.047011 
L 89.260765 74.895684 
L 89.949814 74.721669 
L 90.640097 74.524905 
L 91.331652 74.30533 
L 92.024519 74.06288 
L 92.718735 73.797486 
L 93.414346 73.509079 
L 94.111382 73.197588 
L 94.809889 72.862938 
L 95.509905 72.50505 
L 96.211472 72.123843 
L 96.91463 71.719236 
L 97.619422 71.29114 
L 98.325893 70.839467 
L 99.034076 70.364129 
L 99.744017 69.865028 
L 100.45576 69.342069 
L 101.169348 68.795149 
L 101.884823 68.224167 
L 102.602235 67.629014 
L 103.321617 67.009586 
L 104.04302 66.365769 
L 104.766488 65.697446 
L 105.492067 65.0045 
L 106.219802 64.28681 
L 106.949743 63.544244 
L 107.68193 62.776687 
L 108.416413 61.984002 
L 109.15324 61.166052 
L 109.89246 60.322703 
L 110.63412 59.453809 
L 111.378274 58.559226 
L 112.124963 57.638812 
L 112.874243 56.69241 
L 113.626162 55.719865 
" clip-path="url(#paf1a436900)" style="fill: none; stroke: #1f77b4; stroke-width: 1.5"/>
    <path d="M 48.846937 35.215521 
L 49.525937 36.513833 
L 50.203922 37.788481 
L 50.88093 39.039556 
L 51.556999 40.267156 
L 52.232157 41.471355 
L 52.906443 42.652241 
L 53.579892 43.809897 
L 54.252539 44.944401 
L 54.924423 46.05584 
L 55.59557 47.144271 
L 56.26602 48.209773 
L 56.935806 49.252418 
L 57.604964 50.272271 
L 58.273526 51.269398 
L 58.941529 52.243861 
L 59.609005 53.195719 
L 60.275992 54.125037 
L 60.942518 55.031859 
L 61.608619 55.916242 
L 62.27433 56.778238 
L 62.939684 57.617895 
L 63.60472 58.435266 
L 64.269463 59.230383 
L 64.93395 60.003293 
L 65.598215 60.754037 
L 66.262293 61.482651 
L 66.926218 62.18917 
L 67.59002 62.873627 
L 68.253736 63.536052 
L 68.917401 64.176477 
L 69.581044 64.794921 
L 70.2447 65.391413 
L 70.908407 65.965974 
L 71.572192 66.518621 
L 72.236092 67.049373 
L 72.900142 67.558245 
L 73.564374 68.04525 
L 74.228822 68.510397 
L 74.89352 68.953697 
L 75.558503 69.375154 
L 76.223804 69.774773 
L 76.889457 70.152555 
L 77.5555 70.508502 
L 78.22196 70.842607 
L 78.888876 71.154867 
L 79.556284 71.445277 
L 80.224213 71.713825 
L 80.8927 71.960499 
L 81.561783 72.185287 
L 82.231492 72.388172 
L 82.901865 72.569135 
L 83.572936 72.728156 
L 84.244741 72.865212 
L 84.917319 72.980278 
L 85.590698 73.073326 
L 86.264916 73.144327 
L 86.940011 73.193247 
L 87.616019 73.220053 
L 88.292974 73.224707 
L 88.970919 73.207171 
L 89.649881 73.167404 
L 90.329901 73.10536 
L 91.011016 73.020994 
L 91.693263 72.914256 
L 92.376681 72.785097 
L 93.061309 72.63346 
L 93.747179 72.459292 
L 94.434332 72.262533 
L 95.122807 72.043122 
L 95.812642 71.800997 
L 96.503876 71.536088 
L 97.196552 71.248328 
L 97.890702 70.937647 
L 98.586369 70.603971 
L 99.283593 70.247223 
L 99.982415 69.867322 
L 100.682875 69.464188 
L 101.385015 69.037736 
L 102.088878 68.587875 
L 102.7945 68.114522 
L 103.501924 67.617579 
L 104.211196 67.096952 
L 104.922355 66.552541 
L 105.635446 65.984246 
L 106.350517 65.391957 
L 107.067602 64.775576 
L 107.78675 64.134988 
L 108.508005 63.47008 
L 109.231413 62.780734 
L 109.957019 62.066833 
L 110.684872 61.328246 
L 111.415012 60.56486 
L 112.147488 59.776541 
L 112.882349 58.963153 
L 113.619641 58.124564 
L 114.359413 57.260632 
L 115.101718 56.371214 
L 115.846597 55.456171 
L 116.594104 54.515347 
L 117.344289 53.548592 
" clip-path="url(#paf1a436900)" style="fill: none; stroke: #1f77b4; stroke-width: 1.5"/>
    <path d="M 52.962196 35.582886 
L 53.632692 36.867869 
L 54.30226 38.129445 
L 54.970935 39.367702 
L 55.638755 40.582737 
L 56.305747 41.774622 
L 56.97195 42.943442 
L 57.637397 44.089281 
L 58.302122 45.212213 
L 58.966165 46.312324 
L 59.62955 47.38967 
L 60.292315 48.444329 
L 60.954495 49.476371 
L 61.616122 50.48586 
L 62.27723 51.472859 
L 62.937853 52.43743 
L 63.598024 53.379632 
L 64.257781 54.299528 
L 64.917148 55.197159 
L 65.576163 56.072583 
L 66.234859 56.925851 
L 66.893269 57.757009 
L 67.551431 58.566109 
L 68.209369 59.353183 
L 68.86712 60.118278 
L 69.524717 60.861432 
L 70.182194 61.582681 
L 70.839585 62.28206 
L 71.496919 62.959601 
L 72.154232 63.615333 
L 72.811559 64.249288 
L 73.468928 64.861484 
L 74.126373 65.451949 
L 74.783932 66.020705 
L 75.441632 66.567768 
L 76.099508 67.093156 
L 76.757595 67.596885 
L 77.415923 68.078966 
L 78.074528 68.53941 
L 78.733442 68.978225 
L 79.3927 69.395418 
L 80.052333 69.790992 
L 80.712375 70.164948 
L 81.372864 70.517288 
L 82.033828 70.848006 
L 82.695301 71.157099 
L 83.357323 71.444561 
L 84.01992 71.71038 
L 84.683129 71.954547 
L 85.346987 72.177047 
L 86.011525 72.377865 
L 86.676778 72.556982 
L 87.342781 72.714379 
L 88.00957 72.850033 
L 88.677182 72.963919 
L 89.345645 73.056009 
L 90.014997 73.126276 
L 90.685275 73.174687 
L 91.356514 73.201209 
L 92.028749 73.205805 
L 92.702021 73.188437 
L 93.376356 73.149064 
L 94.051797 73.087644 
L 94.728378 73.00413 
L 95.406137 72.898475 
L 96.085111 72.77063 
L 96.76534 72.620539 
L 97.446855 72.448151 
L 98.129696 72.253407 
L 98.813901 72.036246 
L 99.499509 71.796608 
L 100.186558 71.534426 
L 100.875091 71.249632 
L 101.565137 70.942158 
L 102.256741 70.611933 
L 102.949943 70.25888 
L 103.64478 69.882921 
L 104.341295 69.483976 
L 105.039527 69.061963 
L 105.739521 68.616793 
L 106.441309 68.148384 
L 107.144938 67.656641 
L 107.850449 67.141471 
L 108.557884 66.602776 
L 109.267286 66.040459 
L 109.978701 65.454412 
L 110.692164 64.84454 
L 111.407724 64.210728 
L 112.125424 63.552867 
L 112.845309 62.870842 
L 113.567424 62.164537 
L 114.291817 61.433826 
L 115.018527 60.678596 
L 115.747604 59.898718 
L 116.479094 59.094057 
L 117.213045 58.264486 
L 117.949504 57.409864 
L 118.688525 56.530051 
L 119.430145 55.624914 
L 120.17442 54.694298 
L 120.9214 53.738055 
" clip-path="url(#paf1a436900)" style="fill: none; stroke: #1f77b4; stroke-width: 1.5"/>
    <path d="M 57.030186 38.162323 
L 57.691268 39.43128 
L 58.351508 40.677158 
L 59.010939 41.900041 
L 59.669598 43.100028 
L 60.327513 44.277187 
L 60.984719 45.431601 
L 61.64125 46.563352 
L 62.297139 47.672512 
L 62.952424 48.759165 
L 63.60713 49.823366 
L 64.261292 50.865191 
L 64.914945 51.884708 
L 65.568121 52.881979 
L 66.220853 53.857067 
L 66.873173 54.810032 
L 67.525114 55.740931 
L 68.176712 56.649824 
L 68.827992 57.536755 
L 69.47899 58.401778 
L 70.129739 59.244942 
L 70.78027 60.066294 
L 71.430621 60.865884 
L 72.080815 61.643744 
L 72.730889 62.399918 
L 73.380875 63.134444 
L 74.030805 63.847358 
L 74.680712 64.538693 
L 75.330628 65.208481 
L 75.980584 65.856751 
L 76.630616 66.483532 
L 77.28075 67.088844 
L 77.931023 67.672713 
L 78.581468 68.235162 
L 79.232113 68.776204 
L 79.882992 69.29586 
L 80.53414 69.794142 
L 81.185587 70.271064 
L 81.837365 70.726635 
L 82.489509 71.160863 
L 83.142052 71.573757 
L 83.795023 71.965315 
L 84.448458 72.335544 
L 85.102392 72.684442 
L 85.756852 73.012005 
L 86.411874 73.31823 
L 87.067495 73.60311 
L 87.723741 73.866634 
L 88.380649 74.108793 
L 89.038254 74.329574 
L 89.696588 74.528961 
L 90.355684 74.706936 
L 91.015578 74.86348 
L 91.676302 74.99857 
L 92.337896 75.112185 
L 93.000385 75.204295 
L 93.663809 75.274873 
L 94.328201 75.323889 
L 94.993598 75.351309 
L 95.660033 75.357099 
L 96.327546 75.34122 
L 96.996164 75.303634 
L 97.665927 75.244299 
L 98.336872 75.16317 
L 99.009033 75.0602 
L 99.682447 74.935342 
L 100.357155 74.788541 
L 101.033185 74.619748 
L 101.710578 74.428906 
L 102.389371 74.215955 
L 103.069603 73.980836 
L 103.75131 73.723484 
L 104.434534 73.443834 
L 105.119306 73.141819 
L 105.805669 72.817369 
L 106.49366 72.47041 
L 107.183319 72.100867 
L 107.874686 71.70866 
L 108.567801 71.293711 
L 109.262706 70.855932 
L 109.959435 70.395243 
L 110.658033 69.911554 
L 111.35854 69.404771 
L 112.060998 68.874802 
L 112.765448 68.32155 
L 113.471937 67.744912 
L 114.1805 67.144792 
L 114.891182 66.521082 
L 115.604029 65.873674 
L 116.319082 65.202457 
L 117.036387 64.507318 
L 117.755992 63.788133 
L 118.477934 63.044794 
L 119.202262 62.277173 
L 119.929023 61.485142 
L 120.658262 60.668574 
L 121.390028 59.827335 
L 122.12437 58.961286 
L 122.861329 58.070301 
L 123.600958 57.154226 
L 124.343305 56.212918 
" clip-path="url(#paf1a436900)" style="fill: none; stroke: #1f77b4; stroke-width: 1.5"/>
    <path d="M 61.032538 42.864514 
L 61.683381 44.114953 
L 62.333466 45.342707 
L 62.982825 46.547861 
L 63.631495 47.730505 
L 64.2795 48.89071 
L 64.926878 50.028555 
L 65.573659 51.14412 
L 66.219877 52.237474 
L 66.865568 53.308701 
L 67.510755 54.357852 
L 68.155475 55.385003 
L 68.799759 56.390218 
L 69.443639 57.373559 
L 70.087148 58.335086 
L 70.730316 59.274858 
L 71.373176 60.19293 
L 72.015762 61.089362 
L 72.6581 61.964195 
L 73.300223 62.817482 
L 73.942164 63.649271 
L 74.583954 64.459608 
L 75.225628 65.248541 
L 75.86721 66.016101 
L 76.508735 66.762331 
L 77.150235 67.487269 
L 77.791742 68.190949 
L 78.433286 68.873403 
L 79.074899 69.534664 
L 79.716612 70.174758 
L 80.358459 70.793713 
L 81.000467 71.391551 
L 81.64267 71.968297 
L 82.285101 72.523972 
L 82.927788 73.058589 
L 83.570764 73.572167 
L 84.214062 74.064722 
L 84.857712 74.536263 
L 85.501746 74.986802 
L 86.146197 75.416348 
L 86.791097 75.824904 
L 87.436476 76.212476 
L 88.082368 76.579064 
L 88.728807 76.924671 
L 89.37582 77.24929 
L 90.023442 77.55292 
L 90.671709 77.835554 
L 91.320646 78.097181 
L 91.970291 78.337793 
L 92.620676 78.557377 
L 93.271832 78.755918 
L 93.923795 78.933398 
L 94.576595 79.0898 
L 95.230268 79.2251 
L 95.88485 79.339279 
L 96.540368 79.432307 
L 97.196858 79.504159 
L 97.854355 79.554806 
L 98.512893 79.584213 
L 99.172506 79.592351 
L 99.833233 79.579179 
L 100.495101 79.544662 
L 101.158147 79.488757 
L 101.822408 79.411423 
L 102.487919 79.312615 
L 103.154715 79.192284 
L 103.822835 79.050382 
L 104.492309 78.886857 
L 105.163175 78.701654 
L 105.835471 78.494717 
L 106.509233 78.265988 
L 107.184498 78.015406 
L 107.861307 77.742905 
L 108.539689 77.448423 
L 109.219687 77.131889 
L 109.901339 76.793233 
L 110.584682 76.432383 
L 111.269756 76.049262 
L 111.956599 75.643792 
L 112.645254 75.21589 
L 113.335754 74.765479 
L 114.028141 74.292469 
L 114.722457 73.796772 
L 115.418742 73.278297 
L 116.117036 72.736951 
L 116.817386 72.172634 
L 117.519825 71.585254 
L 118.224398 70.974706 
L 118.931149 70.340884 
L 119.64012 69.683682 
L 120.351354 69.00299 
L 121.0649 68.298689 
L 121.780793 67.570674 
L 122.499082 66.818821 
L 123.219812 66.043006 
L 123.943028 65.243107 
L 124.668777 64.418992 
L 125.397109 63.570531 
L 126.128063 62.697596 
L 126.86169 61.800042 
L 127.598038 60.877732 
" clip-path="url(#paf1a436900)" style="fill: none; stroke: #1f77b4; stroke-width: 1.5"/>
    <path d="M 64.952423 49.583939 
L 65.59229 50.813594 
L 66.231481 52.02102 
L 66.870027 53.206296 
L 67.507964 54.369513 
L 68.145316 55.510736 
L 68.782117 56.630044 
L 69.4184 57.727514 
L 70.054194 58.803212 
L 70.689536 59.85722 
L 71.324449 60.889588 
L 71.958967 61.900387 
L 72.59312 62.889682 
L 73.226942 63.857533 
L 73.86046 64.803996 
L 74.493708 65.72913 
L 75.126714 66.632987 
L 75.759514 67.515627 
L 76.392131 68.377088 
L 77.024599 69.217421 
L 77.656949 70.036674 
L 78.28921 70.834892 
L 78.921418 71.61212 
L 79.553596 72.36839 
L 80.185776 73.103742 
L 80.817991 73.818212 
L 81.450271 74.511837 
L 82.082647 75.184644 
L 82.715147 75.836667 
L 83.347803 76.467931 
L 83.980649 77.078464 
L 84.61371 77.668285 
L 85.247018 78.237421 
L 85.880608 78.785891 
L 86.514504 79.313709 
L 87.14874 79.820892 
L 87.783348 80.307457 
L 88.418356 80.773412 
L 89.053798 81.218769 
L 89.689702 81.643536 
L 90.326103 82.047717 
L 90.963028 82.431319 
L 91.600511 82.79434 
L 92.238584 83.136785 
L 92.877275 83.458646 
L 93.516616 83.759922 
L 94.156644 84.040608 
L 94.797383 84.300693 
L 95.438869 84.540168 
L 96.081134 84.759022 
L 96.724209 84.957241 
L 97.368126 85.134806 
L 98.012918 85.291703 
L 98.658618 85.427908 
L 99.305262 85.543402 
L 99.952875 85.638157 
L 100.601494 85.712149 
L 101.251152 85.76535 
L 101.901883 85.797727 
L 102.553719 85.809251 
L 103.206698 85.799884 
L 103.860847 85.769591 
L 104.516204 85.71833 
L 105.172802 85.646063 
L 105.830675 85.552748 
L 106.48986 85.438335 
L 107.150394 85.302779 
L 107.812304 85.146031 
L 108.475631 84.968036 
L 109.140409 84.768742 
L 109.806674 84.548093 
L 110.474463 84.306028 
L 111.143815 84.042486 
L 111.81476 83.757406 
L 112.487338 83.450722 
L 113.161586 83.122362 
L 113.837542 82.772262 
L 114.515243 82.400343 
L 115.194728 82.006532 
L 115.876038 81.59075 
L 116.559205 81.152921 
L 117.244271 80.692962 
L 117.931277 80.210785 
L 118.62026 79.706301 
L 119.311262 79.179424 
L 120.004327 78.630057 
L 120.699487 78.058108 
L 121.396788 77.46348 
L 122.09627 76.84607 
L 122.797977 76.205775 
L 123.50195 75.54249 
L 124.208236 74.856099 
L 124.91687 74.146502 
L 125.6279 73.41358 
L 126.341369 72.657213 
L 127.057322 71.877284 
L 127.775804 71.073666 
L 128.496864 70.246232 
L 129.22054 69.394862 
L 129.946883 68.519415 
L 130.675939 67.619758 
" clip-path="url(#paf1a436900)" style="fill: none; stroke: #1f77b4; stroke-width: 1.5"/>
    <path d="M 24.318635 81.868935 
L 24.710556 80.407081 
L 25.103461 78.967566 
L 25.497329 77.550471 
L 25.892143 76.155862 
L 26.287877 74.783828 
L 26.684512 73.434435 
L 27.082029 72.107751 
L 27.480405 70.803846 
L 27.879623 69.522772 
L 28.279657 68.264611 
L 28.680487 67.029414 
L 29.082094 65.817236 
L 29.484454 64.628135 
L 29.887548 63.462163 
L 30.291353 62.319368 
L 30.695849 61.199801 
L 31.101016 60.103497 
L 31.506827 59.030513 
L 31.913264 57.980886 
L 32.320305 56.954651 
L 32.727928 55.951842 
L 33.136114 54.972488 
L 33.544836 54.01663 
L 33.954075 53.084289 
L 34.363809 52.175495 
L 34.774015 51.290265 
L 35.184674 50.428623 
L 35.595762 49.590585 
L 36.007256 48.776167 
L 36.419139 47.985381 
L 36.831383 47.218241 
L 37.243968 46.474752 
L 37.656876 45.754917 
L 38.070079 45.058746 
L 38.483559 44.386236 
L 38.897293 43.737384 
L 39.311259 43.112188 
L 39.725435 42.510639 
L 40.1398 41.932727 
L 40.554333 41.378444 
L 40.96901 40.847773 
L 41.383811 40.340699 
L 41.798715 39.857199 
L 42.213698 39.39726 
L 42.628739 38.960852 
L 43.043819 38.54795 
L 43.458914 38.158529 
L 43.874002 37.792555 
L 44.289065 37.449995 
L 44.704078 37.130816 
L 45.119022 36.834979 
L 45.533875 36.562442 
L 45.948617 36.313168 
L 46.363228 36.087107 
L 46.777684 35.884217 
L 47.191965 35.704448 
L 47.606051 35.547747 
L 48.019922 35.414065 
L 48.433557 35.30334 
L 48.846937 35.215521 
L 49.260038 35.150544 
L 49.672843 35.108352 
L 50.08533 35.088877 
L 50.49748 35.092053 
L 50.909272 35.117816 
L 51.320691 35.166093 
L 51.731711 35.236814 
L 52.142314 35.329904 
L 52.552482 35.445287 
L 52.962196 35.582886 
L 53.371436 35.742621 
L 53.780185 35.924412 
L 54.188421 36.128172 
L 54.596125 36.353819 
L 55.003281 36.601267 
L 55.40987 36.870423 
L 55.815872 37.1612 
L 56.221271 37.473506 
L 56.626049 37.807246 
L 57.030186 38.162323 
L 57.433665 38.53864 
L 57.836469 38.936099 
L 58.23858 39.354602 
L 58.639981 39.794043 
L 59.040658 40.254322 
L 59.440588 40.73533 
L 59.839758 41.236962 
L 60.23815 41.75911 
L 60.635749 42.301665 
L 61.032538 42.864514 
L 61.428503 43.447552 
L 61.823623 44.050656 
L 62.217886 44.673713 
L 62.611275 45.31661 
L 63.003776 45.979228 
L 63.395373 46.661449 
L 63.786052 47.363155 
L 64.175796 48.084217 
L 64.564591 48.82452 
L 64.952423 49.583939 
" clip-path="url(#paf1a436900)" style="fill: none; stroke: #1f77b4; stroke-width: 1.5"/>
    <path d="M 31.326261 93.962169 
L 31.717398 92.505929 
L 32.109393 91.071746 
L 32.502227 89.6597 
L 32.895881 88.269856 
L 33.29033 86.902303 
L 33.685557 85.557107 
L 34.08154 84.234335 
L 34.478259 82.934057 
L 34.875695 81.656324 
L 35.273823 80.401218 
L 35.672625 79.16879 
L 36.072078 77.959095 
L 36.472162 76.77219 
L 36.872857 75.608127 
L 37.274141 74.466955 
L 37.675992 73.348721 
L 38.078392 72.253466 
L 38.481315 71.181244 
L 38.884741 70.13209 
L 39.28865 69.106041 
L 39.693021 68.103133 
L 40.097833 67.123391 
L 40.503061 66.16686 
L 40.908686 65.233561 
L 41.314687 64.323519 
L 41.721041 63.436758 
L 42.127729 62.573297 
L 42.534727 61.733157 
L 42.942014 60.916352 
L 43.349571 60.122894 
L 43.757373 59.352798 
L 44.1654 58.60607 
L 44.573632 57.882714 
L 44.982045 57.182739 
L 45.390619 56.506143 
L 45.799333 55.852924 
L 46.208164 55.223081 
L 46.617092 54.616605 
L 47.026096 54.033488 
L 47.435155 53.473722 
L 47.844246 52.93729 
L 48.25335 52.424179 
L 48.662446 51.934368 
L 49.07151 51.467842 
L 49.480523 51.024574 
L 49.889467 50.604539 
L 50.298315 50.207713 
L 50.70705 49.834065 
L 51.115652 49.483561 
L 51.524098 49.156169 
L 51.932369 48.851853 
L 52.340443 48.570572 
L 52.748302 48.312288 
L 53.155927 48.076954 
L 53.563292 47.864528 
L 53.97038 47.674963 
L 54.377172 47.508207 
L 54.783647 47.364211 
L 55.189786 47.242916 
L 55.59557 47.144271 
L 56.000977 47.068215 
L 56.405988 47.014691 
L 56.810584 46.983633 
L 57.214747 46.974977 
L 57.618456 46.988661 
L 58.021696 47.024611 
L 58.424443 47.082761 
L 58.82668 47.163037 
L 59.228388 47.265366 
L 59.62955 47.38967 
L 60.030146 47.535873 
L 60.430162 47.703895 
L 60.829574 47.893653 
L 61.228366 48.105065 
L 61.626521 48.338044 
L 62.024022 48.592506 
L 62.42085 48.868359 
L 62.816988 49.165516 
L 63.212422 49.483884 
L 63.60713 49.823366 
L 64.001096 50.18387 
L 64.394305 50.565299 
L 64.78674 50.967553 
L 65.178385 51.390533 
L 65.569225 51.834139 
L 65.95924 52.298263 
L 66.348416 52.782803 
L 66.736738 53.287653 
L 67.124189 53.812707 
L 67.510755 54.357852 
L 67.896423 54.922987 
L 68.281172 55.507989 
L 68.66499 56.112748 
L 69.047864 56.737155 
L 69.429777 57.38109 
L 69.810716 58.044439 
L 70.190668 58.727085 
L 70.569616 59.428903 
L 70.947547 60.149778 
L 71.324449 60.889588 
" clip-path="url(#paf1a436900)" style="fill: none; stroke: #1f77b4; stroke-width: 1.5"/>
    <path d="M 38.218828 103.780253 
L 38.609854 102.326914 
L 39.001617 100.895428 
L 39.394099 99.485878 
L 39.78728 98.098323 
L 40.181136 96.732855 
L 40.575648 95.38954 
L 40.970796 94.068444 
L 41.366559 92.769637 
L 41.762919 91.493171 
L 42.15985 90.239126 
L 42.557335 89.007554 
L 42.955351 87.798509 
L 43.353879 86.612049 
L 43.752897 85.448225 
L 44.152384 84.307087 
L 44.55232 83.188683 
L 44.952685 82.093052 
L 45.353454 81.020248 
L 45.754608 79.970307 
L 46.156126 78.943266 
L 46.557987 77.939162 
L 46.960172 76.958019 
L 47.362655 75.999882 
L 47.765417 75.064773 
L 48.168438 74.152717 
L 48.571696 73.263739 
L 48.97517 72.397858 
L 49.378838 71.555094 
L 49.78268 70.735463 
L 50.186676 69.938975 
L 50.590802 69.165649 
L 50.995038 68.415489 
L 51.399365 67.6885 
L 51.803759 66.984691 
L 52.2082 66.304061 
L 52.612668 65.64661 
L 53.017141 65.012333 
L 53.421598 64.401227 
L 53.826019 63.813283 
L 54.230384 63.248489 
L 54.63467 62.706836 
L 55.038858 62.188307 
L 55.442929 61.692883 
L 55.846858 61.220548 
L 56.250628 60.771278 
L 56.654219 60.345048 
L 57.057608 59.941835 
L 57.460776 59.561607 
L 57.863703 59.204334 
L 58.266369 58.869983 
L 58.668754 58.558517 
L 59.070838 58.2699 
L 59.472602 58.004091 
L 59.874027 57.761047 
L 60.27509 57.540725 
L 60.675774 57.343079 
L 61.076059 57.168059 
L 61.475925 57.015615 
L 61.875355 56.885693 
L 62.27433 56.778238 
L 62.672828 56.693194 
L 63.070832 56.630501 
L 63.468322 56.590099 
L 63.865282 56.571924 
L 64.261692 56.57591 
L 64.657536 56.601992 
L 65.052791 56.650099 
L 65.447442 56.720159 
L 65.84147 56.812102 
L 66.234859 56.925851 
L 66.62759 57.06133 
L 67.019648 57.218461 
L 67.411011 57.397163 
L 67.801664 57.597353 
L 68.191591 57.818949 
L 68.580774 58.061863 
L 68.969197 58.32601 
L 69.356842 58.611299 
L 69.743696 58.917642 
L 70.129739 59.244942 
L 70.514955 59.593108 
L 70.89933 59.962045 
L 71.282847 60.351654 
L 71.66549 60.761837 
L 72.047248 61.192496 
L 72.428099 61.643525 
L 72.808031 62.114822 
L 73.187029 62.606283 
L 73.565078 63.117803 
L 73.942164 63.649271 
L 74.318274 64.200587 
L 74.693389 64.77163 
L 75.067499 65.362291 
L 75.440588 65.972462 
L 75.812644 66.602025 
L 76.183652 67.250868 
L 76.553602 67.918876 
L 76.922475 68.60592 
L 77.290262 69.311894 
L 77.656949 70.036674 
" clip-path="url(#paf1a436900)" style="fill: none; stroke: #1f77b4; stroke-width: 1.5"/>
    <path d="M 45.032744 111.384675 
L 45.424332 109.931557 
L 45.816541 108.500165 
L 46.209349 107.090578 
L 46.602738 105.702863 
L 46.996684 104.337106 
L 47.391169 102.993376 
L 47.786171 101.671737 
L 48.18167 100.37226 
L 48.577648 99.094996 
L 48.974079 97.840028 
L 49.370945 96.607405 
L 49.768226 95.397183 
L 50.165899 94.209418 
L 50.563946 93.044164 
L 50.962344 91.90147 
L 51.361072 90.781383 
L 51.760113 89.683942 
L 52.15944 88.609203 
L 52.559036 87.557202 
L 52.958878 86.527975 
L 53.358946 85.521559 
L 53.759222 84.537981 
L 54.159679 83.577283 
L 54.5603 82.639488 
L 54.961063 81.724623 
L 55.361947 80.832711 
L 55.762932 79.963773 
L 56.163996 79.117829 
L 56.565119 78.294894 
L 56.966281 77.49498 
L 57.367458 76.718106 
L 57.768632 75.964275 
L 58.169783 75.233494 
L 58.570886 74.525772 
L 58.971924 73.841108 
L 59.372876 73.179501 
L 59.773721 72.54095 
L 60.174438 71.925449 
L 60.575007 71.332991 
L 60.975408 70.763565 
L 61.37562 70.21716 
L 61.775623 69.693762 
L 62.175399 69.193351 
L 62.574924 68.715913 
L 62.97418 68.261424 
L 63.373149 67.829858 
L 63.771807 67.421194 
L 64.170136 67.0354 
L 64.568118 66.672446 
L 64.965731 66.332301 
L 65.362957 66.014928 
L 65.759776 65.720291 
L 66.156169 65.448349 
L 66.552119 65.199061 
L 66.947603 64.972384 
L 67.342603 64.768272 
L 67.737102 64.586677 
L 68.13108 64.427548 
L 68.524518 64.290833 
L 68.917401 64.176477 
L 69.309706 64.084425 
L 69.701416 64.014618 
L 70.092514 63.966995 
L 70.482981 63.941493 
L 70.8728 63.938048 
L 71.261955 63.956595 
L 71.650425 63.997063 
L 72.038193 64.059383 
L 72.425244 64.143483 
L 72.811559 64.249288 
L 73.197122 64.376723 
L 73.581918 64.52571 
L 73.965926 64.696168 
L 74.349132 64.888017 
L 74.731519 65.101172 
L 75.113072 65.335551 
L 75.493773 65.591065 
L 75.873608 65.867627 
L 76.252562 66.165148 
L 76.630616 66.483532 
L 77.007756 66.822689 
L 77.383968 67.182524 
L 77.759236 67.562941 
L 78.133545 67.96384 
L 78.506883 68.385127 
L 78.879231 68.826692 
L 79.250577 69.288438 
L 79.620906 69.770261 
L 79.990205 70.272055 
L 80.358459 70.793713 
L 80.725658 71.335133 
L 81.091782 71.896195 
L 81.456822 72.476793 
L 81.820764 73.076818 
L 82.183595 73.696153 
L 82.545303 74.334687 
L 82.905876 74.992304 
L 83.265299 75.668882 
L 83.62356 76.364309 
L 83.980649 77.078464 
" clip-path="url(#paf1a436900)" style="fill: none; stroke: #1f77b4; stroke-width: 1.5"/>
    <path d="M 51.803488 116.813651 
L 52.196318 115.358074 
L 52.589651 113.924171 
L 52.983468 112.512022 
L 53.37775 111.121693 
L 53.772472 109.75327 
L 54.167615 108.406823 
L 54.563158 107.082417 
L 54.959083 105.780122 
L 55.355368 104.49999 
L 55.751991 103.242103 
L 56.148931 102.006512 
L 56.546169 100.793273 
L 56.943682 99.602442 
L 57.341452 98.434074 
L 57.739456 97.288215 
L 58.137674 96.164916 
L 58.536087 95.064215 
L 58.93467 93.986169 
L 59.333404 92.930812 
L 59.732268 91.898183 
L 60.131242 90.888319 
L 60.530307 89.901244 
L 60.929438 88.937004 
L 61.328615 87.995622 
L 61.727819 87.077123 
L 62.127028 86.181532 
L 62.526222 85.308869 
L 62.92538 84.459156 
L 63.324481 83.632408 
L 63.723507 82.828636 
L 64.122433 82.047859 
L 64.52124 81.290083 
L 64.91991 80.555313 
L 65.31842 79.843558 
L 65.716749 79.154819 
L 66.114879 78.489094 
L 66.512788 77.846383 
L 66.910456 77.22668 
L 67.307864 76.629977 
L 67.704992 76.056265 
L 68.101818 75.505534 
L 68.498324 74.977768 
L 68.894492 74.472949 
L 69.290297 73.991061 
L 69.685723 73.532083 
L 70.080751 73.095988 
L 70.475359 72.682755 
L 70.869528 72.292353 
L 71.263241 71.924752 
L 71.656477 71.57992 
L 72.049218 71.257822 
L 72.441444 70.958422 
L 72.833136 70.681679 
L 73.224279 70.427552 
L 73.61485 70.195999 
L 74.004831 69.986973 
L 74.394205 69.800427 
L 74.782953 69.63631 
L 75.171058 69.494571 
L 75.558503 69.375154 
L 75.945267 69.278006 
L 76.331334 69.203066 
L 76.716686 69.150275 
L 77.101306 69.11957 
L 77.485177 69.110887 
L 77.868284 69.124161 
L 78.250604 69.159321 
L 78.632125 69.216299 
L 79.012829 69.295023 
L 79.3927 69.395418 
L 79.77172 69.51741 
L 80.149877 69.66092 
L 80.52715 69.825869 
L 80.903525 70.012174 
L 81.278986 70.219755 
L 81.653518 70.448526 
L 82.027106 70.6984 
L 82.399733 70.96929 
L 82.771388 71.261107 
L 83.142052 71.573757 
L 83.51171 71.907147 
L 83.88035 72.261185 
L 84.247956 72.635773 
L 84.614514 73.030814 
L 84.980014 73.446211 
L 85.344435 73.881857 
L 85.707768 74.337653 
L 86.069998 74.813498 
L 86.431112 75.309284 
L 86.791097 75.824904 
L 87.149942 76.360257 
L 87.50763 76.915224 
L 87.864152 77.489698 
L 88.219493 78.08357 
L 88.573643 78.696724 
L 88.926589 79.329049 
L 89.278321 79.98043 
L 89.628824 80.650745 
L 89.978089 81.33988 
L 90.326103 82.047717 
" clip-path="url(#paf1a436900)" style="fill: none; stroke: #1f77b4; stroke-width: 1.5"/>
    <path d="M 58.566253 120.082803 
L 58.961017 118.622061 
L 59.356168 117.183015 
L 59.751686 115.765747 
L 60.147553 114.370323 
L 60.543744 112.99683 
L 60.940239 111.645337 
L 61.337018 110.315911 
L 61.73406 109.008621 
L 62.131348 107.723521 
L 62.528854 106.460694 
L 62.926562 105.220189 
L 63.324449 104.002064 
L 63.722495 102.806376 
L 64.12068 101.633179 
L 64.518981 100.482521 
L 64.917379 99.354452 
L 65.315855 98.249011 
L 65.714383 97.166256 
L 66.112944 96.106221 
L 66.511519 95.068944 
L 66.910085 94.054464 
L 67.308625 93.062805 
L 67.707113 92.094014 
L 68.105531 91.148112 
L 68.503858 90.225127 
L 68.902073 89.325082 
L 69.300156 88.447999 
L 69.698086 87.593899 
L 70.095843 86.762798 
L 70.493407 85.954707 
L 70.890755 85.169647 
L 71.287868 84.407621 
L 71.684728 83.668635 
L 72.081311 82.9527 
L 72.477598 82.259815 
L 72.87357 81.589981 
L 73.269206 80.943195 
L 73.664487 80.319452 
L 74.059392 79.718747 
L 74.453902 79.141067 
L 74.847996 78.586404 
L 75.241656 78.054742 
L 75.634864 77.546063 
L 76.027596 77.060352 
L 76.419835 76.597586 
L 76.811565 76.157739 
L 77.202761 75.740791 
L 77.593407 75.34671 
L 77.983484 74.975466 
L 78.372973 74.627027 
L 78.761855 74.301359 
L 79.150113 73.998424 
L 79.537727 73.718182 
L 79.924681 73.460592 
L 80.310954 73.225613 
L 80.696528 73.013196 
L 81.081386 72.823295 
L 81.465511 72.655859 
L 81.848885 72.510836 
L 82.231492 72.388172 
L 82.613311 72.28781 
L 82.994327 72.209692 
L 83.374522 72.153758 
L 83.75388 72.119945 
L 84.132385 72.108189 
L 84.510021 72.118423 
L 84.886768 72.150579 
L 85.262611 72.204586 
L 85.637536 72.280373 
L 86.011525 72.377865 
L 86.384563 72.496986 
L 86.756636 72.63766 
L 87.127725 72.799804 
L 87.497817 72.983339 
L 87.866896 73.18818 
L 88.234947 73.414244 
L 88.601957 73.661443 
L 88.967909 73.929689 
L 89.332792 74.218893 
L 89.696588 74.528961 
L 90.059283 74.8598 
L 90.420866 75.211317 
L 90.781321 75.583415 
L 91.140635 75.975994 
L 91.498797 76.388958 
L 91.85579 76.822202 
L 92.211603 77.275624 
L 92.566223 77.749121 
L 92.919637 78.242589 
L 93.271832 78.755918 
L 93.6228 79.289006 
L 93.972524 79.841735 
L 94.320993 80.413998 
L 94.668196 81.005684 
L 95.014122 81.616679 
L 95.35876 82.246869 
L 95.7021 82.89614 
L 96.044128 83.564368 
L 96.384834 84.251442 
L 96.724209 84.957241 
" clip-path="url(#paf1a436900)" style="fill: none; stroke: #1f77b4; stroke-width: 1.5"/>
    <path d="M 65.356544 121.185183 
L 65.753954 119.716511 
L 66.151634 118.269636 
L 66.549565 116.844637 
L 66.947727 115.441582 
L 67.346095 114.06056 
L 67.74465 112.70164 
L 68.143371 111.364889 
L 68.542237 110.050379 
L 68.941229 108.758162 
L 69.340323 107.488323 
L 69.739498 106.240913 
L 70.138735 105.015988 
L 70.538012 103.813608 
L 70.937307 102.633825 
L 71.336601 101.47669 
L 71.735871 100.342253 
L 72.1351 99.230553 
L 72.534262 98.141648 
L 72.933338 97.075574 
L 73.332307 96.032369 
L 73.731148 95.01207 
L 74.129843 94.014706 
L 74.528367 93.040319 
L 74.9267 92.088935 
L 75.324823 91.16058 
L 75.722715 90.255278 
L 76.120355 89.373051 
L 76.517722 88.513921 
L 76.914796 87.677902 
L 77.311558 86.865007 
L 77.707985 86.075257 
L 78.104058 85.308655 
L 78.499758 84.565208 
L 78.895063 83.844925 
L 79.289952 83.147808 
L 79.684408 82.473854 
L 80.078409 81.823063 
L 80.471937 81.195431 
L 80.86497 80.590949 
L 81.257491 80.009608 
L 81.649478 79.451397 
L 82.040913 78.916302 
L 82.431778 78.404303 
L 82.822051 77.915386 
L 83.211714 77.449528 
L 83.600751 77.006703 
L 83.989138 76.586889 
L 84.376858 76.190055 
L 84.763895 75.816171 
L 85.150228 75.465205 
L 85.535839 75.137121 
L 85.920711 74.831882 
L 86.304825 74.549448 
L 86.688165 74.289776 
L 87.070709 74.052826 
L 87.452443 73.838548 
L 87.833347 73.646896 
L 88.213406 73.477818 
L 88.592601 73.331262 
L 88.970919 73.207171 
L 89.348337 73.105492 
L 89.724841 73.026164 
L 90.100415 72.969126 
L 90.475042 72.934315 
L 90.848705 72.921666 
L 91.221392 72.931113 
L 91.593081 72.962585 
L 91.963759 73.016012 
L 92.333411 73.091321 
L 92.702021 73.188437 
L 93.069573 73.307284 
L 93.436055 73.447783 
L 93.801448 73.609854 
L 94.165739 73.793413 
L 94.528914 73.998378 
L 94.890958 74.224662 
L 95.251856 74.472179 
L 95.611596 74.740838 
L 95.970165 75.030551 
L 96.327546 75.34122 
L 96.683726 75.672756 
L 97.038693 76.02506 
L 97.392435 76.398037 
L 97.744937 76.791586 
L 98.096189 77.20561 
L 98.446175 77.640002 
L 98.794884 78.09466 
L 99.142305 78.56948 
L 99.488425 79.064356 
L 99.833233 79.579179 
L 100.176719 80.113845 
L 100.518868 80.668234 
L 100.85967 81.242239 
L 101.199116 81.835749 
L 101.537193 82.448646 
L 101.873891 83.080818 
L 102.209203 83.732148 
L 102.543114 84.402513 
L 102.875616 85.091799 
L 103.206698 85.799884 
" clip-path="url(#paf1a436900)" style="fill: none; stroke: #1f77b4; stroke-width: 1.5"/>
    <path d="M 72.210811 120.090747 
L 72.611608 118.611293 
L 73.012557 117.15381 
L 73.413636 115.718383 
L 73.814828 114.305079 
L 74.216105 112.913988 
L 74.617449 111.545181 
L 75.018839 110.198726 
L 75.420254 108.874695 
L 75.821674 107.573143 
L 76.223074 106.294153 
L 76.624434 105.037778 
L 77.025734 103.804076 
L 77.426951 102.593106 
L 77.828066 101.404922 
L 78.229056 100.239577 
L 78.629901 99.097118 
L 79.030582 97.977588 
L 79.431072 96.881044 
L 79.831354 95.807523 
L 80.231406 94.757063 
L 80.631207 93.729703 
L 81.030738 92.725471 
L 81.429975 91.744411 
L 81.828898 90.786547 
L 82.227487 89.851906 
L 82.625721 88.940515 
L 83.023581 88.052393 
L 83.421043 87.187563 
L 83.818089 86.34604 
L 84.2147 85.527837 
L 84.610851 84.732975 
L 85.006525 83.961457 
L 85.401703 83.213289 
L 85.796362 82.488482 
L 86.190483 81.787036 
L 86.584047 81.10895 
L 86.977032 80.454223 
L 87.369421 79.822849 
L 87.761193 79.214822 
L 88.15233 78.630131 
L 88.542811 78.068764 
L 88.932617 77.530708 
L 89.321731 77.015942 
L 89.710131 76.524453 
L 90.097799 76.056215 
L 90.484719 75.611203 
L 90.870868 75.189395 
L 91.256229 74.79076 
L 91.640786 74.415265 
L 92.024519 74.06288 
L 92.407409 73.733567 
L 92.78944 73.427288 
L 93.170593 73.144003 
L 93.550853 72.883669 
L 93.930199 72.646244 
L 94.308615 72.431678 
L 94.686084 72.239923 
L 95.062589 72.070927 
L 95.438113 71.924637 
L 95.812642 71.800997 
L 96.186154 71.699949 
L 96.558637 71.621434 
L 96.930073 71.565389 
L 97.300447 71.531751 
L 97.669743 71.520452 
L 98.037947 71.531426 
L 98.405039 71.564602 
L 98.771007 71.619907 
L 99.135836 71.697268 
L 99.499509 71.796608 
L 99.862014 71.91785 
L 100.223337 72.060915 
L 100.583459 72.22572 
L 100.942369 72.412181 
L 101.300053 72.620213 
L 101.656497 72.84973 
L 102.011687 73.100641 
L 102.365609 73.372858 
L 102.718254 73.666289 
L 103.069603 73.980836 
L 103.419646 74.316406 
L 103.768369 74.672901 
L 104.115762 75.050224 
L 104.461811 75.448272 
L 104.806506 75.866947 
L 105.149832 76.306139 
L 105.491779 76.765746 
L 105.832336 77.245663 
L 106.171491 77.74578 
L 106.509233 78.265988 
L 106.845553 78.806182 
L 107.180438 79.36624 
L 107.513877 79.946051 
L 107.845862 80.545505 
L 108.176382 81.164482 
L 108.505427 81.802868 
L 108.83299 82.460544 
L 109.159057 83.137385 
L 109.483622 83.833276 
L 109.806674 84.548093 
" clip-path="url(#paf1a436900)" style="fill: none; stroke: #1f77b4; stroke-width: 1.5"/>
    <path d="M 79.167147 116.745165 
L 79.572108 115.251947 
L 79.9771 113.780961 
L 80.382099 112.332293 
L 80.787087 110.906007 
L 81.192038 109.502198 
L 81.596932 108.120939 
L 82.001748 106.762296 
L 82.406463 105.426346 
L 82.811059 104.113142 
L 83.215509 102.82277 
L 83.619794 101.555285 
L 84.023892 100.310744 
L 84.427783 99.089208 
L 84.831443 97.890731 
L 85.234853 96.715367 
L 85.63799 95.563166 
L 86.040836 94.434171 
L 86.443364 93.328437 
L 86.845555 92.246004 
L 87.247389 91.186912 
L 87.648843 90.151198 
L 88.0499 89.138891 
L 88.450534 88.150035 
L 88.850726 87.184657 
L 89.250454 86.242783 
L 89.649699 85.324438 
L 90.04844 84.429644 
L 90.446656 83.558424 
L 90.844326 82.710793 
L 91.241431 81.886764 
L 91.637948 81.086356 
L 92.033859 80.309575 
L 92.429144 79.556426 
L 92.823781 78.826919 
L 93.21775 78.121054 
L 93.611034 77.438831 
L 94.00361 76.780247 
L 94.395461 76.145298 
L 94.786566 75.533976 
L 95.176906 74.946268 
L 95.566462 74.382166 
L 95.955214 73.841653 
L 96.343146 73.324708 
L 96.730236 72.831318 
L 97.116465 72.361455 
L 97.501818 71.915096 
L 97.886273 71.492216 
L 98.269813 71.092783 
L 98.65242 70.716765 
L 99.034076 70.364129 
L 99.414762 70.034837 
L 99.794463 69.728851 
L 100.17316 69.446129 
L 100.550837 69.186626 
L 100.927475 68.950299 
L 101.303056 68.737099 
L 101.677566 68.546975 
L 102.050987 68.379875 
L 102.423303 68.235743 
L 102.7945 68.114522 
L 103.164556 68.016154 
L 103.533459 67.940577 
L 103.901193 67.887727 
L 104.267742 67.85754 
L 104.633091 67.849946 
L 104.997227 67.864879 
L 105.36013 67.902263 
L 105.721788 67.962026 
L 106.082185 68.044092 
L 106.441309 68.148384 
L 106.799145 68.274822 
L 107.155679 68.423325 
L 107.510896 68.593807 
L 107.864782 68.786185 
L 108.217325 69.000371 
L 108.568512 69.236276 
L 108.918328 69.493809 
L 109.266763 69.772877 
L 109.613804 70.073389 
L 109.959435 70.395243 
L 110.303647 70.738346 
L 110.646427 71.102596 
L 110.987764 71.487894 
L 111.327645 71.894136 
L 111.666062 72.321221 
L 112.002999 72.769037 
L 112.338447 73.237481 
L 112.672396 73.726443 
L 113.004835 74.235813 
L 113.335754 74.765479 
L 113.665144 75.315333 
L 113.992992 75.885251 
L 114.31929 76.475122 
L 114.644028 77.08483 
L 114.967197 77.714255 
L 115.288789 78.36328 
L 115.608796 79.031785 
L 115.927206 79.719638 
L 116.244011 80.426726 
L 116.559205 81.152921 
" clip-path="url(#paf1a436900)" style="fill: none; stroke: #1f77b4; stroke-width: 1.5"/>
    <path d="M 86.265999 111.067944 
L 86.67595 109.557823 
L 87.085805 108.070279 
L 87.495539 106.605398 
L 87.905135 105.163252 
L 88.314564 103.743935 
L 88.723807 102.347519 
L 89.132842 100.974075 
L 89.541647 99.623679 
L 89.950202 98.296388 
L 90.35848 96.992288 
L 90.766462 95.711434 
L 91.174125 94.453888 
L 91.581449 93.219708 
L 91.98841 92.008953 
L 92.394987 90.821675 
L 92.801158 89.657927 
L 93.206905 88.51775 
L 93.6122 87.401204 
L 94.017024 86.308328 
L 94.421357 85.239161 
L 94.825175 84.193743 
L 95.228461 83.172102 
L 95.631189 82.174285 
L 96.033339 81.200316 
L 96.434891 80.250224 
L 96.835824 79.324034 
L 97.236117 78.421767 
L 97.635748 77.543446 
L 98.034697 76.689088 
L 98.432946 75.858705 
L 98.83047 75.052317 
L 99.227251 74.269927 
L 99.62327 73.511542 
L 100.018504 72.777173 
L 100.412935 72.066818 
L 100.806543 71.380476 
L 101.199307 70.718147 
L 101.591208 70.079822 
L 101.982227 69.465492 
L 102.372345 68.87515 
L 102.761542 68.308781 
L 103.1498 67.766369 
L 103.5371 67.247893 
L 103.923422 66.753339 
L 104.308747 66.282679 
L 104.69306 65.835886 
L 105.076339 65.412936 
L 105.458568 65.013797 
L 105.839728 64.638432 
L 106.219802 64.28681 
L 106.598771 63.958891 
L 106.97662 63.654634 
L 107.35333 63.374 
L 107.728887 63.116937 
L 108.103269 62.883404 
L 108.476462 62.67335 
L 108.84845 62.48672 
L 109.219215 62.323464 
L 109.588743 62.183519 
L 109.957019 62.066833 
L 110.324023 61.97334 
L 110.689741 61.902981 
L 111.054159 61.855687 
L 111.417262 61.831391 
L 111.779033 61.830025 
L 112.139462 61.851515 
L 112.498528 61.895788 
L 112.85622 61.962769 
L 113.212523 62.052379 
L 113.567424 62.164537 
L 113.920908 62.299163 
L 114.272965 62.456172 
L 114.623577 62.635477 
L 114.972733 62.836992 
L 115.32042 63.060626 
L 115.666626 63.306288 
L 116.011337 63.573883 
L 116.354542 63.863319 
L 116.69623 64.174498 
L 117.036387 64.507318 
L 117.375002 64.861681 
L 117.712063 65.237485 
L 118.04756 65.634627 
L 118.381483 66.053 
L 118.713821 66.492499 
L 119.044561 66.953011 
L 119.373694 67.434429 
L 119.70121 67.936641 
L 120.0271 68.459533 
L 120.351354 69.00299 
L 120.673964 69.566902 
L 120.994918 70.151142 
L 121.314207 70.755594 
L 121.631825 71.380142 
L 121.947761 72.024659 
L 122.262009 72.689028 
L 122.574561 73.373123 
L 122.885406 74.076813 
L 123.194538 74.799979 
L 123.50195 75.54249 
" clip-path="url(#paf1a436900)" style="fill: none; stroke: #1f77b4; stroke-width: 1.5"/>
    <path d="M 93.551058 102.94972 
L 93.966883 101.419346 
L 94.382477 99.911989 
L 94.797817 98.427738 
L 95.212883 96.966666 
L 95.627647 95.528869 
L 96.042089 94.114422 
L 96.456186 92.723398 
L 96.869916 91.355873 
L 97.283258 90.011907 
L 97.696185 88.691588 
L 98.108677 87.394973 
L 98.520711 86.122123 
L 98.932266 84.873101 
L 99.343318 83.647965 
L 99.753845 82.446768 
L 100.163826 81.269567 
L 100.57324 80.1164 
L 100.982061 78.98733 
L 101.390269 77.882398 
L 101.797842 76.801644 
L 102.204759 75.745106 
L 102.611 74.712815 
L 103.016539 73.704817 
L 103.421357 72.721137 
L 103.825432 71.761807 
L 104.228744 70.826847 
L 104.631271 69.916284 
L 105.032992 69.030138 
L 105.433886 68.168426 
L 105.833934 67.331161 
L 106.233112 66.518361 
L 106.631402 65.730031 
L 107.028784 64.966177 
L 107.425235 64.22681 
L 107.820737 63.511928 
L 108.21527 62.821527 
L 108.608813 62.155608 
L 109.001348 61.514162 
L 109.392855 60.897179 
L 109.783314 60.30465 
L 110.172707 59.73656 
L 110.561013 59.192892 
L 110.948217 58.673623 
L 111.334296 58.178739 
L 111.719233 57.70821 
L 112.103012 57.262008 
L 112.485611 56.840107 
L 112.867014 56.442474 
L 113.247204 56.069072 
L 113.626162 55.719865 
L 114.003871 55.394814 
L 114.380314 55.093875 
L 114.755474 54.817007 
L 115.129337 54.564158 
L 115.501881 54.335283 
L 115.873092 54.130328 
L 116.242954 53.949239 
L 116.611451 53.791961 
L 116.978567 53.65843 
L 117.344289 53.548592 
L 117.708596 53.462378 
L 118.071477 53.399726 
L 118.432915 53.360566 
L 118.792897 53.344826 
L 119.151408 53.352438 
L 119.508435 53.383324 
L 119.86396 53.437409 
L 120.217972 53.514613 
L 120.570456 53.614857 
L 120.9214 53.738055 
L 121.270789 53.884124 
L 121.618614 54.052979 
L 121.964857 54.244525 
L 122.309508 54.458675 
L 122.652554 54.695338 
L 122.993984 54.954413 
L 123.333785 55.23581 
L 123.671946 55.539427 
L 124.008458 55.865164 
L 124.343305 56.212918 
L 124.676478 56.582585 
L 125.007967 56.97406 
L 125.337762 57.387238 
L 125.665851 57.822007 
L 125.992227 58.278258 
L 126.316876 58.755876 
L 126.639791 59.254749 
L 126.960962 59.77476 
L 127.280381 60.315795 
L 127.598038 60.877732 
L 127.913926 61.460458 
L 128.228034 62.063842 
L 128.540355 62.687764 
L 128.850882 63.332105 
L 129.159606 63.996734 
L 129.46652 64.681528 
L 129.771619 65.386359 
L 130.074892 66.111093 
L 130.376334 66.855603 
L 130.675939 67.619758 
" clip-path="url(#paf1a436900)" style="fill: none; stroke: #1f77b4; stroke-width: 1.5"/>
   </g>
  </g>
 </g>
 <defs>
  <clipPath id="paf1a436900">
   <rect x="7.2" y="7.2" width="138.6" height="138.6"/>
  </clipPath>
 </defs>
</svg>
