<?xml version="1.0" encoding="utf-8" standalone="no"?>
<!DOCTYPE svg PUBLIC "-//W3C//DTD SVG 1.1//EN"
  "http://www.w3.org/Graphics/SVG/1.1/DTD/svg11.dtd">
<svg xmlns:xlink="http://www.w3.org/1999/xlink" width="231.442188pt" height="169.678125pt" viewBox="0 0 231.442188 169.678125" xmlns="http://www.w3.org/2000/svg" version="1.1">
 <metadata>
  <rdf:RDF xmlns:dc="http://purl.org/dc/elements/1.1/" xmlns:cc="http://creativecommons.org/ns#" xmlns:rdf="http://www.w3.org/1999/02/22-rdf-syntax-ns#">
   <cc:Work>
    <dc:type rdf:resource="http://purl.org/dc/dcmitype/StillImage"/>
    <dc:date>2025-08-11T14:38:39.976772</dc:date>
    <dc:format>image/svg+xml</dc:format>
    <dc:creator>
     <cc:Agent>
      <dc:title>Matplotlib v3.7.2, https://matplotlib.org/</dc:title>
     </cc:Agent>
    </dc:creator>
   </cc:Work>
  </rdf:RDF>
 </metadata>
 <defs>
  <style type="text/css">*{stroke-linejoin: round; stroke-linecap: butt}</style>
 </defs>
 <g id="figure_1">
  <g id="patch_1">
   <path d="M 0 169.678125 
L 231.442188 169.678125 
L 231.442188 0 
L 0 0 
z
" style="fill: #ffffff"/>
  </g>
  <g id="axes_1">
   <g id="patch_2">
    <path d="M 28.942188 145.8 
L 224.242188 145.8 
L 224.242188 7.2 
L 28.942188 7.2 
z
" style="fill: #ffffff"/>
   </g>
   <g id="matplotlib.axis_1">
    <g id="xtick_1">
     <g id="line2d_1">
      <defs>
       <path id="m4d151f7523" d="M 0 0 
L 0 3.5 
" style="stroke: #000000; stroke-width: 0.8"/>
      </defs>
      <g>
       <use xlink:href="#m4d151f7523" x="37.81946" y="145.8" style="stroke: #000000; stroke-width: 0.8"/>
      </g>
     </g>
     <g id="text_1">
      <!-- 0 -->
      <g transform="translate(34.63821 160.398438) scale(0.1 -0.1)">
       <defs>
        <path id="DejaVuSans-30" d="M 2034 4250 
Q 1547 4250 1301 3770 
Q 1056 3291 1056 2328 
Q 1056 1369 1301 889 
Q 1547 409 2034 409 
Q 2525 409 2770 889 
Q 3016 1369 3016 2328 
Q 3016 3291 2770 3770 
Q 2525 4250 2034 4250 
z
M 2034 4750 
Q 2819 4750 3233 4129 
Q 3647 3509 3647 2328 
Q 3647 1150 3233 529 
Q 2819 -91 2034 -91 
Q 1250 -91 836 529 
Q 422 1150 422 2328 
Q 422 3509 836 4129 
Q 1250 4750 2034 4750 
z
" transform="scale(0.015625)"/>
       </defs>
       <use xlink:href="#DejaVuSans-30"/>
      </g>
     </g>
    </g>
    <g id="xtick_2">
     <g id="line2d_2">
      <g>
       <use xlink:href="#m4d151f7523" x="73.328551" y="145.8" style="stroke: #000000; stroke-width: 0.8"/>
      </g>
     </g>
     <g id="text_2">
      <!-- 1 -->
      <g transform="translate(70.147301 160.398438) scale(0.1 -0.1)">
       <defs>
        <path id="DejaVuSans-31" d="M 794 531 
L 1825 531 
L 1825 4091 
L 703 3866 
L 703 4441 
L 1819 4666 
L 2450 4666 
L 2450 531 
L 3481 531 
L 3481 0 
L 794 0 
L 794 531 
z
" transform="scale(0.015625)"/>
       </defs>
       <use xlink:href="#DejaVuSans-31"/>
      </g>
     </g>
    </g>
    <g id="xtick_3">
     <g id="line2d_3">
      <g>
       <use xlink:href="#m4d151f7523" x="108.837642" y="145.8" style="stroke: #000000; stroke-width: 0.8"/>
      </g>
     </g>
     <g id="text_3">
      <!-- 2 -->
      <g transform="translate(105.656392 160.398438) scale(0.1 -0.1)">
       <defs>
        <path id="DejaVuSans-32" d="M 1228 531 
L 3431 531 
L 3431 0 
L 469 0 
L 469 531 
Q 828 903 1448 1529 
Q 2069 2156 2228 2338 
Q 2531 2678 2651 2914 
Q 2772 3150 2772 3378 
Q 2772 3750 2511 3984 
Q 2250 4219 1831 4219 
Q 1534 4219 1204 4116 
Q 875 4013 500 3803 
L 500 4441 
Q 881 4594 1212 4672 
Q 1544 4750 1819 4750 
Q 2544 4750 2975 4387 
Q 3406 4025 3406 3419 
Q 3406 3131 3298 2873 
Q 3191 2616 2906 2266 
Q 2828 2175 2409 1742 
Q 1991 1309 1228 531 
z
" transform="scale(0.015625)"/>
       </defs>
       <use xlink:href="#DejaVuSans-32"/>
      </g>
     </g>
    </g>
    <g id="xtick_4">
     <g id="line2d_4">
      <g>
       <use xlink:href="#m4d151f7523" x="144.346733" y="145.8" style="stroke: #000000; stroke-width: 0.8"/>
      </g>
     </g>
     <g id="text_4">
      <!-- 3 -->
      <g transform="translate(141.165483 160.398438) scale(0.1 -0.1)">
       <defs>
        <path id="DejaVuSans-33" d="M 2597 2516 
Q 3050 2419 3304 2112 
Q 3559 1806 3559 1356 
Q 3559 666 3084 287 
Q 2609 -91 1734 -91 
Q 1441 -91 1130 -33 
Q 819 25 488 141 
L 488 750 
Q 750 597 1062 519 
Q 1375 441 1716 441 
Q 2309 441 2620 675 
Q 2931 909 2931 1356 
Q 2931 1769 2642 2001 
Q 2353 2234 1838 2234 
L 1294 2234 
L 1294 2753 
L 1863 2753 
Q 2328 2753 2575 2939 
Q 2822 3125 2822 3475 
Q 2822 3834 2567 4026 
Q 2313 4219 1838 4219 
Q 1578 4219 1281 4162 
Q 984 4106 628 3988 
L 628 4550 
Q 988 4650 1302 4700 
Q 1616 4750 1894 4750 
Q 2613 4750 3031 4423 
Q 3450 4097 3450 3541 
Q 3450 3153 3228 2886 
Q 3006 2619 2597 2516 
z
" transform="scale(0.015625)"/>
       </defs>
       <use xlink:href="#DejaVuSans-33"/>
      </g>
     </g>
    </g>
    <g id="xtick_5">
     <g id="line2d_5">
      <g>
       <use xlink:href="#m4d151f7523" x="179.855824" y="145.8" style="stroke: #000000; stroke-width: 0.8"/>
      </g>
     </g>
     <g id="text_5">
      <!-- 4 -->
      <g transform="translate(176.674574 160.398438) scale(0.1 -0.1)">
       <defs>
        <path id="DejaVuSans-34" d="M 2419 4116 
L 825 1625 
L 2419 1625 
L 2419 4116 
z
M 2253 4666 
L 3047 4666 
L 3047 1625 
L 3713 1625 
L 3713 1100 
L 3047 1100 
L 3047 0 
L 2419 0 
L 2419 1100 
L 313 1100 
L 313 1709 
L 2253 4666 
z
" transform="scale(0.015625)"/>
       </defs>
       <use xlink:href="#DejaVuSans-34"/>
      </g>
     </g>
    </g>
    <g id="xtick_6">
     <g id="line2d_6">
      <g>
       <use xlink:href="#m4d151f7523" x="215.364915" y="145.8" style="stroke: #000000; stroke-width: 0.8"/>
      </g>
     </g>
     <g id="text_6">
      <!-- 5 -->
      <g transform="translate(212.183665 160.398438) scale(0.1 -0.1)">
       <defs>
        <path id="DejaVuSans-35" d="M 691 4666 
L 3169 4666 
L 3169 4134 
L 1269 4134 
L 1269 2991 
Q 1406 3038 1543 3061 
Q 1681 3084 1819 3084 
Q 2600 3084 3056 2656 
Q 3513 2228 3513 1497 
Q 3513 744 3044 326 
Q 2575 -91 1722 -91 
Q 1428 -91 1123 -41 
Q 819 9 494 109 
L 494 744 
Q 775 591 1075 516 
Q 1375 441 1709 441 
Q 2250 441 2565 725 
Q 2881 1009 2881 1497 
Q 2881 1984 2565 2268 
Q 2250 2553 1709 2553 
Q 1456 2553 1204 2497 
Q 953 2441 691 2322 
L 691 4666 
z
" transform="scale(0.015625)"/>
       </defs>
       <use xlink:href="#DejaVuSans-35"/>
      </g>
     </g>
    </g>
   </g>
   <g id="matplotlib.axis_2">
    <g id="ytick_1">
     <g id="line2d_7">
      <defs>
       <path id="m9339a1cda4" d="M 0 0 
L -3.5 0 
" style="stroke: #000000; stroke-width: 0.8"/>
      </defs>
      <g>
       <use xlink:href="#m9339a1cda4" x="28.942188" y="128.002115" style="stroke: #000000; stroke-width: 0.8"/>
      </g>
     </g>
     <g id="text_7">
      <!-- −2 -->
      <g transform="translate(7.2 131.801334) scale(0.1 -0.1)">
       <defs>
        <path id="DejaVuSans-2212" d="M 678 2272 
L 4684 2272 
L 4684 1741 
L 678 1741 
L 678 2272 
z
" transform="scale(0.015625)"/>
       </defs>
       <use xlink:href="#DejaVuSans-2212"/>
       <use xlink:href="#DejaVuSans-32" x="83.789062"/>
      </g>
     </g>
    </g>
    <g id="ytick_2">
     <g id="line2d_8">
      <g>
       <use xlink:href="#m9339a1cda4" x="28.942188" y="91.999964" style="stroke: #000000; stroke-width: 0.8"/>
      </g>
     </g>
     <g id="text_8">
      <!-- −1 -->
      <g transform="translate(7.2 95.799183) scale(0.1 -0.1)">
       <use xlink:href="#DejaVuSans-2212"/>
       <use xlink:href="#DejaVuSans-31" x="83.789062"/>
      </g>
     </g>
    </g>
    <g id="ytick_3">
     <g id="line2d_9">
      <g>
       <use xlink:href="#m9339a1cda4" x="28.942188" y="55.997814" style="stroke: #000000; stroke-width: 0.8"/>
      </g>
     </g>
     <g id="text_9">
      <!-- 0 -->
      <g transform="translate(15.579688 59.797032) scale(0.1 -0.1)">
       <use xlink:href="#DejaVuSans-30"/>
      </g>
     </g>
    </g>
    <g id="ytick_4">
     <g id="line2d_10">
      <g>
       <use xlink:href="#m9339a1cda4" x="28.942188" y="19.995663" style="stroke: #000000; stroke-width: 0.8"/>
      </g>
     </g>
     <g id="text_10">
      <!-- 1 -->
      <g transform="translate(15.579688 23.794881) scale(0.1 -0.1)">
       <use xlink:href="#DejaVuSans-31"/>
      </g>
     </g>
    </g>
   </g>
   <g id="line2d_11">
    <path d="M 37.81946 24.339195 
L 41.442837 25.523867 
L 45.066213 26.748344 
L 48.68959 28.057181 
L 52.312967 29.495686 
L 55.936343 31.101302 
L 59.55972 32.896166 
L 63.183097 34.881719 
L 66.806473 37.035828 
L 70.42985 39.312579 
L 74.053226 41.644633 
L 77.676603 43.948026 
L 81.29998 46.129108 
L 84.923356 48.09344 
L 88.546733 49.756244 
L 92.17011 51.053907 
L 95.793486 51.955541 
L 99.416863 52.473346 
L 103.040239 52.670147 
L 106.663616 52.66243 
L 110.286993 52.617365 
L 113.910369 52.74309 
L 117.533746 53.272289 
L 121.157123 54.440327 
L 124.780499 56.460244 
L 128.403876 59.497557 
L 132.027252 63.648365 
L 135.650629 68.923723 
L 139.274006 75.242641 
L 142.897382 82.434813 
L 146.520759 90.252769 
L 150.144136 98.391922 
L 153.767512 106.51595 
L 157.390889 114.28432 
L 161.014265 121.378789 
L 164.637642 127.52614 
L 168.261019 132.514981 
L 171.884395 136.20556 
L 175.507772 138.532349 
L 179.131149 139.5 
L 182.754525 139.173952 
L 186.377902 137.667301 
L 190.001278 135.12575 
L 193.624655 131.712398 
L 197.248032 127.593883 
L 200.871408 122.929149 
L 204.494785 117.861523 
L 208.118162 112.514485 
L 211.741538 106.990872 
L 215.364915 101.374902 
" clip-path="url(#pade5f4bdf5)" style="fill: none; stroke: #1f77b4; stroke-opacity: 0.5; stroke-width: 1.5; stroke-linecap: square"/>
   </g>
   <g id="line2d_12">
    <path d="M 37.81946 93.629208 
L 41.442837 92.243437 
L 45.066213 91.837003 
L 48.68959 92.261723 
L 52.312967 93.347027 
L 55.936343 94.918376 
L 59.55972 96.813583 
L 63.183097 98.895129 
L 66.806473 101.057213 
L 70.42985 103.22704 
L 74.053226 105.360492 
L 77.676603 107.433199 
L 81.29998 109.42854 
L 84.923356 111.324625 
L 88.546733 113.082257 
L 92.17011 114.63611 
L 95.793486 115.890603 
L 99.416863 116.721707 
L 103.040239 116.984813 
L 106.663616 116.528079 
L 110.286993 115.209729 
L 113.910369 112.917007 
L 117.533746 109.584172 
L 121.157123 105.206819 
L 124.780499 99.850179 
L 128.403876 93.649965 
L 132.027252 86.805212 
L 135.650629 79.563873 
L 139.274006 72.202832 
L 142.897382 65.004937 
L 146.520759 58.235843 
L 150.144136 52.123559 
L 153.767512 46.842987 
L 157.390889 42.50696 
L 161.014265 39.164342 
L 164.637642 36.804588 
L 168.261019 35.367507 
L 171.884395 34.756143 
L 175.507772 34.850509 
L 179.131149 35.520075 
L 182.754525 36.633215 
L 186.377902 38.062703 
L 190.001278 39.687124 
L 193.624655 41.388942 
L 197.248032 43.050686 
L 200.871408 44.551013 
L 204.494785 45.762456 
L 208.118162 46.552289 
L 211.741538 46.78706 
L 215.364915 46.340803 
" clip-path="url(#pade5f4bdf5)" style="fill: none; stroke: #ff7f0e; stroke-opacity: 0.5; stroke-width: 1.5; stroke-linecap: square"/>
   </g>
   <g id="line2d_13">
    <path d="M 37.81946 17.557229 
L 41.442837 17.860609 
L 45.066213 18.655467 
L 48.68959 20.099981 
L 52.312967 22.355923 
L 55.936343 25.556498 
L 59.55972 29.777137 
L 63.183097 35.013619 
L 66.806473 41.170834 
L 70.42985 48.063411 
L 74.053226 55.42788 
L 77.676603 62.944168 
L 81.29998 70.263083 
L 84.923356 77.036001 
L 88.546733 82.942855 
L 92.17011 87.715428 
L 95.793486 91.153764 
L 99.416863 93.134891 
L 103.040239 93.613983 
L 106.663616 92.619257 
L 110.286993 90.242128 
L 113.910369 86.624666 
L 117.533746 81.946042 
L 121.157123 76.409492 
L 124.780499 70.230698 
L 128.403876 63.62823 
L 132.027252 56.816038 
L 135.650629 49.997961 
L 139.274006 43.363845 
L 142.897382 37.086883 
L 146.520759 31.321832 
L 150.144136 26.203668 
L 153.767512 21.846466 
L 157.390889 18.342166 
L 161.014265 15.759084 
L 164.637642 14.140033 
L 168.261019 13.5 
L 171.884395 13.823583 
L 175.507772 15.062496 
L 179.131149 17.133689 
L 182.754525 19.918837 
L 186.377902 23.265997 
L 190.001278 26.994131 
L 193.624655 30.901078 
L 197.248032 34.774995 
L 200.871408 38.408845 
L 204.494785 41.61679 
L 208.118162 44.250875 
L 211.741538 46.215967 
L 215.364915 47.480869 
" clip-path="url(#pade5f4bdf5)" style="fill: none; stroke: #2ca02c; stroke-opacity: 0.5; stroke-width: 1.5; stroke-linecap: square"/>
   </g>
   <g id="line2d_14">
    <path d="M 37.81946 76.287449 
L 41.442837 68.872255 
L 45.066213 61.186963 
L 48.68959 53.443907 
L 52.312967 45.870918 
L 55.936343 38.703188 
L 59.55972 32.174689 
L 63.183097 26.508919 
L 66.806473 21.908856 
L 70.42985 18.546247 
L 74.053226 16.551132 
L 77.676603 16.002534 
L 81.29998 16.92192 
L 84.923356 19.270667 
L 88.546733 22.95245 
L 92.17011 27.820763 
L 95.793486 33.690855 
L 99.416863 40.354524 
L 103.040239 47.595716 
L 106.663616 55.204609 
L 110.286993 62.988219 
L 113.910369 70.77627 
L 117.533746 78.421985 
L 121.157123 85.798515 
L 124.780499 92.792533 
L 128.403876 99.297038 
L 132.027252 105.205451 
L 135.650629 110.40864 
L 139.274006 114.795897 
L 142.897382 118.259856 
L 146.520759 120.704701 
L 150.144136 122.056239 
L 153.767512 122.272117 
L 157.390889 121.350715 
L 161.014265 119.33722 
L 164.637642 116.326354 
L 168.261019 112.461281 
L 171.884395 107.929087 
L 175.507772 102.953181 
L 179.131149 97.783344 
L 182.754525 92.683921 
L 186.377902 87.920743 
L 190.001278 83.747234 
L 193.624655 80.390241 
L 197.248032 78.036151 
L 200.871408 76.818229 
L 204.494785 76.806026 
L 208.118162 77.997976 
L 211.741538 80.318138 
L 215.364915 83.617846 
" clip-path="url(#pade5f4bdf5)" style="fill: none; stroke: #d62728; stroke-opacity: 0.5; stroke-width: 1.5; stroke-linecap: square"/>
   </g>
   <g id="line2d_15">
    <path d="M 37.81946 79.592368 
L 41.442837 78.486694 
L 45.066213 77.253523 
L 48.68959 75.8391 
L 52.312967 74.20139 
L 55.936343 72.320288 
L 59.55972 70.20428 
L 63.183097 67.892354 
L 66.806473 65.450661 
L 70.42985 62.964507 
L 74.053226 60.526899 
L 77.676603 58.22558 
L 81.29998 56.130771 
L 84.923356 54.285646 
L 88.546733 52.701299 
L 92.17011 51.357119 
L 95.793486 50.206713 
L 99.416863 49.188657 
L 103.040239 48.240506 
L 106.663616 47.314015 
L 110.286993 46.389155 
L 113.910369 45.484585 
L 117.533746 44.662667 
L 121.157123 44.027751 
L 124.780499 43.717445 
L 128.403876 43.887524 
L 132.027252 44.692257 
L 135.650629 46.262692 
L 139.274006 48.685838 
L 142.897382 51.987905 
L 146.520759 56.124197 
L 150.144136 60.977466 
L 153.767512 66.365409 
L 157.390889 72.056568 
L 161.014265 77.79286 
L 164.637642 83.315678 
L 168.261019 88.392325 
L 171.884395 92.839146 
L 175.507772 96.538515 
L 179.131149 99.447523 
L 182.754525 101.597516 
L 186.377902 103.084893 
L 190.001278 104.054632 
L 193.624655 104.67904 
L 197.248032 105.134536 
L 200.871408 105.579475 
L 204.494785 106.135696 
L 208.118162 106.875819 
L 211.741538 107.817534 
L 215.364915 108.925219 
" clip-path="url(#pade5f4bdf5)" style="fill: none; stroke: #9467bd; stroke-opacity: 0.5; stroke-width: 1.5; stroke-linecap: square"/>
   </g>
   <g id="patch_3">
    <path d="M 28.942188 145.8 
L 28.942188 7.2 
" style="fill: none; stroke: #000000; stroke-width: 0.8; stroke-linejoin: miter; stroke-linecap: square"/>
   </g>
   <g id="patch_4">
    <path d="M 224.242188 145.8 
L 224.242188 7.2 
" style="fill: none; stroke: #000000; stroke-width: 0.8; stroke-linejoin: miter; stroke-linecap: square"/>
   </g>
   <g id="patch_5">
    <path d="M 28.942187 145.8 
L 224.242188 145.8 
" style="fill: none; stroke: #000000; stroke-width: 0.8; stroke-linejoin: miter; stroke-linecap: square"/>
   </g>
   <g id="patch_6">
    <path d="M 28.942187 7.2 
L 224.242188 7.2 
" style="fill: none; stroke: #000000; stroke-width: 0.8; stroke-linejoin: miter; stroke-linecap: square"/>
   </g>
  </g>
 </g>
 <defs>
  <clipPath id="pade5f4bdf5">
   <rect x="28.942188" y="7.2" width="195.3" height="138.6"/>
  </clipPath>
 </defs>
</svg>
