<?xml version="1.0" encoding="utf-8" standalone="no"?>
<!DOCTYPE svg PUBLIC "-//W3C//DTD SVG 1.1//EN"
  "http://www.w3.org/Graphics/SVG/1.1/DTD/svg11.dtd">
<svg xmlns:xlink="http://www.w3.org/1999/xlink" width="406.885938pt" height="211.07625pt" viewBox="0 0 406.885938 211.07625" xmlns="http://www.w3.org/2000/svg" version="1.1">
 <metadata>
  <rdf:RDF xmlns:dc="http://purl.org/dc/elements/1.1/" xmlns:cc="http://creativecommons.org/ns#" xmlns:rdf="http://www.w3.org/1999/02/22-rdf-syntax-ns#">
   <cc:Work>
    <dc:type rdf:resource="http://purl.org/dc/dcmitype/StillImage"/>
    <dc:date>2025-08-11T13:52:30.080618</dc:date>
    <dc:format>image/svg+xml</dc:format>
    <dc:creator>
     <cc:Agent>
      <dc:title>Matplotlib v3.7.2, https://matplotlib.org/</dc:title>
     </cc:Agent>
    </dc:creator>
   </cc:Work>
  </rdf:RDF>
 </metadata>
 <defs>
  <style type="text/css">*{stroke-linejoin: round; stroke-linecap: butt}</style>
 </defs>
 <g id="figure_1">
  <g id="patch_1">
   <path d="M 0 211.07625 
L 406.885938 211.07625 
L 406.885938 0 
L 0 0 
z
" style="fill: #ffffff"/>
  </g>
  <g id="axes_1">
   <g id="patch_2">
    <path d="M 52.160938 173.52 
L 386.960938 173.52 
L 386.960938 7.2 
L 52.160938 7.2 
z
" style="fill: #ffffff"/>
   </g>
   <g id="matplotlib.axis_1">
    <g id="xtick_1">
     <g id="line2d_1">
      <path d="M 118.852829 173.52 
L 118.852829 7.2 
" clip-path="url(#p6b6eb14052)" style="fill: none; stroke: #b0b0b0; stroke-width: 0.8; stroke-linecap: square"/>
     </g>
     <g id="line2d_2">
      <defs>
       <path id="m380d57b0d4" d="M 0 0 
L 0 3.5 
" style="stroke: #000000; stroke-width: 0.8"/>
      </defs>
      <g>
       <use xlink:href="#m380d57b0d4" x="118.852829" y="173.52" style="stroke: #000000; stroke-width: 0.8"/>
      </g>
     </g>
     <g id="text_1">
      <!-- 200 -->
      <g transform="translate(109.309079 188.118438) scale(0.1 -0.1)">
       <defs>
        <path id="DejaVuSans-32" d="M 1228 531 
L 3431 531 
L 3431 0 
L 469 0 
L 469 531 
Q 828 903 1448 1529 
Q 2069 2156 2228 2338 
Q 2531 2678 2651 2914 
Q 2772 3150 2772 3378 
Q 2772 3750 2511 3984 
Q 2250 4219 1831 4219 
Q 1534 4219 1204 4116 
Q 875 4013 500 3803 
L 500 4441 
Q 881 4594 1212 4672 
Q 1544 4750 1819 4750 
Q 2544 4750 2975 4387 
Q 3406 4025 3406 3419 
Q 3406 3131 3298 2873 
Q 3191 2616 2906 2266 
Q 2828 2175 2409 1742 
Q 1991 1309 1228 531 
z
" transform="scale(0.015625)"/>
        <path id="DejaVuSans-30" d="M 2034 4250 
Q 1547 4250 1301 3770 
Q 1056 3291 1056 2328 
Q 1056 1369 1301 889 
Q 1547 409 2034 409 
Q 2525 409 2770 889 
Q 3016 1369 3016 2328 
Q 3016 3291 2770 3770 
Q 2525 4250 2034 4250 
z
M 2034 4750 
Q 2819 4750 3233 4129 
Q 3647 3509 3647 2328 
Q 3647 1150 3233 529 
Q 2819 -91 2034 -91 
Q 1250 -91 836 529 
Q 422 1150 422 2328 
Q 422 3509 836 4129 
Q 1250 4750 2034 4750 
z
" transform="scale(0.015625)"/>
       </defs>
       <use xlink:href="#DejaVuSans-32"/>
       <use xlink:href="#DejaVuSans-30" x="63.623047"/>
       <use xlink:href="#DejaVuSans-30" x="127.246094"/>
      </g>
     </g>
    </g>
    <g id="xtick_2">
     <g id="line2d_3">
      <path d="M 185.879856 173.52 
L 185.879856 7.2 
" clip-path="url(#p6b6eb14052)" style="fill: none; stroke: #b0b0b0; stroke-width: 0.8; stroke-linecap: square"/>
     </g>
     <g id="line2d_4">
      <g>
       <use xlink:href="#m380d57b0d4" x="185.879856" y="173.52" style="stroke: #000000; stroke-width: 0.8"/>
      </g>
     </g>
     <g id="text_2">
      <!-- 400 -->
      <g transform="translate(176.336106 188.118438) scale(0.1 -0.1)">
       <defs>
        <path id="DejaVuSans-34" d="M 2419 4116 
L 825 1625 
L 2419 1625 
L 2419 4116 
z
M 2253 4666 
L 3047 4666 
L 3047 1625 
L 3713 1625 
L 3713 1100 
L 3047 1100 
L 3047 0 
L 2419 0 
L 2419 1100 
L 313 1100 
L 313 1709 
L 2253 4666 
z
" transform="scale(0.015625)"/>
       </defs>
       <use xlink:href="#DejaVuSans-34"/>
       <use xlink:href="#DejaVuSans-30" x="63.623047"/>
       <use xlink:href="#DejaVuSans-30" x="127.246094"/>
      </g>
     </g>
    </g>
    <g id="xtick_3">
     <g id="line2d_5">
      <path d="M 252.906883 173.52 
L 252.906883 7.2 
" clip-path="url(#p6b6eb14052)" style="fill: none; stroke: #b0b0b0; stroke-width: 0.8; stroke-linecap: square"/>
     </g>
     <g id="line2d_6">
      <g>
       <use xlink:href="#m380d57b0d4" x="252.906883" y="173.52" style="stroke: #000000; stroke-width: 0.8"/>
      </g>
     </g>
     <g id="text_3">
      <!-- 600 -->
      <g transform="translate(243.363133 188.118438) scale(0.1 -0.1)">
       <defs>
        <path id="DejaVuSans-36" d="M 2113 2584 
Q 1688 2584 1439 2293 
Q 1191 2003 1191 1497 
Q 1191 994 1439 701 
Q 1688 409 2113 409 
Q 2538 409 2786 701 
Q 3034 994 3034 1497 
Q 3034 2003 2786 2293 
Q 2538 2584 2113 2584 
z
M 3366 4563 
L 3366 3988 
Q 3128 4100 2886 4159 
Q 2644 4219 2406 4219 
Q 1781 4219 1451 3797 
Q 1122 3375 1075 2522 
Q 1259 2794 1537 2939 
Q 1816 3084 2150 3084 
Q 2853 3084 3261 2657 
Q 3669 2231 3669 1497 
Q 3669 778 3244 343 
Q 2819 -91 2113 -91 
Q 1303 -91 875 529 
Q 447 1150 447 2328 
Q 447 3434 972 4092 
Q 1497 4750 2381 4750 
Q 2619 4750 2861 4703 
Q 3103 4656 3366 4563 
z
" transform="scale(0.015625)"/>
       </defs>
       <use xlink:href="#DejaVuSans-36"/>
       <use xlink:href="#DejaVuSans-30" x="63.623047"/>
       <use xlink:href="#DejaVuSans-30" x="127.246094"/>
      </g>
     </g>
    </g>
    <g id="xtick_4">
     <g id="line2d_7">
      <path d="M 319.93391 173.52 
L 319.93391 7.2 
" clip-path="url(#p6b6eb14052)" style="fill: none; stroke: #b0b0b0; stroke-width: 0.8; stroke-linecap: square"/>
     </g>
     <g id="line2d_8">
      <g>
       <use xlink:href="#m380d57b0d4" x="319.93391" y="173.52" style="stroke: #000000; stroke-width: 0.8"/>
      </g>
     </g>
     <g id="text_4">
      <!-- 800 -->
      <g transform="translate(310.39016 188.118438) scale(0.1 -0.1)">
       <defs>
        <path id="DejaVuSans-38" d="M 2034 2216 
Q 1584 2216 1326 1975 
Q 1069 1734 1069 1313 
Q 1069 891 1326 650 
Q 1584 409 2034 409 
Q 2484 409 2743 651 
Q 3003 894 3003 1313 
Q 3003 1734 2745 1975 
Q 2488 2216 2034 2216 
z
M 1403 2484 
Q 997 2584 770 2862 
Q 544 3141 544 3541 
Q 544 4100 942 4425 
Q 1341 4750 2034 4750 
Q 2731 4750 3128 4425 
Q 3525 4100 3525 3541 
Q 3525 3141 3298 2862 
Q 3072 2584 2669 2484 
Q 3125 2378 3379 2068 
Q 3634 1759 3634 1313 
Q 3634 634 3220 271 
Q 2806 -91 2034 -91 
Q 1263 -91 848 271 
Q 434 634 434 1313 
Q 434 1759 690 2068 
Q 947 2378 1403 2484 
z
M 1172 3481 
Q 1172 3119 1398 2916 
Q 1625 2713 2034 2713 
Q 2441 2713 2670 2916 
Q 2900 3119 2900 3481 
Q 2900 3844 2670 4047 
Q 2441 4250 2034 4250 
Q 1625 4250 1398 4047 
Q 1172 3844 1172 3481 
z
" transform="scale(0.015625)"/>
       </defs>
       <use xlink:href="#DejaVuSans-38"/>
       <use xlink:href="#DejaVuSans-30" x="63.623047"/>
       <use xlink:href="#DejaVuSans-30" x="127.246094"/>
      </g>
     </g>
    </g>
    <g id="xtick_5">
     <g id="line2d_9">
      <path d="M 386.960938 173.52 
L 386.960938 7.2 
" clip-path="url(#p6b6eb14052)" style="fill: none; stroke: #b0b0b0; stroke-width: 0.8; stroke-linecap: square"/>
     </g>
     <g id="line2d_10">
      <g>
       <use xlink:href="#m380d57b0d4" x="386.960938" y="173.52" style="stroke: #000000; stroke-width: 0.8"/>
      </g>
     </g>
     <g id="text_5">
      <!-- 1000 -->
      <g transform="translate(374.235937 188.118438) scale(0.1 -0.1)">
       <defs>
        <path id="DejaVuSans-31" d="M 794 531 
L 1825 531 
L 1825 4091 
L 703 3866 
L 703 4441 
L 1819 4666 
L 2450 4666 
L 2450 531 
L 3481 531 
L 3481 0 
L 794 0 
L 794 531 
z
" transform="scale(0.015625)"/>
       </defs>
       <use xlink:href="#DejaVuSans-31"/>
       <use xlink:href="#DejaVuSans-30" x="63.623047"/>
       <use xlink:href="#DejaVuSans-30" x="127.246094"/>
       <use xlink:href="#DejaVuSans-30" x="190.869141"/>
      </g>
     </g>
    </g>
    <g id="text_6">
     <!-- time -->
     <g transform="translate(208.264844 201.796563) scale(0.1 -0.1)">
      <defs>
       <path id="DejaVuSans-74" d="M 1172 4494 
L 1172 3500 
L 2356 3500 
L 2356 3053 
L 1172 3053 
L 1172 1153 
Q 1172 725 1289 603 
Q 1406 481 1766 481 
L 2356 481 
L 2356 0 
L 1766 0 
Q 1100 0 847 248 
Q 594 497 594 1153 
L 594 3053 
L 172 3053 
L 172 3500 
L 594 3500 
L 594 4494 
L 1172 4494 
z
" transform="scale(0.015625)"/>
       <path id="DejaVuSans-69" d="M 603 3500 
L 1178 3500 
L 1178 0 
L 603 0 
L 603 3500 
z
M 603 4863 
L 1178 4863 
L 1178 4134 
L 603 4134 
L 603 4863 
z
" transform="scale(0.015625)"/>
       <path id="DejaVuSans-6d" d="M 3328 2828 
Q 3544 3216 3844 3400 
Q 4144 3584 4550 3584 
Q 5097 3584 5394 3201 
Q 5691 2819 5691 2113 
L 5691 0 
L 5113 0 
L 5113 2094 
Q 5113 2597 4934 2840 
Q 4756 3084 4391 3084 
Q 3944 3084 3684 2787 
Q 3425 2491 3425 1978 
L 3425 0 
L 2847 0 
L 2847 2094 
Q 2847 2600 2669 2842 
Q 2491 3084 2119 3084 
Q 1678 3084 1418 2786 
Q 1159 2488 1159 1978 
L 1159 0 
L 581 0 
L 581 3500 
L 1159 3500 
L 1159 2956 
Q 1356 3278 1631 3431 
Q 1906 3584 2284 3584 
Q 2666 3584 2933 3390 
Q 3200 3197 3328 2828 
z
" transform="scale(0.015625)"/>
       <path id="DejaVuSans-65" d="M 3597 1894 
L 3597 1613 
L 953 1613 
Q 991 1019 1311 708 
Q 1631 397 2203 397 
Q 2534 397 2845 478 
Q 3156 559 3463 722 
L 3463 178 
Q 3153 47 2828 -22 
Q 2503 -91 2169 -91 
Q 1331 -91 842 396 
Q 353 884 353 1716 
Q 353 2575 817 3079 
Q 1281 3584 2069 3584 
Q 2775 3584 3186 3129 
Q 3597 2675 3597 1894 
z
M 3022 2063 
Q 3016 2534 2758 2815 
Q 2500 3097 2075 3097 
Q 1594 3097 1305 2825 
Q 1016 2553 972 2059 
L 3022 2063 
z
" transform="scale(0.015625)"/>
      </defs>
      <use xlink:href="#DejaVuSans-74"/>
      <use xlink:href="#DejaVuSans-69" x="39.208984"/>
      <use xlink:href="#DejaVuSans-6d" x="66.992188"/>
      <use xlink:href="#DejaVuSans-65" x="164.404297"/>
     </g>
    </g>
   </g>
   <g id="matplotlib.axis_2">
    <g id="ytick_1">
     <g id="line2d_11">
      <path d="M 52.160938 167.14888 
L 386.960938 167.14888 
" clip-path="url(#p6b6eb14052)" style="fill: none; stroke: #b0b0b0; stroke-width: 0.8; stroke-linecap: square"/>
     </g>
     <g id="line2d_12">
      <defs>
       <path id="m0fe922ced2" d="M 0 0 
L -3.5 0 
" style="stroke: #000000; stroke-width: 0.8"/>
      </defs>
      <g>
       <use xlink:href="#m0fe922ced2" x="52.160938" y="167.14888" style="stroke: #000000; stroke-width: 0.8"/>
      </g>
     </g>
     <g id="text_7">
      <!-- −1.5 -->
      <g transform="translate(20.878125 170.948099) scale(0.1 -0.1)">
       <defs>
        <path id="DejaVuSans-2212" d="M 678 2272 
L 4684 2272 
L 4684 1741 
L 678 1741 
L 678 2272 
z
" transform="scale(0.015625)"/>
        <path id="DejaVuSans-2e" d="M 684 794 
L 1344 794 
L 1344 0 
L 684 0 
L 684 794 
z
" transform="scale(0.015625)"/>
        <path id="DejaVuSans-35" d="M 691 4666 
L 3169 4666 
L 3169 4134 
L 1269 4134 
L 1269 2991 
Q 1406 3038 1543 3061 
Q 1681 3084 1819 3084 
Q 2600 3084 3056 2656 
Q 3513 2228 3513 1497 
Q 3513 744 3044 326 
Q 2575 -91 1722 -91 
Q 1428 -91 1123 -41 
Q 819 9 494 109 
L 494 744 
Q 775 591 1075 516 
Q 1375 441 1709 441 
Q 2250 441 2565 725 
Q 2881 1009 2881 1497 
Q 2881 1984 2565 2268 
Q 2250 2553 1709 2553 
Q 1456 2553 1204 2497 
Q 953 2441 691 2322 
L 691 4666 
z
" transform="scale(0.015625)"/>
       </defs>
       <use xlink:href="#DejaVuSans-2212"/>
       <use xlink:href="#DejaVuSans-31" x="83.789062"/>
       <use xlink:href="#DejaVuSans-2e" x="147.412109"/>
       <use xlink:href="#DejaVuSans-35" x="179.199219"/>
      </g>
     </g>
    </g>
    <g id="ytick_2">
     <g id="line2d_13">
      <path d="M 52.160938 142.370632 
L 386.960938 142.370632 
" clip-path="url(#p6b6eb14052)" style="fill: none; stroke: #b0b0b0; stroke-width: 0.8; stroke-linecap: square"/>
     </g>
     <g id="line2d_14">
      <g>
       <use xlink:href="#m0fe922ced2" x="52.160938" y="142.370632" style="stroke: #000000; stroke-width: 0.8"/>
      </g>
     </g>
     <g id="text_8">
      <!-- −1.0 -->
      <g transform="translate(20.878125 146.169851) scale(0.1 -0.1)">
       <use xlink:href="#DejaVuSans-2212"/>
       <use xlink:href="#DejaVuSans-31" x="83.789062"/>
       <use xlink:href="#DejaVuSans-2e" x="147.412109"/>
       <use xlink:href="#DejaVuSans-30" x="179.199219"/>
      </g>
     </g>
    </g>
    <g id="ytick_3">
     <g id="line2d_15">
      <path d="M 52.160938 117.592384 
L 386.960938 117.592384 
" clip-path="url(#p6b6eb14052)" style="fill: none; stroke: #b0b0b0; stroke-width: 0.8; stroke-linecap: square"/>
     </g>
     <g id="line2d_16">
      <g>
       <use xlink:href="#m0fe922ced2" x="52.160938" y="117.592384" style="stroke: #000000; stroke-width: 0.8"/>
      </g>
     </g>
     <g id="text_9">
      <!-- −0.5 -->
      <g transform="translate(20.878125 121.391603) scale(0.1 -0.1)">
       <use xlink:href="#DejaVuSans-2212"/>
       <use xlink:href="#DejaVuSans-30" x="83.789062"/>
       <use xlink:href="#DejaVuSans-2e" x="147.412109"/>
       <use xlink:href="#DejaVuSans-35" x="179.199219"/>
      </g>
     </g>
    </g>
    <g id="ytick_4">
     <g id="line2d_17">
      <path d="M 52.160938 92.814136 
L 386.960938 92.814136 
" clip-path="url(#p6b6eb14052)" style="fill: none; stroke: #b0b0b0; stroke-width: 0.8; stroke-linecap: square"/>
     </g>
     <g id="line2d_18">
      <g>
       <use xlink:href="#m0fe922ced2" x="52.160938" y="92.814136" style="stroke: #000000; stroke-width: 0.8"/>
      </g>
     </g>
     <g id="text_10">
      <!-- 0.0 -->
      <g transform="translate(29.257812 96.613355) scale(0.1 -0.1)">
       <use xlink:href="#DejaVuSans-30"/>
       <use xlink:href="#DejaVuSans-2e" x="63.623047"/>
       <use xlink:href="#DejaVuSans-30" x="95.410156"/>
      </g>
     </g>
    </g>
    <g id="ytick_5">
     <g id="line2d_19">
      <path d="M 52.160938 68.035888 
L 386.960938 68.035888 
" clip-path="url(#p6b6eb14052)" style="fill: none; stroke: #b0b0b0; stroke-width: 0.8; stroke-linecap: square"/>
     </g>
     <g id="line2d_20">
      <g>
       <use xlink:href="#m0fe922ced2" x="52.160938" y="68.035888" style="stroke: #000000; stroke-width: 0.8"/>
      </g>
     </g>
     <g id="text_11">
      <!-- 0.5 -->
      <g transform="translate(29.257812 71.835107) scale(0.1 -0.1)">
       <use xlink:href="#DejaVuSans-30"/>
       <use xlink:href="#DejaVuSans-2e" x="63.623047"/>
       <use xlink:href="#DejaVuSans-35" x="95.410156"/>
      </g>
     </g>
    </g>
    <g id="ytick_6">
     <g id="line2d_21">
      <path d="M 52.160938 43.25764 
L 386.960938 43.25764 
" clip-path="url(#p6b6eb14052)" style="fill: none; stroke: #b0b0b0; stroke-width: 0.8; stroke-linecap: square"/>
     </g>
     <g id="line2d_22">
      <g>
       <use xlink:href="#m0fe922ced2" x="52.160938" y="43.25764" style="stroke: #000000; stroke-width: 0.8"/>
      </g>
     </g>
     <g id="text_12">
      <!-- 1.0 -->
      <g transform="translate(29.257812 47.056859) scale(0.1 -0.1)">
       <use xlink:href="#DejaVuSans-31"/>
       <use xlink:href="#DejaVuSans-2e" x="63.623047"/>
       <use xlink:href="#DejaVuSans-30" x="95.410156"/>
      </g>
     </g>
    </g>
    <g id="ytick_7">
     <g id="line2d_23">
      <path d="M 52.160938 18.479392 
L 386.960938 18.479392 
" clip-path="url(#p6b6eb14052)" style="fill: none; stroke: #b0b0b0; stroke-width: 0.8; stroke-linecap: square"/>
     </g>
     <g id="line2d_24">
      <g>
       <use xlink:href="#m0fe922ced2" x="52.160938" y="18.479392" style="stroke: #000000; stroke-width: 0.8"/>
      </g>
     </g>
     <g id="text_13">
      <!-- 1.5 -->
      <g transform="translate(29.257812 22.278611) scale(0.1 -0.1)">
       <use xlink:href="#DejaVuSans-31"/>
       <use xlink:href="#DejaVuSans-2e" x="63.623047"/>
       <use xlink:href="#DejaVuSans-35" x="95.410156"/>
      </g>
     </g>
    </g>
    <g id="text_14">
     <!-- x -->
     <g transform="translate(14.798438 93.319375) rotate(-90) scale(0.1 -0.1)">
      <defs>
       <path id="DejaVuSans-78" d="M 3513 3500 
L 2247 1797 
L 3578 0 
L 2900 0 
L 1881 1375 
L 863 0 
L 184 0 
L 1544 1831 
L 300 3500 
L 978 3500 
L 1906 2253 
L 2834 3500 
L 3513 3500 
z
" transform="scale(0.015625)"/>
      </defs>
      <use xlink:href="#DejaVuSans-78"/>
     </g>
    </g>
   </g>
   <g id="line2d_25">
    <path d="M 52.160938 82.423598 
L 52.496073 85.648994 
L 52.831208 100.683627 
L 53.166343 75.828224 
L 53.836613 96.804386 
L 54.171748 91.871224 
L 54.506883 70.205953 
L 54.842019 92.118935 
L 55.177154 72.007839 
L 55.512289 95.192185 
L 55.847424 105.790531 
L 56.182559 91.618257 
L 56.517694 91.762962 
L 57.187965 85.105036 
L 57.5231 86.665252 
L 57.858235 94.708185 
L 58.19337 75.796568 
L 58.528505 88.151998 
L 58.86364 72.529036 
L 59.198775 81.768479 
L 59.53391 66.619542 
L 59.869046 75.854725 
L 60.204181 96.802195 
L 60.539316 90.969647 
L 60.874451 80.291032 
L 61.209586 89.641533 
L 61.544721 52.921032 
L 61.879856 104.019654 
L 62.214992 75.636193 
L 62.550127 72.300182 
L 62.885262 89.334396 
L 63.220397 73.375326 
L 63.555532 82.91044 
L 63.890667 57.569822 
L 64.225802 83.475986 
L 64.560938 88.31731 
L 64.896073 67.886249 
L 65.231208 70.684331 
L 65.566343 83.171304 
L 65.901478 80.560286 
L 66.236613 55.788803 
L 66.571748 63.792542 
L 66.906883 52.903702 
L 67.242019 79.117017 
L 67.577154 58.545376 
L 67.912289 60.266279 
L 68.582559 80.018035 
L 68.917694 78.416899 
L 69.252829 62.03602 
L 69.587965 78.331145 
L 69.9231 65.097657 
L 70.59337 88.688625 
L 70.928505 54.410996 
L 71.26364 67.401253 
L 71.598775 52.752084 
L 71.93391 64.458547 
L 72.269046 60.900503 
L 72.604181 89.499795 
L 72.939316 52.402984 
L 73.274451 58.44077 
L 73.609586 61.517108 
L 73.944721 77.283635 
L 74.279856 57.802188 
L 74.614992 69.38108 
L 74.950127 35.050532 
L 75.285262 51.411527 
L 75.620397 61.094571 
L 75.955532 78.097312 
L 76.625802 54.520771 
L 76.960938 49.192034 
L 77.296073 61.163701 
L 77.631208 68.026306 
L 77.966343 58.945869 
L 78.301478 37.531326 
L 78.636613 52.001784 
L 78.971748 60.053325 
L 79.306883 56.014101 
L 79.977154 50.921914 
L 80.312289 61.78788 
L 80.647424 50.094428 
L 81.317694 58.783351 
L 81.652829 49.469541 
L 81.987965 51.293528 
L 82.3231 63.113405 
L 82.658235 50.572976 
L 82.99337 48.945091 
L 83.328505 59.701403 
L 83.66364 56.021379 
L 83.998775 55.777015 
L 84.33391 61.559144 
L 85.004181 46.222703 
L 85.339316 58.02772 
L 85.674451 54.079881 
L 86.009586 38.96735 
L 86.344721 39.708895 
L 86.679856 59.431016 
L 87.014992 58.801003 
L 87.350127 53.273852 
L 87.685262 58.579888 
L 88.020397 44.956741 
L 88.355532 43.169038 
L 89.025802 64.960117 
L 89.360938 19.667705 
L 89.696073 51.684236 
L 90.031208 40.085238 
L 90.366343 52.501156 
L 90.701478 24.139837 
L 91.036613 66.559893 
L 91.371748 53.290295 
L 91.706883 69.656477 
L 92.377154 36.982416 
L 92.712289 64.752739 
L 93.047424 35.018672 
L 93.382559 37.553314 
L 93.717694 46.167181 
L 94.052829 30.551969 
L 94.7231 67.797895 
L 95.058235 65.151741 
L 95.39337 55.262561 
L 95.728505 39.353004 
L 96.06364 47.053659 
L 96.398775 43.856892 
L 96.73391 44.992048 
L 97.069046 44.767095 
L 97.404181 42.078271 
L 97.739316 48.21249 
L 98.074451 46.30328 
L 98.409586 50.702887 
L 98.744721 47.231898 
L 99.079856 41.048076 
L 99.414992 53.503229 
L 99.750127 51.53805 
L 100.085262 31.640444 
L 100.420397 38.997916 
L 100.755532 41.739725 
L 101.090667 56.271179 
L 101.425802 48.326923 
L 101.760938 45.470338 
L 102.096073 53.057548 
L 102.431208 25.955855 
L 102.766343 40.654181 
L 103.101478 44.794737 
L 103.436613 35.338551 
L 103.771748 32.871462 
L 104.106883 50.316093 
L 104.442019 44.17983 
L 104.777154 41.63968 
L 105.112289 33.257122 
L 105.447424 40.278623 
L 105.782559 31.700589 
L 106.117694 36.051639 
L 106.452829 53.247489 
L 106.787965 34.242656 
L 107.1231 47.811669 
L 107.458235 35.072538 
L 107.79337 39.074862 
L 108.128505 30.798109 
L 108.46364 46.273996 
L 108.798775 32.527475 
L 109.13391 43.907159 
L 109.469046 44.049042 
L 109.804181 56.282409 
L 110.139316 35.224646 
L 110.474451 47.602841 
L 111.144721 30.767029 
L 111.479856 27.371941 
L 111.814992 26.302069 
L 112.150127 39.91312 
L 112.485262 47.33959 
L 112.820397 39.198414 
L 113.155532 36.423144 
L 113.490667 39.469253 
L 113.825802 38.301233 
L 114.160938 41.446584 
L 114.496073 32.222596 
L 114.831208 18.770837 
L 115.166343 34.605519 
L 115.501478 58.806385 
L 115.836613 57.445709 
L 116.171748 44.319341 
L 116.506883 42.77864 
L 116.842019 56.765633 
L 117.177154 51.067031 
L 117.512289 48.980977 
L 117.847424 62.863966 
L 118.182559 38.965194 
L 118.517694 29.854867 
L 118.852829 45.983995 
L 119.187965 49.81095 
L 119.5231 39.044113 
L 119.858235 49.217995 
L 120.19337 38.648458 
L 120.528505 45.469432 
L 120.86364 22.326619 
L 121.198775 53.888747 
L 121.53391 56.837505 
L 121.869046 63.062095 
L 122.204181 59.824813 
L 122.539316 49.191866 
L 122.874451 51.5698 
L 123.209586 49.474574 
L 123.544721 56.654597 
L 123.879856 56.784068 
L 124.214992 45.391611 
L 124.550127 43.561503 
L 124.885262 36.25421 
L 125.220397 35.419892 
L 125.555532 60.807213 
L 125.890667 45.071464 
L 126.225802 47.607603 
L 126.560938 57.304592 
L 126.896073 56.959848 
L 127.231208 50.80744 
L 127.566343 60.29662 
L 127.901478 60.364794 
L 128.236613 56.511603 
L 128.571748 50.408949 
L 128.906883 69.20872 
L 129.242019 57.338551 
L 129.577154 54.331208 
L 130.247424 71.148876 
L 130.582559 54.858587 
L 130.917694 61.621974 
L 131.252829 48.016973 
L 131.587965 56.11448 
L 131.9231 53.499619 
L 132.258235 55.111084 
L 132.59337 63.302481 
L 132.928505 47.949555 
L 133.598775 54.556576 
L 133.93391 34.460712 
L 134.269046 60.120763 
L 134.604181 58.186979 
L 134.939316 66.299764 
L 135.274451 49.019435 
L 135.609586 54.669742 
L 135.944721 48.803908 
L 136.279856 65.271654 
L 136.614992 69.203687 
L 136.950127 60.484895 
L 137.285262 58.70595 
L 137.620397 77.505476 
L 137.955532 60.905064 
L 138.290667 78.274848 
L 138.625802 59.755458 
L 138.960938 79.826177 
L 139.296073 78.143369 
L 139.966343 60.460523 
L 140.301478 59.697484 
L 140.636613 78.378188 
L 140.971748 74.315098 
L 141.306883 62.715756 
L 141.642019 68.222961 
L 141.977154 60.777108 
L 142.312289 41.783423 
L 142.647424 65.450476 
L 142.982559 74.155912 
L 143.317694 67.15018 
L 143.652829 90.161746 
L 143.987965 63.626315 
L 144.3231 96.866675 
L 144.658235 86.352596 
L 144.99337 85.423996 
L 145.328505 96.671553 
L 145.66364 66.58368 
L 146.33391 86.993101 
L 146.669046 56.713956 
L 147.004181 86.001563 
L 147.339316 78.43478 
L 147.674451 84.812519 
L 148.009586 82.870759 
L 148.344721 90.580743 
L 148.679856 83.085426 
L 149.014992 91.134838 
L 149.350127 74.229277 
L 149.685262 73.383567 
L 150.020397 92.999065 
L 150.355532 76.337247 
L 150.690667 81.466038 
L 151.025802 59.40091 
L 151.360938 85.444158 
L 151.696073 81.737158 
L 152.031208 72.405674 
L 152.366343 99.09934 
L 153.036613 95.535209 
L 153.371748 92.885821 
L 153.706883 79.619965 
L 154.042019 83.438662 
L 154.377154 85.153446 
L 154.712289 80.167352 
L 155.047424 85.901812 
L 155.382559 103.265638 
L 155.717694 109.189433 
L 156.052829 104.378764 
L 156.387965 83.737131 
L 156.7231 89.377874 
L 157.058235 87.890893 
L 157.39337 101.141838 
L 157.728505 104.128028 
L 158.06364 100.217245 
L 158.398775 110.207927 
L 158.73391 110.671939 
L 159.069046 117.54419 
L 159.404181 95.576434 
L 159.739316 94.738703 
L 160.074451 102.628198 
L 160.409586 79.376801 
L 160.744721 96.967898 
L 161.079856 77.274944 
L 161.414992 80.680842 
L 161.750127 89.123473 
L 162.085262 84.228081 
L 162.420397 114.290767 
L 162.755532 90.044972 
L 163.090667 86.158252 
L 163.425802 114.15622 
L 163.760938 104.788025 
L 164.096073 116.260676 
L 164.766343 106.881085 
L 165.101478 108.171581 
L 165.436613 96.712475 
L 166.106883 116.663855 
L 166.442019 120.669233 
L 166.777154 110.104762 
L 167.112289 112.803974 
L 167.447424 79.056906 
L 167.782559 105.848301 
L 168.117694 101.38232 
L 168.452829 105.215235 
L 168.787965 107.238651 
L 169.1231 99.231887 
L 169.458235 117.813585 
L 169.79337 110.946047 
L 170.128505 116.756518 
L 170.46364 118.278338 
L 170.798775 116.641134 
L 171.13391 105.776238 
L 171.469046 121.03761 
L 171.804181 120.490375 
L 172.139316 126.428539 
L 172.474451 109.228475 
L 172.809586 107.008718 
L 173.144721 128.515887 
L 173.479856 115.829407 
L 173.814992 123.336728 
L 174.150127 133.685328 
L 174.485262 115.750707 
L 174.820397 136.022821 
L 175.155532 95.438873 
L 175.490667 99.478652 
L 175.825802 118.092878 
L 176.160938 121.151281 
L 176.496073 122.210108 
L 176.831208 113.43623 
L 177.166343 137.742643 
L 177.501478 120.263187 
L 177.836613 132.712855 
L 178.171748 110.916908 
L 178.506883 133.699742 
L 178.842019 124.461605 
L 179.177154 130.656521 
L 179.512289 122.04497 
L 179.847424 127.628528 
L 180.182559 118.688024 
L 180.517694 119.418983 
L 180.852829 125.140024 
L 181.187965 138.265681 
L 181.5231 123.649482 
L 181.858235 114.095203 
L 182.528505 116.310687 
L 183.198775 135.955722 
L 183.53391 123.282402 
L 183.869046 131.129965 
L 184.204181 129.187952 
L 184.539316 131.541745 
L 184.874451 123.183095 
L 185.209586 136.989495 
L 185.544721 125.24357 
L 186.214992 128.277468 
L 186.550127 118.14078 
L 187.220397 144.558303 
L 187.555532 129.056107 
L 188.225802 148.367561 
L 188.896073 135.406166 
L 189.231208 124.823303 
L 189.566343 129.073714 
L 189.901478 138.482711 
L 190.236613 134.623028 
L 190.906883 121.86501 
L 191.242019 133.497735 
L 191.577154 121.062948 
L 191.912289 143.364354 
L 192.247424 132.506 
L 192.582559 116.529447 
L 192.917694 135.283751 
L 193.252829 135.893749 
L 193.587965 129.96912 
L 193.9231 130.968191 
L 194.258235 130.909668 
L 194.59337 151.798497 
L 195.26364 139.183795 
L 195.598775 152.544969 
L 195.93391 134.42801 
L 196.269046 143.504358 
L 196.604181 125.385813 
L 196.939316 139.964477 
L 197.274451 136.453795 
L 197.609586 153.045431 
L 197.944721 155.115742 
L 198.279856 126.495714 
L 198.614992 143.740816 
L 198.950127 136.283951 
L 199.285262 145.231119 
L 199.620397 130.291665 
L 199.955532 149.527364 
L 200.290667 138.012856 
L 200.625802 134.316265 
L 200.960938 137.09159 
L 201.296073 143.250119 
L 201.631208 127.039029 
L 201.966343 144.98212 
L 202.301478 134.295127 
L 202.636613 131.542179 
L 202.971748 125.428767 
L 203.306883 154.887047 
L 203.977154 136.963496 
L 204.312289 153.471581 
L 204.647424 149.908333 
L 204.982559 131.578833 
L 205.317694 139.367704 
L 205.652829 165.96 
L 205.987965 135.658142 
L 206.3231 131.538268 
L 206.658235 142.329497 
L 206.99337 142.993753 
L 207.328505 145.481323 
L 207.66364 147.077035 
L 207.998775 146.596582 
L 208.33391 152.444593 
L 209.004181 136.427473 
L 209.339316 157.988812 
L 209.674451 143.624241 
L 210.009586 146.295106 
L 210.344721 141.539289 
L 210.679856 130.266868 
L 211.014992 139.171785 
L 211.350127 136.909586 
L 211.685262 144.869787 
L 212.020397 140.350081 
L 212.355532 152.031841 
L 212.690667 151.071414 
L 213.025802 146.391932 
L 213.360938 122.002557 
L 213.696073 134.73088 
L 214.031208 140.90338 
L 214.366343 158.920569 
L 214.701478 129.878317 
L 215.036613 149.211863 
L 215.371748 142.731527 
L 215.706883 141.348544 
L 216.042019 142.93323 
L 216.377154 156.611291 
L 216.712289 156.391422 
L 217.047424 136.601783 
L 217.382559 153.2088 
L 217.717694 133.595544 
L 218.052829 130.829174 
L 218.387965 149.906383 
L 218.7231 147.239937 
L 219.39337 136.32848 
L 219.728505 132.202244 
L 220.06364 148.498922 
L 220.398775 148.095363 
L 220.73391 138.175897 
L 221.069046 134.728733 
L 221.404181 137.229178 
L 221.739316 144.587888 
L 222.409586 130.345017 
L 222.744721 142.210628 
L 223.079856 105.000869 
L 223.414992 129.881664 
L 223.750127 141.294856 
L 224.085262 137.23796 
L 224.420397 129.142751 
L 224.755532 140.343642 
L 225.090667 117.383484 
L 225.425802 138.323844 
L 225.760938 115.485777 
L 226.096073 118.260125 
L 226.431208 134.253352 
L 226.766343 140.489937 
L 227.101478 130.50114 
L 227.436613 137.769059 
L 227.771748 139.975498 
L 228.106883 121.513222 
L 228.442019 134.317712 
L 228.777154 121.59625 
L 229.112289 149.665962 
L 229.782559 124.674364 
L 230.117694 132.223765 
L 230.452829 133.764779 
L 230.787965 147.322785 
L 231.1231 120.416167 
L 231.458235 140.454055 
L 231.79337 142.113988 
L 232.128505 142.568962 
L 232.46364 146.385581 
L 233.13391 124.761805 
L 233.469046 136.988388 
L 233.804181 125.289593 
L 234.139316 127.046098 
L 234.474451 123.765637 
L 234.809586 130.368644 
L 235.144721 144.455895 
L 235.479856 124.426467 
L 236.150127 135.682839 
L 236.485262 123.392466 
L 236.820397 122.128619 
L 237.155532 100.132382 
L 237.490667 131.299879 
L 237.825802 125.704876 
L 238.160938 125.297722 
L 238.496073 109.108531 
L 238.831208 135.25385 
L 239.166343 140.918716 
L 239.501478 130.812387 
L 239.836613 126.926221 
L 240.171748 120.373183 
L 240.506883 129.720723 
L 240.842019 123.789911 
L 241.177154 137.149151 
L 241.512289 119.009908 
L 241.847424 126.010511 
L 242.182559 108.779335 
L 242.517694 118.268694 
L 242.852829 121.737043 
L 243.187965 118.714502 
L 243.5231 130.411838 
L 243.858235 118.879652 
L 244.19337 124.485749 
L 244.528505 110.845248 
L 244.86364 122.220568 
L 245.198775 128.124506 
L 245.53391 112.599701 
L 245.869046 118.846817 
L 246.204181 112.239752 
L 246.539316 103.045768 
L 246.874451 124.530656 
L 247.209586 105.874776 
L 247.544721 109.096577 
L 247.879856 117.938197 
L 248.214992 115.211967 
L 248.550127 118.008973 
L 248.885262 107.917218 
L 249.220397 121.836105 
L 249.555532 125.507964 
L 250.225802 106.40421 
L 250.560938 126.04285 
L 250.896073 102.893033 
L 251.231208 117.346146 
L 251.566343 110.054487 
L 251.901478 106.133709 
L 252.236613 98.140157 
L 252.571748 101.555663 
L 252.906883 118.359423 
L 253.242019 97.222497 
L 253.577154 100.158049 
L 253.912289 104.802213 
L 254.247424 98.841715 
L 254.582559 105.496946 
L 254.917694 104.802282 
L 255.252829 107.329538 
L 255.587965 111.317916 
L 255.9231 93.561925 
L 256.258235 117.065014 
L 256.59337 106.263168 
L 256.928505 105.598189 
L 257.26364 111.21567 
L 257.598775 80.877648 
L 257.93391 105.736122 
L 258.269046 118.165822 
L 258.604181 84.406772 
L 258.939316 108.235922 
L 259.274451 90.553937 
L 259.609586 87.370728 
L 259.944721 88.802494 
L 260.279856 94.124487 
L 260.614992 96.37128 
L 260.950127 105.152468 
L 261.285262 82.523065 
L 261.620397 95.968749 
L 261.955532 97.715424 
L 262.290667 103.209786 
L 262.960938 90.287461 
L 263.296073 93.193448 
L 263.631208 78.113104 
L 263.966343 94.129697 
L 264.301478 90.566283 
L 264.636613 65.753991 
L 264.971748 102.037393 
L 265.306883 99.752346 
L 265.642019 100.561209 
L 265.977154 90.994537 
L 266.312289 86.96411 
L 266.647424 75.615104 
L 266.982559 97.507365 
L 267.317694 95.359845 
L 267.652829 105.903803 
L 267.987965 75.994368 
L 268.3231 65.908714 
L 268.658235 95.261347 
L 268.99337 80.578423 
L 269.328505 81.394808 
L 269.66364 90.066456 
L 269.998775 76.172638 
L 270.33391 83.24722 
L 270.669046 77.804831 
L 271.004181 89.909503 
L 271.339316 74.556053 
L 271.674451 70.440911 
L 272.009586 70.326147 
L 272.344721 73.714067 
L 272.679856 83.112826 
L 273.014992 76.623615 
L 273.350127 82.082752 
L 274.020397 75.724039 
L 274.355532 77.881488 
L 274.690667 85.361683 
L 275.025802 77.141949 
L 275.360937 63.255997 
L 275.696073 68.053646 
L 276.031208 68.453166 
L 276.366343 85.566272 
L 276.701478 80.756997 
L 277.036613 78.893524 
L 277.371748 91.610419 
L 277.706883 58.325433 
L 278.042019 67.30921 
L 278.377154 64.243088 
L 278.712289 71.043586 
L 279.047424 70.656283 
L 279.382559 55.921878 
L 279.717694 72.462307 
L 280.052829 69.252436 
L 280.387965 60.351135 
L 280.7231 63.675873 
L 281.058235 75.576064 
L 281.39337 65.045915 
L 281.728505 83.966154 
L 282.06364 69.222876 
L 282.73391 54.942989 
L 283.069046 51.73339 
L 284.074451 97.454702 
L 284.409586 69.401201 
L 284.744721 71.090237 
L 285.079856 53.094834 
L 285.414992 58.260364 
L 285.750127 56.194767 
L 286.420397 49.14309 
L 286.755532 51.255395 
L 287.090667 65.031702 
L 287.425802 54.511212 
L 287.760938 57.753746 
L 288.096073 43.301135 
L 288.431208 56.797977 
L 288.766343 57.15326 
L 289.101478 58.253777 
L 289.436613 52.342699 
L 290.106883 55.111946 
L 290.442019 60.766386 
L 290.777154 49.241195 
L 291.112289 46.19269 
L 291.447424 47.217994 
L 291.782559 41.593949 
L 292.117694 72.614791 
L 292.787965 50.139876 
L 293.1231 50.767661 
L 293.458235 56.473272 
L 293.79337 53.621357 
L 294.128505 68.205792 
L 294.46364 61.761482 
L 294.798775 67.762969 
L 295.13391 39.948985 
L 295.469046 59.667036 
L 295.804181 40.629806 
L 296.139316 39.091143 
L 296.809586 61.321989 
L 297.479856 54.365711 
L 297.814992 43.075426 
L 298.150127 51.692164 
L 298.485262 55.023622 
L 298.820397 51.95032 
L 299.155532 45.454633 
L 299.490667 47.307208 
L 299.825802 46.582996 
L 300.160938 53.356446 
L 300.496073 26.372494 
L 300.831208 49.296658 
L 301.166343 44.299681 
L 301.501478 34.371495 
L 301.836613 55.748714 
L 302.171748 46.219622 
L 302.506883 42.239472 
L 302.842019 41.529279 
L 303.177154 58.073184 
L 303.512289 29.122698 
L 303.847424 41.225498 
L 304.517694 55.99969 
L 304.852829 42.143208 
L 305.187965 52.685245 
L 305.5231 52.557251 
L 305.858235 53.721192 
L 306.19337 56.611734 
L 306.528505 55.071801 
L 306.86364 55.49381 
L 307.198775 39.520507 
L 307.53391 52.861714 
L 307.869046 20.666431 
L 308.204181 41.713129 
L 308.539316 30.894303 
L 309.209586 58.398634 
L 309.544721 47.20487 
L 309.879856 59.735201 
L 310.550127 15.727611 
L 310.885262 47.976872 
L 311.220397 14.76 
L 311.555532 54.230297 
L 311.890667 62.102129 
L 312.225802 38.037412 
L 312.560938 41.657302 
L 312.896073 36.520383 
L 313.231208 34.886968 
L 313.566343 57.847248 
L 313.901478 35.320922 
L 314.236613 30.467627 
L 314.571748 43.007182 
L 314.906883 39.839689 
L 315.242019 49.382023 
L 315.577154 41.223691 
L 315.912289 49.640081 
L 316.247424 27.533348 
L 316.917694 37.695651 
L 317.252829 49.570812 
L 317.587965 45.875907 
L 317.9231 35.260848 
L 318.258235 42.913109 
L 318.59337 30.2136 
L 318.928505 40.428085 
L 319.598775 50.158487 
L 319.93391 46.070526 
L 320.269046 37.503926 
L 320.604181 52.260519 
L 320.939316 45.462505 
L 321.274451 42.549786 
L 321.609586 53.169745 
L 321.944721 29.532525 
L 322.279856 48.891846 
L 322.614992 40.127826 
L 322.950127 45.260146 
L 323.285262 60.301086 
L 323.620397 42.909045 
L 323.955532 48.975867 
L 324.290667 73.293375 
L 324.625802 51.046969 
L 324.960938 53.275999 
L 325.296073 41.715711 
L 325.631208 38.39641 
L 325.966343 38.029306 
L 326.301478 30.849186 
L 326.636613 52.016027 
L 326.971748 63.966046 
L 327.306883 51.927221 
L 327.642019 55.514673 
L 327.977154 43.045102 
L 328.312289 57.463411 
L 328.647424 56.561712 
L 328.982559 44.439005 
L 329.317694 45.066035 
L 329.652829 55.273298 
L 329.987965 51.858094 
L 330.3231 57.747738 
L 330.658235 50.493752 
L 330.99337 55.618986 
L 331.328505 43.088098 
L 331.998775 57.331858 
L 332.33391 29.481005 
L 333.004181 49.973228 
L 333.339316 43.932781 
L 333.674451 64.407567 
L 334.009586 51.530769 
L 334.344721 50.029991 
L 334.679856 56.643798 
L 335.014992 52.492817 
L 335.350127 65.173679 
L 335.685262 60.796893 
L 336.020397 40.14546 
L 336.355532 54.476712 
L 337.025802 42.237333 
L 337.360937 69.639642 
L 337.696073 66.255841 
L 338.031208 33.705378 
L 338.366343 47.487442 
L 338.701478 41.729877 
L 339.036613 56.43463 
L 339.706883 66.627878 
L 340.377154 38.840614 
L 340.712289 48.639217 
L 341.047424 70.291771 
L 341.382559 61.560213 
L 341.717694 57.674369 
L 342.052829 67.669295 
L 342.387965 37.272715 
L 343.058235 70.184321 
L 343.39337 67.478173 
L 343.728505 62.615605 
L 344.06364 70.397638 
L 344.398775 51.248622 
L 344.73391 41.422682 
L 345.739316 77.054855 
L 346.074451 64.272511 
L 346.409586 62.805147 
L 347.079856 76.656962 
L 347.414992 53.521926 
L 347.750127 51.738169 
L 348.085262 68.883232 
L 348.420397 78.237304 
L 348.755532 73.395125 
L 349.090667 54.989751 
L 349.425802 85.043354 
L 349.760938 62.032567 
L 350.096073 71.67495 
L 350.431208 58.855055 
L 350.766343 66.226117 
L 351.101478 67.350037 
L 351.436613 67.666262 
L 351.771748 65.105564 
L 352.106883 61.308739 
L 352.442019 70.608064 
L 352.777154 76.599874 
L 353.112289 73.180199 
L 353.447424 83.897085 
L 353.782559 78.256179 
L 354.117694 64.906682 
L 354.452829 60.249507 
L 354.787965 79.640625 
L 355.1231 82.287658 
L 355.458235 72.23804 
L 355.79337 72.978945 
L 356.128505 78.852115 
L 356.46364 73.693213 
L 356.798775 72.444274 
L 357.13391 61.913032 
L 357.469046 69.658167 
L 357.804181 72.049334 
L 358.139316 77.435178 
L 358.474451 72.060977 
L 358.809586 92.372565 
L 359.144721 78.757404 
L 359.479856 83.807453 
L 359.814992 78.552109 
L 360.150127 89.080339 
L 360.485262 81.961275 
L 360.820397 90.387552 
L 361.155532 91.529295 
L 361.490667 84.616105 
L 361.825802 97.971171 
L 362.160938 79.323748 
L 362.496073 113.442762 
L 363.166343 74.13088 
L 363.501478 80.571677 
L 363.836613 77.031258 
L 364.171748 93.503977 
L 364.506883 95.801934 
L 364.842019 75.587808 
L 365.177154 72.156948 
L 365.512289 105.059397 
L 365.847424 60.331741 
L 366.517694 97.785846 
L 366.852829 95.76069 
L 367.187965 108.954603 
L 367.5231 80.689815 
L 368.19337 101.249225 
L 368.528505 88.488194 
L 368.86364 104.075341 
L 369.198775 88.369577 
L 369.53391 81.588916 
L 369.869046 111.724592 
L 370.204181 101.943273 
L 370.539316 86.750529 
L 370.874451 93.322264 
L 371.209586 90.266025 
L 371.544721 108.303176 
L 371.879856 115.900171 
L 372.214992 90.6325 
L 372.550127 98.605796 
L 372.885262 100.686257 
L 373.220397 107.507306 
L 373.555532 106.449374 
L 373.890667 108.305929 
L 374.225802 99.921991 
L 374.560938 109.857984 
L 374.896073 107.415995 
L 375.231208 108.065584 
L 375.566343 97.042399 
L 375.901478 111.356404 
L 376.236613 102.557589 
L 376.571748 108.355117 
L 376.906883 96.325117 
L 377.242019 108.038684 
L 377.577154 105.667563 
L 377.912289 133.22151 
L 378.247424 102.790541 
L 378.582559 109.774825 
L 378.917694 90.933323 
L 379.252829 108.521297 
L 379.587965 113.782691 
L 379.9231 104.172859 
L 380.258235 121.894841 
L 380.59337 106.999748 
L 380.928505 114.917286 
L 381.26364 104.638144 
L 381.93391 124.513598 
L 382.269046 115.56419 
L 382.604181 87.705041 
L 382.939316 111.748386 
L 383.274451 123.072263 
L 383.944721 102.564165 
L 384.614992 129.720531 
L 385.285262 107.143429 
L 385.620397 121.220533 
L 385.955532 122.832364 
L 386.290667 113.388294 
L 386.625802 119.012726 
L 386.960938 107.405375 
L 386.960938 107.405375 
" clip-path="url(#p6b6eb14052)" style="fill: none; stroke: #1f77b4; stroke-width: 1.5; stroke-linecap: square"/>
   </g>
   <g id="patch_3">
    <path d="M 52.160938 173.52 
L 52.160938 7.2 
" style="fill: none; stroke: #000000; stroke-width: 0.8; stroke-linejoin: miter; stroke-linecap: square"/>
   </g>
   <g id="patch_4">
    <path d="M 386.960938 173.52 
L 386.960938 7.2 
" style="fill: none; stroke: #000000; stroke-width: 0.8; stroke-linejoin: miter; stroke-linecap: square"/>
   </g>
   <g id="patch_5">
    <path d="M 52.160938 173.52 
L 386.960938 173.52 
" style="fill: none; stroke: #000000; stroke-width: 0.8; stroke-linejoin: miter; stroke-linecap: square"/>
   </g>
   <g id="patch_6">
    <path d="M 52.160938 7.2 
L 386.960938 7.2 
" style="fill: none; stroke: #000000; stroke-width: 0.8; stroke-linejoin: miter; stroke-linecap: square"/>
   </g>
  </g>
 </g>
 <defs>
  <clipPath id="p6b6eb14052">
   <rect x="52.160938" y="7.2" width="334.8" height="166.32"/>
  </clipPath>
 </defs>
</svg>
