<?xml version="1.0" encoding="utf-8" standalone="no"?>
<!DOCTYPE svg PUBLIC "-//W3C//DTD SVG 1.1//EN"
  "http://www.w3.org/Graphics/SVG/1.1/DTD/svg11.dtd">
<svg xmlns:xlink="http://www.w3.org/1999/xlink" width="245.120313pt" height="183.35625pt" viewBox="0 0 245.120313 183.35625" xmlns="http://www.w3.org/2000/svg" version="1.1">
 <metadata>
  <rdf:RDF xmlns:dc="http://purl.org/dc/elements/1.1/" xmlns:cc="http://creativecommons.org/ns#" xmlns:rdf="http://www.w3.org/1999/02/22-rdf-syntax-ns#">
   <cc:Work>
    <dc:type rdf:resource="http://purl.org/dc/dcmitype/StillImage"/>
    <dc:date>2025-08-11T14:56:30.478347</dc:date>
    <dc:format>image/svg+xml</dc:format>
    <dc:creator>
     <cc:Agent>
      <dc:title>Matplotlib v3.7.2, https://matplotlib.org/</dc:title>
     </cc:Agent>
    </dc:creator>
   </cc:Work>
  </rdf:RDF>
 </metadata>
 <defs>
  <style type="text/css">*{stroke-linejoin: round; stroke-linecap: butt}</style>
 </defs>
 <g id="figure_1">
  <g id="patch_1">
   <path d="M 0 183.35625 
L 245.120313 183.35625 
L 245.120313 0 
L 0 0 
z
" style="fill: #ffffff"/>
  </g>
  <g id="axes_1">
   <g id="patch_2">
    <path d="M 42.620312 145.8 
L 237.920313 145.8 
L 237.920313 7.2 
L 42.620312 7.2 
z
" style="fill: #ffffff"/>
   </g>
   <g id="matplotlib.axis_1">
    <g id="xtick_1">
     <g id="line2d_1">
      <defs>
       <path id="m0f2830b500" d="M 0 0 
L 0 3.5 
" style="stroke: #000000; stroke-width: 0.8"/>
      </defs>
      <g>
       <use xlink:href="#m0f2830b500" x="88.393794" y="145.8" style="stroke: #000000; stroke-width: 0.8"/>
      </g>
     </g>
     <g id="text_1">
      <!-- −4 -->
      <g transform="translate(81.0227 160.398438) scale(0.1 -0.1)">
       <defs>
        <path id="DejaVuSans-2212" d="M 678 2272 
L 4684 2272 
L 4684 1741 
L 678 1741 
L 678 2272 
z
" transform="scale(0.015625)"/>
        <path id="DejaVuSans-34" d="M 2419 4116 
L 825 1625 
L 2419 1625 
L 2419 4116 
z
M 2253 4666 
L 3047 4666 
L 3047 1625 
L 3713 1625 
L 3713 1100 
L 3047 1100 
L 3047 0 
L 2419 0 
L 2419 1100 
L 313 1100 
L 313 1709 
L 2253 4666 
z
" transform="scale(0.015625)"/>
       </defs>
       <use xlink:href="#DejaVuSans-2212"/>
       <use xlink:href="#DejaVuSans-34" x="83.789062"/>
      </g>
     </g>
    </g>
    <g id="xtick_2">
     <g id="line2d_2">
      <g>
       <use xlink:href="#m0f2830b500" x="149.425102" y="145.8" style="stroke: #000000; stroke-width: 0.8"/>
      </g>
     </g>
     <g id="text_2">
      <!-- −2 -->
      <g transform="translate(142.054008 160.398438) scale(0.1 -0.1)">
       <defs>
        <path id="DejaVuSans-32" d="M 1228 531 
L 3431 531 
L 3431 0 
L 469 0 
L 469 531 
Q 828 903 1448 1529 
Q 2069 2156 2228 2338 
Q 2531 2678 2651 2914 
Q 2772 3150 2772 3378 
Q 2772 3750 2511 3984 
Q 2250 4219 1831 4219 
Q 1534 4219 1204 4116 
Q 875 4013 500 3803 
L 500 4441 
Q 881 4594 1212 4672 
Q 1544 4750 1819 4750 
Q 2544 4750 2975 4387 
Q 3406 4025 3406 3419 
Q 3406 3131 3298 2873 
Q 3191 2616 2906 2266 
Q 2828 2175 2409 1742 
Q 1991 1309 1228 531 
z
" transform="scale(0.015625)"/>
       </defs>
       <use xlink:href="#DejaVuSans-2212"/>
       <use xlink:href="#DejaVuSans-32" x="83.789062"/>
      </g>
     </g>
    </g>
    <g id="xtick_3">
     <g id="line2d_3">
      <g>
       <use xlink:href="#m0f2830b500" x="210.45641" y="145.8" style="stroke: #000000; stroke-width: 0.8"/>
      </g>
     </g>
     <g id="text_3">
      <!-- 0 -->
      <g transform="translate(207.27516 160.398438) scale(0.1 -0.1)">
       <defs>
        <path id="DejaVuSans-30" d="M 2034 4250 
Q 1547 4250 1301 3770 
Q 1056 3291 1056 2328 
Q 1056 1369 1301 889 
Q 1547 409 2034 409 
Q 2525 409 2770 889 
Q 3016 1369 3016 2328 
Q 3016 3291 2770 3770 
Q 2525 4250 2034 4250 
z
M 2034 4750 
Q 2819 4750 3233 4129 
Q 3647 3509 3647 2328 
Q 3647 1150 3233 529 
Q 2819 -91 2034 -91 
Q 1250 -91 836 529 
Q 422 1150 422 2328 
Q 422 3509 836 4129 
Q 1250 4750 2034 4750 
z
" transform="scale(0.015625)"/>
       </defs>
       <use xlink:href="#DejaVuSans-30"/>
      </g>
     </g>
    </g>
    <g id="text_4">
     <!-- x1 -->
     <g transform="translate(134.129687 174.076563) scale(0.1 -0.1)">
      <defs>
       <path id="DejaVuSans-78" d="M 3513 3500 
L 2247 1797 
L 3578 0 
L 2900 0 
L 1881 1375 
L 863 0 
L 184 0 
L 1544 1831 
L 300 3500 
L 978 3500 
L 1906 2253 
L 2834 3500 
L 3513 3500 
z
" transform="scale(0.015625)"/>
       <path id="DejaVuSans-31" d="M 794 531 
L 1825 531 
L 1825 4091 
L 703 3866 
L 703 4441 
L 1819 4666 
L 2450 4666 
L 2450 531 
L 3481 531 
L 3481 0 
L 794 0 
L 794 531 
z
" transform="scale(0.015625)"/>
      </defs>
      <use xlink:href="#DejaVuSans-78"/>
      <use xlink:href="#DejaVuSans-31" x="59.179688"/>
     </g>
    </g>
   </g>
   <g id="matplotlib.axis_2">
    <g id="ytick_1">
     <g id="line2d_4">
      <defs>
       <path id="mcb6fbbf363" d="M 0 0 
L -3.5 0 
" style="stroke: #000000; stroke-width: 0.8"/>
      </defs>
      <g>
       <use xlink:href="#mcb6fbbf363" x="42.620312" y="123.041379" style="stroke: #000000; stroke-width: 0.8"/>
      </g>
     </g>
     <g id="text_5">
      <!-- −2 -->
      <g transform="translate(20.878125 126.840598) scale(0.1 -0.1)">
       <use xlink:href="#DejaVuSans-2212"/>
       <use xlink:href="#DejaVuSans-32" x="83.789062"/>
      </g>
     </g>
    </g>
    <g id="ytick_2">
     <g id="line2d_5">
      <g>
       <use xlink:href="#mcb6fbbf363" x="42.620312" y="77.524138" style="stroke: #000000; stroke-width: 0.8"/>
      </g>
     </g>
     <g id="text_6">
      <!-- 0 -->
      <g transform="translate(29.257812 81.323357) scale(0.1 -0.1)">
       <use xlink:href="#DejaVuSans-30"/>
      </g>
     </g>
    </g>
    <g id="ytick_3">
     <g id="line2d_6">
      <g>
       <use xlink:href="#mcb6fbbf363" x="42.620312" y="32.006897" style="stroke: #000000; stroke-width: 0.8"/>
      </g>
     </g>
     <g id="text_7">
      <!-- 2 -->
      <g transform="translate(29.257812 35.806115) scale(0.1 -0.1)">
       <use xlink:href="#DejaVuSans-32"/>
      </g>
     </g>
    </g>
    <g id="text_8">
     <!-- x2 -->
     <g transform="translate(14.798437 82.640625) rotate(-90) scale(0.1 -0.1)">
      <use xlink:href="#DejaVuSans-78"/>
      <use xlink:href="#DejaVuSans-32" x="59.179688"/>
     </g>
    </g>
   </g>
   <g id="line2d_7">
    <path d="M 57.87814 123.041379 
L 76.187532 13.8 
L 101.454494 112.117241 
L 127.168204 78.252414 
L 150.019644 59.572138 
L 168.697776 93.3168 
L 183.047878 72.286742 
L 193.511953 74.341463 
L 200.777325 83.007243 
L 205.571502 74.180681 
L 208.554779 77.791697 
L 210.274613 78.955064 
L 211.156346 76.102525 
L 211.51322 78.088126 
L 211.56484 77.727355 
L 211.457638 77.059249 
L 211.28389 77.84093 
L 211.097718 77.47147 
L 210.927675 77.413143 
L 210.786102 77.650367 
L 210.675753 77.466029 
" clip-path="url(#p70dc983997)" style="fill: none; stroke: #ff7f0e; stroke-width: 1.5; stroke-linecap: square"/>
    <defs>
     <path id="m221225e261" d="M 0 3 
C 0.795609 3 1.55874 2.683901 2.12132 2.12132 
C 2.683901 1.55874 3 0.795609 3 0 
C 3 -0.795609 2.683901 -1.55874 2.12132 -2.12132 
C 1.55874 -2.683901 0.795609 -3 0 -3 
C -0.795609 -3 -1.55874 -2.683901 -2.12132 -2.12132 
C -2.683901 -1.55874 -3 -0.795609 -3 0 
C -3 0.795609 -2.683901 1.55874 -2.12132 2.12132 
C -1.55874 2.683901 -0.795609 3 0 3 
z
" style="stroke: #ff7f0e"/>
    </defs>
    <g clip-path="url(#p70dc983997)">
     <use xlink:href="#m221225e261" x="57.87814" y="123.041379" style="fill: #ff7f0e; stroke: #ff7f0e"/>
     <use xlink:href="#m221225e261" x="76.187532" y="13.8" style="fill: #ff7f0e; stroke: #ff7f0e"/>
     <use xlink:href="#m221225e261" x="101.454494" y="112.117241" style="fill: #ff7f0e; stroke: #ff7f0e"/>
     <use xlink:href="#m221225e261" x="127.168204" y="78.252414" style="fill: #ff7f0e; stroke: #ff7f0e"/>
     <use xlink:href="#m221225e261" x="150.019644" y="59.572138" style="fill: #ff7f0e; stroke: #ff7f0e"/>
     <use xlink:href="#m221225e261" x="168.697776" y="93.3168" style="fill: #ff7f0e; stroke: #ff7f0e"/>
     <use xlink:href="#m221225e261" x="183.047878" y="72.286742" style="fill: #ff7f0e; stroke: #ff7f0e"/>
     <use xlink:href="#m221225e261" x="193.511953" y="74.341463" style="fill: #ff7f0e; stroke: #ff7f0e"/>
     <use xlink:href="#m221225e261" x="200.777325" y="83.007243" style="fill: #ff7f0e; stroke: #ff7f0e"/>
     <use xlink:href="#m221225e261" x="205.571502" y="74.180681" style="fill: #ff7f0e; stroke: #ff7f0e"/>
     <use xlink:href="#m221225e261" x="208.554779" y="77.791697" style="fill: #ff7f0e; stroke: #ff7f0e"/>
     <use xlink:href="#m221225e261" x="210.274613" y="78.955064" style="fill: #ff7f0e; stroke: #ff7f0e"/>
     <use xlink:href="#m221225e261" x="211.156346" y="76.102525" style="fill: #ff7f0e; stroke: #ff7f0e"/>
     <use xlink:href="#m221225e261" x="211.51322" y="78.088126" style="fill: #ff7f0e; stroke: #ff7f0e"/>
     <use xlink:href="#m221225e261" x="211.56484" y="77.727355" style="fill: #ff7f0e; stroke: #ff7f0e"/>
     <use xlink:href="#m221225e261" x="211.457638" y="77.059249" style="fill: #ff7f0e; stroke: #ff7f0e"/>
     <use xlink:href="#m221225e261" x="211.28389" y="77.84093" style="fill: #ff7f0e; stroke: #ff7f0e"/>
     <use xlink:href="#m221225e261" x="211.097718" y="77.47147" style="fill: #ff7f0e; stroke: #ff7f0e"/>
     <use xlink:href="#m221225e261" x="210.927675" y="77.413143" style="fill: #ff7f0e; stroke: #ff7f0e"/>
     <use xlink:href="#m221225e261" x="210.786102" y="77.650367" style="fill: #ff7f0e; stroke: #ff7f0e"/>
     <use xlink:href="#m221225e261" x="210.675753" y="77.466029" style="fill: #ff7f0e; stroke: #ff7f0e"/>
    </g>
   </g>
   <g id="PathCollection_1"/>
   <g id="PathCollection_2">
    <path d="M 97.100382 57.041464 
L 94.496875 57.469781 
L 91.445312 57.9852 
L 88.39375 58.514002 
L 85.342187 59.056198 
L 83.907933 59.317324 
L 82.290625 59.651038 
L 79.239062 60.295867 
L 76.1875 60.95587 
L 73.307059 61.593184 
L 73.135937 61.63687 
L 70.084375 62.433427 
L 67.032812 63.247489 
L 64.751925 63.869044 
L 63.98125 64.117241 
L 60.929687 65.120698 
L 57.878125 66.144839 
L 57.877938 66.144904 
L 54.826562 67.421846 
L 52.485895 68.420763 
L 51.775 68.810833 
L 48.723437 70.517747 
L 48.409625 70.696623 
L 45.671875 72.881395 
L 45.559825 72.972483 
L 43.880097 75.248343 
L 43.32021 77.524203 
L 43.880164 79.800063 
L 45.559952 82.075923 
L 45.671875 82.166906 
L 48.409823 84.351783 
L 48.723437 84.530544 
L 51.775 86.237429 
L 52.486171 86.627643 
L 54.826562 87.626431 
L 57.878125 88.903436 
L 57.878287 88.903503 
L 60.929687 89.92758 
L 63.98125 90.931026 
L 64.752362 91.179362 
L 67.032812 91.800792 
L 70.084375 92.614847 
L 73.135937 93.411396 
L 73.307606 93.455222 
L 76.1875 94.09241 
L 79.239062 94.752407 
L 82.290625 95.397231 
L 83.908603 95.731082 
L 85.342187 95.992085 
L 88.39375 96.534274 
L 91.445312 97.063075 
L 94.496875 97.578489 
L 97.101218 98.006942 
L 97.548437 98.072772 
L 100.6 98.509975 
L 103.651562 98.935202 
L 106.703125 99.348448 
L 109.754687 99.749718 
L 112.80625 100.13901 
L 113.969186 100.282802 
L 115.857812 100.494083 
L 118.909375 100.824623 
L 121.960937 101.144327 
L 125.0125 101.453194 
L 128.064062 101.751223 
L 131.115625 102.038414 
L 134.167187 102.314769 
L 136.970225 102.558662 
L 137.21875 102.578406 
L 140.270312 102.810939 
L 143.321875 103.033578 
L 146.373437 103.246321 
L 149.425 103.44917 
L 152.476562 103.642124 
L 155.528125 103.825182 
L 158.579687 103.998345 
L 161.63125 104.161613 
L 164.682812 104.314987 
L 167.734375 104.458466 
L 170.785937 104.592048 
L 173.8375 104.715737 
L 176.889062 104.82953 
L 177.03568 104.834522 
L 179.940625 104.925516 
L 182.992188 105.011999 
L 186.04375 105.089379 
L 189.095312 105.157654 
L 192.146875 105.216828 
L 195.198437 105.266896 
L 198.25 105.307863 
L 201.301562 105.339725 
L 204.353125 105.362484 
L 207.404687 105.376139 
L 210.45625 105.380692 
L 213.507812 105.37614 
L 216.559375 105.362486 
L 219.610937 105.339728 
L 222.6625 105.307866 
L 225.714062 105.266901 
L 228.765625 105.216833 
L 231.817187 105.157662 
L 234.86875 105.089387 
L 237.920312 105.012007 
" clip-path="url(#p70dc983997)" style="fill: none; stroke: #1f77b4; stroke-width: 1.5"/>
   </g>
   <g id="PathCollection_3">
    <path d="M 42.620312 105.266899 
L 45.671875 105.763036 
L 48.723437 106.250068 
L 51.775 106.728 
L 54.263904 107.110382 
L 54.826562 107.190422 
L 57.878125 107.616092 
L 60.929687 108.033332 
L 63.98125 108.442144 
L 67.032812 108.842525 
L 70.084375 109.234479 
L 71.291898 109.386242 
L 73.135937 109.60202 
L 76.1875 109.951246 
L 79.239062 110.292624 
L 82.290625 110.626156 
L 85.342187 110.951838 
L 88.39375 111.269675 
L 91.445312 111.579661 
L 92.277949 111.662102 
L 94.496875 111.867627 
L 97.548437 112.142932 
L 100.6 112.410896 
L 103.651562 112.671519 
L 106.703125 112.9248 
L 109.754687 113.170739 
L 112.80625 113.409339 
L 115.857812 113.640595 
L 118.909375 113.86451 
L 119.94432 113.937961 
L 121.960937 114.07241 
L 125.0125 114.268962 
L 128.064062 114.458616 
L 131.115625 114.641375 
L 134.167187 114.817237 
L 137.21875 114.986203 
L 140.270312 115.148272 
L 143.321875 115.303444 
L 146.373437 115.451719 
L 149.425 115.593098 
L 152.476562 115.727581 
L 155.528125 115.855168 
L 158.579687 115.975857 
L 161.63125 116.089651 
L 164.682812 116.196547 
L 165.209954 116.213821 
L 167.734375 116.29182 
L 170.785937 116.379603 
L 173.8375 116.460884 
L 176.889062 116.535663 
L 179.940625 116.603939 
L 182.992188 116.665713 
L 186.04375 116.720984 
L 189.095312 116.769752 
L 192.146875 116.812018 
L 195.198437 116.847782 
L 198.25 116.877044 
L 201.301562 116.899803 
L 204.353125 116.916059 
L 207.404687 116.925814 
L 210.45625 116.929065 
L 213.507812 116.925814 
L 216.559375 116.916061 
L 219.610937 116.899804 
L 222.6625 116.877047 
L 225.714062 116.847785 
L 228.765625 116.812023 
L 231.817187 116.769757 
L 234.86875 116.720989 
L 237.920312 116.665719 
" clip-path="url(#p70dc983997)" style="fill: none; stroke: #1f77b4; stroke-width: 1.5"/>
   </g>
   <g id="PathCollection_4">
    <path d="M 42.620312 116.847785 
L 45.671875 117.202167 
L 48.723437 117.550049 
L 51.775 117.891427 
L 54.826562 118.226303 
L 57.274129 118.489681 
L 57.878125 118.551163 
L 60.929687 118.855636 
L 63.98125 119.153959 
L 67.032812 119.44613 
L 70.084375 119.73215 
L 73.135937 120.012019 
L 76.1875 120.285736 
L 79.239062 120.553303 
L 81.716563 120.765541 
L 82.290625 120.812197 
L 85.342187 121.054373 
L 88.39375 121.290713 
L 91.445312 121.521216 
L 94.496875 121.745884 
L 97.548437 121.964718 
L 100.6 122.177715 
L 103.651562 122.384877 
L 106.703125 122.586203 
L 109.754687 122.781692 
L 112.80625 122.971349 
L 113.969179 123.041401 
L 115.857812 123.149618 
L 118.909375 123.31892 
L 121.960937 123.482671 
L 125.0125 123.640871 
L 128.064062 123.793521 
L 131.115625 123.940618 
L 134.167187 124.082165 
L 137.21875 124.218163 
L 140.270312 124.348609 
L 143.321875 124.473504 
L 146.373437 124.592848 
L 149.425 124.70664 
L 152.476562 124.814883 
L 155.528125 124.917574 
L 158.579687 125.014714 
L 161.63125 125.106303 
L 164.682812 125.192342 
L 167.734375 125.272831 
L 169.543626 125.317261 
L 170.785937 125.34635 
L 173.8375 125.412507 
L 176.889062 125.473373 
L 179.940625 125.528949 
L 182.992188 125.579229 
L 186.04375 125.624215 
L 189.095312 125.663911 
L 192.146875 125.698315 
L 195.198437 125.727424 
L 198.25 125.751241 
L 201.301562 125.769768 
L 204.353125 125.782997 
L 207.404687 125.790937 
L 210.45625 125.793584 
L 213.507812 125.79094 
L 216.559375 125.783 
L 219.610937 125.769768 
L 222.6625 125.751243 
L 225.714062 125.727427 
L 228.765625 125.698318 
L 231.817187 125.663916 
L 234.86875 125.62422 
L 237.920312 125.579234 
" clip-path="url(#p70dc983997)" style="fill: none; stroke: #1f77b4; stroke-width: 1.5"/>
   </g>
   <g id="PathCollection_5">
    <path d="M 42.620312 125.727427 
L 45.671875 126.015877 
L 48.723437 126.299037 
L 51.775 126.576903 
L 54.826562 126.849476 
L 57.878125 127.116757 
L 60.929687 127.378745 
L 63.478147 127.593121 
L 63.98125 127.633561 
L 67.032812 127.873791 
L 70.084375 128.108962 
L 73.135937 128.339078 
L 76.1875 128.564135 
L 79.239062 128.784135 
L 82.290625 128.999077 
L 85.342187 129.208963 
L 88.39375 129.413788 
L 91.445312 129.61356 
L 94.496875 129.808271 
L 95.473695 129.868981 
L 97.548437 129.992439 
L 100.6 130.169182 
L 103.651562 130.341082 
L 106.703125 130.508141 
L 109.754687 130.670355 
L 112.80625 130.82773 
L 115.857812 130.980261 
L 118.909375 131.127949 
L 121.960937 131.270796 
L 125.0125 131.408801 
L 128.064062 131.541964 
L 131.115625 131.670283 
L 134.167187 131.793762 
L 137.21875 131.912397 
L 140.270312 132.02619 
L 143.321875 132.135141 
L 143.606193 132.144841 
L 146.373437 132.235396 
L 149.425 132.330609 
L 152.476562 132.421181 
L 155.528125 132.507105 
L 158.579687 132.588386 
L 161.63125 132.665022 
L 164.682812 132.737014 
L 167.734375 132.804361 
L 170.785937 132.867065 
L 173.8375 132.925121 
L 176.889062 132.978534 
L 179.940625 133.027304 
L 182.992188 133.071428 
L 186.04375 133.110906 
L 189.095312 133.145741 
L 192.146875 133.175932 
L 195.198437 133.201477 
L 198.25 133.222377 
L 201.301562 133.238636 
L 204.353125 133.250245 
L 207.404687 133.257213 
L 210.45625 133.259536 
L 213.507812 133.257215 
L 216.559375 133.250247 
L 219.610937 133.238636 
L 222.6625 133.222379 
L 225.714062 133.201479 
L 228.765625 133.175934 
L 231.817187 133.145746 
L 234.86875 133.11091 
L 237.920312 133.071433 
" clip-path="url(#p70dc983997)" style="fill: none; stroke: #1f77b4; stroke-width: 1.5"/>
   </g>
   <g id="PathCollection_6">
    <path d="M 42.620312 133.201479 
L 45.671875 133.454609 
L 48.723437 133.703097 
L 51.775 133.946938 
L 54.826562 134.186135 
L 57.878125 134.420687 
L 57.878301 134.420701 
L 60.929687 134.64158 
L 63.98125 134.85801 
L 67.032812 135.069978 
L 70.084375 135.277482 
L 73.135937 135.480526 
L 76.1875 135.679105 
L 79.239062 135.873223 
L 82.290625 136.062878 
L 85.342187 136.248071 
L 88.39375 136.4288 
L 91.445312 136.605068 
L 93.070381 136.69656 
L 94.496875 136.773842 
L 97.548437 136.93487 
L 100.6 137.091604 
L 103.651562 137.244044 
L 106.703125 137.39219 
L 109.754687 137.536041 
L 112.80625 137.675599 
L 115.857812 137.810862 
L 118.909375 137.941832 
L 121.960937 138.068507 
L 125.0125 138.190889 
L 128.064062 138.308977 
L 131.115625 138.422769 
L 134.167187 138.532269 
L 137.21875 138.637473 
L 140.270312 138.738384 
L 143.321875 138.835001 
L 146.373437 138.927324 
L 147.936732 138.97242 
L 149.425 139.013791 
L 152.476562 139.094481 
L 155.528125 139.171032 
L 158.579687 139.243446 
L 161.63125 139.311722 
L 164.682812 139.37586 
L 167.734375 139.43586 
L 170.785937 139.491723 
L 173.8375 139.543447 
L 176.889062 139.591032 
L 179.940625 139.634482 
L 182.992188 139.673793 
L 186.04375 139.708964 
L 189.095312 139.739999 
L 192.146875 139.766896 
L 195.198437 139.789654 
L 198.25 139.808275 
L 201.301562 139.822759 
L 204.353125 139.833102 
L 207.404687 139.83931 
L 210.45625 139.84138 
L 213.507812 139.839312 
L 216.559375 139.833104 
L 219.610937 139.822759 
L 222.6625 139.808277 
L 225.714062 139.789656 
L 228.765625 139.766898 
L 231.817187 139.740003 
L 234.86875 139.708968 
L 237.920312 139.673797 
" clip-path="url(#p70dc983997)" style="fill: none; stroke: #1f77b4; stroke-width: 1.5"/>
   </g>
   <g id="PathCollection_7">
    <path d="M 42.620312 139.789655 
L 45.671875 140.015173 
L 48.723437 140.236551 
L 51.775 140.453793 
L 54.826562 140.666896 
L 57.878125 140.875862 
L 60.929687 141.080688 
L 63.477997 141.24828 
L 63.98125 141.280216 
L 67.032812 141.46987 
L 70.084375 141.655533 
L 73.135937 141.837202 
L 76.1875 142.01488 
L 79.239062 142.188564 
L 82.290625 142.358253 
L 85.342187 142.523953 
L 88.39375 142.685661 
L 91.445312 142.843371 
L 94.496875 142.997091 
L 97.548437 143.14682 
L 100.6 143.292555 
L 103.651562 143.4343 
L 105.641848 143.52414 
L 106.703125 143.570422 
L 109.754687 143.699647 
L 112.80625 143.82501 
L 115.857812 143.94652 
L 118.909375 144.064169 
L 121.960937 144.177963 
L 125.0125 144.287897 
L 128.064062 144.393976 
L 131.115625 144.496199 
L 134.167187 144.59456 
L 137.21875 144.689066 
L 140.270312 144.779717 
L 143.321875 144.866508 
L 146.373437 144.949441 
L 149.425 145.028518 
L 152.476562 145.103736 
L 155.528125 145.175099 
L 158.579687 145.242604 
L 161.63125 145.306252 
L 164.682812 145.366042 
L 167.734375 145.421973 
L 170.785937 145.474049 
L 173.8375 145.522266 
L 176.889062 145.566627 
L 179.940625 145.60713 
L 182.992188 145.643773 
L 186.04375 145.676561 
L 189.095312 145.705494 
L 192.146875 145.730565 
L 195.198437 145.751783 
L 198.25 145.769139 
L 201.301562 145.78264 
L 204.353125 145.792286 
L 207.404687 145.798072 
L 210.45625 145.8 
" clip-path="url(#p70dc983997)" style="fill: none; stroke: #1f77b4; stroke-width: 1.5"/>
    <path d="M 210.45625 145.8 
L 213.507812 145.798072 
L 216.559375 145.792286 
L 219.610937 145.782644 
L 222.6625 145.769143 
L 225.714062 145.751783 
L 228.765625 145.730568 
L 231.817187 145.705494 
L 234.86875 145.676565 
L 237.920312 145.643777 
" clip-path="url(#p70dc983997)" style="fill: none; stroke: #1f77b4; stroke-width: 1.5"/>
   </g>
   <g id="PathCollection_8">
    <path d="M 42.620312 145.751783 
L 43.320206 145.8 
" clip-path="url(#p70dc983997)" style="fill: none; stroke: #1f77b4; stroke-width: 1.5"/>
   </g>
   <g id="PathCollection_9"/>
   <g id="patch_3">
    <path d="M 42.620312 145.8 
L 42.620312 7.2 
" style="fill: none; stroke: #000000; stroke-width: 0.8; stroke-linejoin: miter; stroke-linecap: square"/>
   </g>
   <g id="patch_4">
    <path d="M 237.920313 145.8 
L 237.920313 7.2 
" style="fill: none; stroke: #000000; stroke-width: 0.8; stroke-linejoin: miter; stroke-linecap: square"/>
   </g>
   <g id="patch_5">
    <path d="M 42.620312 145.8 
L 237.920312 145.8 
" style="fill: none; stroke: #000000; stroke-width: 0.8; stroke-linejoin: miter; stroke-linecap: square"/>
   </g>
   <g id="patch_6">
    <path d="M 42.620312 7.2 
L 237.920312 7.2 
" style="fill: none; stroke: #000000; stroke-width: 0.8; stroke-linejoin: miter; stroke-linecap: square"/>
   </g>
  </g>
 </g>
 <defs>
  <clipPath id="p70dc983997">
   <rect x="42.620312" y="7.2" width="195.3" height="138.6"/>
  </clipPath>
 </defs>
</svg>
