<?xml version="1.0" encoding="utf-8" standalone="no"?>
<!DOCTYPE svg PUBLIC "-//W3C//DTD SVG 1.1//EN"
  "http://www.w3.org/Graphics/SVG/1.1/DTD/svg11.dtd">
<svg xmlns:xlink="http://www.w3.org/1999/xlink" width="394.160937pt" height="211.07625pt" viewBox="0 0 394.160937 211.07625" xmlns="http://www.w3.org/2000/svg" version="1.1">
 <metadata>
  <rdf:RDF xmlns:dc="http://purl.org/dc/elements/1.1/" xmlns:cc="http://creativecommons.org/ns#" xmlns:rdf="http://www.w3.org/1999/02/22-rdf-syntax-ns#">
   <cc:Work>
    <dc:type rdf:resource="http://purl.org/dc/dcmitype/StillImage"/>
    <dc:date>2025-08-11T13:52:31.071207</dc:date>
    <dc:format>image/svg+xml</dc:format>
    <dc:creator>
     <cc:Agent>
      <dc:title>Matplotlib v3.7.2, https://matplotlib.org/</dc:title>
     </cc:Agent>
    </dc:creator>
   </cc:Work>
  </rdf:RDF>
 </metadata>
 <defs>
  <style type="text/css">*{stroke-linejoin: round; stroke-linecap: butt}</style>
 </defs>
 <g id="figure_1">
  <g id="patch_1">
   <path d="M 0 211.07625 
L 394.160937 211.07625 
L 394.160937 0 
L 0 0 
z
" style="fill: #ffffff"/>
  </g>
  <g id="axes_1">
   <g id="patch_2">
    <path d="M 52.160938 173.52 
L 386.960938 173.52 
L 386.960938 7.2 
L 52.160938 7.2 
z
" style="fill: #ffffff"/>
   </g>
   <g id="matplotlib.axis_1">
    <g id="xtick_1">
     <g id="line2d_1">
      <path d="M 65.849654 173.52 
L 65.849654 7.2 
" clip-path="url(#pf6b70f183d)" style="fill: none; stroke: #b0b0b0; stroke-width: 0.8; stroke-linecap: square"/>
     </g>
     <g id="line2d_2">
      <defs>
       <path id="m8ea3127ed7" d="M 0 0 
L 0 3.5 
" style="stroke: #000000; stroke-width: 0.8"/>
      </defs>
      <g>
       <use xlink:href="#m8ea3127ed7" x="65.849654" y="173.52" style="stroke: #000000; stroke-width: 0.8"/>
      </g>
     </g>
     <g id="text_1">
      <!-- 0 -->
      <g transform="translate(62.668404 188.118438) scale(0.1 -0.1)">
       <defs>
        <path id="DejaVuSans-30" d="M 2034 4250 
Q 1547 4250 1301 3770 
Q 1056 3291 1056 2328 
Q 1056 1369 1301 889 
Q 1547 409 2034 409 
Q 2525 409 2770 889 
Q 3016 1369 3016 2328 
Q 3016 3291 2770 3770 
Q 2525 4250 2034 4250 
z
M 2034 4750 
Q 2819 4750 3233 4129 
Q 3647 3509 3647 2328 
Q 3647 1150 3233 529 
Q 2819 -91 2034 -91 
Q 1250 -91 836 529 
Q 422 1150 422 2328 
Q 422 3509 836 4129 
Q 1250 4750 2034 4750 
z
" transform="scale(0.015625)"/>
       </defs>
       <use xlink:href="#DejaVuSans-30"/>
      </g>
     </g>
    </g>
    <g id="xtick_2">
     <g id="line2d_3">
      <path d="M 127.028274 173.52 
L 127.028274 7.2 
" clip-path="url(#pf6b70f183d)" style="fill: none; stroke: #b0b0b0; stroke-width: 0.8; stroke-linecap: square"/>
     </g>
     <g id="line2d_4">
      <g>
       <use xlink:href="#m8ea3127ed7" x="127.028274" y="173.52" style="stroke: #000000; stroke-width: 0.8"/>
      </g>
     </g>
     <g id="text_2">
      <!-- 200 -->
      <g transform="translate(117.484524 188.118438) scale(0.1 -0.1)">
       <defs>
        <path id="DejaVuSans-32" d="M 1228 531 
L 3431 531 
L 3431 0 
L 469 0 
L 469 531 
Q 828 903 1448 1529 
Q 2069 2156 2228 2338 
Q 2531 2678 2651 2914 
Q 2772 3150 2772 3378 
Q 2772 3750 2511 3984 
Q 2250 4219 1831 4219 
Q 1534 4219 1204 4116 
Q 875 4013 500 3803 
L 500 4441 
Q 881 4594 1212 4672 
Q 1544 4750 1819 4750 
Q 2544 4750 2975 4387 
Q 3406 4025 3406 3419 
Q 3406 3131 3298 2873 
Q 3191 2616 2906 2266 
Q 2828 2175 2409 1742 
Q 1991 1309 1228 531 
z
" transform="scale(0.015625)"/>
       </defs>
       <use xlink:href="#DejaVuSans-32"/>
       <use xlink:href="#DejaVuSans-30" x="63.623047"/>
       <use xlink:href="#DejaVuSans-30" x="127.246094"/>
      </g>
     </g>
    </g>
    <g id="xtick_3">
     <g id="line2d_5">
      <path d="M 188.206895 173.52 
L 188.206895 7.2 
" clip-path="url(#pf6b70f183d)" style="fill: none; stroke: #b0b0b0; stroke-width: 0.8; stroke-linecap: square"/>
     </g>
     <g id="line2d_6">
      <g>
       <use xlink:href="#m8ea3127ed7" x="188.206895" y="173.52" style="stroke: #000000; stroke-width: 0.8"/>
      </g>
     </g>
     <g id="text_3">
      <!-- 400 -->
      <g transform="translate(178.663145 188.118438) scale(0.1 -0.1)">
       <defs>
        <path id="DejaVuSans-34" d="M 2419 4116 
L 825 1625 
L 2419 1625 
L 2419 4116 
z
M 2253 4666 
L 3047 4666 
L 3047 1625 
L 3713 1625 
L 3713 1100 
L 3047 1100 
L 3047 0 
L 2419 0 
L 2419 1100 
L 313 1100 
L 313 1709 
L 2253 4666 
z
" transform="scale(0.015625)"/>
       </defs>
       <use xlink:href="#DejaVuSans-34"/>
       <use xlink:href="#DejaVuSans-30" x="63.623047"/>
       <use xlink:href="#DejaVuSans-30" x="127.246094"/>
      </g>
     </g>
    </g>
    <g id="xtick_4">
     <g id="line2d_7">
      <path d="M 249.385515 173.52 
L 249.385515 7.2 
" clip-path="url(#pf6b70f183d)" style="fill: none; stroke: #b0b0b0; stroke-width: 0.8; stroke-linecap: square"/>
     </g>
     <g id="line2d_8">
      <g>
       <use xlink:href="#m8ea3127ed7" x="249.385515" y="173.52" style="stroke: #000000; stroke-width: 0.8"/>
      </g>
     </g>
     <g id="text_4">
      <!-- 600 -->
      <g transform="translate(239.841765 188.118438) scale(0.1 -0.1)">
       <defs>
        <path id="DejaVuSans-36" d="M 2113 2584 
Q 1688 2584 1439 2293 
Q 1191 2003 1191 1497 
Q 1191 994 1439 701 
Q 1688 409 2113 409 
Q 2538 409 2786 701 
Q 3034 994 3034 1497 
Q 3034 2003 2786 2293 
Q 2538 2584 2113 2584 
z
M 3366 4563 
L 3366 3988 
Q 3128 4100 2886 4159 
Q 2644 4219 2406 4219 
Q 1781 4219 1451 3797 
Q 1122 3375 1075 2522 
Q 1259 2794 1537 2939 
Q 1816 3084 2150 3084 
Q 2853 3084 3261 2657 
Q 3669 2231 3669 1497 
Q 3669 778 3244 343 
Q 2819 -91 2113 -91 
Q 1303 -91 875 529 
Q 447 1150 447 2328 
Q 447 3434 972 4092 
Q 1497 4750 2381 4750 
Q 2619 4750 2861 4703 
Q 3103 4656 3366 4563 
z
" transform="scale(0.015625)"/>
       </defs>
       <use xlink:href="#DejaVuSans-36"/>
       <use xlink:href="#DejaVuSans-30" x="63.623047"/>
       <use xlink:href="#DejaVuSans-30" x="127.246094"/>
      </g>
     </g>
    </g>
    <g id="xtick_5">
     <g id="line2d_9">
      <path d="M 310.564135 173.52 
L 310.564135 7.2 
" clip-path="url(#pf6b70f183d)" style="fill: none; stroke: #b0b0b0; stroke-width: 0.8; stroke-linecap: square"/>
     </g>
     <g id="line2d_10">
      <g>
       <use xlink:href="#m8ea3127ed7" x="310.564135" y="173.52" style="stroke: #000000; stroke-width: 0.8"/>
      </g>
     </g>
     <g id="text_5">
      <!-- 800 -->
      <g transform="translate(301.020385 188.118438) scale(0.1 -0.1)">
       <defs>
        <path id="DejaVuSans-38" d="M 2034 2216 
Q 1584 2216 1326 1975 
Q 1069 1734 1069 1313 
Q 1069 891 1326 650 
Q 1584 409 2034 409 
Q 2484 409 2743 651 
Q 3003 894 3003 1313 
Q 3003 1734 2745 1975 
Q 2488 2216 2034 2216 
z
M 1403 2484 
Q 997 2584 770 2862 
Q 544 3141 544 3541 
Q 544 4100 942 4425 
Q 1341 4750 2034 4750 
Q 2731 4750 3128 4425 
Q 3525 4100 3525 3541 
Q 3525 3141 3298 2862 
Q 3072 2584 2669 2484 
Q 3125 2378 3379 2068 
Q 3634 1759 3634 1313 
Q 3634 634 3220 271 
Q 2806 -91 2034 -91 
Q 1263 -91 848 271 
Q 434 634 434 1313 
Q 434 1759 690 2068 
Q 947 2378 1403 2484 
z
M 1172 3481 
Q 1172 3119 1398 2916 
Q 1625 2713 2034 2713 
Q 2441 2713 2670 2916 
Q 2900 3119 2900 3481 
Q 2900 3844 2670 4047 
Q 2441 4250 2034 4250 
Q 1625 4250 1398 4047 
Q 1172 3844 1172 3481 
z
" transform="scale(0.015625)"/>
       </defs>
       <use xlink:href="#DejaVuSans-38"/>
       <use xlink:href="#DejaVuSans-30" x="63.623047"/>
       <use xlink:href="#DejaVuSans-30" x="127.246094"/>
      </g>
     </g>
    </g>
    <g id="xtick_6">
     <g id="line2d_11">
      <path d="M 371.742756 173.52 
L 371.742756 7.2 
" clip-path="url(#pf6b70f183d)" style="fill: none; stroke: #b0b0b0; stroke-width: 0.8; stroke-linecap: square"/>
     </g>
     <g id="line2d_12">
      <g>
       <use xlink:href="#m8ea3127ed7" x="371.742756" y="173.52" style="stroke: #000000; stroke-width: 0.8"/>
      </g>
     </g>
     <g id="text_6">
      <!-- 1000 -->
      <g transform="translate(359.017756 188.118438) scale(0.1 -0.1)">
       <defs>
        <path id="DejaVuSans-31" d="M 794 531 
L 1825 531 
L 1825 4091 
L 703 3866 
L 703 4441 
L 1819 4666 
L 2450 4666 
L 2450 531 
L 3481 531 
L 3481 0 
L 794 0 
L 794 531 
z
" transform="scale(0.015625)"/>
       </defs>
       <use xlink:href="#DejaVuSans-31"/>
       <use xlink:href="#DejaVuSans-30" x="63.623047"/>
       <use xlink:href="#DejaVuSans-30" x="127.246094"/>
       <use xlink:href="#DejaVuSans-30" x="190.869141"/>
      </g>
     </g>
    </g>
    <g id="text_7">
     <!-- time -->
     <g transform="translate(208.264844 201.796563) scale(0.1 -0.1)">
      <defs>
       <path id="DejaVuSans-74" d="M 1172 4494 
L 1172 3500 
L 2356 3500 
L 2356 3053 
L 1172 3053 
L 1172 1153 
Q 1172 725 1289 603 
Q 1406 481 1766 481 
L 2356 481 
L 2356 0 
L 1766 0 
Q 1100 0 847 248 
Q 594 497 594 1153 
L 594 3053 
L 172 3053 
L 172 3500 
L 594 3500 
L 594 4494 
L 1172 4494 
z
" transform="scale(0.015625)"/>
       <path id="DejaVuSans-69" d="M 603 3500 
L 1178 3500 
L 1178 0 
L 603 0 
L 603 3500 
z
M 603 4863 
L 1178 4863 
L 1178 4134 
L 603 4134 
L 603 4863 
z
" transform="scale(0.015625)"/>
       <path id="DejaVuSans-6d" d="M 3328 2828 
Q 3544 3216 3844 3400 
Q 4144 3584 4550 3584 
Q 5097 3584 5394 3201 
Q 5691 2819 5691 2113 
L 5691 0 
L 5113 0 
L 5113 2094 
Q 5113 2597 4934 2840 
Q 4756 3084 4391 3084 
Q 3944 3084 3684 2787 
Q 3425 2491 3425 1978 
L 3425 0 
L 2847 0 
L 2847 2094 
Q 2847 2600 2669 2842 
Q 2491 3084 2119 3084 
Q 1678 3084 1418 2786 
Q 1159 2488 1159 1978 
L 1159 0 
L 581 0 
L 581 3500 
L 1159 3500 
L 1159 2956 
Q 1356 3278 1631 3431 
Q 1906 3584 2284 3584 
Q 2666 3584 2933 3390 
Q 3200 3197 3328 2828 
z
" transform="scale(0.015625)"/>
       <path id="DejaVuSans-65" d="M 3597 1894 
L 3597 1613 
L 953 1613 
Q 991 1019 1311 708 
Q 1631 397 2203 397 
Q 2534 397 2845 478 
Q 3156 559 3463 722 
L 3463 178 
Q 3153 47 2828 -22 
Q 2503 -91 2169 -91 
Q 1331 -91 842 396 
Q 353 884 353 1716 
Q 353 2575 817 3079 
Q 1281 3584 2069 3584 
Q 2775 3584 3186 3129 
Q 3597 2675 3597 1894 
z
M 3022 2063 
Q 3016 2534 2758 2815 
Q 2500 3097 2075 3097 
Q 1594 3097 1305 2825 
Q 1016 2553 972 2059 
L 3022 2063 
z
" transform="scale(0.015625)"/>
      </defs>
      <use xlink:href="#DejaVuSans-74"/>
      <use xlink:href="#DejaVuSans-69" x="39.208984"/>
      <use xlink:href="#DejaVuSans-6d" x="66.992188"/>
      <use xlink:href="#DejaVuSans-65" x="164.404297"/>
     </g>
    </g>
   </g>
   <g id="matplotlib.axis_2">
    <g id="ytick_1">
     <g id="line2d_13">
      <path d="M 52.160938 156.470449 
L 386.960938 156.470449 
" clip-path="url(#pf6b70f183d)" style="fill: none; stroke: #b0b0b0; stroke-width: 0.8; stroke-linecap: square"/>
     </g>
     <g id="line2d_14">
      <defs>
       <path id="m3999de001e" d="M 0 0 
L -3.5 0 
" style="stroke: #000000; stroke-width: 0.8"/>
      </defs>
      <g>
       <use xlink:href="#m3999de001e" x="52.160938" y="156.470449" style="stroke: #000000; stroke-width: 0.8"/>
      </g>
     </g>
     <g id="text_8">
      <!-- −1.0 -->
      <g transform="translate(20.878125 160.269668) scale(0.1 -0.1)">
       <defs>
        <path id="DejaVuSans-2212" d="M 678 2272 
L 4684 2272 
L 4684 1741 
L 678 1741 
L 678 2272 
z
" transform="scale(0.015625)"/>
        <path id="DejaVuSans-2e" d="M 684 794 
L 1344 794 
L 1344 0 
L 684 0 
L 684 794 
z
" transform="scale(0.015625)"/>
       </defs>
       <use xlink:href="#DejaVuSans-2212"/>
       <use xlink:href="#DejaVuSans-31" x="83.789062"/>
       <use xlink:href="#DejaVuSans-2e" x="147.412109"/>
       <use xlink:href="#DejaVuSans-30" x="179.199219"/>
      </g>
     </g>
    </g>
    <g id="ytick_2">
     <g id="line2d_15">
      <path d="M 52.160938 125.210804 
L 386.960938 125.210804 
" clip-path="url(#pf6b70f183d)" style="fill: none; stroke: #b0b0b0; stroke-width: 0.8; stroke-linecap: square"/>
     </g>
     <g id="line2d_16">
      <g>
       <use xlink:href="#m3999de001e" x="52.160938" y="125.210804" style="stroke: #000000; stroke-width: 0.8"/>
      </g>
     </g>
     <g id="text_9">
      <!-- −0.5 -->
      <g transform="translate(20.878125 129.010023) scale(0.1 -0.1)">
       <defs>
        <path id="DejaVuSans-35" d="M 691 4666 
L 3169 4666 
L 3169 4134 
L 1269 4134 
L 1269 2991 
Q 1406 3038 1543 3061 
Q 1681 3084 1819 3084 
Q 2600 3084 3056 2656 
Q 3513 2228 3513 1497 
Q 3513 744 3044 326 
Q 2575 -91 1722 -91 
Q 1428 -91 1123 -41 
Q 819 9 494 109 
L 494 744 
Q 775 591 1075 516 
Q 1375 441 1709 441 
Q 2250 441 2565 725 
Q 2881 1009 2881 1497 
Q 2881 1984 2565 2268 
Q 2250 2553 1709 2553 
Q 1456 2553 1204 2497 
Q 953 2441 691 2322 
L 691 4666 
z
" transform="scale(0.015625)"/>
       </defs>
       <use xlink:href="#DejaVuSans-2212"/>
       <use xlink:href="#DejaVuSans-30" x="83.789062"/>
       <use xlink:href="#DejaVuSans-2e" x="147.412109"/>
       <use xlink:href="#DejaVuSans-35" x="179.199219"/>
      </g>
     </g>
    </g>
    <g id="ytick_3">
     <g id="line2d_17">
      <path d="M 52.160938 93.951159 
L 386.960938 93.951159 
" clip-path="url(#pf6b70f183d)" style="fill: none; stroke: #b0b0b0; stroke-width: 0.8; stroke-linecap: square"/>
     </g>
     <g id="line2d_18">
      <g>
       <use xlink:href="#m3999de001e" x="52.160938" y="93.951159" style="stroke: #000000; stroke-width: 0.8"/>
      </g>
     </g>
     <g id="text_10">
      <!-- 0.0 -->
      <g transform="translate(29.257812 97.750378) scale(0.1 -0.1)">
       <use xlink:href="#DejaVuSans-30"/>
       <use xlink:href="#DejaVuSans-2e" x="63.623047"/>
       <use xlink:href="#DejaVuSans-30" x="95.410156"/>
      </g>
     </g>
    </g>
    <g id="ytick_4">
     <g id="line2d_19">
      <path d="M 52.160938 62.691514 
L 386.960938 62.691514 
" clip-path="url(#pf6b70f183d)" style="fill: none; stroke: #b0b0b0; stroke-width: 0.8; stroke-linecap: square"/>
     </g>
     <g id="line2d_20">
      <g>
       <use xlink:href="#m3999de001e" x="52.160938" y="62.691514" style="stroke: #000000; stroke-width: 0.8"/>
      </g>
     </g>
     <g id="text_11">
      <!-- 0.5 -->
      <g transform="translate(29.257812 66.490733) scale(0.1 -0.1)">
       <use xlink:href="#DejaVuSans-30"/>
       <use xlink:href="#DejaVuSans-2e" x="63.623047"/>
       <use xlink:href="#DejaVuSans-35" x="95.410156"/>
      </g>
     </g>
    </g>
    <g id="ytick_5">
     <g id="line2d_21">
      <path d="M 52.160938 31.431869 
L 386.960938 31.431869 
" clip-path="url(#pf6b70f183d)" style="fill: none; stroke: #b0b0b0; stroke-width: 0.8; stroke-linecap: square"/>
     </g>
     <g id="line2d_22">
      <g>
       <use xlink:href="#m3999de001e" x="52.160938" y="31.431869" style="stroke: #000000; stroke-width: 0.8"/>
      </g>
     </g>
     <g id="text_12">
      <!-- 1.0 -->
      <g transform="translate(29.257812 35.231088) scale(0.1 -0.1)">
       <use xlink:href="#DejaVuSans-31"/>
       <use xlink:href="#DejaVuSans-2e" x="63.623047"/>
       <use xlink:href="#DejaVuSans-30" x="95.410156"/>
      </g>
     </g>
    </g>
    <g id="text_13">
     <!-- x -->
     <g transform="translate(14.798438 93.319375) rotate(-90) scale(0.1 -0.1)">
      <defs>
       <path id="DejaVuSans-78" d="M 3513 3500 
L 2247 1797 
L 3578 0 
L 2900 0 
L 1881 1375 
L 863 0 
L 184 0 
L 1544 1831 
L 300 3500 
L 978 3500 
L 1906 2253 
L 2834 3500 
L 3513 3500 
z
" transform="scale(0.015625)"/>
      </defs>
      <use xlink:href="#DejaVuSans-78"/>
     </g>
    </g>
   </g>
   <g id="line2d_23">
    <path d="M 67.379119 85.910142 
L 67.685012 87.154037 
L 67.990906 90.764171 
L 68.602692 86.399444 
L 68.908585 87.38643 
L 69.214478 80.102269 
L 69.520371 80.823144 
L 69.826264 92.132114 
L 70.132157 92.168316 
L 70.43805 98.00794 
L 70.743943 95.926429 
L 71.049837 89.514746 
L 71.35573 87.934912 
L 71.661623 88.868834 
L 71.967516 85.101148 
L 72.273409 85.736073 
L 73.191088 74.663005 
L 73.496981 70.647004 
L 73.802874 78.259683 
L 74.414661 85.556105 
L 74.720554 89.612559 
L 75.026447 76.252697 
L 75.33234 79.691761 
L 75.638233 79.064489 
L 75.944126 73.307302 
L 76.250019 84.421222 
L 76.555912 75.279861 
L 76.861805 77.269486 
L 77.167699 72.870214 
L 77.473592 70.673625 
L 77.779485 75.678411 
L 78.085378 71.154502 
L 78.391271 74.845515 
L 78.697164 74.788897 
L 79.003057 72.617267 
L 79.614843 66.320098 
L 79.920736 57.125457 
L 80.22663 56.527092 
L 80.532523 57.788492 
L 80.838416 56.385878 
L 81.144309 62.292573 
L 81.450202 62.776058 
L 81.756095 69.023654 
L 82.061988 69.535207 
L 82.367881 71.192103 
L 82.673774 66.857361 
L 82.979668 65.941941 
L 83.285561 74.310277 
L 83.591454 67.159337 
L 83.897347 67.312128 
L 84.509133 52.652868 
L 84.815026 54.826203 
L 85.120919 61.587679 
L 85.426812 61.929565 
L 85.732705 59.489112 
L 86.038599 59.746415 
L 86.344492 56.064212 
L 86.650385 57.975853 
L 86.956278 61.032563 
L 87.568064 44.551748 
L 87.873957 45.812623 
L 88.17985 48.68213 
L 88.485743 58.146025 
L 88.791636 58.887791 
L 89.09753 55.039568 
L 89.403423 49.747855 
L 90.015209 52.379072 
L 90.626995 45.462251 
L 90.932888 43.242426 
L 91.238781 42.488459 
L 91.544674 47.420716 
L 91.850567 47.045411 
L 92.156461 47.536205 
L 92.462354 45.888996 
L 92.768247 46.067224 
L 93.07414 48.555495 
L 93.380033 44.833649 
L 93.685926 45.050264 
L 93.991819 47.583829 
L 94.297712 45.253004 
L 94.603605 44.890999 
L 94.909498 47.442269 
L 95.215392 45.440601 
L 95.521285 46.987357 
L 95.827178 50.85861 
L 96.133071 49.39441 
L 96.438964 46.267196 
L 96.744857 46.819317 
L 97.05075 44.709544 
L 97.356643 39.830166 
L 97.662536 37.571682 
L 97.96843 38.015885 
L 98.274323 39.798323 
L 98.886109 49.90362 
L 99.497895 40.504104 
L 99.803788 40.509339 
L 100.109681 42.648715 
L 100.415574 35.050257 
L 100.721467 36.939328 
L 101.333254 29.352516 
L 101.639147 30.901738 
L 102.250933 39.770774 
L 102.556826 44.870769 
L 102.862719 54.315047 
L 103.168612 44.970428 
L 103.474505 48.209886 
L 103.780398 37.998527 
L 104.086292 32.453055 
L 104.392185 35.294604 
L 104.698078 24.925073 
L 105.003971 28.461084 
L 105.615757 44.224183 
L 105.92165 51.781768 
L 106.227543 49.154069 
L 106.839329 36.081814 
L 107.145223 32.881767 
L 107.451116 34.56054 
L 107.757009 33.027557 
L 108.062902 34.324686 
L 108.368795 34.826615 
L 108.980581 38.279535 
L 109.286474 36.019978 
L 109.592367 38.133678 
L 109.89826 38.592373 
L 110.204154 33.766916 
L 110.510047 32.805983 
L 110.81594 29.299436 
L 111.121833 30.817931 
L 111.427726 36.184381 
L 111.733619 38.050556 
L 112.039512 41.476932 
L 112.345405 32.269305 
L 112.651298 29.475123 
L 112.957191 29.491937 
L 113.263085 24.126169 
L 113.568978 26.093185 
L 113.874871 29.023739 
L 114.180764 29.121417 
L 114.486657 30.968509 
L 114.79255 31.031657 
L 115.710229 22.230238 
L 116.016123 28.448675 
L 116.322016 26.873658 
L 116.627909 31.529562 
L 116.933802 31.428836 
L 117.239695 26.877519 
L 117.545588 25.868026 
L 118.157374 24.732416 
L 118.463267 26.009169 
L 119.075054 33.354716 
L 119.68684 35.174974 
L 119.992733 34.058819 
L 120.298626 26.095704 
L 120.604519 23.520987 
L 120.910412 16.911572 
L 121.216305 16.928512 
L 121.828091 26.017255 
L 122.133985 28.99395 
L 122.439878 28.805325 
L 122.745771 26.076848 
L 123.051664 26.753145 
L 123.357557 25.507545 
L 123.66345 18.987207 
L 123.969343 17.628934 
L 124.275236 23.233485 
L 124.887022 39.240408 
L 125.192916 41.527235 
L 125.498809 40.872611 
L 125.804702 39.142954 
L 126.110595 40.49083 
L 126.416488 46.630256 
L 127.028274 34.464483 
L 127.334167 33.379858 
L 127.64006 29.636306 
L 127.945953 29.732292 
L 128.251847 35.5101 
L 128.863633 31.913296 
L 129.169526 26.864946 
L 129.475419 27.941194 
L 130.087205 39.528142 
L 130.393098 51.150957 
L 131.004885 47.853202 
L 131.310778 43.70781 
L 131.616671 42.706717 
L 131.922564 45.157645 
L 132.53435 41.250912 
L 133.146136 28.24972 
L 133.452029 32.983328 
L 133.757922 33.861504 
L 134.063816 37.110476 
L 134.369709 43.867357 
L 134.675602 42.851124 
L 134.981495 44.611777 
L 135.287388 48.41272 
L 135.593281 49.506512 
L 136.205067 49.184231 
L 136.51096 51.829784 
L 137.122747 50.347987 
L 137.42864 53.919303 
L 137.734533 54.652096 
L 138.040426 54.035698 
L 138.346319 56.014751 
L 138.958105 46.906042 
L 139.263998 46.609678 
L 139.569891 44.574967 
L 139.875784 49.300936 
L 140.181678 46.920564 
L 140.487571 46.007441 
L 140.793464 45.881662 
L 141.099357 37.064704 
L 142.322929 51.202575 
L 142.628822 49.249623 
L 142.934715 46.441307 
L 143.240609 46.045126 
L 143.546502 52.519425 
L 143.852395 54.381013 
L 144.464181 61.011955 
L 144.770074 58.764871 
L 145.075967 63.981461 
L 145.687753 64.999233 
L 145.993646 70.612625 
L 146.29954 67.57722 
L 146.605433 67.622595 
L 146.911326 61.295511 
L 147.217219 61.361611 
L 147.523112 63.47506 
L 147.829005 64.10848 
L 148.134898 66.532121 
L 148.440791 61.201523 
L 148.746684 51.074483 
L 149.052578 51.605866 
L 149.664364 55.936701 
L 149.970257 70.704713 
L 150.27615 70.504337 
L 150.887936 83.505303 
L 151.193829 81.904721 
L 151.499722 92.037545 
L 151.805615 82.901026 
L 152.111509 79.981162 
L 152.417402 80.639966 
L 152.723295 68.49897 
L 153.029188 73.984584 
L 153.335081 74.443793 
L 153.640974 73.680141 
L 153.946867 81.812761 
L 154.558653 84.749348 
L 154.864546 86.578856 
L 155.17044 84.039627 
L 155.476333 78.479985 
L 155.782226 81.509597 
L 156.088119 77.280943 
L 156.394012 79.246288 
L 156.699905 75.004354 
L 157.005798 72.337652 
L 157.311691 74.410387 
L 157.617584 71.583145 
L 157.923477 83.636727 
L 158.535264 91.95216 
L 158.841157 98.209019 
L 159.452943 87.686331 
L 160.064729 80.672458 
L 160.370622 82.524134 
L 160.982408 96.404634 
L 161.288302 103.954139 
L 161.594195 103.197879 
L 161.900088 98.584353 
L 162.205981 92.116162 
L 162.511874 91.112754 
L 162.817767 97.599883 
L 163.12366 100.989365 
L 163.429553 107.788959 
L 164.04134 115.024664 
L 164.347233 113.698228 
L 164.653126 108.582946 
L 164.959019 106.082942 
L 165.264912 94.473601 
L 165.570805 94.530902 
L 165.876698 89.425027 
L 166.182591 82.372046 
L 166.488484 85.410514 
L 166.794377 81.639112 
L 167.100271 92.957904 
L 167.406164 96.31662 
L 167.712057 95.023831 
L 168.01795 104.149132 
L 168.323843 101.690695 
L 168.935629 117.536611 
L 169.241522 115.22689 
L 169.547415 116.187269 
L 169.853308 110.191417 
L 170.159202 109.082339 
L 170.770988 116.271587 
L 171.076881 120.452371 
L 171.382774 121.656253 
L 171.688667 110.113963 
L 171.99456 105.016988 
L 172.606346 100.37564 
L 172.912239 109.093496 
L 173.218133 107.092798 
L 173.524026 112.021369 
L 173.829919 114.081329 
L 174.135812 116.911774 
L 174.441705 122.854274 
L 174.747598 122.524162 
L 175.053491 120.901664 
L 175.665277 122.969393 
L 175.97117 125.985922 
L 176.277064 127.132298 
L 176.582957 122.537706 
L 176.88885 124.965431 
L 177.194743 122.059965 
L 177.500636 126.206554 
L 177.806529 134.522473 
L 178.112422 130.769181 
L 178.418315 136.695562 
L 179.030102 117.251687 
L 179.335995 118.014111 
L 179.641888 113.766064 
L 179.947781 122.059382 
L 180.253674 126.360437 
L 180.559567 132.268197 
L 180.86546 132.382498 
L 181.171353 135.347526 
L 181.477246 134.749272 
L 181.783139 133.170409 
L 182.089033 134.815137 
L 182.394926 134.055021 
L 182.700819 137.561605 
L 183.312605 133.867485 
L 183.618498 130.27131 
L 183.924391 131.23003 
L 184.230284 134.604567 
L 184.536177 136.343663 
L 184.84207 134.467654 
L 185.147964 131.273387 
L 185.453857 124.541744 
L 185.75975 125.247942 
L 186.065643 132.132212 
L 186.371536 134.751038 
L 186.677429 139.105372 
L 186.983322 140.244154 
L 187.289215 138.865177 
L 187.595108 138.865882 
L 187.901001 140.537984 
L 188.206895 139.541619 
L 188.512788 137.906454 
L 188.818681 139.487344 
L 189.124574 133.716161 
L 189.430467 136.171587 
L 189.73636 141.883113 
L 190.042253 142.307387 
L 190.654039 152.84191 
L 190.959932 152.292055 
L 191.265826 154.143198 
L 191.571719 149.925125 
L 191.877612 143.817478 
L 192.183505 142.746112 
L 192.489398 142.665136 
L 192.795291 143.276865 
L 193.407077 139.310606 
L 193.71297 135.32674 
L 194.324757 143.790879 
L 194.63065 138.405431 
L 194.936543 142.508428 
L 195.242436 140.514529 
L 195.548329 139.75924 
L 195.854222 144.095743 
L 196.160115 142.763235 
L 196.771901 152.657351 
L 197.077795 155.083662 
L 197.383688 161.63335 
L 197.689581 156.503033 
L 197.995474 155.729297 
L 198.60726 147.463245 
L 198.913153 148.310555 
L 199.219046 151.209181 
L 199.524939 160.618387 
L 199.830832 156.510083 
L 200.136726 158.281864 
L 200.748512 150.252362 
L 201.666191 153.930943 
L 201.972084 150.400384 
L 202.277977 152.417692 
L 202.58387 150.537573 
L 202.889763 147.260672 
L 203.195657 150.283761 
L 203.50155 149.702813 
L 203.807443 145.942071 
L 204.113336 145.385922 
L 204.419229 148.345643 
L 204.725122 152.531956 
L 205.031015 154.07475 
L 205.336908 162.534679 
L 205.642801 161.271497 
L 205.948694 156.676052 
L 206.254588 157.108475 
L 206.560481 161.078401 
L 206.866374 157.133122 
L 207.172267 156.633101 
L 207.47816 157.452344 
L 207.784053 150.576436 
L 208.089946 153.617296 
L 208.395839 158.433843 
L 208.701732 159.773409 
L 209.007625 162.674293 
L 209.313519 162.17185 
L 209.619412 158.75115 
L 209.925305 162.138566 
L 210.231198 159.774281 
L 210.537091 160.398944 
L 210.842984 161.996305 
L 211.148877 153.395156 
L 211.45477 151.840079 
L 211.760663 149.094494 
L 212.066557 150.094275 
L 212.678343 157.210438 
L 212.984236 161.751828 
L 213.290129 162.210918 
L 213.901915 150.757295 
L 214.207808 147.829546 
L 215.125488 158.505436 
L 215.431381 159.359141 
L 215.737274 153.870497 
L 216.043167 157.851974 
L 216.34906 160.160757 
L 216.654953 164.588126 
L 216.960846 163.124298 
L 217.266739 165.96 
L 217.878525 150.967935 
L 218.184419 155.003685 
L 218.490312 153.4868 
L 219.102098 157.486485 
L 219.407991 151.951887 
L 219.713884 152.276758 
L 220.019777 154.556717 
L 220.631563 155.731384 
L 220.937456 152.204096 
L 221.24335 151.171265 
L 221.549243 151.107837 
L 221.855136 149.644807 
L 222.161029 151.055555 
L 222.466922 139.059981 
L 222.772815 136.10112 
L 223.078708 139.856015 
L 223.384601 138.54192 
L 223.690494 145.893631 
L 223.996387 148.975538 
L 224.302281 141.793876 
L 224.608174 141.76807 
L 224.914067 137.885683 
L 225.21996 130.740688 
L 225.525853 135.959266 
L 225.831746 136.901481 
L 226.443532 147.462052 
L 226.749425 149.333999 
L 227.055318 143.535063 
L 227.361212 144.4086 
L 227.667105 139.628762 
L 227.972998 142.425418 
L 228.278891 146.936419 
L 228.584784 143.742584 
L 228.890677 146.828718 
L 229.19657 142.063152 
L 229.502463 145.972125 
L 229.808356 144.872981 
L 230.11425 146.976728 
L 230.420143 149.8537 
L 230.726036 148.44139 
L 231.031929 156.430215 
L 231.337822 155.059406 
L 231.643715 149.546593 
L 231.949608 147.645762 
L 232.255501 141.352054 
L 232.561394 138.477318 
L 232.867287 138.18695 
L 233.173181 136.10532 
L 233.479074 142.111298 
L 233.784967 141.534665 
L 234.396753 144.997183 
L 234.702646 138.611396 
L 235.008539 137.702729 
L 235.314432 128.330688 
L 235.620325 126.637192 
L 236.232112 128.755718 
L 236.538005 131.487795 
L 236.843898 132.449697 
L 237.149791 137.551577 
L 237.455684 139.358398 
L 237.761577 144.66344 
L 238.373363 136.46608 
L 238.679256 134.455487 
L 238.985149 137.515174 
L 239.291043 137.301433 
L 239.596936 135.874881 
L 240.208722 125.275987 
L 240.514615 126.259342 
L 240.820508 124.083647 
L 241.126401 130.689748 
L 241.432294 131.062414 
L 241.738187 131.728281 
L 242.349974 126.652415 
L 242.655867 129.674863 
L 242.96176 126.122403 
L 243.267653 128.329316 
L 243.573546 125.348585 
L 243.879439 117.533236 
L 244.185332 121.053394 
L 244.491225 117.407244 
L 244.797118 116.151124 
L 245.103012 120.768345 
L 245.408905 118.055985 
L 245.714798 121.747928 
L 246.020691 121.422235 
L 246.326584 122.463158 
L 246.632477 125.853015 
L 246.93837 125.590036 
L 247.244263 124.9762 
L 247.550156 126.098073 
L 247.856049 119.454185 
L 248.161943 119.222888 
L 248.467836 120.559188 
L 248.773729 114.332291 
L 249.079622 112.793054 
L 249.385515 107.807217 
L 249.691408 110.420957 
L 249.997301 107.953623 
L 250.303194 108.236169 
L 250.609087 109.265813 
L 250.91498 103.347313 
L 251.220874 105.798188 
L 251.526767 107.33039 
L 251.83266 108.103429 
L 252.138553 111.980518 
L 252.444446 108.370393 
L 252.750339 111.860186 
L 253.056232 111.902667 
L 253.362125 109.986336 
L 253.668018 115.391389 
L 253.973911 104.346584 
L 254.279805 103.698746 
L 254.585698 107.957664 
L 254.891591 99.930395 
L 255.197484 107.79582 
L 255.503377 103.48711 
L 255.80927 93.751318 
L 256.115163 95.031753 
L 256.421056 90.722564 
L 256.726949 92.602144 
L 257.032842 98.113733 
L 257.338736 96.317357 
L 257.644629 96.521837 
L 257.950522 97.140416 
L 258.256415 96.590533 
L 258.562308 101.096935 
L 259.174094 97.741685 
L 259.479987 90.063878 
L 259.78588 88.973186 
L 260.091773 89.311048 
L 260.397667 80.819166 
L 260.70356 87.774639 
L 261.315346 93.154146 
L 261.621239 100.910747 
L 261.927132 96.117497 
L 262.233025 88.617622 
L 262.538918 87.501707 
L 262.844811 89.198429 
L 263.150705 95.009219 
L 263.456598 95.277783 
L 263.762491 85.070929 
L 264.068384 84.864636 
L 264.374277 77.558853 
L 264.68017 78.999612 
L 264.986063 86.42593 
L 265.291956 80.698747 
L 265.597849 81.298498 
L 265.903742 80.29716 
L 266.209636 80.173668 
L 266.515529 79.863652 
L 266.821422 75.680207 
L 267.127315 73.298762 
L 267.433208 68.321004 
L 268.65678 78.362941 
L 268.962673 76.048055 
L 269.268567 76.374227 
L 269.57446 77.420116 
L 269.880353 76.899342 
L 270.798032 64.545118 
L 271.103925 67.157455 
L 271.409818 72.817726 
L 271.715711 76.081457 
L 272.021604 83.168135 
L 272.327498 74.98735 
L 273.245177 59.577582 
L 273.55107 63.47625 
L 273.856963 59.967196 
L 274.162856 62.256188 
L 274.468749 61.967683 
L 274.774642 58.757549 
L 275.080535 60.988784 
L 275.386429 62.001795 
L 275.692322 60.905152 
L 275.998215 68.007627 
L 276.304108 70.008213 
L 276.915894 62.182822 
L 277.221787 52.162659 
L 277.52768 51.015158 
L 277.833573 56.411166 
L 278.139467 69.709388 
L 278.44536 75.449964 
L 278.751253 76.66916 
L 279.057146 68.932204 
L 279.363039 56.596236 
L 279.668932 52.607678 
L 279.974825 46.878791 
L 280.280718 45.598866 
L 280.586611 43.388089 
L 280.892504 46.145397 
L 281.198398 46.975216 
L 281.504291 49.458803 
L 282.116077 44.290018 
L 282.42197 45.314994 
L 282.727863 45.488579 
L 283.033756 48.279973 
L 283.339649 47.205756 
L 283.645542 46.595637 
L 283.951435 47.398215 
L 284.257329 46.533242 
L 284.869115 41.575194 
L 285.175008 35.69624 
L 285.786794 47.819165 
L 286.092687 48.540563 
L 286.39858 51.166779 
L 286.704473 46.213457 
L 287.010366 44.084221 
L 287.622153 53.216697 
L 287.928046 56.594741 
L 288.845725 43.197876 
L 289.151618 34.088709 
L 289.457511 37.830159 
L 289.763404 38.565524 
L 290.375191 48.790976 
L 290.986977 42.753189 
L 291.598763 41.214982 
L 291.904656 41.892177 
L 292.210549 40.434397 
L 292.516442 37.866138 
L 292.822335 38.292942 
L 293.128229 32.524074 
L 293.434122 32.70528 
L 293.740015 32.359768 
L 294.045908 26.458935 
L 294.351801 35.326566 
L 294.963587 33.948763 
L 295.26948 36.070423 
L 295.575373 36.781483 
L 295.881266 31.785385 
L 296.18716 31.012026 
L 296.493053 33.225312 
L 296.798946 32.722906 
L 297.410732 40.152801 
L 297.716625 41.671683 
L 298.022518 40.980872 
L 298.328411 45.446645 
L 298.940197 47.107475 
L 299.246091 42.738816 
L 299.551984 41.328858 
L 299.857877 30.945084 
L 300.16377 26.199634 
L 300.775556 21.264307 
L 301.081449 33.089476 
L 301.387342 35.008696 
L 301.693235 43.701717 
L 301.999128 41.690263 
L 302.305022 28.208417 
L 302.610915 28.07861 
L 302.916808 14.76 
L 303.222701 19.327274 
L 303.528594 34.209733 
L 303.834487 31.309023 
L 304.14038 39.175859 
L 304.446273 33.7697 
L 304.752166 25.326254 
L 305.058059 31.396326 
L 305.363953 29.817523 
L 305.669846 27.597668 
L 305.975739 29.997928 
L 306.281632 24.670818 
L 306.893418 32.411029 
L 307.199311 34.32684 
L 307.505204 30.66341 
L 307.811097 24.984807 
L 308.11699 23.960372 
L 308.422884 24.047571 
L 308.728777 29.884092 
L 309.03467 30.805887 
L 309.340563 32.23207 
L 309.646456 26.395041 
L 309.952349 24.523325 
L 310.870028 34.933635 
L 311.175922 33.965025 
L 311.481815 36.077671 
L 312.093601 33.686343 
L 312.399494 38.450761 
L 312.705387 31.627321 
L 313.01128 32.308108 
L 313.317173 31.860302 
L 313.623066 29.306151 
L 313.928959 38.846427 
L 314.234853 37.253478 
L 314.540746 39.69771 
L 314.846639 48.412396 
L 315.152532 45.967982 
L 315.458425 48.80305 
L 315.764318 46.579889 
L 316.070211 35.666119 
L 316.376104 31.600267 
L 316.681997 24.696791 
L 316.98789 27.75584 
L 317.293784 35.968385 
L 317.599677 40.449612 
L 317.90557 47.837399 
L 318.517356 42.92838 
L 318.823249 44.581805 
L 319.129142 41.169284 
L 319.435035 41.585491 
L 319.740928 40.919512 
L 320.046821 39.644612 
L 320.352715 43.689461 
L 320.658608 45.446772 
L 320.964501 45.440552 
L 321.576287 40.725618 
L 321.88218 42.961404 
L 322.188073 35.016261 
L 322.493966 33.777298 
L 322.799859 33.44699 
L 323.105752 29.496423 
L 323.411646 40.147681 
L 323.717539 43.853905 
L 324.023432 43.673284 
L 324.329325 47.544851 
L 324.635218 43.991873 
L 325.247004 51.64193 
L 325.552897 46.496942 
L 325.85879 46.765484 
L 326.470577 36.224235 
L 326.77647 45.185947 
L 327.082363 49.256148 
L 327.388256 44.508562 
L 327.694149 45.580499 
L 328.000042 37.203801 
L 328.305935 34.115174 
L 328.917721 48.756152 
L 329.223615 51.614474 
L 329.835401 41.898892 
L 330.141294 43.194579 
L 330.447187 46.879514 
L 331.058973 58.314382 
L 331.364866 48.313254 
L 331.670759 46.039637 
L 331.976652 50.174827 
L 332.282546 50.375149 
L 332.588439 58.123979 
L 332.894332 62.545926 
L 333.200225 56.841115 
L 333.506118 48.515566 
L 334.117904 42.175848 
L 334.72969 57.561823 
L 335.341477 63.316615 
L 335.64737 63.304169 
L 336.259156 56.335303 
L 336.565049 56.243185 
L 336.870942 57.022876 
L 337.176835 63.297411 
L 337.482728 64.20933 
L 337.788621 68.881793 
L 338.094514 64.374619 
L 338.400408 63.495615 
L 338.706301 64.812766 
L 339.012194 58.832301 
L 339.318087 60.578075 
L 339.62398 59.373157 
L 339.929873 61.297434 
L 340.235766 59.741269 
L 340.541659 60.682818 
L 341.153445 66.171802 
L 341.459339 73.066497 
L 341.765232 75.588354 
L 342.377018 67.69616 
L 342.682911 66.312503 
L 342.988804 67.874843 
L 343.294697 70.182305 
L 343.60059 73.926111 
L 343.906483 73.69119 
L 344.212377 71.146976 
L 344.51827 71.128197 
L 345.130056 64.698541 
L 345.435949 64.315648 
L 345.741842 65.900642 
L 346.047735 69.106428 
L 346.353628 76.013839 
L 346.965414 80.152124 
L 347.271308 82.213546 
L 347.577201 81.12699 
L 347.883094 82.277665 
L 348.188987 84.195728 
L 348.49488 88.317543 
L 348.800773 86.968379 
L 349.106666 91.780996 
L 349.412559 88.586294 
L 349.718452 95.042751 
L 350.024345 97.262158 
L 350.330239 89.567099 
L 350.636132 89.663935 
L 350.942025 78.570196 
L 351.247918 79.57836 
L 351.553811 86.510405 
L 352.165597 83.180559 
L 352.47149 86.678079 
L 352.777383 76.299067 
L 353.083276 77.40181 
L 353.38917 85.59892 
L 353.695063 83.036541 
L 354.000956 97.963276 
L 354.306849 97.921151 
L 354.612742 95.174569 
L 354.918635 97.003654 
L 355.224528 90.900691 
L 355.530421 97.891556 
L 355.836314 97.528105 
L 356.142207 91.234818 
L 356.448101 98.266 
L 356.753994 98.104335 
L 357.059887 97.459827 
L 357.36578 100.80352 
L 357.671673 94.305938 
L 357.977566 96.228441 
L 358.283459 105.48851 
L 358.589352 104.788097 
L 358.895245 106.937826 
L 359.507032 102.179785 
L 359.812925 107.154034 
L 360.118818 110.123738 
L 360.424711 109.912668 
L 361.036497 110.957216 
L 361.34239 110.852465 
L 361.648283 109.967931 
L 361.954176 110.254377 
L 362.26007 108.98552 
L 362.871856 108.8041 
L 363.177749 107.597289 
L 363.483642 108.736191 
L 363.789535 116.366993 
L 364.095428 118.790742 
L 364.401321 118.843891 
L 364.707214 114.391449 
L 365.013107 106.508009 
L 365.319001 110.166187 
L 365.624894 108.543761 
L 365.930787 117.910822 
L 366.23668 117.720883 
L 366.542573 117.84202 
L 366.848466 118.095701 
L 367.154359 115.99182 
L 367.460252 121.552068 
L 367.766145 121.905252 
L 368.072038 116.540461 
L 368.377932 114.911947 
L 368.683825 114.855806 
L 368.989718 114.01361 
L 369.295611 118.39729 
L 369.601504 119.917301 
L 370.21329 124.637802 
L 370.825076 126.896422 
L 371.436863 123.205469 
L 371.742756 126.69809 
L 371.742756 126.69809 
" clip-path="url(#pf6b70f183d)" style="fill: none; stroke: #1f77b4; stroke-width: 1.5; stroke-linecap: square"/>
   </g>
   <g id="line2d_24">
    <path d="M 250.91498 103.347313 
L 251.220874 104.186197 
L 251.526767 104.441019 
L 251.83266 103.325529 
L 252.138553 103.759854 
L 252.444446 103.84587 
L 253.362125 103.672688 
L 261.315346 102.953661 
L 275.080535 101.914422 
L 290.375191 100.985569 
L 307.811097 100.156739 
L 327.694149 99.441828 
L 350.942025 98.836242 
L 371.742756 98.447308 
L 371.742756 98.447308 
" clip-path="url(#pf6b70f183d)" style="fill: none; stroke-dasharray: 5.55,2.4; stroke-dashoffset: 0; stroke: #bf00bf; stroke-width: 1.5"/>
   </g>
   <g id="patch_3">
    <path d="M 52.160938 173.52 
L 52.160938 7.2 
" style="fill: none; stroke: #000000; stroke-width: 0.8; stroke-linejoin: miter; stroke-linecap: square"/>
   </g>
   <g id="patch_4">
    <path d="M 386.960938 173.52 
L 386.960938 7.2 
" style="fill: none; stroke: #000000; stroke-width: 0.8; stroke-linejoin: miter; stroke-linecap: square"/>
   </g>
   <g id="patch_5">
    <path d="M 52.160938 173.52 
L 386.960938 173.52 
" style="fill: none; stroke: #000000; stroke-width: 0.8; stroke-linejoin: miter; stroke-linecap: square"/>
   </g>
   <g id="patch_6">
    <path d="M 52.160938 7.2 
L 386.960938 7.2 
" style="fill: none; stroke: #000000; stroke-width: 0.8; stroke-linejoin: miter; stroke-linecap: square"/>
   </g>
   <g id="legend_1">
    <g id="patch_7">
     <path d="M 59.160938 168.52 
L 169.470313 168.52 
Q 171.470313 168.52 171.470313 166.52 
L 171.470313 138.16375 
Q 171.470313 136.16375 169.470313 136.16375 
L 59.160938 136.16375 
Q 57.160938 136.16375 57.160938 138.16375 
L 57.160938 166.52 
Q 57.160938 168.52 59.160938 168.52 
z
" style="fill: #ffffff; opacity: 0.8; stroke: #cccccc; stroke-linejoin: miter"/>
    </g>
    <g id="line2d_25">
     <path d="M 61.160938 144.262188 
L 71.160938 144.262188 
L 81.160938 144.262188 
" style="fill: none; stroke: #1f77b4; stroke-width: 1.5; stroke-linecap: square"/>
    </g>
    <g id="text_14">
     <!-- 1-step preds -->
     <g transform="translate(89.160938 147.762188) scale(0.1 -0.1)">
      <defs>
       <path id="DejaVuSans-2d" d="M 313 2009 
L 1997 2009 
L 1997 1497 
L 313 1497 
L 313 2009 
z
" transform="scale(0.015625)"/>
       <path id="DejaVuSans-73" d="M 2834 3397 
L 2834 2853 
Q 2591 2978 2328 3040 
Q 2066 3103 1784 3103 
Q 1356 3103 1142 2972 
Q 928 2841 928 2578 
Q 928 2378 1081 2264 
Q 1234 2150 1697 2047 
L 1894 2003 
Q 2506 1872 2764 1633 
Q 3022 1394 3022 966 
Q 3022 478 2636 193 
Q 2250 -91 1575 -91 
Q 1294 -91 989 -36 
Q 684 19 347 128 
L 347 722 
Q 666 556 975 473 
Q 1284 391 1588 391 
Q 1994 391 2212 530 
Q 2431 669 2431 922 
Q 2431 1156 2273 1281 
Q 2116 1406 1581 1522 
L 1381 1569 
Q 847 1681 609 1914 
Q 372 2147 372 2553 
Q 372 3047 722 3315 
Q 1072 3584 1716 3584 
Q 2034 3584 2315 3537 
Q 2597 3491 2834 3397 
z
" transform="scale(0.015625)"/>
       <path id="DejaVuSans-70" d="M 1159 525 
L 1159 -1331 
L 581 -1331 
L 581 3500 
L 1159 3500 
L 1159 2969 
Q 1341 3281 1617 3432 
Q 1894 3584 2278 3584 
Q 2916 3584 3314 3078 
Q 3713 2572 3713 1747 
Q 3713 922 3314 415 
Q 2916 -91 2278 -91 
Q 1894 -91 1617 61 
Q 1341 213 1159 525 
z
M 3116 1747 
Q 3116 2381 2855 2742 
Q 2594 3103 2138 3103 
Q 1681 3103 1420 2742 
Q 1159 2381 1159 1747 
Q 1159 1113 1420 752 
Q 1681 391 2138 391 
Q 2594 391 2855 752 
Q 3116 1113 3116 1747 
z
" transform="scale(0.015625)"/>
       <path id="DejaVuSans-20" transform="scale(0.015625)"/>
       <path id="DejaVuSans-72" d="M 2631 2963 
Q 2534 3019 2420 3045 
Q 2306 3072 2169 3072 
Q 1681 3072 1420 2755 
Q 1159 2438 1159 1844 
L 1159 0 
L 581 0 
L 581 3500 
L 1159 3500 
L 1159 2956 
Q 1341 3275 1631 3429 
Q 1922 3584 2338 3584 
Q 2397 3584 2469 3576 
Q 2541 3569 2628 3553 
L 2631 2963 
z
" transform="scale(0.015625)"/>
       <path id="DejaVuSans-64" d="M 2906 2969 
L 2906 4863 
L 3481 4863 
L 3481 0 
L 2906 0 
L 2906 525 
Q 2725 213 2448 61 
Q 2172 -91 1784 -91 
Q 1150 -91 751 415 
Q 353 922 353 1747 
Q 353 2572 751 3078 
Q 1150 3584 1784 3584 
Q 2172 3584 2448 3432 
Q 2725 3281 2906 2969 
z
M 947 1747 
Q 947 1113 1208 752 
Q 1469 391 1925 391 
Q 2381 391 2643 752 
Q 2906 1113 2906 1747 
Q 2906 2381 2643 2742 
Q 2381 3103 1925 3103 
Q 1469 3103 1208 2742 
Q 947 2381 947 1747 
z
" transform="scale(0.015625)"/>
      </defs>
      <use xlink:href="#DejaVuSans-31"/>
      <use xlink:href="#DejaVuSans-2d" x="63.623047"/>
      <use xlink:href="#DejaVuSans-73" x="99.707031"/>
      <use xlink:href="#DejaVuSans-74" x="151.806641"/>
      <use xlink:href="#DejaVuSans-65" x="191.015625"/>
      <use xlink:href="#DejaVuSans-70" x="252.539062"/>
      <use xlink:href="#DejaVuSans-20" x="316.015625"/>
      <use xlink:href="#DejaVuSans-70" x="347.802734"/>
      <use xlink:href="#DejaVuSans-72" x="411.279297"/>
      <use xlink:href="#DejaVuSans-65" x="450.142578"/>
      <use xlink:href="#DejaVuSans-64" x="511.666016"/>
      <use xlink:href="#DejaVuSans-73" x="575.142578"/>
     </g>
    </g>
    <g id="line2d_26">
     <path d="M 61.160938 158.940313 
L 71.160938 158.940313 
L 81.160938 158.940313 
" style="fill: none; stroke-dasharray: 5.55,2.4; stroke-dashoffset: 0; stroke: #bf00bf; stroke-width: 1.5"/>
    </g>
    <g id="text_15">
     <!-- multistep preds -->
     <g transform="translate(89.160938 162.440313) scale(0.1 -0.1)">
      <defs>
       <path id="DejaVuSans-75" d="M 544 1381 
L 544 3500 
L 1119 3500 
L 1119 1403 
Q 1119 906 1312 657 
Q 1506 409 1894 409 
Q 2359 409 2629 706 
Q 2900 1003 2900 1516 
L 2900 3500 
L 3475 3500 
L 3475 0 
L 2900 0 
L 2900 538 
Q 2691 219 2414 64 
Q 2138 -91 1772 -91 
Q 1169 -91 856 284 
Q 544 659 544 1381 
z
M 1991 3584 
L 1991 3584 
z
" transform="scale(0.015625)"/>
       <path id="DejaVuSans-6c" d="M 603 4863 
L 1178 4863 
L 1178 0 
L 603 0 
L 603 4863 
z
" transform="scale(0.015625)"/>
      </defs>
      <use xlink:href="#DejaVuSans-6d"/>
      <use xlink:href="#DejaVuSans-75" x="97.412109"/>
      <use xlink:href="#DejaVuSans-6c" x="160.791016"/>
      <use xlink:href="#DejaVuSans-74" x="188.574219"/>
      <use xlink:href="#DejaVuSans-69" x="227.783203"/>
      <use xlink:href="#DejaVuSans-73" x="255.566406"/>
      <use xlink:href="#DejaVuSans-74" x="307.666016"/>
      <use xlink:href="#DejaVuSans-65" x="346.875"/>
      <use xlink:href="#DejaVuSans-70" x="408.398438"/>
      <use xlink:href="#DejaVuSans-20" x="471.875"/>
      <use xlink:href="#DejaVuSans-70" x="503.662109"/>
      <use xlink:href="#DejaVuSans-72" x="567.138672"/>
      <use xlink:href="#DejaVuSans-65" x="606.001953"/>
      <use xlink:href="#DejaVuSans-64" x="667.525391"/>
      <use xlink:href="#DejaVuSans-73" x="731.001953"/>
     </g>
    </g>
   </g>
  </g>
 </g>
 <defs>
  <clipPath id="pf6b70f183d">
   <rect x="52.160938" y="7.2" width="334.8" height="166.32"/>
  </clipPath>
 </defs>
</svg>
