<?xml version="1.0" encoding="utf-8" standalone="no"?>
<!DOCTYPE svg PUBLIC "-//W3C//DTD SVG 1.1//EN"
  "http://www.w3.org/Graphics/SVG/1.1/DTD/svg11.dtd">
<svg xmlns:xlink="http://www.w3.org/1999/xlink" width="245.120313pt" height="183.35625pt" viewBox="0 0 245.120313 183.35625" xmlns="http://www.w3.org/2000/svg" version="1.1">
 <metadata>
  <rdf:RDF xmlns:dc="http://purl.org/dc/elements/1.1/" xmlns:cc="http://creativecommons.org/ns#" xmlns:rdf="http://www.w3.org/1999/02/22-rdf-syntax-ns#">
   <cc:Work>
    <dc:type rdf:resource="http://purl.org/dc/dcmitype/StillImage"/>
    <dc:date>2025-08-11T15:42:21.704421</dc:date>
    <dc:format>image/svg+xml</dc:format>
    <dc:creator>
     <cc:Agent>
      <dc:title>Matplotlib v3.7.2, https://matplotlib.org/</dc:title>
     </cc:Agent>
    </dc:creator>
   </cc:Work>
  </rdf:RDF>
 </metadata>
 <defs>
  <style type="text/css">*{stroke-linejoin: round; stroke-linecap: butt}</style>
 </defs>
 <g id="figure_1">
  <g id="patch_1">
   <path d="M 0 183.35625 
L 245.120313 183.35625 
L 245.120313 0 
L 0 0 
z
" style="fill: #ffffff"/>
  </g>
  <g id="axes_1">
   <g id="patch_2">
    <path d="M 42.620312 145.8 
L 237.920313 145.8 
L 237.920313 7.2 
L 42.620312 7.2 
z
" style="fill: #ffffff"/>
   </g>
   <g id="matplotlib.axis_1">
    <g id="xtick_1">
     <g id="line2d_1">
      <defs>
       <path id="md863475187" d="M 0 0 
L 0 3.5 
" style="stroke: #000000; stroke-width: 0.8"/>
      </defs>
      <g>
       <use xlink:href="#md863475187" x="88.393794" y="145.8" style="stroke: #000000; stroke-width: 0.8"/>
      </g>
     </g>
     <g id="text_1">
      <!-- −4 -->
      <g transform="translate(81.0227 160.398438) scale(0.1 -0.1)">
       <defs>
        <path id="DejaVuSans-2212" d="M 678 2272 
L 4684 2272 
L 4684 1741 
L 678 1741 
L 678 2272 
z
" transform="scale(0.015625)"/>
        <path id="DejaVuSans-34" d="M 2419 4116 
L 825 1625 
L 2419 1625 
L 2419 4116 
z
M 2253 4666 
L 3047 4666 
L 3047 1625 
L 3713 1625 
L 3713 1100 
L 3047 1100 
L 3047 0 
L 2419 0 
L 2419 1100 
L 313 1100 
L 313 1709 
L 2253 4666 
z
" transform="scale(0.015625)"/>
       </defs>
       <use xlink:href="#DejaVuSans-2212"/>
       <use xlink:href="#DejaVuSans-34" x="83.789062"/>
      </g>
     </g>
    </g>
    <g id="xtick_2">
     <g id="line2d_2">
      <g>
       <use xlink:href="#md863475187" x="149.425102" y="145.8" style="stroke: #000000; stroke-width: 0.8"/>
      </g>
     </g>
     <g id="text_2">
      <!-- −2 -->
      <g transform="translate(142.054008 160.398438) scale(0.1 -0.1)">
       <defs>
        <path id="DejaVuSans-32" d="M 1228 531 
L 3431 531 
L 3431 0 
L 469 0 
L 469 531 
Q 828 903 1448 1529 
Q 2069 2156 2228 2338 
Q 2531 2678 2651 2914 
Q 2772 3150 2772 3378 
Q 2772 3750 2511 3984 
Q 2250 4219 1831 4219 
Q 1534 4219 1204 4116 
Q 875 4013 500 3803 
L 500 4441 
Q 881 4594 1212 4672 
Q 1544 4750 1819 4750 
Q 2544 4750 2975 4387 
Q 3406 4025 3406 3419 
Q 3406 3131 3298 2873 
Q 3191 2616 2906 2266 
Q 2828 2175 2409 1742 
Q 1991 1309 1228 531 
z
" transform="scale(0.015625)"/>
       </defs>
       <use xlink:href="#DejaVuSans-2212"/>
       <use xlink:href="#DejaVuSans-32" x="83.789062"/>
      </g>
     </g>
    </g>
    <g id="xtick_3">
     <g id="line2d_3">
      <g>
       <use xlink:href="#md863475187" x="210.45641" y="145.8" style="stroke: #000000; stroke-width: 0.8"/>
      </g>
     </g>
     <g id="text_3">
      <!-- 0 -->
      <g transform="translate(207.27516 160.398438) scale(0.1 -0.1)">
       <defs>
        <path id="DejaVuSans-30" d="M 2034 4250 
Q 1547 4250 1301 3770 
Q 1056 3291 1056 2328 
Q 1056 1369 1301 889 
Q 1547 409 2034 409 
Q 2525 409 2770 889 
Q 3016 1369 3016 2328 
Q 3016 3291 2770 3770 
Q 2525 4250 2034 4250 
z
M 2034 4750 
Q 2819 4750 3233 4129 
Q 3647 3509 3647 2328 
Q 3647 1150 3233 529 
Q 2819 -91 2034 -91 
Q 1250 -91 836 529 
Q 422 1150 422 2328 
Q 422 3509 836 4129 
Q 1250 4750 2034 4750 
z
" transform="scale(0.015625)"/>
       </defs>
       <use xlink:href="#DejaVuSans-30"/>
      </g>
     </g>
    </g>
    <g id="text_4">
     <!-- x1 -->
     <g transform="translate(134.129687 174.076563) scale(0.1 -0.1)">
      <defs>
       <path id="DejaVuSans-78" d="M 3513 3500 
L 2247 1797 
L 3578 0 
L 2900 0 
L 1881 1375 
L 863 0 
L 184 0 
L 1544 1831 
L 300 3500 
L 978 3500 
L 1906 2253 
L 2834 3500 
L 3513 3500 
z
" transform="scale(0.015625)"/>
       <path id="DejaVuSans-31" d="M 794 531 
L 1825 531 
L 1825 4091 
L 703 3866 
L 703 4441 
L 1819 4666 
L 2450 4666 
L 2450 531 
L 3481 531 
L 3481 0 
L 794 0 
L 794 531 
z
" transform="scale(0.015625)"/>
      </defs>
      <use xlink:href="#DejaVuSans-78"/>
      <use xlink:href="#DejaVuSans-31" x="59.179688"/>
     </g>
    </g>
   </g>
   <g id="matplotlib.axis_2">
    <g id="ytick_1">
     <g id="line2d_4">
      <defs>
       <path id="mc91255ac96" d="M 0 0 
L -3.5 0 
" style="stroke: #000000; stroke-width: 0.8"/>
      </defs>
      <g>
       <use xlink:href="#mc91255ac96" x="42.620312" y="145.8" style="stroke: #000000; stroke-width: 0.8"/>
      </g>
     </g>
     <g id="text_5">
      <!-- −3 -->
      <g transform="translate(20.878125 149.599219) scale(0.1 -0.1)">
       <defs>
        <path id="DejaVuSans-33" d="M 2597 2516 
Q 3050 2419 3304 2112 
Q 3559 1806 3559 1356 
Q 3559 666 3084 287 
Q 2609 -91 1734 -91 
Q 1441 -91 1130 -33 
Q 819 25 488 141 
L 488 750 
Q 750 597 1062 519 
Q 1375 441 1716 441 
Q 2309 441 2620 675 
Q 2931 909 2931 1356 
Q 2931 1769 2642 2001 
Q 2353 2234 1838 2234 
L 1294 2234 
L 1294 2753 
L 1863 2753 
Q 2328 2753 2575 2939 
Q 2822 3125 2822 3475 
Q 2822 3834 2567 4026 
Q 2313 4219 1838 4219 
Q 1578 4219 1281 4162 
Q 984 4106 628 3988 
L 628 4550 
Q 988 4650 1302 4700 
Q 1616 4750 1894 4750 
Q 2613 4750 3031 4423 
Q 3450 4097 3450 3541 
Q 3450 3153 3228 2886 
Q 3006 2619 2597 2516 
z
" transform="scale(0.015625)"/>
       </defs>
       <use xlink:href="#DejaVuSans-2212"/>
       <use xlink:href="#DejaVuSans-33" x="83.789062"/>
      </g>
     </g>
    </g>
    <g id="ytick_2">
     <g id="line2d_5">
      <g>
       <use xlink:href="#mc91255ac96" x="42.620312" y="110.261505" style="stroke: #000000; stroke-width: 0.8"/>
      </g>
     </g>
     <g id="text_6">
      <!-- −2 -->
      <g transform="translate(20.878125 114.060723) scale(0.1 -0.1)">
       <use xlink:href="#DejaVuSans-2212"/>
       <use xlink:href="#DejaVuSans-32" x="83.789062"/>
      </g>
     </g>
    </g>
    <g id="ytick_3">
     <g id="line2d_6">
      <g>
       <use xlink:href="#mc91255ac96" x="42.620312" y="74.723009" style="stroke: #000000; stroke-width: 0.8"/>
      </g>
     </g>
     <g id="text_7">
      <!-- −1 -->
      <g transform="translate(20.878125 78.522228) scale(0.1 -0.1)">
       <use xlink:href="#DejaVuSans-2212"/>
       <use xlink:href="#DejaVuSans-31" x="83.789062"/>
      </g>
     </g>
    </g>
    <g id="ytick_4">
     <g id="line2d_7">
      <g>
       <use xlink:href="#mc91255ac96" x="42.620312" y="39.184514" style="stroke: #000000; stroke-width: 0.8"/>
      </g>
     </g>
     <g id="text_8">
      <!-- 0 -->
      <g transform="translate(29.257812 42.983732) scale(0.1 -0.1)">
       <use xlink:href="#DejaVuSans-30"/>
      </g>
     </g>
    </g>
    <g id="text_9">
     <!-- x2 -->
     <g transform="translate(14.798437 82.640625) rotate(-90) scale(0.1 -0.1)">
      <use xlink:href="#DejaVuSans-78"/>
      <use xlink:href="#DejaVuSans-32" x="59.179688"/>
     </g>
    </g>
   </g>
   <g id="line2d_8">
    <path d="M 57.87814 110.261505 
L 88.393794 81.830708 
L 112.806317 64.77223 
L 132.336336 54.537144 
L 147.96035 48.396092 
L 160.459562 44.711461 
L 170.458932 42.500682 
L 178.458428 41.174215 
L 184.858024 40.378334 
L 189.977701 39.900806 
L 194.073443 39.614289 
L 197.350036 39.442379 
L 199.971311 39.339233 
L 202.068331 39.277345 
L 203.745947 39.240213 
L 205.088039 39.217933 
L 206.161714 39.204565 
L 207.020653 39.196545 
L 207.707804 39.191732 
L 208.257525 39.188845 
L 208.697302 39.187112 
" clip-path="url(#p546be3a025)" style="fill: none; stroke: #ff7f0e; stroke-width: 1.5; stroke-linecap: square"/>
    <defs>
     <path id="maa24742fbb" d="M 0 3 
C 0.795609 3 1.55874 2.683901 2.12132 2.12132 
C 2.683901 1.55874 3 0.795609 3 0 
C 3 -0.795609 2.683901 -1.55874 2.12132 -2.12132 
C 1.55874 -2.683901 0.795609 -3 0 -3 
C -0.795609 -3 -1.55874 -2.683901 -2.12132 -2.12132 
C -2.683901 -1.55874 -3 -0.795609 -3 0 
C -3 0.795609 -2.683901 1.55874 -2.12132 2.12132 
C -1.55874 2.683901 -0.795609 3 0 3 
z
" style="stroke: #ff7f0e"/>
    </defs>
    <g clip-path="url(#p546be3a025)">
     <use xlink:href="#maa24742fbb" x="57.87814" y="110.261505" style="fill: #ff7f0e; stroke: #ff7f0e"/>
     <use xlink:href="#maa24742fbb" x="88.393794" y="81.830708" style="fill: #ff7f0e; stroke: #ff7f0e"/>
     <use xlink:href="#maa24742fbb" x="112.806317" y="64.77223" style="fill: #ff7f0e; stroke: #ff7f0e"/>
     <use xlink:href="#maa24742fbb" x="132.336336" y="54.537144" style="fill: #ff7f0e; stroke: #ff7f0e"/>
     <use xlink:href="#maa24742fbb" x="147.96035" y="48.396092" style="fill: #ff7f0e; stroke: #ff7f0e"/>
     <use xlink:href="#maa24742fbb" x="160.459562" y="44.711461" style="fill: #ff7f0e; stroke: #ff7f0e"/>
     <use xlink:href="#maa24742fbb" x="170.458932" y="42.500682" style="fill: #ff7f0e; stroke: #ff7f0e"/>
     <use xlink:href="#maa24742fbb" x="178.458428" y="41.174215" style="fill: #ff7f0e; stroke: #ff7f0e"/>
     <use xlink:href="#maa24742fbb" x="184.858024" y="40.378334" style="fill: #ff7f0e; stroke: #ff7f0e"/>
     <use xlink:href="#maa24742fbb" x="189.977701" y="39.900806" style="fill: #ff7f0e; stroke: #ff7f0e"/>
     <use xlink:href="#maa24742fbb" x="194.073443" y="39.614289" style="fill: #ff7f0e; stroke: #ff7f0e"/>
     <use xlink:href="#maa24742fbb" x="197.350036" y="39.442379" style="fill: #ff7f0e; stroke: #ff7f0e"/>
     <use xlink:href="#maa24742fbb" x="199.971311" y="39.339233" style="fill: #ff7f0e; stroke: #ff7f0e"/>
     <use xlink:href="#maa24742fbb" x="202.068331" y="39.277345" style="fill: #ff7f0e; stroke: #ff7f0e"/>
     <use xlink:href="#maa24742fbb" x="203.745947" y="39.240213" style="fill: #ff7f0e; stroke: #ff7f0e"/>
     <use xlink:href="#maa24742fbb" x="205.088039" y="39.217933" style="fill: #ff7f0e; stroke: #ff7f0e"/>
     <use xlink:href="#maa24742fbb" x="206.161714" y="39.204565" style="fill: #ff7f0e; stroke: #ff7f0e"/>
     <use xlink:href="#maa24742fbb" x="207.020653" y="39.196545" style="fill: #ff7f0e; stroke: #ff7f0e"/>
     <use xlink:href="#maa24742fbb" x="207.707804" y="39.191732" style="fill: #ff7f0e; stroke: #ff7f0e"/>
     <use xlink:href="#maa24742fbb" x="208.257525" y="39.188845" style="fill: #ff7f0e; stroke: #ff7f0e"/>
     <use xlink:href="#maa24742fbb" x="208.697302" y="39.187112" style="fill: #ff7f0e; stroke: #ff7f0e"/>
    </g>
   </g>
   <g id="PathCollection_1"/>
   <g id="PathCollection_2">
    <path d="M 133.389344 7.2 
L 131.35498 10.753846 
L 131.115625 11.227728 
L 129.618657 14.307692 
L 128.121673 17.861538 
L 128.064062 18.023174 
L 126.898963 21.415385 
L 125.900279 24.969231 
L 125.123527 28.523077 
L 125.0125 29.234243 
L 124.584275 32.076923 
L 124.263065 35.630769 
L 124.155998 39.184615 
L 124.263076 42.738462 
L 124.5843 46.292308 
L 125.0125 49.134764 
L 125.123564 49.846154 
L 125.900327 53.4 
L 126.899026 56.953846 
L 128.064062 60.345842 
L 128.12175 60.507692 
L 129.618751 64.061538 
L 131.115625 67.141291 
L 131.355088 67.615385 
L 133.389467 71.169231 
L 134.167187 72.384819 
L 135.724243 74.723077 
L 137.21875 76.75366 
L 138.387577 78.276923 
L 140.270312 80.517221 
L 141.423275 81.830769 
L 143.321875 83.820765 
L 144.883296 85.384615 
L 146.373437 86.766523 
L 148.829737 88.938462 
L 149.425 89.428512 
L 152.476562 91.81817 
L 153.383961 92.492308 
L 155.528125 93.982508 
L 158.579687 95.988712 
L 158.672355 96.046154 
L 161.63125 97.769122 
L 164.682812 99.438355 
L 164.998699 99.6 
L 167.734375 100.919903 
L 170.785937 102.290676 
L 172.861222 103.153846 
L 173.8375 103.537958 
L 176.889062 104.642536 
L 179.940625 105.651064 
L 182.992187 106.563541 
L 183.530983 106.707692 
L 186.04375 107.345493 
L 189.095312 108.028928 
L 192.146875 108.621241 
L 195.198437 109.122428 
L 198.25 109.532492 
L 201.301562 109.85143 
L 204.353125 110.079246 
L 207.404687 110.215936 
L 210.45625 110.261504 
L 213.507812 110.215945 
L 216.559375 110.079264 
L 219.610937 109.851461 
L 222.6625 109.532531 
L 225.714062 109.122475 
L 228.765625 108.621297 
L 231.817187 108.028994 
L 234.86875 107.345569 
L 237.381852 106.707692 
L 237.920312 106.563632 
" clip-path="url(#p546be3a025)" style="fill: none; stroke: #1f77b4; stroke-width: 1.5"/>
   </g>
   <g id="PathCollection_3">
    <path d="M 94.740998 7.2 
L 94.496875 7.827147 
L 93.387219 10.753846 
L 92.198306 14.307692 
L 91.445312 16.904774 
L 91.174932 17.861538 
L 90.325133 21.415385 
L 89.629844 24.969231 
L 89.089068 28.523077 
L 88.702799 32.076923 
L 88.471036 35.630769 
L 88.393787 39.184615 
L 88.471044 42.738462 
L 88.702814 46.292308 
L 89.089091 49.846154 
L 89.629879 53.4 
L 90.325177 56.953846 
L 91.174984 60.507692 
L 91.445312 61.464267 
L 92.198367 64.061538 
L 93.387292 67.615385 
L 94.496875 70.54187 
L 94.741083 71.169231 
L 96.287208 74.723077 
L 97.548437 77.345987 
L 98.008345 78.276923 
L 99.931249 81.830769 
L 100.6 82.967854 
L 102.061404 85.384615 
L 103.651562 87.819517 
L 104.403491 88.938462 
L 106.703125 92.124531 
L 106.976501 92.492308 
L 109.754687 95.988712 
L 109.801734 96.046154 
L 112.80625 99.492192 
L 112.903229 99.6 
L 115.857812 102.696807 
L 116.308158 103.153846 
L 118.909375 105.651037 
L 120.04736 106.707692 
L 121.960937 108.393389 
L 124.15604 110.261538 
L 125.0125 110.954876 
L 128.064062 113.338555 
L 128.69753 113.815385 
L 131.115625 115.550894 
L 133.748473 117.369231 
L 134.167187 117.645557 
L 137.21875 119.580429 
L 139.426395 120.923077 
L 140.270312 121.414492 
L 143.321875 123.115799 
L 145.876809 124.476923 
L 146.373437 124.730699 
L 149.425 126.217514 
L 152.476562 127.631803 
L 153.383928 128.030769 
L 155.528125 128.936592 
L 158.579687 130.15605 
L 161.63125 131.305823 
L 162.418915 131.584615 
L 164.682812 132.355682 
L 167.734375 133.327963 
L 170.785937 134.23319 
L 173.8375 135.071368 
L 174.103012 135.138462 
L 176.889062 135.816884 
L 179.940625 136.49535 
L 182.992188 137.109199 
L 186.04375 137.658431 
L 189.095312 138.143051 
L 192.146875 138.563049 
L 193.256755 138.692308 
L 195.198437 138.910505 
L 198.25 139.191075 
L 201.301562 139.409296 
L 204.353125 139.565169 
L 207.404687 139.658695 
L 210.45625 139.689872 
L 213.507812 139.658701 
L 216.559375 139.565183 
L 219.610937 139.409317 
L 222.6625 139.191101 
L 225.714062 138.910537 
L 227.656086 138.692308 
L 228.765625 138.563092 
L 231.817187 138.143095 
L 234.86875 137.658486 
L 237.920312 137.10926 
" clip-path="url(#p546be3a025)" style="fill: none; stroke: #1f77b4; stroke-width: 1.5"/>
   </g>
   <g id="PathCollection_4">
    <path d="M 66.101265 7.2 
L 65.009123 10.753846 
L 64.045477 14.307692 
L 63.98125 14.580995 
L 63.226214 17.861538 
L 62.53411 21.415385 
L 61.967846 24.969231 
L 61.527423 28.523077 
L 61.212834 32.076923 
L 61.02408 35.630769 
L 60.961166 39.184615 
L 61.024086 42.738462 
L 61.212846 46.292308 
L 61.527441 49.846154 
L 61.967876 53.4 
L 62.534146 56.953846 
L 63.226256 60.507692 
L 63.98125 63.788029 
L 64.045526 64.061538 
L 65.009184 67.615385 
L 66.101326 71.169231 
L 67.032812 73.881235 
L 67.328175 74.723077 
L 68.7063 78.276923 
L 70.084375 81.521615 
L 70.218564 81.830769 
L 71.895247 85.384615 
L 73.135937 87.819555 
L 73.718873 88.938462 
L 75.707533 92.492308 
L 76.1875 93.294697 
L 77.871181 96.046154 
L 79.239062 98.146059 
L 80.208447 99.6 
L 82.290625 102.544523 
L 82.731882 103.153846 
L 85.342187 106.563523 
L 85.455283 106.707692 
L 88.39375 110.26146 
L 88.393816 110.261538 
L 91.445312 113.685288 
L 91.564276 113.815385 
L 94.496875 116.873262 
L 94.985205 117.369231 
L 97.548437 119.856848 
L 98.67718 120.923077 
L 100.6 122.66212 
L 102.663111 124.476923 
L 103.651562 125.310919 
L 106.703125 127.813119 
L 106.976484 128.030769 
L 109.754687 130.156043 
L 111.679604 131.584615 
L 112.80625 132.389203 
L 115.857812 134.501392 
L 116.808387 135.138462 
L 118.909375 136.495331 
L 121.960937 138.401488 
L 122.442846 138.692308 
L 125.0125 140.188616 
L 128.064062 141.903189 
L 128.697498 142.246154 
L 131.115625 143.511034 
L 134.167187 145.047021 
L 135.724197 145.8 
" clip-path="url(#p546be3a025)" style="fill: none; stroke: #1f77b4; stroke-width: 1.5"/>
   </g>
   <g id="PathCollection_5">
    <path d="M 42.620312 72.384967 
L 43.320233 74.723077 
L 44.496063 78.276923 
L 45.671875 81.521674 
L 45.785977 81.830769 
L 47.211943 85.384615 
L 48.723437 88.872585 
L 48.752528 88.938462 
L 50.43816 92.492308 
L 51.775 95.128966 
L 52.249063 96.046154 
L 54.204435 99.6 
L 54.826562 100.66609 
L 56.30706 103.153846 
L 57.878125 105.651085 
L 58.556291 106.707692 
L 60.929687 110.215914 
L 60.96119 110.261538 
L 63.540857 113.815385 
L 63.98125 114.393867 
L 66.294061 117.369231 
L 67.032812 118.277376 
L 69.231293 120.923077 
L 70.084375 121.906007 
L 72.364703 124.476923 
L 73.135937 125.310946 
L 75.70752 128.030769 
L 76.1875 128.51851 
L 79.239062 131.549726 
L 79.275012 131.584615 
L 82.290625 134.400827 
L 83.099521 135.138462 
L 85.342187 137.109186 
L 87.188241 138.692308 
L 88.39375 139.689842 
L 91.445312 142.152588 
L 91.56426 142.246154 
L 94.496875 144.474796 
L 96.287177 145.8 
" clip-path="url(#p546be3a025)" style="fill: none; stroke: #1f77b4; stroke-width: 1.5"/>
   </g>
   <g id="PathCollection_6">
    <path d="M 42.620312 117.645624 
L 44.943995 120.923077 
L 45.671875 121.906036 
L 47.611205 124.476923 
L 48.723437 125.89118 
L 50.438149 128.030769 
L 51.775 129.63346 
L 53.434119 131.584615 
L 54.826562 133.160354 
L 56.609178 135.138462 
L 57.878125 136.495364 
L 59.974177 138.692308 
L 60.929687 139.658674 
L 63.540845 142.246154 
L 63.98125 142.667773 
L 67.032812 145.52892 
L 67.32815 145.8 
" clip-path="url(#p546be3a025)" style="fill: none; stroke: #1f77b4; stroke-width: 1.5"/>
   </g>
   <g id="PathCollection_7">
    <path d="M 42.620312 145.047067 
L 43.320212 145.8 
" clip-path="url(#p546be3a025)" style="fill: none; stroke: #1f77b4; stroke-width: 1.5"/>
   </g>
   <g id="PathCollection_8"/>
   <g id="patch_3">
    <path d="M 42.620312 145.8 
L 42.620312 7.2 
" style="fill: none; stroke: #000000; stroke-width: 0.8; stroke-linejoin: miter; stroke-linecap: square"/>
   </g>
   <g id="patch_4">
    <path d="M 237.920313 145.8 
L 237.920313 7.2 
" style="fill: none; stroke: #000000; stroke-width: 0.8; stroke-linejoin: miter; stroke-linecap: square"/>
   </g>
   <g id="patch_5">
    <path d="M 42.620312 145.8 
L 237.920312 145.8 
" style="fill: none; stroke: #000000; stroke-width: 0.8; stroke-linejoin: miter; stroke-linecap: square"/>
   </g>
   <g id="patch_6">
    <path d="M 42.620312 7.2 
L 237.920312 7.2 
" style="fill: none; stroke: #000000; stroke-width: 0.8; stroke-linejoin: miter; stroke-linecap: square"/>
   </g>
  </g>
 </g>
 <defs>
  <clipPath id="p546be3a025">
   <rect x="42.620312" y="7.2" width="195.3" height="138.6"/>
  </clipPath>
 </defs>
</svg>
