<?xml version="1.0" encoding="utf-8" standalone="no"?>
<!DOCTYPE svg PUBLIC "-//W3C//DTD SVG 1.1//EN"
  "http://www.w3.org/Graphics/SVG/1.1/DTD/svg11.dtd">
<svg xmlns:xlink="http://www.w3.org/1999/xlink" width="231.442188pt" height="169.678125pt" viewBox="0 0 231.442188 169.678125" xmlns="http://www.w3.org/2000/svg" version="1.1">
 <metadata>
  <rdf:RDF xmlns:dc="http://purl.org/dc/elements/1.1/" xmlns:cc="http://creativecommons.org/ns#" xmlns:rdf="http://www.w3.org/1999/02/22-rdf-syntax-ns#">
   <cc:Work>
    <dc:type rdf:resource="http://purl.org/dc/dcmitype/StillImage"/>
    <dc:date>2025-08-11T14:25:43.907834</dc:date>
    <dc:format>image/svg+xml</dc:format>
    <dc:creator>
     <cc:Agent>
      <dc:title>Matplotlib v3.7.2, https://matplotlib.org/</dc:title>
     </cc:Agent>
    </dc:creator>
   </cc:Work>
  </rdf:RDF>
 </metadata>
 <defs>
  <style type="text/css">*{stroke-linejoin: round; stroke-linecap: butt}</style>
 </defs>
 <g id="figure_1">
  <g id="patch_1">
   <path d="M 0 169.678125 
L 231.442188 169.678125 
L 231.442188 0 
L 0 0 
z
" style="fill: #ffffff"/>
  </g>
  <g id="axes_1">
   <g id="patch_2">
    <path d="M 28.942188 145.8 
L 224.242188 145.8 
L 224.242188 7.2 
L 28.942188 7.2 
z
" style="fill: #ffffff"/>
   </g>
   <g id="PolyCollection_1">
    <path d="M 37.81946 13.930782 
L 37.81946 128.919018 
L 38.175263 128.919018 
L 38.531065 128.919018 
L 38.886868 128.919018 
L 39.24267 128.919018 
L 39.598473 128.919018 
L 39.954275 128.919018 
L 40.310078 128.919018 
L 40.66588 128.919018 
L 41.021683 128.919018 
L 41.377485 128.919018 
L 41.733288 128.919018 
L 42.08909 128.919018 
L 42.444893 128.919018 
L 42.800695 128.919018 
L 43.156498 128.919018 
L 43.5123 128.919018 
L 43.868103 128.919018 
L 44.223905 128.919018 
L 44.579708 128.919018 
L 44.935511 128.919018 
L 45.291313 128.919018 
L 45.647116 128.919018 
L 46.002918 128.919018 
L 46.358721 128.919018 
L 46.714523 128.919018 
L 47.070326 128.919018 
L 47.426128 128.919018 
L 47.781931 128.919018 
L 48.137733 128.919018 
L 48.493536 128.919018 
L 48.849338 128.919018 
L 49.205141 128.919018 
L 49.560943 128.919018 
L 49.916746 128.919018 
L 50.272548 128.919018 
L 50.628351 128.919018 
L 50.984153 128.919018 
L 51.339956 128.919018 
L 51.695758 128.919018 
L 52.051561 128.919018 
L 52.407363 128.919018 
L 52.763166 128.919018 
L 53.118968 128.919018 
L 53.474771 128.919018 
L 53.830573 128.919018 
L 54.186376 128.919018 
L 54.542178 128.919018 
L 54.897981 128.919018 
L 55.253783 128.919018 
L 55.609586 128.919018 
L 55.965388 128.919018 
L 56.321191 128.919018 
L 56.676993 128.919018 
L 57.032796 128.919018 
L 57.388599 128.919018 
L 57.744401 128.919018 
L 58.100204 128.919018 
L 58.456006 128.919018 
L 58.811809 128.919018 
L 59.167611 128.919018 
L 59.523414 128.919018 
L 59.879216 128.919018 
L 60.235019 128.919018 
L 60.590821 128.919018 
L 60.946624 128.919018 
L 61.302426 128.919018 
L 61.658229 128.919018 
L 62.014031 128.919018 
L 62.369834 128.919018 
L 62.725636 128.919018 
L 63.081439 128.919018 
L 63.437241 128.919018 
L 63.793044 128.919018 
L 64.148846 128.919018 
L 64.504649 128.919018 
L 64.860451 128.919018 
L 65.216254 128.919018 
L 65.572056 128.919018 
L 65.927859 128.919018 
L 66.283661 128.919018 
L 66.639464 128.919018 
L 66.995266 128.919018 
L 67.351069 128.919018 
L 67.706871 128.919018 
L 68.062674 128.919018 
L 68.418476 128.919018 
L 68.774279 128.919018 
L 69.130081 128.919018 
L 69.485884 128.919018 
L 69.841686 128.919018 
L 70.197489 128.919018 
L 70.553292 128.919018 
L 70.909094 128.919018 
L 71.264897 128.919018 
L 71.620699 128.919018 
L 71.976502 128.919018 
L 72.332304 128.919018 
L 72.688107 128.919018 
L 73.043909 128.919018 
L 73.399712 128.919018 
L 73.755514 128.919018 
L 74.111317 128.919018 
L 74.467119 128.919018 
L 74.822922 128.919018 
L 75.178724 128.919018 
L 75.534527 128.919018 
L 75.890329 128.919018 
L 76.246132 128.919018 
L 76.601934 128.919018 
L 76.957737 128.919018 
L 77.313539 128.919018 
L 77.669342 128.919018 
L 78.025144 128.919018 
L 78.380947 128.919018 
L 78.736749 128.919018 
L 79.092552 128.919018 
L 79.448354 128.919018 
L 79.804157 128.919018 
L 80.159959 128.919018 
L 80.515762 128.919018 
L 80.871564 128.919018 
L 81.227367 128.919018 
L 81.583169 128.919018 
L 81.938972 128.919018 
L 82.294774 128.919018 
L 82.650577 128.919018 
L 83.00638 128.919018 
L 83.362182 128.919018 
L 83.717985 128.919018 
L 84.073787 128.919018 
L 84.42959 128.919018 
L 84.785392 128.919018 
L 85.141195 128.919018 
L 85.496997 128.919018 
L 85.8528 128.919018 
L 86.208602 128.919018 
L 86.564405 128.919018 
L 86.920207 128.919018 
L 87.27601 128.919018 
L 87.631812 128.919018 
L 87.987615 128.919018 
L 88.343417 128.919018 
L 88.69922 128.919018 
L 89.055022 128.919018 
L 89.410825 128.919018 
L 89.766627 128.919018 
L 90.12243 128.919018 
L 90.478232 128.919018 
L 90.834035 128.919018 
L 91.189837 128.919018 
L 91.54564 128.919018 
L 91.901442 128.919018 
L 92.257245 128.919018 
L 92.613047 128.919018 
L 92.96885 128.919018 
L 93.324652 128.919018 
L 93.680455 128.919018 
L 94.036257 128.919018 
L 94.39206 128.919018 
L 94.747862 128.919018 
L 95.103665 128.919018 
L 95.459468 128.919018 
L 95.81527 128.919018 
L 96.171073 128.919018 
L 96.526875 128.919018 
L 96.882678 128.919018 
L 97.23848 128.919018 
L 97.594283 128.919018 
L 97.950085 128.919018 
L 98.305888 128.919018 
L 98.66169 128.919018 
L 99.017493 128.919018 
L 99.373295 128.919018 
L 99.729098 128.919018 
L 100.0849 128.919018 
L 100.440703 128.919018 
L 100.796505 128.919018 
L 101.152308 128.919018 
L 101.50811 128.919018 
L 101.863913 128.919018 
L 102.219715 128.919018 
L 102.575518 128.919018 
L 102.93132 128.919018 
L 103.287123 128.919018 
L 103.642925 128.919018 
L 103.998728 128.919018 
L 104.35453 128.919018 
L 104.710333 128.919018 
L 105.066135 128.919018 
L 105.421938 128.919018 
L 105.77774 128.919018 
L 106.133543 128.919018 
L 106.489345 128.919018 
L 106.845148 128.919018 
L 107.20095 128.919018 
L 107.556753 128.919018 
L 107.912556 128.919018 
L 108.268358 128.919018 
L 108.624161 128.919018 
L 108.979963 128.919018 
L 109.335766 128.919018 
L 109.691568 128.919018 
L 110.047371 128.919018 
L 110.403173 128.919018 
L 110.758976 128.919018 
L 111.114778 128.919018 
L 111.470581 128.919018 
L 111.826383 128.919018 
L 112.182186 128.919018 
L 112.537988 128.919018 
L 112.893791 128.919018 
L 113.249593 128.919018 
L 113.605396 128.919018 
L 113.961198 128.919018 
L 114.317001 128.919018 
L 114.672803 128.919018 
L 115.028606 128.919018 
L 115.384408 128.919018 
L 115.740211 128.919018 
L 116.096013 128.919018 
L 116.451816 128.919018 
L 116.807618 128.919018 
L 117.163421 128.919018 
L 117.519223 128.919018 
L 117.875026 128.919018 
L 118.230828 128.919018 
L 118.586631 128.919018 
L 118.942433 128.919018 
L 119.298236 128.919018 
L 119.654038 128.919018 
L 120.009841 128.919018 
L 120.365644 128.919018 
L 120.721446 128.919018 
L 121.077249 128.919018 
L 121.433051 128.919018 
L 121.788854 128.919018 
L 122.144656 128.919018 
L 122.500459 128.919018 
L 122.856261 128.919018 
L 123.212064 128.919018 
L 123.567866 128.919018 
L 123.923669 128.919018 
L 124.279471 128.919018 
L 124.635274 128.919018 
L 124.991076 128.919018 
L 125.346879 128.919018 
L 125.702681 128.919018 
L 126.058484 128.919018 
L 126.414286 128.919018 
L 126.770089 128.919018 
L 127.125891 128.919018 
L 127.481694 128.919018 
L 127.837496 128.919018 
L 128.193299 128.919018 
L 128.549101 128.919018 
L 128.904904 128.919018 
L 129.260706 128.919018 
L 129.616509 128.919018 
L 129.972311 128.919018 
L 130.328114 128.919018 
L 130.683916 128.919018 
L 131.039719 128.919018 
L 131.395521 128.919018 
L 131.751324 128.919018 
L 132.107126 128.919018 
L 132.462929 128.919018 
L 132.818731 128.919018 
L 133.174534 128.919018 
L 133.530337 128.919018 
L 133.886139 128.919018 
L 134.241942 128.919018 
L 134.597744 128.919018 
L 134.953547 128.919018 
L 135.309349 128.919018 
L 135.665152 128.919018 
L 136.020954 128.919018 
L 136.376757 128.919018 
L 136.732559 128.919018 
L 137.088362 128.919018 
L 137.444164 128.919018 
L 137.799967 128.919018 
L 138.155769 128.919018 
L 138.511572 128.919018 
L 138.867374 128.919018 
L 139.223177 128.919018 
L 139.578979 128.919018 
L 139.934782 128.919018 
L 140.290584 128.919018 
L 140.646387 128.919018 
L 141.002189 128.919018 
L 141.357992 128.919018 
L 141.713794 128.919018 
L 142.069597 128.919018 
L 142.425399 128.919018 
L 142.781202 128.919018 
L 143.137004 128.919018 
L 143.492807 128.919018 
L 143.848609 128.919018 
L 144.204412 128.919018 
L 144.560214 128.919018 
L 144.916017 128.919018 
L 145.271819 128.919018 
L 145.627622 128.919018 
L 145.983425 128.919018 
L 146.339227 128.919018 
L 146.69503 128.919018 
L 147.050832 128.919018 
L 147.406635 128.919018 
L 147.762437 128.919018 
L 148.11824 128.919018 
L 148.474042 128.919018 
L 148.829845 128.919018 
L 149.185647 128.919018 
L 149.54145 128.919018 
L 149.897252 128.919018 
L 150.253055 128.919018 
L 150.608857 128.919018 
L 150.96466 128.919018 
L 151.320462 128.919018 
L 151.676265 128.919018 
L 152.032067 128.919018 
L 152.38787 128.919018 
L 152.743672 128.919018 
L 153.099475 128.919018 
L 153.455277 128.919018 
L 153.81108 128.919018 
L 154.166882 128.919018 
L 154.522685 128.919018 
L 154.878487 128.919018 
L 155.23429 128.919018 
L 155.590092 128.919018 
L 155.945895 128.919018 
L 156.301697 128.919018 
L 156.6575 128.919018 
L 157.013302 128.919018 
L 157.369105 128.919018 
L 157.724907 128.919018 
L 158.08071 128.919018 
L 158.436513 128.919018 
L 158.792315 128.919018 
L 159.148118 128.919018 
L 159.50392 128.919018 
L 159.859723 128.919018 
L 160.215525 128.919018 
L 160.571328 128.919018 
L 160.92713 128.919018 
L 161.282933 128.919018 
L 161.638735 128.919018 
L 161.994538 128.919018 
L 162.35034 128.919018 
L 162.706143 128.919018 
L 163.061945 128.919018 
L 163.417748 128.919018 
L 163.77355 128.919018 
L 164.129353 128.919018 
L 164.485155 128.919018 
L 164.840958 128.919018 
L 165.19676 128.919018 
L 165.552563 128.919018 
L 165.908365 128.919018 
L 166.264168 128.919018 
L 166.61997 128.919018 
L 166.975773 128.919018 
L 167.331575 128.919018 
L 167.687378 128.919018 
L 168.04318 128.919018 
L 168.398983 128.919018 
L 168.754785 128.919018 
L 169.110588 128.919018 
L 169.46639 128.919018 
L 169.822193 128.919018 
L 170.177995 128.919018 
L 170.533798 128.919018 
L 170.889601 128.919018 
L 171.245403 128.919018 
L 171.601206 128.919018 
L 171.957008 128.919018 
L 172.312811 128.919018 
L 172.668613 128.919018 
L 173.024416 128.919018 
L 173.380218 128.919018 
L 173.736021 128.919018 
L 174.091823 128.919018 
L 174.447626 128.919018 
L 174.803428 128.919018 
L 175.159231 128.919018 
L 175.515033 128.919018 
L 175.870836 128.919018 
L 176.226638 128.919018 
L 176.582441 128.919018 
L 176.938243 128.919018 
L 177.294046 128.919018 
L 177.649848 128.919018 
L 178.005651 128.919018 
L 178.361453 128.919018 
L 178.717256 128.919018 
L 179.073058 128.919018 
L 179.428861 128.919018 
L 179.784663 128.919018 
L 180.140466 128.919018 
L 180.496268 128.919018 
L 180.852071 128.919018 
L 181.207873 128.919018 
L 181.563676 128.919018 
L 181.919478 128.919018 
L 182.275281 128.919018 
L 182.631083 128.919018 
L 182.986886 128.919018 
L 183.342689 128.919018 
L 183.698491 128.919018 
L 184.054294 128.919018 
L 184.410096 128.919018 
L 184.765899 128.919018 
L 185.121701 128.919018 
L 185.477504 128.919018 
L 185.833306 128.919018 
L 186.189109 128.919018 
L 186.544911 128.919018 
L 186.900714 128.919018 
L 187.256516 128.919018 
L 187.612319 128.919018 
L 187.968121 128.919018 
L 188.323924 128.919018 
L 188.679726 128.919018 
L 189.035529 128.919018 
L 189.391331 128.919018 
L 189.747134 128.919018 
L 190.102936 128.919018 
L 190.458739 128.919018 
L 190.814541 128.919018 
L 191.170344 128.919018 
L 191.526146 128.919018 
L 191.881949 128.919018 
L 192.237751 128.919018 
L 192.593554 128.919018 
L 192.949356 128.919018 
L 193.305159 128.919018 
L 193.660961 128.919018 
L 194.016764 128.919018 
L 194.372566 128.919018 
L 194.728369 128.919018 
L 195.084171 128.919018 
L 195.439974 128.919018 
L 195.795776 128.919018 
L 196.151579 128.919018 
L 196.507382 128.919018 
L 196.863184 128.919018 
L 197.218987 128.919018 
L 197.574789 128.919018 
L 197.930592 128.919018 
L 198.286394 128.919018 
L 198.642197 128.919018 
L 198.997999 128.919018 
L 199.353802 128.919018 
L 199.709604 128.919018 
L 200.065407 128.919018 
L 200.421209 128.919018 
L 200.777012 128.919018 
L 201.132814 128.919018 
L 201.488617 128.919018 
L 201.844419 128.919018 
L 202.200222 128.919018 
L 202.556024 128.919018 
L 202.911827 128.919018 
L 203.267629 128.919018 
L 203.623432 128.919018 
L 203.979234 128.919018 
L 204.335037 128.919018 
L 204.690839 128.919018 
L 205.046642 128.919018 
L 205.402444 128.919018 
L 205.758247 128.919018 
L 206.114049 128.919018 
L 206.469852 128.919018 
L 206.825654 128.919018 
L 207.181457 128.919018 
L 207.537259 128.919018 
L 207.893062 128.919018 
L 208.248864 128.919018 
L 208.604667 128.919018 
L 208.96047 128.919018 
L 209.316272 128.919018 
L 209.672075 128.919018 
L 210.027877 128.919018 
L 210.38368 128.919018 
L 210.739482 128.919018 
L 211.095285 128.919018 
L 211.451087 128.919018 
L 211.80689 128.919018 
L 212.162692 128.919018 
L 212.518495 128.919018 
L 212.874297 128.919018 
L 213.2301 128.919018 
L 213.585902 128.919018 
L 213.941705 128.919018 
L 214.297507 128.919018 
L 214.65331 128.919018 
L 215.009112 128.919018 
L 215.364915 128.919018 
L 215.364915 13.930782 
L 215.364915 13.930782 
L 215.009112 13.930782 
L 214.65331 13.930782 
L 214.297507 13.930782 
L 213.941705 13.930782 
L 213.585902 13.930782 
L 213.2301 13.930782 
L 212.874297 13.930782 
L 212.518495 13.930782 
L 212.162692 13.930782 
L 211.80689 13.930782 
L 211.451087 13.930782 
L 211.095285 13.930782 
L 210.739482 13.930782 
L 210.38368 13.930782 
L 210.027877 13.930782 
L 209.672075 13.930782 
L 209.316272 13.930782 
L 208.96047 13.930782 
L 208.604667 13.930782 
L 208.248864 13.930782 
L 207.893062 13.930782 
L 207.537259 13.930782 
L 207.181457 13.930782 
L 206.825654 13.930782 
L 206.469852 13.930782 
L 206.114049 13.930782 
L 205.758247 13.930782 
L 205.402444 13.930782 
L 205.046642 13.930782 
L 204.690839 13.930782 
L 204.335037 13.930782 
L 203.979234 13.930782 
L 203.623432 13.930782 
L 203.267629 13.930782 
L 202.911827 13.930782 
L 202.556024 13.930782 
L 202.200222 13.930782 
L 201.844419 13.930782 
L 201.488617 13.930782 
L 201.132814 13.930782 
L 200.777012 13.930782 
L 200.421209 13.930782 
L 200.065407 13.930782 
L 199.709604 13.930782 
L 199.353802 13.930782 
L 198.997999 13.930782 
L 198.642197 13.930782 
L 198.286394 13.930782 
L 197.930592 13.930782 
L 197.574789 13.930782 
L 197.218987 13.930782 
L 196.863184 13.930782 
L 196.507382 13.930782 
L 196.151579 13.930782 
L 195.795776 13.930782 
L 195.439974 13.930782 
L 195.084171 13.930782 
L 194.728369 13.930782 
L 194.372566 13.930782 
L 194.016764 13.930782 
L 193.660961 13.930782 
L 193.305159 13.930782 
L 192.949356 13.930782 
L 192.593554 13.930782 
L 192.237751 13.930782 
L 191.881949 13.930782 
L 191.526146 13.930782 
L 191.170344 13.930782 
L 190.814541 13.930782 
L 190.458739 13.930782 
L 190.102936 13.930782 
L 189.747134 13.930782 
L 189.391331 13.930782 
L 189.035529 13.930782 
L 188.679726 13.930782 
L 188.323924 13.930782 
L 187.968121 13.930782 
L 187.612319 13.930782 
L 187.256516 13.930782 
L 186.900714 13.930782 
L 186.544911 13.930782 
L 186.189109 13.930782 
L 185.833306 13.930782 
L 185.477504 13.930782 
L 185.121701 13.930782 
L 184.765899 13.930782 
L 184.410096 13.930782 
L 184.054294 13.930782 
L 183.698491 13.930782 
L 183.342689 13.930782 
L 182.986886 13.930782 
L 182.631083 13.930782 
L 182.275281 13.930782 
L 181.919478 13.930782 
L 181.563676 13.930782 
L 181.207873 13.930782 
L 180.852071 13.930782 
L 180.496268 13.930782 
L 180.140466 13.930782 
L 179.784663 13.930782 
L 179.428861 13.930782 
L 179.073058 13.930782 
L 178.717256 13.930782 
L 178.361453 13.930782 
L 178.005651 13.930782 
L 177.649848 13.930782 
L 177.294046 13.930782 
L 176.938243 13.930782 
L 176.582441 13.930782 
L 176.226638 13.930782 
L 175.870836 13.930782 
L 175.515033 13.930782 
L 175.159231 13.930782 
L 174.803428 13.930782 
L 174.447626 13.930782 
L 174.091823 13.930782 
L 173.736021 13.930782 
L 173.380218 13.930782 
L 173.024416 13.930782 
L 172.668613 13.930782 
L 172.312811 13.930782 
L 171.957008 13.930782 
L 171.601206 13.930782 
L 171.245403 13.930782 
L 170.889601 13.930782 
L 170.533798 13.930782 
L 170.177995 13.930782 
L 169.822193 13.930782 
L 169.46639 13.930782 
L 169.110588 13.930782 
L 168.754785 13.930782 
L 168.398983 13.930782 
L 168.04318 13.930782 
L 167.687378 13.930782 
L 167.331575 13.930782 
L 166.975773 13.930782 
L 166.61997 13.930782 
L 166.264168 13.930782 
L 165.908365 13.930782 
L 165.552563 13.930782 
L 165.19676 13.930782 
L 164.840958 13.930782 
L 164.485155 13.930782 
L 164.129353 13.930782 
L 163.77355 13.930782 
L 163.417748 13.930782 
L 163.061945 13.930782 
L 162.706143 13.930782 
L 162.35034 13.930782 
L 161.994538 13.930782 
L 161.638735 13.930782 
L 161.282933 13.930782 
L 160.92713 13.930782 
L 160.571328 13.930782 
L 160.215525 13.930782 
L 159.859723 13.930782 
L 159.50392 13.930782 
L 159.148118 13.930782 
L 158.792315 13.930782 
L 158.436513 13.930782 
L 158.08071 13.930782 
L 157.724907 13.930782 
L 157.369105 13.930782 
L 157.013302 13.930782 
L 156.6575 13.930782 
L 156.301697 13.930782 
L 155.945895 13.930782 
L 155.590092 13.930782 
L 155.23429 13.930782 
L 154.878487 13.930782 
L 154.522685 13.930782 
L 154.166882 13.930782 
L 153.81108 13.930782 
L 153.455277 13.930782 
L 153.099475 13.930782 
L 152.743672 13.930782 
L 152.38787 13.930782 
L 152.032067 13.930782 
L 151.676265 13.930782 
L 151.320462 13.930782 
L 150.96466 13.930782 
L 150.608857 13.930782 
L 150.253055 13.930782 
L 149.897252 13.930782 
L 149.54145 13.930782 
L 149.185647 13.930782 
L 148.829845 13.930782 
L 148.474042 13.930782 
L 148.11824 13.930782 
L 147.762437 13.930782 
L 147.406635 13.930782 
L 147.050832 13.930782 
L 146.69503 13.930782 
L 146.339227 13.930782 
L 145.983425 13.930782 
L 145.627622 13.930782 
L 145.271819 13.930782 
L 144.916017 13.930782 
L 144.560214 13.930782 
L 144.204412 13.930782 
L 143.848609 13.930782 
L 143.492807 13.930782 
L 143.137004 13.930782 
L 142.781202 13.930782 
L 142.425399 13.930782 
L 142.069597 13.930782 
L 141.713794 13.930782 
L 141.357992 13.930782 
L 141.002189 13.930782 
L 140.646387 13.930782 
L 140.290584 13.930782 
L 139.934782 13.930782 
L 139.578979 13.930782 
L 139.223177 13.930782 
L 138.867374 13.930782 
L 138.511572 13.930782 
L 138.155769 13.930782 
L 137.799967 13.930782 
L 137.444164 13.930782 
L 137.088362 13.930782 
L 136.732559 13.930782 
L 136.376757 13.930782 
L 136.020954 13.930782 
L 135.665152 13.930782 
L 135.309349 13.930782 
L 134.953547 13.930782 
L 134.597744 13.930782 
L 134.241942 13.930782 
L 133.886139 13.930782 
L 133.530337 13.930782 
L 133.174534 13.930782 
L 132.818731 13.930782 
L 132.462929 13.930782 
L 132.107126 13.930782 
L 131.751324 13.930782 
L 131.395521 13.930782 
L 131.039719 13.930782 
L 130.683916 13.930782 
L 130.328114 13.930782 
L 129.972311 13.930782 
L 129.616509 13.930782 
L 129.260706 13.930782 
L 128.904904 13.930782 
L 128.549101 13.930782 
L 128.193299 13.930782 
L 127.837496 13.930782 
L 127.481694 13.930782 
L 127.125891 13.930782 
L 126.770089 13.930782 
L 126.414286 13.930782 
L 126.058484 13.930782 
L 125.702681 13.930782 
L 125.346879 13.930782 
L 124.991076 13.930782 
L 124.635274 13.930782 
L 124.279471 13.930782 
L 123.923669 13.930782 
L 123.567866 13.930782 
L 123.212064 13.930782 
L 122.856261 13.930782 
L 122.500459 13.930782 
L 122.144656 13.930782 
L 121.788854 13.930782 
L 121.433051 13.930782 
L 121.077249 13.930782 
L 120.721446 13.930782 
L 120.365644 13.930782 
L 120.009841 13.930782 
L 119.654038 13.930782 
L 119.298236 13.930782 
L 118.942433 13.930782 
L 118.586631 13.930782 
L 118.230828 13.930782 
L 117.875026 13.930782 
L 117.519223 13.930782 
L 117.163421 13.930782 
L 116.807618 13.930782 
L 116.451816 13.930782 
L 116.096013 13.930782 
L 115.740211 13.930782 
L 115.384408 13.930782 
L 115.028606 13.930782 
L 114.672803 13.930782 
L 114.317001 13.930782 
L 113.961198 13.930782 
L 113.605396 13.930782 
L 113.249593 13.930782 
L 112.893791 13.930782 
L 112.537988 13.930782 
L 112.182186 13.930782 
L 111.826383 13.930782 
L 111.470581 13.930782 
L 111.114778 13.930782 
L 110.758976 13.930782 
L 110.403173 13.930782 
L 110.047371 13.930782 
L 109.691568 13.930782 
L 109.335766 13.930782 
L 108.979963 13.930782 
L 108.624161 13.930782 
L 108.268358 13.930782 
L 107.912556 13.930782 
L 107.556753 13.930782 
L 107.20095 13.930782 
L 106.845148 13.930782 
L 106.489345 13.930782 
L 106.133543 13.930782 
L 105.77774 13.930782 
L 105.421938 13.930782 
L 105.066135 13.930782 
L 104.710333 13.930782 
L 104.35453 13.930782 
L 103.998728 13.930782 
L 103.642925 13.930782 
L 103.287123 13.930782 
L 102.93132 13.930782 
L 102.575518 13.930782 
L 102.219715 13.930782 
L 101.863913 13.930782 
L 101.50811 13.930782 
L 101.152308 13.930782 
L 100.796505 13.930782 
L 100.440703 13.930782 
L 100.0849 13.930782 
L 99.729098 13.930782 
L 99.373295 13.930782 
L 99.017493 13.930782 
L 98.66169 13.930782 
L 98.305888 13.930782 
L 97.950085 13.930782 
L 97.594283 13.930782 
L 97.23848 13.930782 
L 96.882678 13.930782 
L 96.526875 13.930782 
L 96.171073 13.930782 
L 95.81527 13.930782 
L 95.459468 13.930782 
L 95.103665 13.930782 
L 94.747862 13.930782 
L 94.39206 13.930782 
L 94.036257 13.930782 
L 93.680455 13.930782 
L 93.324652 13.930782 
L 92.96885 13.930782 
L 92.613047 13.930782 
L 92.257245 13.930782 
L 91.901442 13.930782 
L 91.54564 13.930782 
L 91.189837 13.930782 
L 90.834035 13.930782 
L 90.478232 13.930782 
L 90.12243 13.930782 
L 89.766627 13.930782 
L 89.410825 13.930782 
L 89.055022 13.930782 
L 88.69922 13.930782 
L 88.343417 13.930782 
L 87.987615 13.930782 
L 87.631812 13.930782 
L 87.27601 13.930782 
L 86.920207 13.930782 
L 86.564405 13.930782 
L 86.208602 13.930782 
L 85.8528 13.930782 
L 85.496997 13.930782 
L 85.141195 13.930782 
L 84.785392 13.930782 
L 84.42959 13.930782 
L 84.073787 13.930782 
L 83.717985 13.930782 
L 83.362182 13.930782 
L 83.00638 13.930782 
L 82.650577 13.930782 
L 82.294774 13.930782 
L 81.938972 13.930782 
L 81.583169 13.930782 
L 81.227367 13.930782 
L 80.871564 13.930782 
L 80.515762 13.930782 
L 80.159959 13.930782 
L 79.804157 13.930782 
L 79.448354 13.930782 
L 79.092552 13.930782 
L 78.736749 13.930782 
L 78.380947 13.930782 
L 78.025144 13.930782 
L 77.669342 13.930782 
L 77.313539 13.930782 
L 76.957737 13.930782 
L 76.601934 13.930782 
L 76.246132 13.930782 
L 75.890329 13.930782 
L 75.534527 13.930782 
L 75.178724 13.930782 
L 74.822922 13.930782 
L 74.467119 13.930782 
L 74.111317 13.930782 
L 73.755514 13.930782 
L 73.399712 13.930782 
L 73.043909 13.930782 
L 72.688107 13.930782 
L 72.332304 13.930782 
L 71.976502 13.930782 
L 71.620699 13.930782 
L 71.264897 13.930782 
L 70.909094 13.930782 
L 70.553292 13.930782 
L 70.197489 13.930782 
L 69.841686 13.930782 
L 69.485884 13.930782 
L 69.130081 13.930782 
L 68.774279 13.930782 
L 68.418476 13.930782 
L 68.062674 13.930782 
L 67.706871 13.930782 
L 67.351069 13.930782 
L 66.995266 13.930782 
L 66.639464 13.930782 
L 66.283661 13.930782 
L 65.927859 13.930782 
L 65.572056 13.930782 
L 65.216254 13.930782 
L 64.860451 13.930782 
L 64.504649 13.930782 
L 64.148846 13.930782 
L 63.793044 13.930782 
L 63.437241 13.930782 
L 63.081439 13.930782 
L 62.725636 13.930782 
L 62.369834 13.930782 
L 62.014031 13.930782 
L 61.658229 13.930782 
L 61.302426 13.930782 
L 60.946624 13.930782 
L 60.590821 13.930782 
L 60.235019 13.930782 
L 59.879216 13.930782 
L 59.523414 13.930782 
L 59.167611 13.930782 
L 58.811809 13.930782 
L 58.456006 13.930782 
L 58.100204 13.930782 
L 57.744401 13.930782 
L 57.388599 13.930782 
L 57.032796 13.930782 
L 56.676993 13.930782 
L 56.321191 13.930782 
L 55.965388 13.930782 
L 55.609586 13.930782 
L 55.253783 13.930782 
L 54.897981 13.930782 
L 54.542178 13.930782 
L 54.186376 13.930782 
L 53.830573 13.930782 
L 53.474771 13.930782 
L 53.118968 13.930782 
L 52.763166 13.930782 
L 52.407363 13.930782 
L 52.051561 13.930782 
L 51.695758 13.930782 
L 51.339956 13.930782 
L 50.984153 13.930782 
L 50.628351 13.930782 
L 50.272548 13.930782 
L 49.916746 13.930782 
L 49.560943 13.930782 
L 49.205141 13.930782 
L 48.849338 13.930782 
L 48.493536 13.930782 
L 48.137733 13.930782 
L 47.781931 13.930782 
L 47.426128 13.930782 
L 47.070326 13.930782 
L 46.714523 13.930782 
L 46.358721 13.930782 
L 46.002918 13.930782 
L 45.647116 13.930782 
L 45.291313 13.930782 
L 44.935511 13.930782 
L 44.579708 13.930782 
L 44.223905 13.930782 
L 43.868103 13.930782 
L 43.5123 13.930782 
L 43.156498 13.930782 
L 42.800695 13.930782 
L 42.444893 13.930782 
L 42.08909 13.930782 
L 41.733288 13.930782 
L 41.377485 13.930782 
L 41.021683 13.930782 
L 40.66588 13.930782 
L 40.310078 13.930782 
L 39.954275 13.930782 
L 39.598473 13.930782 
L 39.24267 13.930782 
L 38.886868 13.930782 
L 38.531065 13.930782 
L 38.175263 13.930782 
L 37.81946 13.930782 
z
" clip-path="url(#p6b49d9d103)" style="fill: #1f77b4; fill-opacity: 0.25"/>
   </g>
   <g id="matplotlib.axis_1">
    <g id="xtick_1">
     <g id="line2d_1">
      <defs>
       <path id="m19a2cd68b7" d="M 0 0 
L 0 3.5 
" style="stroke: #000000; stroke-width: 0.8"/>
      </defs>
      <g>
       <use xlink:href="#m19a2cd68b7" x="37.81946" y="145.8" style="stroke: #000000; stroke-width: 0.8"/>
      </g>
     </g>
     <g id="text_1">
      <!-- 0 -->
      <g transform="translate(34.63821 160.398438) scale(0.1 -0.1)">
       <defs>
        <path id="DejaVuSans-30" d="M 2034 4250 
Q 1547 4250 1301 3770 
Q 1056 3291 1056 2328 
Q 1056 1369 1301 889 
Q 1547 409 2034 409 
Q 2525 409 2770 889 
Q 3016 1369 3016 2328 
Q 3016 3291 2770 3770 
Q 2525 4250 2034 4250 
z
M 2034 4750 
Q 2819 4750 3233 4129 
Q 3647 3509 3647 2328 
Q 3647 1150 3233 529 
Q 2819 -91 2034 -91 
Q 1250 -91 836 529 
Q 422 1150 422 2328 
Q 422 3509 836 4129 
Q 1250 4750 2034 4750 
z
" transform="scale(0.015625)"/>
       </defs>
       <use xlink:href="#DejaVuSans-30"/>
      </g>
     </g>
    </g>
    <g id="xtick_2">
     <g id="line2d_2">
      <g>
       <use xlink:href="#m19a2cd68b7" x="73.328551" y="145.8" style="stroke: #000000; stroke-width: 0.8"/>
      </g>
     </g>
     <g id="text_2">
      <!-- 1 -->
      <g transform="translate(70.147301 160.398438) scale(0.1 -0.1)">
       <defs>
        <path id="DejaVuSans-31" d="M 794 531 
L 1825 531 
L 1825 4091 
L 703 3866 
L 703 4441 
L 1819 4666 
L 2450 4666 
L 2450 531 
L 3481 531 
L 3481 0 
L 794 0 
L 794 531 
z
" transform="scale(0.015625)"/>
       </defs>
       <use xlink:href="#DejaVuSans-31"/>
      </g>
     </g>
    </g>
    <g id="xtick_3">
     <g id="line2d_3">
      <g>
       <use xlink:href="#m19a2cd68b7" x="108.837642" y="145.8" style="stroke: #000000; stroke-width: 0.8"/>
      </g>
     </g>
     <g id="text_3">
      <!-- 2 -->
      <g transform="translate(105.656392 160.398438) scale(0.1 -0.1)">
       <defs>
        <path id="DejaVuSans-32" d="M 1228 531 
L 3431 531 
L 3431 0 
L 469 0 
L 469 531 
Q 828 903 1448 1529 
Q 2069 2156 2228 2338 
Q 2531 2678 2651 2914 
Q 2772 3150 2772 3378 
Q 2772 3750 2511 3984 
Q 2250 4219 1831 4219 
Q 1534 4219 1204 4116 
Q 875 4013 500 3803 
L 500 4441 
Q 881 4594 1212 4672 
Q 1544 4750 1819 4750 
Q 2544 4750 2975 4387 
Q 3406 4025 3406 3419 
Q 3406 3131 3298 2873 
Q 3191 2616 2906 2266 
Q 2828 2175 2409 1742 
Q 1991 1309 1228 531 
z
" transform="scale(0.015625)"/>
       </defs>
       <use xlink:href="#DejaVuSans-32"/>
      </g>
     </g>
    </g>
    <g id="xtick_4">
     <g id="line2d_4">
      <g>
       <use xlink:href="#m19a2cd68b7" x="144.346733" y="145.8" style="stroke: #000000; stroke-width: 0.8"/>
      </g>
     </g>
     <g id="text_4">
      <!-- 3 -->
      <g transform="translate(141.165483 160.398438) scale(0.1 -0.1)">
       <defs>
        <path id="DejaVuSans-33" d="M 2597 2516 
Q 3050 2419 3304 2112 
Q 3559 1806 3559 1356 
Q 3559 666 3084 287 
Q 2609 -91 1734 -91 
Q 1441 -91 1130 -33 
Q 819 25 488 141 
L 488 750 
Q 750 597 1062 519 
Q 1375 441 1716 441 
Q 2309 441 2620 675 
Q 2931 909 2931 1356 
Q 2931 1769 2642 2001 
Q 2353 2234 1838 2234 
L 1294 2234 
L 1294 2753 
L 1863 2753 
Q 2328 2753 2575 2939 
Q 2822 3125 2822 3475 
Q 2822 3834 2567 4026 
Q 2313 4219 1838 4219 
Q 1578 4219 1281 4162 
Q 984 4106 628 3988 
L 628 4550 
Q 988 4650 1302 4700 
Q 1616 4750 1894 4750 
Q 2613 4750 3031 4423 
Q 3450 4097 3450 3541 
Q 3450 3153 3228 2886 
Q 3006 2619 2597 2516 
z
" transform="scale(0.015625)"/>
       </defs>
       <use xlink:href="#DejaVuSans-33"/>
      </g>
     </g>
    </g>
    <g id="xtick_5">
     <g id="line2d_5">
      <g>
       <use xlink:href="#m19a2cd68b7" x="179.855824" y="145.8" style="stroke: #000000; stroke-width: 0.8"/>
      </g>
     </g>
     <g id="text_5">
      <!-- 4 -->
      <g transform="translate(176.674574 160.398438) scale(0.1 -0.1)">
       <defs>
        <path id="DejaVuSans-34" d="M 2419 4116 
L 825 1625 
L 2419 1625 
L 2419 4116 
z
M 2253 4666 
L 3047 4666 
L 3047 1625 
L 3713 1625 
L 3713 1100 
L 3047 1100 
L 3047 0 
L 2419 0 
L 2419 1100 
L 313 1100 
L 313 1709 
L 2253 4666 
z
" transform="scale(0.015625)"/>
       </defs>
       <use xlink:href="#DejaVuSans-34"/>
      </g>
     </g>
    </g>
    <g id="xtick_6">
     <g id="line2d_6">
      <g>
       <use xlink:href="#m19a2cd68b7" x="215.364915" y="145.8" style="stroke: #000000; stroke-width: 0.8"/>
      </g>
     </g>
     <g id="text_6">
      <!-- 5 -->
      <g transform="translate(212.183665 160.398438) scale(0.1 -0.1)">
       <defs>
        <path id="DejaVuSans-35" d="M 691 4666 
L 3169 4666 
L 3169 4134 
L 1269 4134 
L 1269 2991 
Q 1406 3038 1543 3061 
Q 1681 3084 1819 3084 
Q 2600 3084 3056 2656 
Q 3513 2228 3513 1497 
Q 3513 744 3044 326 
Q 2575 -91 1722 -91 
Q 1428 -91 1123 -41 
Q 819 9 494 109 
L 494 744 
Q 775 591 1075 516 
Q 1375 441 1709 441 
Q 2250 441 2565 725 
Q 2881 1009 2881 1497 
Q 2881 1984 2565 2268 
Q 2250 2553 1709 2553 
Q 1456 2553 1204 2497 
Q 953 2441 691 2322 
L 691 4666 
z
" transform="scale(0.015625)"/>
       </defs>
       <use xlink:href="#DejaVuSans-35"/>
      </g>
     </g>
    </g>
   </g>
   <g id="matplotlib.axis_2">
    <g id="ytick_1">
     <g id="line2d_7">
      <defs>
       <path id="m4a50debe5e" d="M 0 0 
L -3.5 0 
" style="stroke: #000000; stroke-width: 0.8"/>
      </defs>
      <g>
       <use xlink:href="#m4a50debe5e" x="28.942188" y="128.919018" style="stroke: #000000; stroke-width: 0.8"/>
      </g>
     </g>
     <g id="text_7">
      <!-- −2 -->
      <g transform="translate(7.2 132.718237) scale(0.1 -0.1)">
       <defs>
        <path id="DejaVuSans-2212" d="M 678 2272 
L 4684 2272 
L 4684 1741 
L 678 1741 
L 678 2272 
z
" transform="scale(0.015625)"/>
       </defs>
       <use xlink:href="#DejaVuSans-2212"/>
       <use xlink:href="#DejaVuSans-32" x="83.789062"/>
      </g>
     </g>
    </g>
    <g id="ytick_2">
     <g id="line2d_8">
      <g>
       <use xlink:href="#m4a50debe5e" x="28.942188" y="100.171959" style="stroke: #000000; stroke-width: 0.8"/>
      </g>
     </g>
     <g id="text_8">
      <!-- −1 -->
      <g transform="translate(7.2 103.971178) scale(0.1 -0.1)">
       <use xlink:href="#DejaVuSans-2212"/>
       <use xlink:href="#DejaVuSans-31" x="83.789062"/>
      </g>
     </g>
    </g>
    <g id="ytick_3">
     <g id="line2d_9">
      <g>
       <use xlink:href="#m4a50debe5e" x="28.942188" y="71.4249" style="stroke: #000000; stroke-width: 0.8"/>
      </g>
     </g>
     <g id="text_9">
      <!-- 0 -->
      <g transform="translate(15.579688 75.224119) scale(0.1 -0.1)">
       <use xlink:href="#DejaVuSans-30"/>
      </g>
     </g>
    </g>
    <g id="ytick_4">
     <g id="line2d_10">
      <g>
       <use xlink:href="#m4a50debe5e" x="28.942188" y="42.677841" style="stroke: #000000; stroke-width: 0.8"/>
      </g>
     </g>
     <g id="text_10">
      <!-- 1 -->
      <g transform="translate(15.579688 46.47706) scale(0.1 -0.1)">
       <use xlink:href="#DejaVuSans-31"/>
      </g>
     </g>
    </g>
    <g id="ytick_5">
     <g id="line2d_11">
      <g>
       <use xlink:href="#m4a50debe5e" x="28.942188" y="13.930782" style="stroke: #000000; stroke-width: 0.8"/>
      </g>
     </g>
     <g id="text_11">
      <!-- 2 -->
      <g transform="translate(15.579688 17.730001) scale(0.1 -0.1)">
       <use xlink:href="#DejaVuSans-32"/>
      </g>
     </g>
    </g>
   </g>
   <g id="line2d_12">
    <path d="M 37.81946 57.717289 
L 39.598473 58.928838 
L 41.377485 59.835206 
L 43.156498 60.45859 
L 45.291313 60.93969 
L 49.205141 61.741484 
L 50.984153 62.397646 
L 52.407363 63.169745 
L 53.830573 64.204306 
L 55.253783 65.51847 
L 56.676993 67.106286 
L 58.456006 69.429842 
L 60.946624 73.122554 
L 65.216254 79.554063 
L 66.995266 81.838828 
L 68.418476 83.363203 
L 69.841686 84.567871 
L 71.264897 85.427172 
L 72.332304 85.841191 
L 73.399712 86.063242 
L 74.467119 86.105291 
L 75.890329 85.913266 
L 77.313539 85.491553 
L 79.448354 84.59033 
L 82.650577 83.224576 
L 84.073787 82.856229 
L 85.141195 82.757188 
L 86.208602 82.848567 
L 87.27601 83.159859 
L 88.343417 83.714296 
L 89.410825 84.527478 
L 90.478232 85.606208 
L 91.901442 87.451012 
L 93.324652 89.725648 
L 95.103665 93.065076 
L 97.950085 99.04685 
L 100.440703 104.14945 
L 101.863913 106.674392 
L 103.287123 108.735011 
L 104.35453 109.903435 
L 105.421938 110.704984 
L 106.133543 111.021811 
L 106.845148 111.15864 
L 107.556753 111.113233 
L 108.268358 110.885951 
L 108.979963 110.479711 
L 110.047371 109.547175 
L 111.114778 108.252251 
L 112.182186 106.632833 
L 113.605396 104.049802 
L 115.384408 100.320197 
L 122.144656 85.556172 
L 123.567866 83.10745 
L 124.991076 81.066373 
L 126.414286 79.467334 
L 127.481694 78.565209 
L 128.549101 77.91373 
L 129.616509 77.501733 
L 130.683916 77.311725 
L 131.751324 77.320636 
L 133.174534 77.593401 
L 134.597744 78.094802 
L 136.732559 79.097697 
L 140.290584 80.799766 
L 142.069597 81.42716 
L 143.848609 81.834953 
L 145.983425 82.060486 
L 152.032067 82.406138 
L 153.81108 82.862802 
L 155.590092 83.604563 
L 157.369105 84.620266 
L 159.859723 86.360425 
L 163.061945 88.612939 
L 164.840958 89.565179 
L 166.264168 90.046929 
L 167.331575 90.206769 
L 168.398983 90.174688 
L 169.46639 89.940308 
L 170.533798 89.49956 
L 171.601206 88.854338 
L 173.024416 87.688809 
L 174.447626 86.200569 
L 176.226638 83.941585 
L 178.005651 81.310445 
L 180.140466 77.759285 
L 182.631083 73.185695 
L 185.477504 67.4885 
L 188.679726 60.547792 
L 192.593554 51.477633 
L 197.574789 39.940029 
L 199.709604 35.484962 
L 201.488617 32.206567 
L 203.267629 29.432609 
L 204.690839 27.630585 
L 206.114049 26.228196 
L 207.181457 25.445607 
L 208.248864 24.892507 
L 209.316272 24.562178 
L 210.38368 24.442931 
L 211.451087 24.518511 
L 212.874297 24.886954 
L 214.297507 25.509092 
L 215.364915 26.104655 
L 215.364915 26.104655 
" clip-path="url(#p6b49d9d103)" style="fill: none; stroke: #000000; stroke-opacity: 0.5; stroke-width: 1.5; stroke-linecap: square"/>
   </g>
   <g id="line2d_13">
    <path d="M 37.81946 55.889897 
L 38.886868 56.512646 
L 40.310078 57.040699 
L 41.733288 57.291863 
L 43.868103 57.365881 
L 46.358721 57.467942 
L 47.781931 57.772806 
L 48.849338 58.205788 
L 49.916746 58.857977 
L 50.984153 59.760023 
L 52.051561 60.93261 
L 53.118968 62.385398 
L 54.542178 64.753055 
L 55.965388 67.576418 
L 57.744401 71.632935 
L 60.590821 78.828667 
L 63.437241 85.933917 
L 65.216254 89.832235 
L 66.639464 92.459516 
L 68.062674 94.554719 
L 69.130081 95.742395 
L 70.197489 96.587681 
L 71.264897 97.089716 
L 72.332304 97.257492 
L 73.399712 97.108975 
L 74.467119 96.669908 
L 75.534527 95.972335 
L 76.957737 94.704189 
L 78.736749 92.710192 
L 81.227367 89.494566 
L 85.141195 84.452256 
L 87.27601 82.107303 
L 89.055022 80.488794 
L 90.834035 79.209677 
L 92.257245 78.438717 
L 93.680455 77.89304 
L 95.103665 77.572287 
L 96.526875 77.477497 
L 97.950085 77.612859 
L 99.373295 77.986505 
L 100.796505 78.610208 
L 102.219715 79.498126 
L 103.642925 80.664605 
L 105.066135 82.121278 
L 106.489345 83.873823 
L 108.268358 86.4741 
L 110.047371 89.496266 
L 112.182186 93.579345 
L 116.451816 102.432144 
L 118.942433 107.293761 
L 120.721446 110.281658 
L 122.144656 112.250536 
L 123.212064 113.432786 
L 124.279471 114.334933 
L 125.346879 114.938522 
L 126.414286 115.231769 
L 127.481694 115.20994 
L 128.549101 114.875581 
L 129.616509 114.238444 
L 130.683916 113.315268 
L 131.751324 112.129349 
L 133.174534 110.190642 
L 134.953547 107.311941 
L 137.444164 102.773402 
L 141.002189 96.270257 
L 142.781202 93.424079 
L 144.204412 91.47848 
L 145.627622 89.881926 
L 147.050832 88.660831 
L 148.11824 87.993734 
L 149.185647 87.531623 
L 150.253055 87.259038 
L 151.676265 87.150654 
L 153.099475 87.268216 
L 155.590092 87.750969 
L 157.724907 88.095765 
L 159.148118 88.103549 
L 160.215525 87.920519 
L 161.282933 87.532021 
L 162.35034 86.903289 
L 163.417748 86.004649 
L 164.485155 84.812385 
L 165.552563 83.309442 
L 166.61997 81.48603 
L 168.04318 78.553877 
L 169.46639 75.066652 
L 171.245403 69.995434 
L 173.380218 63.057879 
L 176.582441 51.662763 
L 179.784663 40.429892 
L 181.563676 34.843112 
L 183.342689 30.024739 
L 184.765899 26.841332 
L 185.833306 24.883333 
L 186.900714 23.305714 
L 187.968121 22.107491 
L 189.035529 21.276934 
L 190.102936 20.792474 
L 191.170344 20.624039 
L 192.237751 20.734831 
L 193.305159 21.083356 
L 194.728369 21.841857 
L 196.507382 23.117245 
L 199.709604 25.807463 
L 203.623432 29.02068 
L 213.2301 36.327227 
L 215.364915 37.871116 
L 215.364915 37.871116 
" clip-path="url(#p6b49d9d103)" style="fill: none; stroke: #000000; stroke-opacity: 0.5; stroke-width: 1.5; stroke-linecap: square"/>
   </g>
   <g id="line2d_14">
    <path d="M 37.81946 89.332062 
L 41.377485 80.274242 
L 43.5123 75.477581 
L 45.291313 72.09832 
L 46.714523 69.879231 
L 48.137733 68.12557 
L 49.205141 67.12245 
L 50.272548 66.383858 
L 51.339956 65.900877 
L 52.407363 65.659663 
L 53.474771 65.642364 
L 54.542178 65.828176 
L 55.965388 66.352589 
L 57.388599 67.142585 
L 59.167611 68.423688 
L 61.302426 70.278289 
L 63.793044 72.754413 
L 66.283661 75.513707 
L 68.774279 78.594346 
L 70.909094 81.558353 
L 73.043909 84.875177 
L 75.534527 89.205991 
L 78.380947 94.657798 
L 84.785392 107.173944 
L 86.920207 110.789404 
L 88.69922 113.418153 
L 90.478232 115.666462 
L 92.257245 117.543383 
L 94.036257 119.089586 
L 95.81527 120.367391 
L 97.950085 121.645849 
L 100.796505 123.09183 
L 104.35453 124.667528 
L 107.20095 125.723227 
L 109.691568 126.417213 
L 112.182186 126.865097 
L 115.740211 127.226241 
L 118.586631 127.604211 
L 120.365644 128.051862 
L 122.144656 128.749789 
L 123.923669 129.736072 
L 125.702681 131.005495 
L 127.837496 132.825046 
L 132.818731 137.265656 
L 134.241942 138.254065 
L 135.665152 138.98701 
L 136.732559 139.335567 
L 137.799967 139.492397 
L 138.867374 139.446607 
L 139.934782 139.19378 
L 141.002189 138.736003 
L 142.425399 137.822312 
L 143.848609 136.596179 
L 145.627622 134.704707 
L 147.762437 132.079498 
L 153.099475 125.365393 
L 154.878487 123.502514 
L 156.6575 121.949624 
L 158.436513 120.71359 
L 160.215525 119.753075 
L 162.706143 118.704367 
L 165.908365 117.375672 
L 167.687378 116.405724 
L 169.46639 115.157049 
L 171.245403 113.602262 
L 173.380218 111.394223 
L 178.005651 106.443167 
L 179.428861 105.305245 
L 180.496268 104.69693 
L 181.563676 104.346015 
L 182.631083 104.286696 
L 183.698491 104.543078 
L 184.765899 105.127412 
L 185.833306 106.038915 
L 186.900714 107.263249 
L 188.323924 109.332526 
L 189.747134 111.80717 
L 192.237751 116.698754 
L 195.084171 122.186255 
L 196.507382 124.486329 
L 197.574789 125.890672 
L 198.642197 126.959931 
L 199.709604 127.650468 
L 200.421209 127.883844 
L 201.132814 127.92736 
L 201.844419 127.776546 
L 202.556024 127.429354 
L 203.267629 126.886053 
L 204.335037 125.709581 
L 205.402444 124.115971 
L 206.469852 122.133385 
L 207.893062 118.950645 
L 209.672075 114.264076 
L 212.162692 106.847614 
L 215.364915 96.99449 
L 215.364915 96.99449 
" clip-path="url(#p6b49d9d103)" style="fill: none; stroke: #000000; stroke-opacity: 0.5; stroke-width: 1.5; stroke-linecap: square"/>
   </g>
   <g id="line2d_15">
    <path d="M 37.81946 99.785812 
L 39.598473 91.772229 
L 41.733288 80.979614 
L 45.647116 59.613516 
L 48.493536 44.568968 
L 50.628351 34.517997 
L 52.051561 28.690556 
L 53.474771 23.705938 
L 54.542178 20.57812 
L 55.609586 18.006422 
L 56.676993 16.009491 
L 57.744401 14.59574 
L 58.456006 13.976708 
L 59.167611 13.61314 
L 59.879216 13.5 
L 60.590821 13.630358 
L 61.302426 13.995505 
L 62.014031 14.58506 
L 63.081439 15.863757 
L 64.148846 17.574519 
L 65.216254 19.666121 
L 66.639464 22.951661 
L 68.418476 27.665136 
L 71.264897 35.996795 
L 75.890329 49.596686 
L 78.380947 56.239009 
L 80.515762 61.391406 
L 82.650577 66.013415 
L 84.785392 70.079577 
L 86.564405 73.004203 
L 87.987615 75.001433 
L 89.410825 76.654209 
L 90.834035 77.921402 
L 91.901442 78.594759 
L 92.96885 79.014819 
L 94.036257 79.171642 
L 95.103665 79.060766 
L 96.171073 78.684474 
L 97.23848 78.052684 
L 98.305888 77.183451 
L 99.729098 75.701634 
L 101.50811 73.451558 
L 107.556753 65.356443 
L 108.979963 64.01376 
L 110.047371 63.27097 
L 111.114778 62.779942 
L 112.182186 62.552913 
L 113.249593 62.592171 
L 114.317001 62.890354 
L 115.384408 63.431254 
L 116.451816 64.191064 
L 117.875026 65.492394 
L 119.654038 67.465976 
L 122.856261 71.484209 
L 126.058484 75.403099 
L 128.193299 77.709592 
L 130.328114 79.716862 
L 132.462929 81.446495 
L 134.953547 83.174951 
L 137.444164 84.646334 
L 139.934782 85.86721 
L 142.069597 86.679588 
L 143.848609 87.156754 
L 145.627622 87.425258 
L 147.406635 87.467781 
L 149.185647 87.27737 
L 150.96466 86.856215 
L 152.743672 86.211279 
L 154.522685 85.348353 
L 156.301697 84.266596 
L 158.08071 82.955479 
L 159.859723 81.395508 
L 161.638735 79.563066 
L 163.417748 77.438537 
L 165.552563 74.497012 
L 167.687378 71.163618 
L 170.889601 65.664901 
L 174.803428 58.972067 
L 176.582441 56.311158 
L 178.005651 54.489889 
L 179.428861 53.00934 
L 180.496268 52.152522 
L 181.563676 51.530113 
L 182.631083 51.151543 
L 183.698491 51.020422 
L 184.765899 51.134519 
L 185.833306 51.485886 
L 186.900714 52.061182 
L 188.323924 53.144467 
L 189.747134 54.538494 
L 191.526146 56.619224 
L 194.016764 59.914042 
L 198.286394 65.609423 
L 200.421209 68.08245 
L 202.200222 69.83631 
L 203.979234 71.28676 
L 205.758247 72.44514 
L 207.537259 73.351339 
L 209.672075 74.195059 
L 215.364915 76.174108 
L 215.364915 76.174108 
" clip-path="url(#p6b49d9d103)" style="fill: none; stroke: #000000; stroke-opacity: 0.5; stroke-width: 1.5; stroke-linecap: square"/>
   </g>
   <g id="line2d_16">
    <path d="M 37.81946 61.119451 
L 39.598473 65.074465 
L 41.377485 69.57388 
L 43.868103 76.524362 
L 48.493536 89.639501 
L 50.272548 94.01312 
L 51.695758 96.987493 
L 53.118968 99.385491 
L 54.186376 100.758736 
L 55.253783 101.742297 
L 55.965388 102.175062 
L 56.676993 102.427774 
L 57.388599 102.501183 
L 58.100204 102.397896 
L 58.811809 102.122352 
L 59.879216 101.399913 
L 60.946624 100.331303 
L 62.014031 98.950585 
L 63.437241 96.693176 
L 65.216254 93.351041 
L 67.706871 88.094485 
L 71.620699 79.763338 
L 73.755514 75.771283 
L 75.534527 72.951399 
L 76.957737 71.079885 
L 78.380947 69.565455 
L 79.804157 68.401292 
L 81.227367 67.561467 
L 82.650577 67.002687 
L 84.073787 66.666963 
L 86.208602 66.428916 
L 89.766627 66.110574 
L 91.54564 65.701266 
L 92.96885 65.158086 
L 94.39206 64.388922 
L 95.81527 63.380811 
L 97.594283 61.792551 
L 99.373295 59.879763 
L 101.50811 57.255252 
L 105.77774 51.528532 
L 108.624161 47.883903 
L 110.758976 45.510086 
L 112.537988 43.896901 
L 113.961198 42.916376 
L 115.028606 42.397048 
L 116.096013 42.088997 
L 117.163421 42.015772 
L 118.230828 42.200223 
L 119.298236 42.663527 
L 120.365644 43.424071 
L 121.433051 44.496223 
L 122.500459 45.889142 
L 123.567866 47.605659 
L 124.991076 50.388935 
L 126.414286 53.706158 
L 128.193299 58.51214 
L 130.328114 65.018246 
L 137.444164 87.528039 
L 139.223177 92.162039 
L 140.646387 95.348417 
L 142.069597 98.031279 
L 143.492807 100.200582 
L 144.560214 101.497729 
L 145.627622 102.525933 
L 146.69503 103.302881 
L 147.762437 103.84981 
L 148.829845 104.190024 
L 150.253055 104.363701 
L 151.676265 104.26803 
L 153.099475 103.952569 
L 154.878487 103.310096 
L 156.6575 102.442679 
L 158.792315 101.144672 
L 160.92713 99.575125 
L 163.061945 97.723209 
L 165.19676 95.585993 
L 167.687378 92.782977 
L 173.024416 86.602275 
L 174.803428 84.96423 
L 176.226638 83.995653 
L 177.294046 83.524028 
L 178.361453 83.306089 
L 179.428861 83.368202 
L 180.496268 83.730262 
L 181.563676 84.404556 
L 182.631083 85.39488 
L 183.698491 86.696115 
L 185.121701 88.888937 
L 186.544911 91.550723 
L 188.323924 95.410412 
L 190.814541 101.435298 
L 194.728369 110.922545 
L 196.507382 114.662935 
L 197.930592 117.197522 
L 199.353802 119.231704 
L 200.421209 120.386716 
L 201.488617 121.198048 
L 202.556024 121.64806 
L 203.267629 121.74102 
L 203.979234 121.665406 
L 204.690839 121.419844 
L 205.402444 121.00392 
L 206.469852 120.062071 
L 207.537259 118.744113 
L 208.604667 117.060343 
L 210.027877 114.272081 
L 211.451087 110.905611 
L 213.2301 105.972906 
L 215.009112 100.361478 
L 215.364915 99.171024 
L 215.364915 99.171024 
" clip-path="url(#p6b49d9d103)" style="fill: none; stroke: #000000; stroke-opacity: 0.5; stroke-width: 1.5; stroke-linecap: square"/>
   </g>
   <g id="line2d_17">
    <path d="M 37.81946 71.4249 
L 215.364915 71.4249 
L 215.364915 71.4249 
" clip-path="url(#p6b49d9d103)" style="fill: none; stroke: #1f77b4; stroke-width: 2; stroke-linecap: square"/>
   </g>
   <g id="patch_3">
    <path d="M 28.942188 145.8 
L 28.942188 7.2 
" style="fill: none; stroke: #000000; stroke-width: 0.8; stroke-linejoin: miter; stroke-linecap: square"/>
   </g>
   <g id="patch_4">
    <path d="M 224.242188 145.8 
L 224.242188 7.2 
" style="fill: none; stroke: #000000; stroke-width: 0.8; stroke-linejoin: miter; stroke-linecap: square"/>
   </g>
   <g id="patch_5">
    <path d="M 28.942187 145.8 
L 224.242188 145.8 
" style="fill: none; stroke: #000000; stroke-width: 0.8; stroke-linejoin: miter; stroke-linecap: square"/>
   </g>
   <g id="patch_6">
    <path d="M 28.942187 7.2 
L 224.242188 7.2 
" style="fill: none; stroke: #000000; stroke-width: 0.8; stroke-linejoin: miter; stroke-linecap: square"/>
   </g>
  </g>
 </g>
 <defs>
  <clipPath id="p6b49d9d103">
   <rect x="28.942188" y="7.2" width="195.3" height="138.6"/>
  </clipPath>
 </defs>
</svg>
