<?xml version="1.0" encoding="utf-8" standalone="no"?>
<!DOCTYPE svg PUBLIC "-//W3C//DTD SVG 1.1//EN"
  "http://www.w3.org/Graphics/SVG/1.1/DTD/svg11.dtd">
<svg xmlns:xlink="http://www.w3.org/1999/xlink" width="261.160937pt" height="193.034375pt" viewBox="0 0 261.160937 193.034375" xmlns="http://www.w3.org/2000/svg" version="1.1">
 <metadata>
  <rdf:RDF xmlns:dc="http://purl.org/dc/elements/1.1/" xmlns:cc="http://creativecommons.org/ns#" xmlns:rdf="http://www.w3.org/1999/02/22-rdf-syntax-ns#">
   <cc:Work>
    <dc:type rdf:resource="http://purl.org/dc/dcmitype/StillImage"/>
    <dc:date>2025-08-11T14:38:39.905193</dc:date>
    <dc:format>image/svg+xml</dc:format>
    <dc:creator>
     <cc:Agent>
      <dc:title>Matplotlib v3.7.2, https://matplotlib.org/</dc:title>
     </cc:Agent>
    </dc:creator>
   </cc:Work>
  </rdf:RDF>
 </metadata>
 <defs>
  <style type="text/css">*{stroke-linejoin: round; stroke-linecap: butt}</style>
 </defs>
 <g id="figure_1">
  <g id="patch_1">
   <path d="M 0 193.034375 
L 261.160937 193.034375 
L 261.160937 0 
L 0 0 
z
" style="fill: #ffffff"/>
  </g>
  <g id="axes_1">
   <g id="patch_2">
    <path d="M 58.660938 145.8 
L 253.960938 145.8 
L 253.960938 7.2 
L 58.660938 7.2 
z
" style="fill: #ffffff"/>
   </g>
   <g id="PolyCollection_1">
    <path d="M 67.53821 27.970282 
L 67.53821 127.376678 
L 71.161587 125.427597 
L 74.784963 123.481974 
L 78.40834 121.54027 
L 82.031717 119.603029 
L 85.655093 117.670899 
L 89.27847 115.744659 
L 92.901847 113.82525 
L 96.525223 111.913822 
L 100.1486 110.011788 
L 103.771976 108.120911 
L 107.395353 106.243404 
L 111.01873 104.382089 
L 114.642106 102.5406 
L 118.265483 100.723691 
L 121.88886 98.937663 
L 125.512236 97.190995 
L 129.135613 95.495263 
L 132.758989 93.866479 
L 136.382366 92.326984 
L 140.005743 90.907972 
L 143.629119 89.65234 
L 147.252496 88.616471 
L 150.875873 87.867581 
L 154.499249 87.471696 
L 158.122626 87.471696 
L 161.746002 87.867581 
L 165.369379 88.616471 
L 168.992756 89.65234 
L 172.616132 90.907972 
L 176.239509 92.326984 
L 179.862886 93.866479 
L 183.486262 95.495263 
L 187.109639 97.190995 
L 190.733015 98.937663 
L 194.356392 100.723691 
L 197.979769 102.5406 
L 201.603145 104.382089 
L 205.226522 106.243404 
L 208.849899 108.120911 
L 212.473275 110.011788 
L 216.096652 111.913822 
L 219.720028 113.82525 
L 223.343405 115.744659 
L 226.966782 117.670899 
L 230.590158 119.603029 
L 234.213535 121.54027 
L 237.836912 123.481974 
L 241.460288 125.427597 
L 245.083665 127.376678 
L 245.083665 27.970282 
L 245.083665 27.970282 
L 241.460288 29.919364 
L 237.836912 31.864986 
L 234.213535 33.806691 
L 230.590158 35.743932 
L 226.966782 37.676062 
L 223.343405 39.602301 
L 219.720028 41.52171 
L 216.096652 43.433139 
L 212.473275 45.335172 
L 208.849899 47.22605 
L 205.226522 49.103556 
L 201.603145 50.964872 
L 197.979769 52.80636 
L 194.356392 54.62327 
L 190.733015 56.409298 
L 187.109639 58.155966 
L 183.486262 59.851697 
L 179.862886 61.480481 
L 176.239509 63.019977 
L 172.616132 64.438988 
L 168.992756 65.694621 
L 165.369379 66.730489 
L 161.746002 67.479379 
L 158.122626 67.875265 
L 154.499249 67.875265 
L 150.875873 67.479379 
L 147.252496 66.730489 
L 143.629119 65.694621 
L 140.005743 64.438988 
L 136.382366 63.019977 
L 132.758989 61.480481 
L 129.135613 59.851697 
L 125.512236 58.155966 
L 121.88886 56.409298 
L 118.265483 54.62327 
L 114.642106 52.80636 
L 111.01873 50.964872 
L 107.395353 49.103556 
L 103.771976 47.22605 
L 100.1486 45.335172 
L 96.525223 43.433139 
L 92.901847 41.52171 
L 89.27847 39.602301 
L 85.655093 37.676062 
L 82.031717 35.743932 
L 78.40834 33.806691 
L 74.784963 31.864986 
L 71.161587 29.919364 
L 67.53821 27.970282 
z
" clip-path="url(#pfbecc4ac96)" style="fill: #1f77b4; fill-opacity: 0.25"/>
   </g>
   <g id="matplotlib.axis_1">
    <g id="xtick_1">
     <g id="line2d_1">
      <defs>
       <path id="m7c3a3305e0" d="M 0 0 
L 0 3.5 
" style="stroke: #000000; stroke-width: 0.8"/>
      </defs>
      <g>
       <use xlink:href="#m7c3a3305e0" x="85.292756" y="145.8" style="stroke: #000000; stroke-width: 0.8"/>
      </g>
     </g>
     <g id="text_1">
      <!-- −4 -->
      <g transform="translate(77.921662 160.398438) scale(0.1 -0.1)">
       <defs>
        <path id="DejaVuSans-2212" d="M 678 2272 
L 4684 2272 
L 4684 1741 
L 678 1741 
L 678 2272 
z
" transform="scale(0.015625)"/>
        <path id="DejaVuSans-34" d="M 2419 4116 
L 825 1625 
L 2419 1625 
L 2419 4116 
z
M 2253 4666 
L 3047 4666 
L 3047 1625 
L 3713 1625 
L 3713 1100 
L 3047 1100 
L 3047 0 
L 2419 0 
L 2419 1100 
L 313 1100 
L 313 1709 
L 2253 4666 
z
" transform="scale(0.015625)"/>
       </defs>
       <use xlink:href="#DejaVuSans-2212"/>
       <use xlink:href="#DejaVuSans-34" x="83.789062"/>
      </g>
     </g>
    </g>
    <g id="xtick_2">
     <g id="line2d_2">
      <g>
       <use xlink:href="#m7c3a3305e0" x="120.801847" y="145.8" style="stroke: #000000; stroke-width: 0.8"/>
      </g>
     </g>
     <g id="text_2">
      <!-- −2 -->
      <g transform="translate(113.430753 160.398438) scale(0.1 -0.1)">
       <defs>
        <path id="DejaVuSans-32" d="M 1228 531 
L 3431 531 
L 3431 0 
L 469 0 
L 469 531 
Q 828 903 1448 1529 
Q 2069 2156 2228 2338 
Q 2531 2678 2651 2914 
Q 2772 3150 2772 3378 
Q 2772 3750 2511 3984 
Q 2250 4219 1831 4219 
Q 1534 4219 1204 4116 
Q 875 4013 500 3803 
L 500 4441 
Q 881 4594 1212 4672 
Q 1544 4750 1819 4750 
Q 2544 4750 2975 4387 
Q 3406 4025 3406 3419 
Q 3406 3131 3298 2873 
Q 3191 2616 2906 2266 
Q 2828 2175 2409 1742 
Q 1991 1309 1228 531 
z
" transform="scale(0.015625)"/>
       </defs>
       <use xlink:href="#DejaVuSans-2212"/>
       <use xlink:href="#DejaVuSans-32" x="83.789062"/>
      </g>
     </g>
    </g>
    <g id="xtick_3">
     <g id="line2d_3">
      <g>
       <use xlink:href="#m7c3a3305e0" x="156.310938" y="145.8" style="stroke: #000000; stroke-width: 0.8"/>
      </g>
     </g>
     <g id="text_3">
      <!-- 0 -->
      <g transform="translate(153.129688 160.398438) scale(0.1 -0.1)">
       <defs>
        <path id="DejaVuSans-30" d="M 2034 4250 
Q 1547 4250 1301 3770 
Q 1056 3291 1056 2328 
Q 1056 1369 1301 889 
Q 1547 409 2034 409 
Q 2525 409 2770 889 
Q 3016 1369 3016 2328 
Q 3016 3291 2770 3770 
Q 2525 4250 2034 4250 
z
M 2034 4750 
Q 2819 4750 3233 4129 
Q 3647 3509 3647 2328 
Q 3647 1150 3233 529 
Q 2819 -91 2034 -91 
Q 1250 -91 836 529 
Q 422 1150 422 2328 
Q 422 3509 836 4129 
Q 1250 4750 2034 4750 
z
" transform="scale(0.015625)"/>
       </defs>
       <use xlink:href="#DejaVuSans-30"/>
      </g>
     </g>
    </g>
    <g id="xtick_4">
     <g id="line2d_4">
      <g>
       <use xlink:href="#m7c3a3305e0" x="191.820028" y="145.8" style="stroke: #000000; stroke-width: 0.8"/>
      </g>
     </g>
     <g id="text_4">
      <!-- 2 -->
      <g transform="translate(188.638778 160.398438) scale(0.1 -0.1)">
       <use xlink:href="#DejaVuSans-32"/>
      </g>
     </g>
    </g>
    <g id="xtick_5">
     <g id="line2d_5">
      <g>
       <use xlink:href="#m7c3a3305e0" x="227.329119" y="145.8" style="stroke: #000000; stroke-width: 0.8"/>
      </g>
     </g>
     <g id="text_5">
      <!-- 4 -->
      <g transform="translate(224.147869 160.398438) scale(0.1 -0.1)">
       <use xlink:href="#DejaVuSans-34"/>
      </g>
     </g>
    </g>
    <g id="text_6">
     <!-- x -->
     <g transform="translate(150.392188 181.675) scale(0.2 -0.2)">
      <defs>
       <path id="DejaVuSans-78" d="M 3513 3500 
L 2247 1797 
L 3578 0 
L 2900 0 
L 1881 1375 
L 863 0 
L 184 0 
L 1544 1831 
L 300 3500 
L 978 3500 
L 1906 2253 
L 2834 3500 
L 3513 3500 
z
" transform="scale(0.015625)"/>
      </defs>
      <use xlink:href="#DejaVuSans-78"/>
     </g>
    </g>
   </g>
   <g id="matplotlib.axis_2">
    <g id="ytick_1">
     <g id="line2d_6">
      <defs>
       <path id="m1d52269d5a" d="M 0 0 
L -3.5 0 
" style="stroke: #000000; stroke-width: 0.8"/>
      </defs>
      <g>
       <use xlink:href="#m1d52269d5a" x="58.660938" y="126.411476" style="stroke: #000000; stroke-width: 0.8"/>
      </g>
     </g>
     <g id="text_7">
      <!-- −10 -->
      <g transform="translate(30.55625 130.210694) scale(0.1 -0.1)">
       <defs>
        <path id="DejaVuSans-31" d="M 794 531 
L 1825 531 
L 1825 4091 
L 703 3866 
L 703 4441 
L 1819 4666 
L 2450 4666 
L 2450 531 
L 3481 531 
L 3481 0 
L 794 0 
L 794 531 
z
" transform="scale(0.015625)"/>
       </defs>
       <use xlink:href="#DejaVuSans-2212"/>
       <use xlink:href="#DejaVuSans-31" x="83.789062"/>
       <use xlink:href="#DejaVuSans-30" x="147.412109"/>
      </g>
     </g>
    </g>
    <g id="ytick_2">
     <g id="line2d_7">
      <g>
       <use xlink:href="#m1d52269d5a" x="58.660938" y="102.042478" style="stroke: #000000; stroke-width: 0.8"/>
      </g>
     </g>
     <g id="text_8">
      <!-- −5 -->
      <g transform="translate(36.91875 105.841697) scale(0.1 -0.1)">
       <defs>
        <path id="DejaVuSans-35" d="M 691 4666 
L 3169 4666 
L 3169 4134 
L 1269 4134 
L 1269 2991 
Q 1406 3038 1543 3061 
Q 1681 3084 1819 3084 
Q 2600 3084 3056 2656 
Q 3513 2228 3513 1497 
Q 3513 744 3044 326 
Q 2575 -91 1722 -91 
Q 1428 -91 1123 -41 
Q 819 9 494 109 
L 494 744 
Q 775 591 1075 516 
Q 1375 441 1709 441 
Q 2250 441 2565 725 
Q 2881 1009 2881 1497 
Q 2881 1984 2565 2268 
Q 2250 2553 1709 2553 
Q 1456 2553 1204 2497 
Q 953 2441 691 2322 
L 691 4666 
z
" transform="scale(0.015625)"/>
       </defs>
       <use xlink:href="#DejaVuSans-2212"/>
       <use xlink:href="#DejaVuSans-35" x="83.789062"/>
      </g>
     </g>
    </g>
    <g id="ytick_3">
     <g id="line2d_8">
      <g>
       <use xlink:href="#m1d52269d5a" x="58.660938" y="77.67348" style="stroke: #000000; stroke-width: 0.8"/>
      </g>
     </g>
     <g id="text_9">
      <!-- 0 -->
      <g transform="translate(45.298438 81.472699) scale(0.1 -0.1)">
       <use xlink:href="#DejaVuSans-30"/>
      </g>
     </g>
    </g>
    <g id="ytick_4">
     <g id="line2d_9">
      <g>
       <use xlink:href="#m1d52269d5a" x="58.660938" y="53.304483" style="stroke: #000000; stroke-width: 0.8"/>
      </g>
     </g>
     <g id="text_10">
      <!-- 5 -->
      <g transform="translate(45.298438 57.103701) scale(0.1 -0.1)">
       <use xlink:href="#DejaVuSans-35"/>
      </g>
     </g>
    </g>
    <g id="ytick_5">
     <g id="line2d_10">
      <g>
       <use xlink:href="#m1d52269d5a" x="58.660938" y="28.935485" style="stroke: #000000; stroke-width: 0.8"/>
      </g>
     </g>
     <g id="text_11">
      <!-- 10 -->
      <g transform="translate(38.935938 32.734704) scale(0.1 -0.1)">
       <use xlink:href="#DejaVuSans-31"/>
       <use xlink:href="#DejaVuSans-30" x="63.623047"/>
      </g>
     </g>
    </g>
    <g id="text_12">
     <!-- f(x) -->
     <g transform="translate(22.396875 93.742188) rotate(-90) scale(0.2 -0.2)">
      <defs>
       <path id="DejaVuSans-66" d="M 2375 4863 
L 2375 4384 
L 1825 4384 
Q 1516 4384 1395 4259 
Q 1275 4134 1275 3809 
L 1275 3500 
L 2222 3500 
L 2222 3053 
L 1275 3053 
L 1275 0 
L 697 0 
L 697 3053 
L 147 3053 
L 147 3500 
L 697 3500 
L 697 3744 
Q 697 4328 969 4595 
Q 1241 4863 1831 4863 
L 2375 4863 
z
" transform="scale(0.015625)"/>
       <path id="DejaVuSans-28" d="M 1984 4856 
Q 1566 4138 1362 3434 
Q 1159 2731 1159 2009 
Q 1159 1288 1364 580 
Q 1569 -128 1984 -844 
L 1484 -844 
Q 1016 -109 783 600 
Q 550 1309 550 2009 
Q 550 2706 781 3412 
Q 1013 4119 1484 4856 
L 1984 4856 
z
" transform="scale(0.015625)"/>
       <path id="DejaVuSans-29" d="M 513 4856 
L 1013 4856 
Q 1481 4119 1714 3412 
Q 1947 2706 1947 2009 
Q 1947 1309 1714 600 
Q 1481 -109 1013 -844 
L 513 -844 
Q 928 -128 1133 580 
Q 1338 1288 1338 2009 
Q 1338 2731 1133 3434 
Q 928 4138 513 4856 
z
" transform="scale(0.015625)"/>
      </defs>
      <use xlink:href="#DejaVuSans-66"/>
      <use xlink:href="#DejaVuSans-28" x="35.205078"/>
      <use xlink:href="#DejaVuSans-78" x="74.21875"/>
      <use xlink:href="#DejaVuSans-29" x="133.398438"/>
     </g>
    </g>
   </g>
   <g id="line2d_11">
    <path d="M 67.53821 77.67348 
L 71.161587 77.67348 
L 74.784963 77.67348 
L 78.40834 77.67348 
L 82.031717 77.67348 
L 85.655093 77.67348 
L 89.27847 77.67348 
L 92.901847 77.67348 
L 96.525223 77.67348 
L 100.1486 77.67348 
L 103.771976 77.67348 
L 107.395353 77.67348 
L 111.01873 77.67348 
L 114.642106 77.67348 
L 118.265483 77.67348 
L 121.88886 77.67348 
L 125.512236 77.67348 
L 129.135613 77.67348 
L 132.758989 77.67348 
L 136.382366 77.67348 
L 140.005743 77.67348 
L 143.629119 77.67348 
L 147.252496 77.67348 
L 150.875873 77.67348 
L 154.499249 77.67348 
L 158.122626 77.67348 
L 161.746002 77.67348 
L 165.369379 77.67348 
L 168.992756 77.67348 
L 172.616132 77.67348 
L 176.239509 77.67348 
L 179.862886 77.67348 
L 183.486262 77.67348 
L 187.109639 77.67348 
L 190.733015 77.67348 
L 194.356392 77.67348 
L 197.979769 77.67348 
L 201.603145 77.67348 
L 205.226522 77.67348 
L 208.849899 77.67348 
L 212.473275 77.67348 
L 216.096652 77.67348 
L 219.720028 77.67348 
L 223.343405 77.67348 
L 226.966782 77.67348 
L 230.590158 77.67348 
L 234.213535 77.67348 
L 237.836912 77.67348 
L 241.460288 77.67348 
L 245.083665 77.67348 
" clip-path="url(#pfbecc4ac96)" style="fill: none; stroke: #000000; stroke-width: 4; stroke-linecap: square"/>
   </g>
   <g id="line2d_12">
    <path d="M 67.53821 136.80535 
L 71.161587 134.614636 
L 74.784963 132.423921 
L 78.40834 130.233207 
L 82.031717 128.042493 
L 85.655093 125.851778 
L 89.27847 123.661064 
L 92.901847 121.470349 
L 96.525223 119.279635 
L 100.1486 117.08892 
L 103.771976 114.898206 
L 107.395353 112.707492 
L 111.01873 110.516777 
L 114.642106 108.326063 
L 118.265483 106.135348 
L 121.88886 103.944634 
L 125.512236 101.753919 
L 129.135613 99.563205 
L 132.758989 97.37249 
L 136.382366 95.181776 
L 140.005743 92.991062 
L 143.629119 90.800347 
L 147.252496 88.609633 
L 150.875873 86.418918 
L 154.499249 84.228204 
L 158.122626 82.037489 
L 161.746002 79.846775 
L 165.369379 77.656061 
L 168.992756 75.465346 
L 172.616132 73.274632 
L 176.239509 71.083917 
L 179.862886 68.893203 
L 183.486262 66.702488 
L 187.109639 64.511774 
L 190.733015 62.32106 
L 194.356392 60.130345 
L 197.979769 57.939631 
L 201.603145 55.748916 
L 205.226522 53.558202 
L 208.849899 51.367487 
L 212.473275 49.176773 
L 216.096652 46.986059 
L 219.720028 44.795344 
L 223.343405 42.60463 
L 226.966782 40.413915 
L 230.590158 38.223201 
L 234.213535 36.032486 
L 237.836912 33.841772 
L 241.460288 31.651057 
L 245.083665 29.460343 
" clip-path="url(#pfbecc4ac96)" style="fill: none; stroke: #1f77b4; stroke-width: 1.5; stroke-linecap: square"/>
   </g>
   <g id="line2d_13">
    <path d="M 67.53821 93.419649 
L 71.161587 92.720868 
L 74.784963 92.022087 
L 78.40834 91.323307 
L 82.031717 90.624526 
L 85.655093 89.925745 
L 89.27847 89.226964 
L 92.901847 88.528183 
L 96.525223 87.829402 
L 100.1486 87.130622 
L 103.771976 86.431841 
L 107.395353 85.73306 
L 111.01873 85.034279 
L 114.642106 84.335498 
L 118.265483 83.636717 
L 121.88886 82.937937 
L 125.512236 82.239156 
L 129.135613 81.540375 
L 132.758989 80.841594 
L 136.382366 80.142813 
L 140.005743 79.444032 
L 143.629119 78.745251 
L 147.252496 78.046471 
L 150.875873 77.34769 
L 154.499249 76.648909 
L 158.122626 75.950128 
L 161.746002 75.251347 
L 165.369379 74.552566 
L 168.992756 73.853786 
L 172.616132 73.155005 
L 176.239509 72.456224 
L 179.862886 71.757443 
L 183.486262 71.058662 
L 187.109639 70.359881 
L 190.733015 69.661101 
L 194.356392 68.96232 
L 197.979769 68.263539 
L 201.603145 67.564758 
L 205.226522 66.865977 
L 208.849899 66.167196 
L 212.473275 65.468416 
L 216.096652 64.769635 
L 219.720028 64.070854 
L 223.343405 63.372073 
L 226.966782 62.673292 
L 230.590158 61.974511 
L 234.213535 61.27573 
L 237.836912 60.57695 
L 241.460288 59.878169 
L 245.083665 59.179388 
" clip-path="url(#pfbecc4ac96)" style="fill: none; stroke: #ff7f0e; stroke-width: 1.5; stroke-linecap: square"/>
   </g>
   <g id="line2d_14">
    <path d="M 67.53821 117.308545 
L 71.161587 115.575332 
L 74.784963 113.842119 
L 78.40834 112.108906 
L 82.031717 110.375693 
L 85.655093 108.642481 
L 89.27847 106.909268 
L 92.901847 105.176055 
L 96.525223 103.442842 
L 100.1486 101.709629 
L 103.771976 99.976417 
L 107.395353 98.243204 
L 111.01873 96.509991 
L 114.642106 94.776778 
L 118.265483 93.043565 
L 121.88886 91.310353 
L 125.512236 89.57714 
L 129.135613 87.843927 
L 132.758989 86.110714 
L 136.382366 84.377501 
L 140.005743 82.644289 
L 143.629119 80.911076 
L 147.252496 79.177863 
L 150.875873 77.44465 
L 154.499249 75.711437 
L 158.122626 73.978225 
L 161.746002 72.245012 
L 165.369379 70.511799 
L 168.992756 68.778586 
L 172.616132 67.045373 
L 176.239509 65.312161 
L 179.862886 63.578948 
L 183.486262 61.845735 
L 187.109639 60.112522 
L 190.733015 58.379309 
L 194.356392 56.646097 
L 197.979769 54.912884 
L 201.603145 53.179671 
L 205.226522 51.446458 
L 208.849899 49.713245 
L 212.473275 47.980033 
L 216.096652 46.24682 
L 219.720028 44.513607 
L 223.343405 42.780394 
L 226.966782 41.047181 
L 230.590158 39.313969 
L 234.213535 37.580756 
L 237.836912 35.847543 
L 241.460288 34.11433 
L 245.083665 32.381117 
" clip-path="url(#pfbecc4ac96)" style="fill: none; stroke: #2ca02c; stroke-width: 1.5; stroke-linecap: square"/>
   </g>
   <g id="line2d_15">
    <path d="M 67.53821 85.848884 
L 71.161587 85.501018 
L 74.784963 85.153153 
L 78.40834 84.805287 
L 82.031717 84.457421 
L 85.655093 84.109556 
L 89.27847 83.76169 
L 92.901847 83.413824 
L 96.525223 83.065959 
L 100.1486 82.718093 
L 103.771976 82.370228 
L 107.395353 82.022362 
L 111.01873 81.674496 
L 114.642106 81.326631 
L 118.265483 80.978765 
L 121.88886 80.630899 
L 125.512236 80.283034 
L 129.135613 79.935168 
L 132.758989 79.587302 
L 136.382366 79.239437 
L 140.005743 78.891571 
L 143.629119 78.543705 
L 147.252496 78.19584 
L 150.875873 77.847974 
L 154.499249 77.500108 
L 158.122626 77.152243 
L 161.746002 76.804377 
L 165.369379 76.456511 
L 168.992756 76.108646 
L 172.616132 75.76078 
L 176.239509 75.412915 
L 179.862886 75.065049 
L 183.486262 74.717183 
L 187.109639 74.369318 
L 190.733015 74.021452 
L 194.356392 73.673586 
L 197.979769 73.325721 
L 201.603145 72.977855 
L 205.226522 72.629989 
L 208.849899 72.282124 
L 212.473275 71.934258 
L 216.096652 71.586392 
L 219.720028 71.238527 
L 223.343405 70.890661 
L 226.966782 70.542795 
L 230.590158 70.19493 
L 234.213535 69.847064 
L 237.836912 69.499199 
L 241.460288 69.151333 
L 245.083665 68.803467 
" clip-path="url(#pfbecc4ac96)" style="fill: none; stroke: #d62728; stroke-width: 1.5; stroke-linecap: square"/>
   </g>
   <g id="line2d_16">
    <path d="M 67.53821 139.090245 
L 71.161587 136.527179 
L 74.784963 133.964112 
L 78.40834 131.401046 
L 82.031717 128.83798 
L 85.655093 126.274914 
L 89.27847 123.711848 
L 92.901847 121.148781 
L 96.525223 118.585715 
L 100.1486 116.022649 
L 103.771976 113.459583 
L 107.395353 110.896516 
L 111.01873 108.33345 
L 114.642106 105.770384 
L 118.265483 103.207318 
L 121.88886 100.644252 
L 125.512236 98.081185 
L 129.135613 95.518119 
L 132.758989 92.955053 
L 136.382366 90.391987 
L 140.005743 87.82892 
L 143.629119 85.265854 
L 147.252496 82.702788 
L 150.875873 80.139722 
L 154.499249 77.576656 
L 158.122626 75.013589 
L 161.746002 72.450523 
L 165.369379 69.887457 
L 168.992756 67.324391 
L 172.616132 64.761324 
L 176.239509 62.198258 
L 179.862886 59.635192 
L 183.486262 57.072126 
L 187.109639 54.50906 
L 190.733015 51.945993 
L 194.356392 49.382927 
L 197.979769 46.819861 
L 201.603145 44.256795 
L 205.226522 41.693728 
L 208.849899 39.130662 
L 212.473275 36.567596 
L 216.096652 34.00453 
L 219.720028 31.441464 
L 223.343405 28.878397 
L 226.966782 26.315331 
L 230.590158 23.752265 
L 234.213535 21.189199 
L 237.836912 18.626132 
L 241.460288 16.063066 
L 245.083665 13.5 
" clip-path="url(#pfbecc4ac96)" style="fill: none; stroke: #9467bd; stroke-width: 1.5; stroke-linecap: square"/>
   </g>
   <g id="line2d_17">
    <path d="M 67.53821 93.331956 
L 71.161587 92.892839 
L 74.784963 92.453722 
L 78.40834 92.014605 
L 82.031717 91.575487 
L 85.655093 91.13637 
L 89.27847 90.697253 
L 92.901847 90.258136 
L 96.525223 89.819019 
L 100.1486 89.379901 
L 103.771976 88.940784 
L 107.395353 88.501667 
L 111.01873 88.06255 
L 114.642106 87.623433 
L 118.265483 87.184315 
L 121.88886 86.745198 
L 125.512236 86.306081 
L 129.135613 85.866964 
L 132.758989 85.427846 
L 136.382366 84.988729 
L 140.005743 84.549612 
L 143.629119 84.110495 
L 147.252496 83.671378 
L 150.875873 83.23226 
L 154.499249 82.793143 
L 158.122626 82.354026 
L 161.746002 81.914909 
L 165.369379 81.475791 
L 168.992756 81.036674 
L 172.616132 80.597557 
L 176.239509 80.15844 
L 179.862886 79.719323 
L 183.486262 79.280205 
L 187.109639 78.841088 
L 190.733015 78.401971 
L 194.356392 77.962854 
L 197.979769 77.523737 
L 201.603145 77.084619 
L 205.226522 76.645502 
L 208.849899 76.206385 
L 212.473275 75.767268 
L 216.096652 75.32815 
L 219.720028 74.889033 
L 223.343405 74.449916 
L 226.966782 74.010799 
L 230.590158 73.571682 
L 234.213535 73.132564 
L 237.836912 72.693447 
L 241.460288 72.25433 
L 245.083665 71.815213 
" clip-path="url(#pfbecc4ac96)" style="fill: none; stroke: #8c564b; stroke-width: 1.5; stroke-linecap: square"/>
   </g>
   <g id="line2d_18">
    <path d="M 67.53821 84.804794 
L 71.161587 84.409233 
L 74.784963 84.013671 
L 78.40834 83.61811 
L 82.031717 83.222549 
L 85.655093 82.826987 
L 89.27847 82.431426 
L 92.901847 82.035865 
L 96.525223 81.640303 
L 100.1486 81.244742 
L 103.771976 80.849181 
L 107.395353 80.453619 
L 111.01873 80.058058 
L 114.642106 79.662497 
L 118.265483 79.266935 
L 121.88886 78.871374 
L 125.512236 78.475813 
L 129.135613 78.080251 
L 132.758989 77.68469 
L 136.382366 77.289129 
L 140.005743 76.893567 
L 143.629119 76.498006 
L 147.252496 76.102445 
L 150.875873 75.706883 
L 154.499249 75.311322 
L 158.122626 74.915761 
L 161.746002 74.520199 
L 165.369379 74.124638 
L 168.992756 73.729077 
L 172.616132 73.333515 
L 176.239509 72.937954 
L 179.862886 72.542393 
L 183.486262 72.146831 
L 187.109639 71.75127 
L 190.733015 71.355709 
L 194.356392 70.960147 
L 197.979769 70.564586 
L 201.603145 70.169025 
L 205.226522 69.773463 
L 208.849899 69.377902 
L 212.473275 68.982341 
L 216.096652 68.586779 
L 219.720028 68.191218 
L 223.343405 67.795656 
L 226.966782 67.400095 
L 230.590158 67.004534 
L 234.213535 66.608972 
L 237.836912 66.213411 
L 241.460288 65.81785 
L 245.083665 65.422288 
" clip-path="url(#pfbecc4ac96)" style="fill: none; stroke: #e377c2; stroke-width: 1.5; stroke-linecap: square"/>
   </g>
   <g id="line2d_19">
    <path d="M 67.53821 51.344413 
L 71.161587 52.432524 
L 74.784963 53.520635 
L 78.40834 54.608746 
L 82.031717 55.696857 
L 85.655093 56.784967 
L 89.27847 57.873078 
L 92.901847 58.961189 
L 96.525223 60.0493 
L 100.1486 61.137411 
L 103.771976 62.225521 
L 107.395353 63.313632 
L 111.01873 64.401743 
L 114.642106 65.489854 
L 118.265483 66.577965 
L 121.88886 67.666076 
L 125.512236 68.754186 
L 129.135613 69.842297 
L 132.758989 70.930408 
L 136.382366 72.018519 
L 140.005743 73.10663 
L 143.629119 74.19474 
L 147.252496 75.282851 
L 150.875873 76.370962 
L 154.499249 77.459073 
L 158.122626 78.547184 
L 161.746002 79.635294 
L 165.369379 80.723405 
L 168.992756 81.811516 
L 172.616132 82.899627 
L 176.239509 83.987738 
L 179.862886 85.075848 
L 183.486262 86.163959 
L 187.109639 87.25207 
L 190.733015 88.340181 
L 194.356392 89.428292 
L 197.979769 90.516403 
L 201.603145 91.604513 
L 205.226522 92.692624 
L 208.849899 93.780735 
L 212.473275 94.868846 
L 216.096652 95.956957 
L 219.720028 97.045067 
L 223.343405 98.133178 
L 226.966782 99.221289 
L 230.590158 100.3094 
L 234.213535 101.397511 
L 237.836912 102.485621 
L 241.460288 103.573732 
L 245.083665 104.661843 
" clip-path="url(#pfbecc4ac96)" style="fill: none; stroke: #7f7f7f; stroke-width: 1.5; stroke-linecap: square"/>
   </g>
   <g id="line2d_20">
    <path d="M 67.53821 134.81538 
L 71.161587 132.714793 
L 74.784963 130.614207 
L 78.40834 128.51362 
L 82.031717 126.413034 
L 85.655093 124.312447 
L 89.27847 122.211861 
L 92.901847 120.111274 
L 96.525223 118.010688 
L 100.1486 115.910101 
L 103.771976 113.809515 
L 107.395353 111.708928 
L 111.01873 109.608342 
L 114.642106 107.507755 
L 118.265483 105.407169 
L 121.88886 103.306582 
L 125.512236 101.205996 
L 129.135613 99.105409 
L 132.758989 97.004823 
L 136.382366 94.904236 
L 140.005743 92.80365 
L 143.629119 90.703063 
L 147.252496 88.602477 
L 150.875873 86.50189 
L 154.499249 84.401304 
L 158.122626 82.300717 
L 161.746002 80.200131 
L 165.369379 78.099544 
L 168.992756 75.998958 
L 172.616132 73.898371 
L 176.239509 71.797785 
L 179.862886 69.697198 
L 183.486262 67.596612 
L 187.109639 65.496025 
L 190.733015 63.395439 
L 194.356392 61.294853 
L 197.979769 59.194266 
L 201.603145 57.09368 
L 205.226522 54.993093 
L 208.849899 52.892507 
L 212.473275 50.79192 
L 216.096652 48.691334 
L 219.720028 46.590747 
L 223.343405 44.490161 
L 226.966782 42.389574 
L 230.590158 40.288988 
L 234.213535 38.188401 
L 237.836912 36.087815 
L 241.460288 33.987228 
L 245.083665 31.886642 
" clip-path="url(#pfbecc4ac96)" style="fill: none; stroke: #bcbd22; stroke-width: 1.5; stroke-linecap: square"/>
   </g>
   <g id="line2d_21">
    <path d="M 67.53821 139.5 
L 71.161587 136.978237 
L 74.784963 134.456474 
L 78.40834 131.934711 
L 82.031717 129.412947 
L 85.655093 126.891184 
L 89.27847 124.369421 
L 92.901847 121.847658 
L 96.525223 119.325895 
L 100.1486 116.804132 
L 103.771976 114.282369 
L 107.395353 111.760606 
L 111.01873 109.238842 
L 114.642106 106.717079 
L 118.265483 104.195316 
L 121.88886 101.673553 
L 125.512236 99.15179 
L 129.135613 96.630027 
L 132.758989 94.108264 
L 136.382366 91.5865 
L 140.005743 89.064737 
L 143.629119 86.542974 
L 147.252496 84.021211 
L 150.875873 81.499448 
L 154.499249 78.977685 
L 158.122626 76.455922 
L 161.746002 73.934158 
L 165.369379 71.412395 
L 168.992756 68.890632 
L 172.616132 66.368869 
L 176.239509 63.847106 
L 179.862886 61.325343 
L 183.486262 58.80358 
L 187.109639 56.281817 
L 190.733015 53.760053 
L 194.356392 51.23829 
L 197.979769 48.716527 
L 201.603145 46.194764 
L 205.226522 43.673001 
L 208.849899 41.151238 
L 212.473275 38.629475 
L 216.096652 36.107711 
L 219.720028 33.585948 
L 223.343405 31.064185 
L 226.966782 28.542422 
L 230.590158 26.020659 
L 234.213535 23.498896 
L 237.836912 20.977133 
L 241.460288 18.45537 
L 245.083665 15.933606 
" clip-path="url(#pfbecc4ac96)" style="fill: none; stroke: #17becf; stroke-width: 1.5; stroke-linecap: square"/>
   </g>
   <g id="patch_3">
    <path d="M 58.660938 145.8 
L 58.660938 7.2 
" style="fill: none; stroke: #000000; stroke-width: 0.8; stroke-linejoin: miter; stroke-linecap: square"/>
   </g>
   <g id="patch_4">
    <path d="M 253.960938 145.8 
L 253.960938 7.2 
" style="fill: none; stroke: #000000; stroke-width: 0.8; stroke-linejoin: miter; stroke-linecap: square"/>
   </g>
   <g id="patch_5">
    <path d="M 58.660938 145.8 
L 253.960938 145.8 
" style="fill: none; stroke: #000000; stroke-width: 0.8; stroke-linejoin: miter; stroke-linecap: square"/>
   </g>
   <g id="patch_6">
    <path d="M 58.660938 7.2 
L 253.960938 7.2 
" style="fill: none; stroke: #000000; stroke-width: 0.8; stroke-linejoin: miter; stroke-linecap: square"/>
   </g>
  </g>
 </g>
 <defs>
  <clipPath id="pfbecc4ac96">
   <rect x="58.660938" y="7.2" width="195.3" height="138.6"/>
  </clipPath>
 </defs>
</svg>
