<?xml version="1.0" encoding="utf-8" standalone="no"?>
<!DOCTYPE svg PUBLIC "-//W3C//DTD SVG 1.1//EN"
  "http://www.w3.org/Graphics/SVG/1.1/DTD/svg11.dtd">
<svg xmlns:xlink="http://www.w3.org/1999/xlink" width="394.160937pt" height="211.07625pt" viewBox="0 0 394.160937 211.07625" xmlns="http://www.w3.org/2000/svg" version="1.1">
 <metadata>
  <rdf:RDF xmlns:dc="http://purl.org/dc/elements/1.1/" xmlns:cc="http://creativecommons.org/ns#" xmlns:rdf="http://www.w3.org/1999/02/22-rdf-syntax-ns#">
   <cc:Work>
    <dc:type rdf:resource="http://purl.org/dc/dcmitype/StillImage"/>
    <dc:date>2025-08-11T13:52:30.990056</dc:date>
    <dc:format>image/svg+xml</dc:format>
    <dc:creator>
     <cc:Agent>
      <dc:title>Matplotlib v3.7.2, https://matplotlib.org/</dc:title>
     </cc:Agent>
    </dc:creator>
   </cc:Work>
  </rdf:RDF>
 </metadata>
 <defs>
  <style type="text/css">*{stroke-linejoin: round; stroke-linecap: butt}</style>
 </defs>
 <g id="figure_1">
  <g id="patch_1">
   <path d="M 0 211.07625 
L 394.160937 211.07625 
L 394.160937 0 
L 0 0 
z
" style="fill: #ffffff"/>
  </g>
  <g id="axes_1">
   <g id="patch_2">
    <path d="M 52.160938 173.52 
L 386.960938 173.52 
L 386.960938 7.2 
L 52.160938 7.2 
z
" style="fill: #ffffff"/>
   </g>
   <g id="matplotlib.axis_1">
    <g id="xtick_1">
     <g id="line2d_1">
      <path d="M 65.849654 173.52 
L 65.849654 7.2 
" clip-path="url(#p2b668d2933)" style="fill: none; stroke: #b0b0b0; stroke-width: 0.8; stroke-linecap: square"/>
     </g>
     <g id="line2d_2">
      <defs>
       <path id="m163c0f0737" d="M 0 0 
L 0 3.5 
" style="stroke: #000000; stroke-width: 0.8"/>
      </defs>
      <g>
       <use xlink:href="#m163c0f0737" x="65.849654" y="173.52" style="stroke: #000000; stroke-width: 0.8"/>
      </g>
     </g>
     <g id="text_1">
      <!-- 0 -->
      <g transform="translate(62.668404 188.118438) scale(0.1 -0.1)">
       <defs>
        <path id="DejaVuSans-30" d="M 2034 4250 
Q 1547 4250 1301 3770 
Q 1056 3291 1056 2328 
Q 1056 1369 1301 889 
Q 1547 409 2034 409 
Q 2525 409 2770 889 
Q 3016 1369 3016 2328 
Q 3016 3291 2770 3770 
Q 2525 4250 2034 4250 
z
M 2034 4750 
Q 2819 4750 3233 4129 
Q 3647 3509 3647 2328 
Q 3647 1150 3233 529 
Q 2819 -91 2034 -91 
Q 1250 -91 836 529 
Q 422 1150 422 2328 
Q 422 3509 836 4129 
Q 1250 4750 2034 4750 
z
" transform="scale(0.015625)"/>
       </defs>
       <use xlink:href="#DejaVuSans-30"/>
      </g>
     </g>
    </g>
    <g id="xtick_2">
     <g id="line2d_3">
      <path d="M 127.028274 173.52 
L 127.028274 7.2 
" clip-path="url(#p2b668d2933)" style="fill: none; stroke: #b0b0b0; stroke-width: 0.8; stroke-linecap: square"/>
     </g>
     <g id="line2d_4">
      <g>
       <use xlink:href="#m163c0f0737" x="127.028274" y="173.52" style="stroke: #000000; stroke-width: 0.8"/>
      </g>
     </g>
     <g id="text_2">
      <!-- 200 -->
      <g transform="translate(117.484524 188.118438) scale(0.1 -0.1)">
       <defs>
        <path id="DejaVuSans-32" d="M 1228 531 
L 3431 531 
L 3431 0 
L 469 0 
L 469 531 
Q 828 903 1448 1529 
Q 2069 2156 2228 2338 
Q 2531 2678 2651 2914 
Q 2772 3150 2772 3378 
Q 2772 3750 2511 3984 
Q 2250 4219 1831 4219 
Q 1534 4219 1204 4116 
Q 875 4013 500 3803 
L 500 4441 
Q 881 4594 1212 4672 
Q 1544 4750 1819 4750 
Q 2544 4750 2975 4387 
Q 3406 4025 3406 3419 
Q 3406 3131 3298 2873 
Q 3191 2616 2906 2266 
Q 2828 2175 2409 1742 
Q 1991 1309 1228 531 
z
" transform="scale(0.015625)"/>
       </defs>
       <use xlink:href="#DejaVuSans-32"/>
       <use xlink:href="#DejaVuSans-30" x="63.623047"/>
       <use xlink:href="#DejaVuSans-30" x="127.246094"/>
      </g>
     </g>
    </g>
    <g id="xtick_3">
     <g id="line2d_5">
      <path d="M 188.206895 173.52 
L 188.206895 7.2 
" clip-path="url(#p2b668d2933)" style="fill: none; stroke: #b0b0b0; stroke-width: 0.8; stroke-linecap: square"/>
     </g>
     <g id="line2d_6">
      <g>
       <use xlink:href="#m163c0f0737" x="188.206895" y="173.52" style="stroke: #000000; stroke-width: 0.8"/>
      </g>
     </g>
     <g id="text_3">
      <!-- 400 -->
      <g transform="translate(178.663145 188.118438) scale(0.1 -0.1)">
       <defs>
        <path id="DejaVuSans-34" d="M 2419 4116 
L 825 1625 
L 2419 1625 
L 2419 4116 
z
M 2253 4666 
L 3047 4666 
L 3047 1625 
L 3713 1625 
L 3713 1100 
L 3047 1100 
L 3047 0 
L 2419 0 
L 2419 1100 
L 313 1100 
L 313 1709 
L 2253 4666 
z
" transform="scale(0.015625)"/>
       </defs>
       <use xlink:href="#DejaVuSans-34"/>
       <use xlink:href="#DejaVuSans-30" x="63.623047"/>
       <use xlink:href="#DejaVuSans-30" x="127.246094"/>
      </g>
     </g>
    </g>
    <g id="xtick_4">
     <g id="line2d_7">
      <path d="M 249.385515 173.52 
L 249.385515 7.2 
" clip-path="url(#p2b668d2933)" style="fill: none; stroke: #b0b0b0; stroke-width: 0.8; stroke-linecap: square"/>
     </g>
     <g id="line2d_8">
      <g>
       <use xlink:href="#m163c0f0737" x="249.385515" y="173.52" style="stroke: #000000; stroke-width: 0.8"/>
      </g>
     </g>
     <g id="text_4">
      <!-- 600 -->
      <g transform="translate(239.841765 188.118438) scale(0.1 -0.1)">
       <defs>
        <path id="DejaVuSans-36" d="M 2113 2584 
Q 1688 2584 1439 2293 
Q 1191 2003 1191 1497 
Q 1191 994 1439 701 
Q 1688 409 2113 409 
Q 2538 409 2786 701 
Q 3034 994 3034 1497 
Q 3034 2003 2786 2293 
Q 2538 2584 2113 2584 
z
M 3366 4563 
L 3366 3988 
Q 3128 4100 2886 4159 
Q 2644 4219 2406 4219 
Q 1781 4219 1451 3797 
Q 1122 3375 1075 2522 
Q 1259 2794 1537 2939 
Q 1816 3084 2150 3084 
Q 2853 3084 3261 2657 
Q 3669 2231 3669 1497 
Q 3669 778 3244 343 
Q 2819 -91 2113 -91 
Q 1303 -91 875 529 
Q 447 1150 447 2328 
Q 447 3434 972 4092 
Q 1497 4750 2381 4750 
Q 2619 4750 2861 4703 
Q 3103 4656 3366 4563 
z
" transform="scale(0.015625)"/>
       </defs>
       <use xlink:href="#DejaVuSans-36"/>
       <use xlink:href="#DejaVuSans-30" x="63.623047"/>
       <use xlink:href="#DejaVuSans-30" x="127.246094"/>
      </g>
     </g>
    </g>
    <g id="xtick_5">
     <g id="line2d_9">
      <path d="M 310.564135 173.52 
L 310.564135 7.2 
" clip-path="url(#p2b668d2933)" style="fill: none; stroke: #b0b0b0; stroke-width: 0.8; stroke-linecap: square"/>
     </g>
     <g id="line2d_10">
      <g>
       <use xlink:href="#m163c0f0737" x="310.564135" y="173.52" style="stroke: #000000; stroke-width: 0.8"/>
      </g>
     </g>
     <g id="text_5">
      <!-- 800 -->
      <g transform="translate(301.020385 188.118438) scale(0.1 -0.1)">
       <defs>
        <path id="DejaVuSans-38" d="M 2034 2216 
Q 1584 2216 1326 1975 
Q 1069 1734 1069 1313 
Q 1069 891 1326 650 
Q 1584 409 2034 409 
Q 2484 409 2743 651 
Q 3003 894 3003 1313 
Q 3003 1734 2745 1975 
Q 2488 2216 2034 2216 
z
M 1403 2484 
Q 997 2584 770 2862 
Q 544 3141 544 3541 
Q 544 4100 942 4425 
Q 1341 4750 2034 4750 
Q 2731 4750 3128 4425 
Q 3525 4100 3525 3541 
Q 3525 3141 3298 2862 
Q 3072 2584 2669 2484 
Q 3125 2378 3379 2068 
Q 3634 1759 3634 1313 
Q 3634 634 3220 271 
Q 2806 -91 2034 -91 
Q 1263 -91 848 271 
Q 434 634 434 1313 
Q 434 1759 690 2068 
Q 947 2378 1403 2484 
z
M 1172 3481 
Q 1172 3119 1398 2916 
Q 1625 2713 2034 2713 
Q 2441 2713 2670 2916 
Q 2900 3119 2900 3481 
Q 2900 3844 2670 4047 
Q 2441 4250 2034 4250 
Q 1625 4250 1398 4047 
Q 1172 3844 1172 3481 
z
" transform="scale(0.015625)"/>
       </defs>
       <use xlink:href="#DejaVuSans-38"/>
       <use xlink:href="#DejaVuSans-30" x="63.623047"/>
       <use xlink:href="#DejaVuSans-30" x="127.246094"/>
      </g>
     </g>
    </g>
    <g id="xtick_6">
     <g id="line2d_11">
      <path d="M 371.742756 173.52 
L 371.742756 7.2 
" clip-path="url(#p2b668d2933)" style="fill: none; stroke: #b0b0b0; stroke-width: 0.8; stroke-linecap: square"/>
     </g>
     <g id="line2d_12">
      <g>
       <use xlink:href="#m163c0f0737" x="371.742756" y="173.52" style="stroke: #000000; stroke-width: 0.8"/>
      </g>
     </g>
     <g id="text_6">
      <!-- 1000 -->
      <g transform="translate(359.017756 188.118438) scale(0.1 -0.1)">
       <defs>
        <path id="DejaVuSans-31" d="M 794 531 
L 1825 531 
L 1825 4091 
L 703 3866 
L 703 4441 
L 1819 4666 
L 2450 4666 
L 2450 531 
L 3481 531 
L 3481 0 
L 794 0 
L 794 531 
z
" transform="scale(0.015625)"/>
       </defs>
       <use xlink:href="#DejaVuSans-31"/>
       <use xlink:href="#DejaVuSans-30" x="63.623047"/>
       <use xlink:href="#DejaVuSans-30" x="127.246094"/>
       <use xlink:href="#DejaVuSans-30" x="190.869141"/>
      </g>
     </g>
    </g>
    <g id="text_7">
     <!-- time -->
     <g transform="translate(208.264844 201.796563) scale(0.1 -0.1)">
      <defs>
       <path id="DejaVuSans-74" d="M 1172 4494 
L 1172 3500 
L 2356 3500 
L 2356 3053 
L 1172 3053 
L 1172 1153 
Q 1172 725 1289 603 
Q 1406 481 1766 481 
L 2356 481 
L 2356 0 
L 1766 0 
Q 1100 0 847 248 
Q 594 497 594 1153 
L 594 3053 
L 172 3053 
L 172 3500 
L 594 3500 
L 594 4494 
L 1172 4494 
z
" transform="scale(0.015625)"/>
       <path id="DejaVuSans-69" d="M 603 3500 
L 1178 3500 
L 1178 0 
L 603 0 
L 603 3500 
z
M 603 4863 
L 1178 4863 
L 1178 4134 
L 603 4134 
L 603 4863 
z
" transform="scale(0.015625)"/>
       <path id="DejaVuSans-6d" d="M 3328 2828 
Q 3544 3216 3844 3400 
Q 4144 3584 4550 3584 
Q 5097 3584 5394 3201 
Q 5691 2819 5691 2113 
L 5691 0 
L 5113 0 
L 5113 2094 
Q 5113 2597 4934 2840 
Q 4756 3084 4391 3084 
Q 3944 3084 3684 2787 
Q 3425 2491 3425 1978 
L 3425 0 
L 2847 0 
L 2847 2094 
Q 2847 2600 2669 2842 
Q 2491 3084 2119 3084 
Q 1678 3084 1418 2786 
Q 1159 2488 1159 1978 
L 1159 0 
L 581 0 
L 581 3500 
L 1159 3500 
L 1159 2956 
Q 1356 3278 1631 3431 
Q 1906 3584 2284 3584 
Q 2666 3584 2933 3390 
Q 3200 3197 3328 2828 
z
" transform="scale(0.015625)"/>
       <path id="DejaVuSans-65" d="M 3597 1894 
L 3597 1613 
L 953 1613 
Q 991 1019 1311 708 
Q 1631 397 2203 397 
Q 2534 397 2845 478 
Q 3156 559 3463 722 
L 3463 178 
Q 3153 47 2828 -22 
Q 2503 -91 2169 -91 
Q 1331 -91 842 396 
Q 353 884 353 1716 
Q 353 2575 817 3079 
Q 1281 3584 2069 3584 
Q 2775 3584 3186 3129 
Q 3597 2675 3597 1894 
z
M 3022 2063 
Q 3016 2534 2758 2815 
Q 2500 3097 2075 3097 
Q 1594 3097 1305 2825 
Q 1016 2553 972 2059 
L 3022 2063 
z
" transform="scale(0.015625)"/>
      </defs>
      <use xlink:href="#DejaVuSans-74"/>
      <use xlink:href="#DejaVuSans-69" x="39.208984"/>
      <use xlink:href="#DejaVuSans-6d" x="66.992188"/>
      <use xlink:href="#DejaVuSans-65" x="164.404297"/>
     </g>
    </g>
   </g>
   <g id="matplotlib.axis_2">
    <g id="ytick_1">
     <g id="line2d_13">
      <path d="M 52.160938 167.14888 
L 386.960938 167.14888 
" clip-path="url(#p2b668d2933)" style="fill: none; stroke: #b0b0b0; stroke-width: 0.8; stroke-linecap: square"/>
     </g>
     <g id="line2d_14">
      <defs>
       <path id="mc9f6cfb19b" d="M 0 0 
L -3.5 0 
" style="stroke: #000000; stroke-width: 0.8"/>
      </defs>
      <g>
       <use xlink:href="#mc9f6cfb19b" x="52.160938" y="167.14888" style="stroke: #000000; stroke-width: 0.8"/>
      </g>
     </g>
     <g id="text_8">
      <!-- −1.5 -->
      <g transform="translate(20.878125 170.948099) scale(0.1 -0.1)">
       <defs>
        <path id="DejaVuSans-2212" d="M 678 2272 
L 4684 2272 
L 4684 1741 
L 678 1741 
L 678 2272 
z
" transform="scale(0.015625)"/>
        <path id="DejaVuSans-2e" d="M 684 794 
L 1344 794 
L 1344 0 
L 684 0 
L 684 794 
z
" transform="scale(0.015625)"/>
        <path id="DejaVuSans-35" d="M 691 4666 
L 3169 4666 
L 3169 4134 
L 1269 4134 
L 1269 2991 
Q 1406 3038 1543 3061 
Q 1681 3084 1819 3084 
Q 2600 3084 3056 2656 
Q 3513 2228 3513 1497 
Q 3513 744 3044 326 
Q 2575 -91 1722 -91 
Q 1428 -91 1123 -41 
Q 819 9 494 109 
L 494 744 
Q 775 591 1075 516 
Q 1375 441 1709 441 
Q 2250 441 2565 725 
Q 2881 1009 2881 1497 
Q 2881 1984 2565 2268 
Q 2250 2553 1709 2553 
Q 1456 2553 1204 2497 
Q 953 2441 691 2322 
L 691 4666 
z
" transform="scale(0.015625)"/>
       </defs>
       <use xlink:href="#DejaVuSans-2212"/>
       <use xlink:href="#DejaVuSans-31" x="83.789062"/>
       <use xlink:href="#DejaVuSans-2e" x="147.412109"/>
       <use xlink:href="#DejaVuSans-35" x="179.199219"/>
      </g>
     </g>
    </g>
    <g id="ytick_2">
     <g id="line2d_15">
      <path d="M 52.160938 142.370632 
L 386.960938 142.370632 
" clip-path="url(#p2b668d2933)" style="fill: none; stroke: #b0b0b0; stroke-width: 0.8; stroke-linecap: square"/>
     </g>
     <g id="line2d_16">
      <g>
       <use xlink:href="#mc9f6cfb19b" x="52.160938" y="142.370632" style="stroke: #000000; stroke-width: 0.8"/>
      </g>
     </g>
     <g id="text_9">
      <!-- −1.0 -->
      <g transform="translate(20.878125 146.169851) scale(0.1 -0.1)">
       <use xlink:href="#DejaVuSans-2212"/>
       <use xlink:href="#DejaVuSans-31" x="83.789062"/>
       <use xlink:href="#DejaVuSans-2e" x="147.412109"/>
       <use xlink:href="#DejaVuSans-30" x="179.199219"/>
      </g>
     </g>
    </g>
    <g id="ytick_3">
     <g id="line2d_17">
      <path d="M 52.160938 117.592384 
L 386.960938 117.592384 
" clip-path="url(#p2b668d2933)" style="fill: none; stroke: #b0b0b0; stroke-width: 0.8; stroke-linecap: square"/>
     </g>
     <g id="line2d_18">
      <g>
       <use xlink:href="#mc9f6cfb19b" x="52.160938" y="117.592384" style="stroke: #000000; stroke-width: 0.8"/>
      </g>
     </g>
     <g id="text_10">
      <!-- −0.5 -->
      <g transform="translate(20.878125 121.391603) scale(0.1 -0.1)">
       <use xlink:href="#DejaVuSans-2212"/>
       <use xlink:href="#DejaVuSans-30" x="83.789062"/>
       <use xlink:href="#DejaVuSans-2e" x="147.412109"/>
       <use xlink:href="#DejaVuSans-35" x="179.199219"/>
      </g>
     </g>
    </g>
    <g id="ytick_4">
     <g id="line2d_19">
      <path d="M 52.160938 92.814136 
L 386.960938 92.814136 
" clip-path="url(#p2b668d2933)" style="fill: none; stroke: #b0b0b0; stroke-width: 0.8; stroke-linecap: square"/>
     </g>
     <g id="line2d_20">
      <g>
       <use xlink:href="#mc9f6cfb19b" x="52.160938" y="92.814136" style="stroke: #000000; stroke-width: 0.8"/>
      </g>
     </g>
     <g id="text_11">
      <!-- 0.0 -->
      <g transform="translate(29.257812 96.613355) scale(0.1 -0.1)">
       <use xlink:href="#DejaVuSans-30"/>
       <use xlink:href="#DejaVuSans-2e" x="63.623047"/>
       <use xlink:href="#DejaVuSans-30" x="95.410156"/>
      </g>
     </g>
    </g>
    <g id="ytick_5">
     <g id="line2d_21">
      <path d="M 52.160938 68.035888 
L 386.960938 68.035888 
" clip-path="url(#p2b668d2933)" style="fill: none; stroke: #b0b0b0; stroke-width: 0.8; stroke-linecap: square"/>
     </g>
     <g id="line2d_22">
      <g>
       <use xlink:href="#mc9f6cfb19b" x="52.160938" y="68.035888" style="stroke: #000000; stroke-width: 0.8"/>
      </g>
     </g>
     <g id="text_12">
      <!-- 0.5 -->
      <g transform="translate(29.257812 71.835107) scale(0.1 -0.1)">
       <use xlink:href="#DejaVuSans-30"/>
       <use xlink:href="#DejaVuSans-2e" x="63.623047"/>
       <use xlink:href="#DejaVuSans-35" x="95.410156"/>
      </g>
     </g>
    </g>
    <g id="ytick_6">
     <g id="line2d_23">
      <path d="M 52.160938 43.25764 
L 386.960938 43.25764 
" clip-path="url(#p2b668d2933)" style="fill: none; stroke: #b0b0b0; stroke-width: 0.8; stroke-linecap: square"/>
     </g>
     <g id="line2d_24">
      <g>
       <use xlink:href="#mc9f6cfb19b" x="52.160938" y="43.25764" style="stroke: #000000; stroke-width: 0.8"/>
      </g>
     </g>
     <g id="text_13">
      <!-- 1.0 -->
      <g transform="translate(29.257812 47.056859) scale(0.1 -0.1)">
       <use xlink:href="#DejaVuSans-31"/>
       <use xlink:href="#DejaVuSans-2e" x="63.623047"/>
       <use xlink:href="#DejaVuSans-30" x="95.410156"/>
      </g>
     </g>
    </g>
    <g id="ytick_7">
     <g id="line2d_25">
      <path d="M 52.160938 18.479392 
L 386.960938 18.479392 
" clip-path="url(#p2b668d2933)" style="fill: none; stroke: #b0b0b0; stroke-width: 0.8; stroke-linecap: square"/>
     </g>
     <g id="line2d_26">
      <g>
       <use xlink:href="#mc9f6cfb19b" x="52.160938" y="18.479392" style="stroke: #000000; stroke-width: 0.8"/>
      </g>
     </g>
     <g id="text_14">
      <!-- 1.5 -->
      <g transform="translate(29.257812 22.278611) scale(0.1 -0.1)">
       <use xlink:href="#DejaVuSans-31"/>
       <use xlink:href="#DejaVuSans-2e" x="63.623047"/>
       <use xlink:href="#DejaVuSans-35" x="95.410156"/>
      </g>
     </g>
    </g>
    <g id="text_15">
     <!-- x -->
     <g transform="translate(14.798438 93.319375) rotate(-90) scale(0.1 -0.1)">
      <defs>
       <path id="DejaVuSans-78" d="M 3513 3500 
L 2247 1797 
L 3578 0 
L 2900 0 
L 1881 1375 
L 863 0 
L 184 0 
L 1544 1831 
L 300 3500 
L 978 3500 
L 1906 2253 
L 2834 3500 
L 3513 3500 
z
" transform="scale(0.015625)"/>
      </defs>
      <use xlink:href="#DejaVuSans-78"/>
     </g>
    </g>
   </g>
   <g id="line2d_27">
    <path d="M 67.379119 87.757947 
L 67.685012 96.804386 
L 67.990906 91.871224 
L 68.296799 70.205953 
L 68.602692 92.118935 
L 68.908585 72.007839 
L 69.214478 95.192185 
L 69.520371 105.790531 
L 69.826264 91.618257 
L 70.132157 91.762962 
L 70.743943 85.105036 
L 71.049837 86.665252 
L 71.35573 94.708185 
L 71.661623 75.796568 
L 71.967516 88.151998 
L 72.273409 72.529036 
L 72.579302 81.768479 
L 72.885195 66.619542 
L 73.191088 75.854725 
L 73.496981 96.802195 
L 73.802874 90.969647 
L 74.108768 80.291032 
L 74.414661 89.641533 
L 74.720554 52.921032 
L 75.026447 104.019654 
L 75.33234 75.636193 
L 75.638233 72.300182 
L 75.944126 89.334396 
L 76.250019 73.375326 
L 76.555912 82.91044 
L 76.861805 57.569822 
L 77.167699 83.475986 
L 77.473592 88.31731 
L 77.779485 67.886249 
L 78.085378 70.684331 
L 78.391271 83.171304 
L 78.697164 80.560286 
L 79.003057 55.788803 
L 79.30895 63.792542 
L 79.614843 52.903702 
L 79.920736 79.117017 
L 80.22663 58.545376 
L 80.532523 60.266279 
L 81.144309 80.018035 
L 81.450202 78.416899 
L 81.756095 62.03602 
L 82.061988 78.331145 
L 82.367881 65.097657 
L 82.979668 88.688625 
L 83.285561 54.410996 
L 83.591454 67.401253 
L 83.897347 52.752084 
L 84.20324 64.458547 
L 84.509133 60.900503 
L 84.815026 89.499795 
L 85.120919 52.402984 
L 85.426812 58.44077 
L 85.732705 61.517108 
L 86.038599 77.283635 
L 86.344492 57.802188 
L 86.650385 69.38108 
L 86.956278 35.050532 
L 87.262171 51.411527 
L 87.568064 61.094571 
L 87.873957 78.097312 
L 88.485743 54.520771 
L 88.791636 49.192034 
L 89.09753 61.163701 
L 89.403423 68.026306 
L 89.709316 58.945869 
L 90.015209 37.531326 
L 90.321102 52.001784 
L 90.626995 60.053325 
L 90.932888 56.014101 
L 91.544674 50.921914 
L 91.850567 61.78788 
L 92.156461 50.094428 
L 92.768247 58.783351 
L 93.07414 49.469541 
L 93.380033 51.293528 
L 93.685926 63.113405 
L 93.991819 50.572976 
L 94.297712 48.945091 
L 94.603605 59.701403 
L 94.909498 56.021379 
L 95.215392 55.777015 
L 95.521285 61.559144 
L 96.133071 46.222703 
L 96.438964 58.02772 
L 96.744857 54.079881 
L 97.05075 38.96735 
L 97.356643 39.708895 
L 97.662536 59.431016 
L 97.96843 58.801003 
L 98.274323 53.273852 
L 98.580216 58.579888 
L 98.886109 44.956741 
L 99.192002 43.169038 
L 99.803788 64.960117 
L 100.109681 19.667705 
L 100.415574 51.684236 
L 100.721467 40.085238 
L 101.027361 52.501156 
L 101.333254 24.139837 
L 101.639147 66.559893 
L 101.94504 53.290295 
L 102.250933 69.656477 
L 102.862719 36.982416 
L 103.168612 64.752739 
L 103.474505 35.018672 
L 103.780398 37.553314 
L 104.086292 46.167181 
L 104.392185 30.551969 
L 105.003971 67.797895 
L 105.309864 65.151741 
L 105.615757 55.262561 
L 105.92165 39.353004 
L 106.227543 47.053659 
L 106.533436 43.856892 
L 106.839329 44.992048 
L 107.145223 44.767095 
L 107.451116 42.078271 
L 107.757009 48.21249 
L 108.062902 46.30328 
L 108.368795 50.702887 
L 108.674688 47.231898 
L 108.980581 41.048076 
L 109.286474 53.503229 
L 109.592367 51.53805 
L 109.89826 31.640444 
L 110.204154 38.997916 
L 110.510047 41.739725 
L 110.81594 56.271179 
L 111.121833 48.326923 
L 111.427726 45.470338 
L 111.733619 53.057548 
L 112.039512 25.955855 
L 112.345405 40.654181 
L 112.651298 44.794737 
L 112.957191 35.338551 
L 113.263085 32.871462 
L 113.568978 50.316093 
L 113.874871 44.17983 
L 114.180764 41.63968 
L 114.486657 33.257122 
L 114.79255 40.278623 
L 115.098443 31.700589 
L 115.404336 36.051639 
L 115.710229 53.247489 
L 116.016123 34.242656 
L 116.322016 47.811669 
L 116.627909 35.072538 
L 116.933802 39.074862 
L 117.239695 30.798109 
L 117.545588 46.273996 
L 117.851481 32.527475 
L 118.157374 43.907159 
L 118.463267 44.049042 
L 118.76916 56.282409 
L 119.075054 35.224646 
L 119.380947 47.602841 
L 119.992733 30.767029 
L 120.298626 27.371941 
L 120.604519 26.302069 
L 120.910412 39.91312 
L 121.216305 47.33959 
L 121.522198 39.198414 
L 121.828091 36.423144 
L 122.133985 39.469253 
L 122.439878 38.301233 
L 122.745771 41.446584 
L 123.051664 32.222596 
L 123.357557 18.770837 
L 123.66345 34.605519 
L 123.969343 58.806385 
L 124.275236 57.445709 
L 124.581129 44.319341 
L 124.887022 42.77864 
L 125.192916 56.765633 
L 125.498809 51.067031 
L 125.804702 48.980977 
L 126.110595 62.863966 
L 126.416488 38.965194 
L 126.722381 29.854867 
L 127.028274 45.983995 
L 127.334167 49.81095 
L 127.64006 39.044113 
L 127.945953 49.217995 
L 128.251847 38.648458 
L 128.55774 45.469432 
L 128.863633 22.326619 
L 129.169526 53.888747 
L 129.475419 56.837505 
L 129.781312 63.062095 
L 130.087205 59.824813 
L 130.393098 49.191866 
L 130.698991 51.5698 
L 131.004885 49.474574 
L 131.310778 56.654597 
L 131.616671 56.784068 
L 131.922564 45.391611 
L 132.228457 43.561503 
L 132.53435 36.25421 
L 132.840243 35.419892 
L 133.146136 60.807213 
L 133.452029 45.071464 
L 133.757922 47.607603 
L 134.063816 57.304592 
L 134.369709 56.959848 
L 134.675602 50.80744 
L 134.981495 60.29662 
L 135.287388 60.364794 
L 135.593281 56.511603 
L 135.899174 50.408949 
L 136.205067 69.20872 
L 136.51096 57.338551 
L 136.816853 54.331208 
L 137.42864 71.148876 
L 137.734533 54.858587 
L 138.040426 61.621974 
L 138.346319 48.016973 
L 138.652212 56.11448 
L 138.958105 53.499619 
L 139.263998 55.111084 
L 139.569891 63.302481 
L 139.875784 47.949555 
L 140.487571 54.556576 
L 140.793464 34.460712 
L 141.099357 60.120763 
L 141.40525 58.186979 
L 141.711143 66.299764 
L 142.017036 49.019435 
L 142.322929 54.669742 
L 142.628822 48.803908 
L 142.934715 65.271654 
L 143.240609 69.203687 
L 143.546502 60.484895 
L 143.852395 58.70595 
L 144.158288 77.505476 
L 144.464181 60.905064 
L 144.770074 78.274848 
L 145.075967 59.755458 
L 145.38186 79.826177 
L 145.687753 78.143369 
L 146.29954 60.460523 
L 146.605433 59.697484 
L 146.911326 78.378188 
L 147.217219 74.315098 
L 147.523112 62.715756 
L 147.829005 68.222961 
L 148.134898 60.777108 
L 148.440791 41.783423 
L 148.746684 65.450476 
L 149.052578 74.155912 
L 149.358471 67.15018 
L 149.664364 90.161746 
L 149.970257 63.626315 
L 150.27615 96.866675 
L 150.582043 86.352596 
L 150.887936 85.423996 
L 151.193829 96.671553 
L 151.499722 66.58368 
L 152.111509 86.993101 
L 152.417402 56.713956 
L 152.723295 86.001563 
L 153.029188 78.43478 
L 153.335081 84.812519 
L 153.640974 82.870759 
L 153.946867 90.580743 
L 154.25276 83.085426 
L 154.558653 91.134838 
L 154.864546 74.229277 
L 155.17044 73.383567 
L 155.476333 92.999065 
L 155.782226 76.337247 
L 156.088119 81.466038 
L 156.394012 59.40091 
L 156.699905 85.444158 
L 157.005798 81.737158 
L 157.311691 72.405674 
L 157.617584 99.09934 
L 158.229371 95.535209 
L 158.535264 92.885821 
L 158.841157 79.619965 
L 159.14705 83.438662 
L 159.452943 85.153446 
L 159.758836 80.167352 
L 160.064729 85.901812 
L 160.370622 103.265638 
L 160.676515 109.189433 
L 160.982408 104.378764 
L 161.288302 83.737131 
L 161.594195 89.377874 
L 161.900088 87.890893 
L 162.205981 101.141838 
L 162.511874 104.128028 
L 162.817767 100.217245 
L 163.12366 110.207927 
L 163.429553 110.671939 
L 163.735446 117.54419 
L 164.04134 95.576434 
L 164.347233 94.738703 
L 164.653126 102.628198 
L 164.959019 79.376801 
L 165.264912 96.967898 
L 165.570805 77.274944 
L 165.876698 80.680842 
L 166.182591 89.123473 
L 166.488484 84.228081 
L 166.794377 114.290767 
L 167.100271 90.044972 
L 167.406164 86.158252 
L 167.712057 114.15622 
L 168.01795 104.788025 
L 168.323843 116.260676 
L 168.935629 106.881085 
L 169.241522 108.171581 
L 169.547415 96.712475 
L 170.159202 116.663855 
L 170.465095 120.669233 
L 170.770988 110.104762 
L 171.076881 112.803974 
L 171.382774 79.056906 
L 171.688667 105.848301 
L 171.99456 101.38232 
L 172.300453 105.215235 
L 172.606346 107.238651 
L 172.912239 99.231887 
L 173.218133 117.813585 
L 173.524026 110.946047 
L 173.829919 116.756518 
L 174.135812 118.278338 
L 174.441705 116.641134 
L 174.747598 105.776238 
L 175.053491 121.03761 
L 175.359384 120.490375 
L 175.665277 126.428539 
L 175.97117 109.228475 
L 176.277064 107.008718 
L 176.582957 128.515887 
L 176.88885 115.829407 
L 177.194743 123.336728 
L 177.500636 133.685328 
L 177.806529 115.750707 
L 178.112422 136.022821 
L 178.418315 95.438873 
L 178.724208 99.478652 
L 179.030102 118.092878 
L 179.335995 121.151281 
L 179.641888 122.210108 
L 179.947781 113.43623 
L 180.253674 137.742643 
L 180.559567 120.263187 
L 180.86546 132.712855 
L 181.171353 110.916908 
L 181.477246 133.699742 
L 181.783139 124.461605 
L 182.089033 130.656521 
L 182.394926 122.04497 
L 182.700819 127.628528 
L 183.006712 118.688024 
L 183.312605 119.418983 
L 183.618498 125.140024 
L 183.924391 138.265681 
L 184.536177 114.095203 
L 185.147964 116.310687 
L 185.75975 135.955722 
L 186.065643 123.282402 
L 186.371536 131.129965 
L 186.677429 129.187952 
L 186.983322 131.541745 
L 187.289215 123.183095 
L 187.595108 136.989495 
L 187.901001 125.24357 
L 188.512788 128.277468 
L 188.818681 118.14078 
L 189.430467 144.558303 
L 189.73636 129.056107 
L 190.348146 148.367561 
L 190.959932 135.406166 
L 191.265826 124.823303 
L 191.571719 129.073714 
L 191.877612 138.482711 
L 192.183505 134.623028 
L 192.795291 121.86501 
L 193.101184 133.497735 
L 193.407077 121.062948 
L 193.71297 143.364354 
L 194.018863 132.506 
L 194.324757 116.529447 
L 194.63065 135.283751 
L 194.936543 135.893749 
L 195.242436 129.96912 
L 195.548329 130.968191 
L 195.854222 130.909668 
L 196.160115 151.798497 
L 196.771901 139.183795 
L 197.077795 152.544969 
L 197.383688 134.42801 
L 197.689581 143.504358 
L 197.995474 125.385813 
L 198.301367 139.964477 
L 198.60726 136.453795 
L 198.913153 153.045431 
L 199.219046 155.115742 
L 199.524939 126.495714 
L 199.830832 143.740816 
L 200.136726 136.283951 
L 200.442619 145.231119 
L 200.748512 130.291665 
L 201.054405 149.527364 
L 201.360298 138.012856 
L 201.666191 134.316265 
L 201.972084 137.09159 
L 202.277977 143.250119 
L 202.58387 127.039029 
L 202.889763 144.98212 
L 203.195657 134.295127 
L 203.50155 131.542179 
L 203.807443 125.428767 
L 204.113336 154.887047 
L 204.725122 136.963496 
L 205.031015 153.471581 
L 205.336908 149.908333 
L 205.642801 131.578833 
L 205.948694 139.367704 
L 206.254588 165.96 
L 206.560481 135.658142 
L 206.866374 131.538268 
L 207.172267 142.329497 
L 207.47816 142.993753 
L 208.089946 147.077035 
L 208.395839 146.596582 
L 208.701732 152.444593 
L 209.313519 136.427473 
L 209.619412 157.988812 
L 209.925305 143.624241 
L 210.231198 146.295106 
L 210.537091 141.539289 
L 210.842984 130.266868 
L 211.148877 139.171785 
L 211.45477 136.909586 
L 211.760663 144.869787 
L 212.066557 140.350081 
L 212.37245 152.031841 
L 212.678343 151.071414 
L 212.984236 146.391932 
L 213.290129 122.002557 
L 213.596022 134.73088 
L 213.901915 140.90338 
L 214.207808 158.920569 
L 214.513701 129.878317 
L 214.819594 149.211863 
L 215.125488 142.731527 
L 215.431381 141.348544 
L 215.737274 142.93323 
L 216.043167 156.611291 
L 216.34906 156.391422 
L 216.654953 136.601783 
L 216.960846 153.2088 
L 217.266739 133.595544 
L 217.572632 130.829174 
L 217.878525 149.906383 
L 218.184419 147.239937 
L 219.102098 132.202244 
L 219.407991 148.498922 
L 219.713884 148.095363 
L 220.019777 138.175897 
L 220.32567 134.728733 
L 220.631563 137.229178 
L 220.937456 144.587888 
L 221.549243 130.345017 
L 221.855136 142.210628 
L 222.161029 105.000869 
L 222.466922 129.881664 
L 222.772815 141.294856 
L 223.078708 137.23796 
L 223.384601 129.142751 
L 223.690494 140.343642 
L 223.996387 117.383484 
L 224.302281 138.323844 
L 224.608174 115.485777 
L 224.914067 118.260125 
L 225.21996 134.253352 
L 225.525853 140.489937 
L 225.831746 130.50114 
L 226.137639 137.769059 
L 226.443532 139.975498 
L 226.749425 121.513222 
L 227.055318 134.317712 
L 227.361212 121.59625 
L 227.667105 149.665962 
L 228.278891 124.674364 
L 228.584784 132.223765 
L 228.890677 133.764779 
L 229.19657 147.322785 
L 229.502463 120.416167 
L 229.808356 140.454055 
L 230.11425 142.113988 
L 230.420143 142.568962 
L 230.726036 146.385581 
L 231.337822 124.761805 
L 231.643715 136.988388 
L 231.949608 125.289593 
L 232.255501 127.046098 
L 232.561394 123.765637 
L 232.867287 130.368644 
L 233.173181 144.455895 
L 233.479074 124.426467 
L 234.09086 135.682839 
L 234.396753 123.392466 
L 234.702646 122.128619 
L 235.008539 100.132382 
L 235.314432 131.299879 
L 235.620325 125.704876 
L 235.926218 125.297722 
L 236.232112 109.108531 
L 236.538005 135.25385 
L 236.843898 140.918716 
L 237.149791 130.812387 
L 237.455684 126.926221 
L 237.761577 120.373183 
L 238.06747 129.720723 
L 238.373363 123.789911 
L 238.679256 137.149151 
L 238.985149 119.009908 
L 239.291043 126.010511 
L 239.596936 108.779335 
L 239.902829 118.268694 
L 240.208722 121.737043 
L 240.514615 118.714502 
L 240.820508 130.411838 
L 241.126401 118.879652 
L 241.432294 124.485749 
L 241.738187 110.845248 
L 242.04408 122.220568 
L 242.349974 128.124506 
L 242.655867 112.599701 
L 242.96176 118.846817 
L 243.267653 112.239752 
L 243.573546 103.045768 
L 243.879439 124.530656 
L 244.185332 105.874776 
L 244.491225 109.096577 
L 244.797118 117.938197 
L 245.103012 115.211967 
L 245.408905 118.008973 
L 245.714798 107.917218 
L 246.020691 121.836105 
L 246.326584 125.507964 
L 246.93837 106.40421 
L 247.244263 126.04285 
L 247.550156 102.893033 
L 247.856049 117.346146 
L 248.161943 110.054487 
L 248.467836 106.133709 
L 248.773729 98.140157 
L 249.079622 101.555663 
L 249.385515 118.359423 
L 249.691408 97.222497 
L 249.997301 100.158049 
L 250.303194 104.802213 
L 250.609087 98.841715 
L 250.91498 105.496946 
L 251.220874 104.802282 
L 251.526767 107.329538 
L 251.83266 111.317916 
L 252.138553 93.561925 
L 252.444446 117.065014 
L 252.750339 106.263168 
L 253.056232 105.598189 
L 253.362125 111.21567 
L 253.668018 80.877648 
L 253.973911 105.736122 
L 254.279805 118.165822 
L 254.585698 84.406772 
L 254.891591 108.235922 
L 255.197484 90.553937 
L 255.503377 87.370728 
L 255.80927 88.802494 
L 256.115163 94.124487 
L 256.421056 96.37128 
L 256.726949 105.152468 
L 257.032842 82.523065 
L 257.338736 95.968749 
L 257.644629 97.715424 
L 257.950522 103.209786 
L 258.562308 90.287461 
L 258.868201 93.193448 
L 259.174094 78.113104 
L 259.479987 94.129697 
L 259.78588 90.566283 
L 260.091773 65.753991 
L 260.397667 102.037393 
L 260.70356 99.752346 
L 261.009453 100.561209 
L 261.315346 90.994537 
L 261.621239 86.96411 
L 261.927132 75.615104 
L 262.233025 97.507365 
L 262.538918 95.359845 
L 262.844811 105.903803 
L 263.150705 75.994368 
L 263.456598 65.908714 
L 263.762491 95.261347 
L 264.068384 80.578423 
L 264.374277 81.394808 
L 264.68017 90.066456 
L 264.986063 76.172638 
L 265.291956 83.24722 
L 265.597849 77.804831 
L 265.903742 89.909503 
L 266.209636 74.556053 
L 266.515529 70.440911 
L 266.821422 70.326147 
L 267.127315 73.714067 
L 267.433208 83.112826 
L 267.739101 76.623615 
L 268.044994 82.082752 
L 268.65678 75.724039 
L 268.962673 77.881488 
L 269.268567 85.361683 
L 269.57446 77.141949 
L 269.880353 63.255997 
L 270.186246 68.053646 
L 270.492139 68.453166 
L 270.798032 85.566272 
L 271.103925 80.756997 
L 271.409818 78.893524 
L 271.715711 91.610419 
L 272.021604 58.325433 
L 272.327498 67.30921 
L 272.633391 64.243088 
L 272.939284 71.043586 
L 273.245177 70.656283 
L 273.55107 55.921878 
L 273.856963 72.462307 
L 274.162856 69.252436 
L 274.468749 60.351135 
L 274.774642 63.675873 
L 275.080535 75.576064 
L 275.386429 65.045915 
L 275.692322 83.966154 
L 275.998215 69.222876 
L 276.610001 54.942989 
L 276.915894 51.73339 
L 277.833573 97.454702 
L 278.139467 69.401201 
L 278.44536 71.090237 
L 278.751253 53.094834 
L 279.057146 58.260364 
L 279.363039 56.194767 
L 279.974825 49.14309 
L 280.280718 51.255395 
L 280.586611 65.031702 
L 280.892504 54.511212 
L 281.198398 57.753746 
L 281.504291 43.301135 
L 281.810184 56.797977 
L 282.116077 57.15326 
L 282.42197 58.253777 
L 282.727863 52.342699 
L 283.339649 55.111946 
L 283.645542 60.766386 
L 283.951435 49.241195 
L 284.257329 46.19269 
L 284.563222 47.217994 
L 284.869115 41.593949 
L 285.175008 72.614791 
L 285.786794 50.139876 
L 286.092687 50.767661 
L 286.39858 56.473272 
L 286.704473 53.621357 
L 287.010366 68.205792 
L 287.31626 61.761482 
L 287.622153 67.762969 
L 287.928046 39.948985 
L 288.233939 59.667036 
L 288.539832 40.629806 
L 288.845725 39.091143 
L 289.457511 61.321989 
L 290.069297 54.365711 
L 290.375191 43.075426 
L 290.681084 51.692164 
L 290.986977 55.023622 
L 291.29287 51.95032 
L 291.598763 45.454633 
L 291.904656 47.307208 
L 292.210549 46.582996 
L 292.516442 53.356446 
L 292.822335 26.372494 
L 293.128229 49.296658 
L 293.434122 44.299681 
L 293.740015 34.371495 
L 294.045908 55.748714 
L 294.351801 46.219622 
L 294.657694 42.239472 
L 294.963587 41.529279 
L 295.26948 58.073184 
L 295.575373 29.122698 
L 295.881266 41.225498 
L 296.493053 55.99969 
L 296.798946 42.143208 
L 297.104839 52.685245 
L 297.410732 52.557251 
L 297.716625 53.721192 
L 298.022518 56.611734 
L 298.328411 55.071801 
L 298.634304 55.49381 
L 298.940197 39.520507 
L 299.246091 52.861714 
L 299.551984 20.666431 
L 299.857877 41.713129 
L 300.16377 30.894303 
L 300.775556 58.398634 
L 301.081449 47.20487 
L 301.387342 59.735201 
L 301.999128 15.727611 
L 302.305022 47.976872 
L 302.610915 14.76 
L 302.916808 54.230297 
L 303.222701 62.102129 
L 303.528594 38.037412 
L 303.834487 41.657302 
L 304.14038 36.520383 
L 304.446273 34.886968 
L 304.752166 57.847248 
L 305.058059 35.320922 
L 305.363953 30.467627 
L 305.669846 43.007182 
L 305.975739 39.839689 
L 306.281632 49.382023 
L 306.587525 41.223691 
L 306.893418 49.640081 
L 307.199311 27.533348 
L 307.811097 37.695651 
L 308.11699 49.570812 
L 308.422884 45.875907 
L 308.728777 35.260848 
L 309.03467 42.913109 
L 309.340563 30.2136 
L 309.646456 40.428085 
L 310.258242 50.158487 
L 310.564135 46.070526 
L 310.870028 37.503926 
L 311.175922 52.260519 
L 311.481815 45.462505 
L 311.787708 42.549786 
L 312.093601 53.169745 
L 312.399494 29.532525 
L 312.705387 48.891846 
L 313.01128 40.127826 
L 313.317173 45.260146 
L 313.623066 60.301086 
L 313.928959 42.909045 
L 314.234853 48.975867 
L 314.540746 73.293375 
L 314.846639 51.046969 
L 315.152532 53.275999 
L 315.458425 41.715711 
L 315.764318 38.39641 
L 316.070211 38.029306 
L 316.376104 30.849186 
L 316.681997 52.016027 
L 316.98789 63.966046 
L 317.293784 51.927221 
L 317.599677 55.514673 
L 317.90557 43.045102 
L 318.211463 57.463411 
L 318.517356 56.561712 
L 318.823249 44.439005 
L 319.129142 45.066035 
L 319.435035 55.273298 
L 319.740928 51.858094 
L 320.046821 57.747738 
L 320.352715 50.493752 
L 320.658608 55.618986 
L 320.964501 43.088098 
L 321.576287 57.331858 
L 321.88218 29.481005 
L 322.493966 49.973228 
L 322.799859 43.932781 
L 323.105752 64.407567 
L 323.411646 51.530769 
L 323.717539 50.029991 
L 324.023432 56.643798 
L 324.329325 52.492817 
L 324.635218 65.173679 
L 324.941111 60.796893 
L 325.247004 40.14546 
L 325.552897 54.476712 
L 326.164684 42.237333 
L 326.470577 69.639642 
L 326.77647 66.255841 
L 327.082363 33.705378 
L 327.388256 47.487442 
L 327.694149 41.729877 
L 328.000042 56.43463 
L 328.611828 66.627878 
L 329.223615 38.840614 
L 329.529508 48.639217 
L 329.835401 70.291771 
L 330.141294 61.560213 
L 330.447187 57.674369 
L 330.75308 67.669295 
L 331.058973 37.272715 
L 331.670759 70.184321 
L 331.976652 67.478173 
L 332.282546 62.615605 
L 332.588439 70.397638 
L 332.894332 51.248622 
L 333.200225 41.422682 
L 334.117904 77.054855 
L 334.423797 64.272511 
L 334.72969 62.805147 
L 335.341477 76.656962 
L 335.64737 53.521926 
L 335.953263 51.738169 
L 336.259156 68.883232 
L 336.565049 78.237304 
L 336.870942 73.395125 
L 337.176835 54.989751 
L 337.482728 85.043354 
L 337.788621 62.032567 
L 338.094514 71.67495 
L 338.400408 58.855055 
L 338.706301 66.226117 
L 339.012194 67.350037 
L 339.318087 67.666262 
L 339.62398 65.105564 
L 339.929873 61.308739 
L 340.541659 76.599874 
L 340.847552 73.180199 
L 341.153445 83.897085 
L 341.459339 78.256179 
L 341.765232 64.906682 
L 342.071125 60.249507 
L 342.377018 79.640625 
L 342.682911 82.287658 
L 342.988804 72.23804 
L 343.294697 72.978945 
L 343.60059 78.852115 
L 343.906483 73.693213 
L 344.212377 72.444274 
L 344.51827 61.913032 
L 344.824163 69.658167 
L 345.130056 72.049334 
L 345.435949 77.435178 
L 345.741842 72.060977 
L 346.047735 92.372565 
L 346.353628 78.757404 
L 346.659521 83.807453 
L 346.965414 78.552109 
L 347.271308 89.080339 
L 347.577201 81.961275 
L 347.883094 90.387552 
L 348.188987 91.529295 
L 348.49488 84.616105 
L 348.800773 97.971171 
L 349.106666 79.323748 
L 349.412559 113.442762 
L 350.024345 74.13088 
L 350.330239 80.571677 
L 350.636132 77.031258 
L 350.942025 93.503977 
L 351.247918 95.801934 
L 351.553811 75.587808 
L 351.859704 72.156948 
L 352.165597 105.059397 
L 352.47149 60.331741 
L 353.083276 97.785846 
L 353.38917 95.76069 
L 353.695063 108.954603 
L 354.000956 80.689815 
L 354.612742 101.249225 
L 354.918635 88.488194 
L 355.224528 104.075341 
L 355.530421 88.369577 
L 355.836314 81.588916 
L 356.142207 111.724592 
L 356.448101 101.943273 
L 356.753994 86.750529 
L 357.059887 93.322264 
L 357.36578 90.266025 
L 357.671673 108.303176 
L 357.977566 115.900171 
L 358.283459 90.6325 
L 358.589352 98.605796 
L 358.895245 100.686257 
L 359.201139 107.507306 
L 359.507032 106.449374 
L 359.812925 108.305929 
L 360.118818 99.921991 
L 360.424711 109.857984 
L 360.730604 107.415995 
L 361.036497 108.065584 
L 361.34239 97.042399 
L 361.648283 111.356404 
L 361.954176 102.557589 
L 362.26007 108.355117 
L 362.565963 96.325117 
L 362.871856 108.038684 
L 363.177749 105.667563 
L 363.483642 133.22151 
L 363.789535 102.790541 
L 364.095428 109.774825 
L 364.401321 90.933323 
L 364.707214 108.521297 
L 365.013107 113.782691 
L 365.319001 104.172859 
L 365.624894 121.894841 
L 365.930787 106.999748 
L 366.23668 114.917286 
L 366.542573 104.638144 
L 367.154359 124.513598 
L 367.460252 115.56419 
L 367.766145 87.705041 
L 368.072038 111.748386 
L 368.377932 123.072263 
L 368.989718 102.564165 
L 369.601504 129.720531 
L 370.21329 107.143429 
L 370.519183 121.220533 
L 370.825076 122.832364 
L 371.130969 113.388294 
L 371.436863 119.012726 
L 371.742756 107.405375 
L 371.742756 107.405375 
" clip-path="url(#p2b668d2933)" style="fill: none; stroke: #1f77b4; stroke-width: 1.5; stroke-linecap: square"/>
   </g>
   <g id="line2d_28">
    <path d="M 67.379119 86.440349 
L 67.685012 87.426334 
L 67.990906 90.28794 
L 68.602692 86.828199 
L 68.908585 87.610542 
L 69.214478 81.836685 
L 69.520371 82.408093 
L 69.826264 91.372253 
L 70.132157 91.400949 
L 70.43805 96.029781 
L 70.743943 94.379852 
L 71.049837 89.297572 
L 71.35573 88.045301 
L 71.661623 88.785584 
L 71.967516 85.799092 
L 72.273409 86.302372 
L 73.191088 77.525201 
L 73.496981 74.34188 
L 73.802874 80.376141 
L 74.414661 86.159719 
L 74.720554 89.375104 
L 75.026447 78.785285 
L 75.33234 81.511292 
L 75.638233 81.014079 
L 75.944126 76.450591 
L 76.250019 85.260143 
L 76.555912 78.014158 
L 76.861805 79.591252 
L 77.167699 76.104129 
L 77.473592 74.362982 
L 77.779485 78.330073 
L 78.085378 74.744154 
L 78.391271 77.669869 
L 78.697164 77.624991 
L 79.003057 75.903628 
L 79.614843 70.912119 
L 79.920736 63.623901 
L 80.22663 63.149601 
L 80.532523 64.149462 
L 80.838416 63.037667 
L 81.144309 67.719663 
L 81.450202 68.102902 
L 81.756095 73.055118 
L 82.061988 73.460605 
L 82.367881 74.773959 
L 82.673774 71.337985 
L 82.979668 70.612369 
L 83.285561 77.245608 
L 83.591454 71.577349 
L 83.897347 71.698461 
L 84.509133 60.078662 
L 84.815026 61.801376 
L 85.120919 67.160923 
L 85.426812 67.431922 
L 85.732705 65.497474 
L 86.038599 65.701428 
L 86.344492 62.782695 
L 86.650385 64.297976 
L 86.956278 66.720905 
L 87.568064 53.657234 
L 87.873957 54.656678 
L 88.17985 56.93122 
L 88.485743 64.432864 
L 88.791636 65.020832 
L 89.09753 61.970501 
L 89.403423 57.775976 
L 90.015209 59.861635 
L 90.626995 54.378953 
L 90.932888 52.619388 
L 91.238781 52.021749 
L 91.544674 55.931348 
L 91.850567 55.633859 
L 92.156461 56.022892 
L 92.462354 54.717216 
L 92.768247 54.85849 
L 93.07414 56.830841 
L 93.380033 53.880686 
L 93.685926 54.052387 
L 93.991819 56.060641 
L 94.297712 54.213091 
L 94.603605 53.926145 
L 94.909498 55.948432 
L 95.215392 54.361791 
L 95.521285 55.587842 
L 95.827178 58.656427 
L 96.133071 57.495815 
L 96.438964 55.017 
L 96.744857 55.454643 
L 97.05075 53.782312 
L 97.356643 49.914628 
L 97.662536 48.12442 
L 97.96843 48.476521 
L 98.274323 49.889388 
L 98.886109 57.899445 
L 99.497895 50.448831 
L 99.803788 50.452981 
L 100.109681 52.148777 
L 100.415574 46.125789 
L 100.721467 47.623178 
L 101.333254 41.609421 
L 101.639147 42.837427 
L 102.250933 49.86755 
L 102.556826 53.910108 
L 102.862719 61.396203 
L 103.168612 53.989105 
L 103.474505 56.556891 
L 103.780398 48.462763 
L 104.086292 44.067093 
L 104.392185 46.319472 
L 104.698078 38.099967 
L 105.003971 40.90282 
L 105.615757 53.397586 
L 105.92165 59.388177 
L 106.227543 57.305306 
L 106.839329 46.943462 
L 107.145223 44.406915 
L 107.451116 45.73761 
L 107.757009 44.522477 
L 108.062902 45.550658 
L 108.368795 45.948517 
L 108.980581 48.685506 
L 109.286474 46.894447 
L 109.592367 48.569891 
L 109.89826 48.93348 
L 110.204154 45.108537 
L 110.510047 44.346844 
L 110.81594 41.567347 
L 111.121833 42.770996 
L 111.427726 47.024762 
L 111.733619 48.504004 
L 112.039512 51.219952 
L 112.345405 43.921441 
L 112.651298 41.706607 
L 112.957191 41.719934 
L 113.263085 37.466709 
L 113.568978 39.025882 
L 113.874871 41.348813 
L 114.180764 41.426238 
L 114.486657 42.890353 
L 114.79255 42.940408 
L 115.710229 35.963881 
L 116.016123 40.892983 
L 116.322016 39.644531 
L 116.627909 43.335077 
L 116.933802 43.255236 
L 117.239695 39.647592 
L 117.545588 38.847408 
L 118.157374 37.947256 
L 118.463267 38.959286 
L 119.075054 44.781802 
L 119.68684 46.224647 
L 119.992733 45.339916 
L 120.298626 39.027879 
L 120.604519 36.987006 
L 120.910412 31.747991 
L 121.216305 31.761419 
L 121.828091 38.965696 
L 122.133985 41.325201 
L 122.439878 41.175686 
L 122.745771 39.012933 
L 123.051664 39.549006 
L 123.357557 38.561669 
L 123.66345 33.393263 
L 123.969343 32.316615 
L 124.275236 36.759115 
L 124.887022 49.447151 
L 125.192916 51.259826 
L 125.498809 50.740932 
L 125.804702 49.369903 
L 126.110595 50.43831 
L 126.416488 55.304782 
L 127.028274 45.66147 
L 127.334167 44.801732 
L 127.64006 41.83437 
L 127.945953 41.910454 
L 128.251847 46.490288 
L 128.863633 43.639247 
L 129.169526 39.637626 
L 129.475419 40.490724 
L 130.087205 49.675226 
L 130.393098 58.888158 
L 131.004885 56.274162 
L 131.310778 52.988278 
L 131.616671 52.194753 
L 131.922564 54.137504 
L 132.53435 51.040796 
L 133.146136 40.73528 
L 133.452029 44.487418 
L 133.757922 45.183513 
L 134.063816 47.75884 
L 134.369709 53.114745 
L 134.675602 52.309218 
L 134.981495 53.704817 
L 135.287388 56.717669 
L 135.593281 57.584674 
L 136.205067 57.329214 
L 136.51096 59.426236 
L 137.122747 58.251677 
L 137.42864 61.082513 
L 137.734533 61.663369 
L 138.040426 61.174775 
L 138.346319 62.74349 
L 138.958105 55.523387 
L 139.263998 55.288471 
L 139.569891 53.675639 
L 139.875784 57.421721 
L 140.181678 55.534898 
L 140.487571 54.811102 
L 140.793464 54.711403 
L 141.099357 47.722559 
L 142.322929 58.929074 
L 142.628822 57.381048 
L 142.934715 55.15501 
L 143.240609 54.840974 
L 143.546502 59.972887 
L 143.852395 61.448492 
L 144.464181 66.70457 
L 144.770074 64.923398 
L 145.075967 69.058376 
L 145.687753 69.865123 
L 145.993646 74.31463 
L 146.29954 71.908588 
L 146.605433 71.944555 
L 146.911326 66.929333 
L 147.217219 66.981728 
L 147.523112 68.656973 
L 147.829005 69.159059 
L 148.134898 71.080181 
L 148.440791 66.854833 
L 148.746684 58.82754 
L 149.052578 59.248746 
L 149.664364 62.681622 
L 149.970257 74.387624 
L 150.27615 74.228794 
L 150.887936 84.534131 
L 151.193829 83.265414 
L 151.499722 91.297292 
L 151.805615 84.055145 
L 152.111509 81.740688 
L 152.417402 82.262895 
L 152.723295 72.639222 
L 153.029188 76.987445 
L 153.335081 77.351441 
L 153.640974 76.746125 
L 153.946867 83.192522 
L 154.558653 85.520235 
L 154.864546 86.970411 
L 155.17044 84.957668 
L 155.476333 80.550766 
L 155.782226 82.952216 
L 156.088119 79.600334 
L 156.394012 81.158184 
L 156.699905 77.795775 
L 157.005798 75.681989 
L 157.311691 77.324962 
L 157.617584 75.083922 
L 157.923477 84.638306 
L 158.535264 91.22961 
L 158.841157 96.189168 
L 159.452943 87.848262 
L 160.064729 82.28865 
L 160.370622 83.756398 
L 160.982408 94.758906 
L 161.288302 100.743091 
L 161.594195 100.143635 
L 161.900088 96.48668 
L 162.205981 91.359609 
L 162.511874 90.564248 
L 162.817767 95.706331 
L 163.12366 98.393035 
L 163.429553 103.782796 
L 164.04134 109.518245 
L 164.347233 108.466834 
L 164.653126 104.412158 
L 164.959019 102.430506 
L 165.264912 93.228254 
L 165.570805 93.273674 
L 165.876698 89.226455 
L 166.182591 83.635844 
L 166.488484 86.044315 
L 166.794377 83.054877 
L 167.100271 92.026823 
L 167.406164 94.68914 
L 167.712057 93.664399 
L 168.01795 100.897654 
L 168.323843 98.948951 
L 168.935629 111.509363 
L 169.241522 109.678542 
L 169.547415 110.439795 
L 169.853308 105.687127 
L 170.159202 104.808006 
L 170.770988 110.50663 
L 171.076881 113.820568 
L 171.382774 114.774836 
L 171.688667 105.625733 
L 171.99456 101.585568 
L 172.606346 97.90656 
L 172.912239 104.81685 
L 173.218133 103.230978 
L 173.524026 107.137656 
L 173.829919 108.770502 
L 174.135812 111.014081 
L 174.441705 115.724459 
L 174.747598 115.462792 
L 175.053491 114.176704 
L 175.665277 115.815709 
L 175.97117 118.206789 
L 176.277064 119.115474 
L 176.582957 115.473528 
L 176.88885 117.397887 
L 177.194743 115.094842 
L 177.500636 118.381674 
L 177.806529 124.973365 
L 178.112422 121.998283 
L 178.418315 126.695884 
L 179.030102 111.283516 
L 179.335995 111.887858 
L 179.641888 108.520605 
L 179.947781 115.09438 
L 180.253674 118.503651 
L 180.559567 123.186492 
L 180.86546 123.277094 
L 181.171353 125.627351 
L 181.477246 125.153139 
L 181.783139 123.901639 
L 182.089033 125.205348 
L 182.394926 124.602835 
L 182.700819 127.382361 
L 183.312605 124.454182 
L 183.618498 121.603641 
L 183.924391 122.363579 
L 184.230284 125.038437 
L 184.536177 126.416948 
L 184.84207 124.929912 
L 185.147964 122.397946 
L 185.453857 117.062047 
L 185.75975 117.621821 
L 186.065643 123.078702 
L 186.371536 125.154539 
L 186.677429 128.606043 
L 186.983322 129.508708 
L 187.289215 128.41565 
L 187.595108 128.416208 
L 187.901001 129.741615 
L 188.206895 128.951838 
L 188.512788 127.655709 
L 188.818681 128.908816 
L 189.124574 124.334234 
L 189.430467 126.28055 
L 189.73636 130.807844 
L 190.042253 131.144149 
L 190.654039 139.494437 
L 190.959932 139.058589 
L 191.265826 140.525915 
L 191.571719 137.18242 
L 191.877612 132.341137 
L 192.183505 131.491909 
L 192.489398 131.427722 
L 192.795291 131.912615 
L 193.407077 128.768723 
L 193.71297 125.610874 
L 194.324757 132.320053 
L 194.63065 128.051228 
L 194.936543 131.303506 
L 195.242436 129.723024 
L 195.548329 129.124337 
L 195.854222 132.561706 
L 196.160115 131.505481 
L 196.771901 139.348144 
L 197.077795 141.271382 
L 197.383688 146.463053 
L 197.689581 142.39646 
L 197.995474 141.783151 
L 198.60726 135.230988 
L 198.913153 135.902616 
L 199.219046 138.200239 
L 199.524939 145.658533 
L 199.830832 142.402048 
L 200.136726 143.806467 
L 200.748512 137.441807 
L 201.666191 140.357669 
L 201.972084 137.559138 
L 202.277977 139.158176 
L 202.58387 137.667882 
L 202.889763 135.070416 
L 203.195657 137.466696 
L 203.50155 137.006202 
L 203.807443 134.025215 
L 204.113336 133.584379 
L 204.419229 135.930429 
L 204.725122 139.248749 
L 205.031015 140.471659 
L 205.336908 147.1775 
L 205.642801 146.176228 
L 205.948694 142.533605 
L 206.254588 142.876369 
L 206.560481 146.023168 
L 206.866374 142.895906 
L 207.172267 142.499559 
L 207.47816 143.14894 
L 207.784053 137.698687 
L 208.089946 140.109054 
L 208.395839 143.926934 
L 208.701732 144.988754 
L 209.007625 147.288167 
L 209.313519 146.8899 
L 209.619412 144.17845 
L 209.925305 146.863517 
L 210.231198 144.989445 
L 210.537091 145.48459 
L 210.842984 146.750753 
L 211.148877 139.932972 
L 211.45477 138.700326 
L 211.760663 136.524012 
L 212.066557 137.316499 
L 212.678343 142.957191 
L 212.984236 146.556966 
L 213.290129 146.920868 
L 213.901915 137.842047 
L 214.207808 135.52134 
L 215.125488 143.983683 
L 215.431381 144.66038 
L 215.737274 140.309756 
L 216.043167 143.465711 
L 216.34906 145.295789 
L 216.654953 148.805184 
L 216.960846 147.644867 
L 217.266739 149.892613 
L 217.878525 138.009013 
L 218.184419 141.207988 
L 218.490312 140.005615 
L 219.102098 143.176002 
L 219.407991 138.788952 
L 219.713884 139.046464 
L 220.019777 140.853694 
L 220.631563 141.784805 
L 220.937456 138.988868 
L 221.24335 138.170184 
L 221.549243 138.119908 
L 221.855136 136.960223 
L 222.161029 138.078466 
L 222.466922 128.570062 
L 222.772815 126.224694 
L 223.078708 129.201047 
L 223.384601 128.159417 
L 223.690494 133.986819 
L 223.996387 136.429721 
L 224.302281 130.73711 
L 224.608174 130.716655 
L 224.914067 127.639244 
L 225.21996 121.975698 
L 225.525853 126.112252 
L 225.831746 126.859108 
L 226.443532 135.230042 
L 226.749425 136.713859 
L 227.055318 132.117278 
L 227.361212 132.809695 
L 227.667105 129.020912 
L 227.972998 131.237708 
L 228.278891 134.813395 
L 228.584784 132.281772 
L 228.890677 134.728024 
L 229.19657 130.950554 
L 229.502463 134.049037 
L 229.808356 133.177791 
L 230.420143 137.125804 
L 230.726036 136.006324 
L 231.031929 142.33874 
L 231.337822 141.252156 
L 231.643715 136.882373 
L 231.949608 135.375662 
L 232.255501 130.386896 
L 232.561394 128.10821 
L 232.867287 127.878047 
L 233.173181 126.228023 
L 233.479074 130.988717 
L 233.784967 130.531644 
L 234.396753 133.276241 
L 234.702646 128.214487 
L 235.008539 127.494224 
L 235.314432 120.065389 
L 235.620325 118.723024 
L 236.232112 120.402293 
L 236.538005 122.567899 
L 236.843898 123.33036 
L 237.149791 127.374412 
L 237.455684 128.806605 
L 237.761577 133.011696 
L 238.373363 126.513983 
L 238.679256 124.920268 
L 238.985149 127.345557 
L 239.291043 127.176133 
L 239.596936 126.045363 
L 240.208722 117.644052 
L 240.514615 118.423517 
L 240.820508 116.698933 
L 241.126401 121.93532 
L 241.432294 122.230717 
L 241.738187 122.758522 
L 242.349974 118.73509 
L 242.655867 121.130862 
L 242.96176 118.314971 
L 243.267653 120.064302 
L 243.573546 117.701598 
L 243.879439 111.506689 
L 244.185332 114.296974 
L 244.491225 111.406819 
L 244.797118 110.411144 
L 245.103012 114.071028 
L 245.408905 111.92105 
L 245.714798 114.847503 
L 246.020691 114.589339 
L 246.326584 115.414437 
L 246.632477 118.101438 
L 246.93837 117.892986 
L 247.244263 117.406423 
L 247.550156 118.295686 
L 247.856049 113.029346 
L 248.161943 112.846007 
L 248.467836 113.905237 
L 248.773729 108.96943 
L 249.079622 107.749339 
L 249.385515 103.797269 
L 249.691408 105.869074 
L 249.997301 103.913319 
L 250.303194 104.137282 
L 250.609087 104.953439 
L 250.91498 100.262084 
L 251.220874 102.204794 
L 251.526767 103.419307 
L 251.83266 104.032064 
L 252.138553 107.105275 
L 252.444446 104.243676 
L 252.750339 107.009892 
L 253.056232 107.043566 
L 253.362125 105.524568 
L 253.668018 109.808933 
L 253.973911 101.054166 
L 254.279805 100.540651 
L 254.585698 103.916522 
L 254.891591 97.553633 
L 255.197484 103.788235 
L 255.503377 100.372896 
L 255.80927 92.65573 
L 256.115163 93.670679 
L 256.421056 90.25496 
L 256.726949 91.744827 
L 257.032842 96.113639 
L 257.338736 94.689725 
L 257.644629 94.851808 
L 257.950522 95.34213 
L 258.256415 94.90626 
L 258.562308 98.478302 
L 259.174094 95.818731 
L 259.479987 89.732846 
L 259.78588 88.868299 
L 260.091773 89.136108 
L 260.397667 82.404939 
L 260.70356 87.91826 
L 261.315346 92.182376 
L 261.621239 98.330718 
L 261.927132 94.531304 
L 262.233025 88.586458 
L 262.538918 87.701918 
L 262.844811 89.04684 
L 263.150705 93.652817 
L 263.456598 93.865696 
L 263.762491 85.775139 
L 264.068384 85.611619 
L 264.374277 79.820622 
L 264.68017 80.962653 
L 264.986063 86.849193 
L 265.291956 82.309488 
L 265.597849 82.784886 
L 265.903742 81.991167 
L 266.209636 81.89328 
L 266.515529 81.647543 
L 266.821422 78.331496 
L 267.127315 76.443822 
L 267.433208 72.498156 
L 268.65678 80.45799 
L 268.962673 78.623074 
L 269.268567 78.881617 
L 269.57446 79.710651 
L 269.880353 79.297855 
L 270.798032 69.505164 
L 271.103925 71.575858 
L 271.409818 76.062524 
L 271.715711 78.649551 
L 272.021604 84.266871 
L 272.327498 77.782297 
L 273.245177 65.5676 
L 273.55107 68.657916 
L 273.856963 65.876432 
L 274.162856 67.690822 
L 274.468749 67.462136 
L 274.774642 64.917594 
L 275.080535 66.686203 
L 275.386429 67.489176 
L 275.692322 66.619911 
L 275.998215 72.249755 
L 276.304108 73.835538 
L 276.915894 67.632668 
L 277.221787 59.690093 
L 277.52768 58.780516 
L 277.833573 63.057712 
L 278.139467 73.598671 
L 278.44536 78.148991 
L 278.751253 79.115399 
L 279.057146 72.982629 
L 279.363039 63.204409 
L 279.668932 60.042841 
L 279.974825 55.501786 
L 280.280718 54.487242 
L 280.586611 52.734849 
L 280.892504 54.920455 
L 281.198398 55.578218 
L 281.504291 57.546856 
L 282.116077 53.449771 
L 282.42197 54.262228 
L 282.727863 54.399821 
L 283.033756 56.612446 
L 283.339649 55.760958 
L 283.645542 55.277341 
L 283.951435 55.913513 
L 284.257329 55.227883 
L 284.869115 51.297841 
L 285.175008 46.637833 
L 285.786794 56.247182 
L 286.092687 56.819005 
L 286.39858 58.9007 
L 286.704473 54.974403 
L 287.010366 53.286644 
L 287.622153 60.525587 
L 287.928046 63.203224 
L 288.845725 52.584075 
L 289.151618 45.363609 
L 289.457511 48.329304 
L 289.763404 48.912198 
L 290.375191 57.017497 
L 290.986977 52.231589 
L 291.598763 51.012315 
L 291.904656 51.5491 
L 292.210549 50.393577 
L 292.516442 48.357823 
L 292.822335 48.696133 
L 293.128229 44.123386 
L 293.434122 44.267021 
L 293.740015 43.993147 
L 294.045908 39.315797 
L 294.351801 46.344807 
L 294.963587 45.252679 
L 295.26948 46.934432 
L 295.575373 47.498061 
L 295.881266 43.537858 
L 296.18716 42.924847 
L 296.493053 44.679229 
L 296.798946 44.280992 
L 297.410732 50.170368 
L 297.716625 51.374324 
L 298.022518 50.826746 
L 298.328411 54.366582 
L 298.940197 55.683054 
L 299.246091 52.220197 
L 299.551984 51.10258 
L 299.857877 42.871785 
L 300.16377 39.11026 
L 300.775556 35.198228 
L 301.081449 44.571557 
L 301.387342 46.092845 
L 301.693235 52.983449 
L 301.999128 51.389051 
L 302.305022 40.70254 
L 302.610915 40.599648 
L 302.916808 30.042528 
L 303.222701 33.66282 
L 303.528594 45.459539 
L 303.834487 43.160265 
L 304.14038 49.395985 
L 304.446273 45.110743 
L 304.752166 38.417967 
L 305.058059 43.229467 
L 305.363953 41.978014 
L 305.669846 40.218425 
L 305.975739 42.121013 
L 306.281632 37.89843 
L 306.893418 44.03378 
L 307.199311 45.552365 
L 307.505204 42.648514 
L 307.811097 38.147317 
L 308.11699 37.335288 
L 308.422884 37.404407 
L 308.728777 42.03078 
L 309.03467 42.761449 
L 309.340563 43.891927 
L 309.646456 39.265152 
L 309.952349 37.781518 
L 310.870028 46.033347 
L 311.175922 45.265569 
L 311.481815 46.940178 
L 312.093601 45.04467 
L 312.399494 48.82123 
L 312.705387 43.412567 
L 313.01128 43.952199 
L 313.317173 43.597241 
L 313.623066 41.57267 
L 313.928959 49.134858 
L 314.234853 47.872192 
L 314.540746 49.809635 
L 314.846639 56.717412 
L 315.152532 54.779824 
L 315.458425 57.027068 
L 315.764318 55.264859 
L 316.070211 46.613957 
L 316.376104 43.391122 
L 316.681997 37.919018 
L 316.98789 40.343802 
L 317.293784 46.853552 
L 317.599677 50.405638 
L 317.90557 56.261635 
L 318.517356 52.370456 
L 318.823249 53.681059 
L 319.129142 50.976093 
L 319.435035 51.306002 
L 319.740928 50.778108 
L 320.046821 49.767546 
L 320.352715 52.973734 
L 320.658608 54.366683 
L 320.964501 54.361753 
L 321.576287 50.624416 
L 321.88218 52.396633 
L 322.188073 46.098842 
L 322.493966 45.116766 
L 322.799859 44.854944 
L 323.105752 41.723491 
L 323.411646 50.166309 
L 323.717539 53.104082 
L 324.023432 52.960912 
L 324.329325 56.029745 
L 324.635218 53.213443 
L 325.247004 59.277332 
L 325.552897 55.19911 
L 325.85879 55.411973 
L 326.470577 47.056353 
L 326.77647 54.159938 
L 327.082363 57.38622 
L 327.388256 53.623002 
L 327.694149 54.472683 
L 328.000042 47.832815 
L 328.305935 45.384587 
L 328.917721 56.989894 
L 329.223615 59.255569 
L 329.835401 51.554423 
L 330.141294 52.581461 
L 330.447187 55.502359 
L 331.058973 64.566313 
L 331.364866 56.638826 
L 331.670759 54.836623 
L 331.976652 58.114419 
L 332.282546 58.273207 
L 332.588439 64.415389 
L 332.894332 67.920486 
L 333.200225 63.398515 
L 333.506118 56.799191 
L 334.117904 51.773955 
L 334.72969 63.969791 
L 335.341477 68.53138 
L 335.64737 68.521514 
L 336.259156 62.997578 
L 336.565049 62.92456 
L 336.870942 63.542589 
L 337.176835 68.516158 
L 337.482728 69.238999 
L 337.788621 72.94267 
L 338.094514 69.370016 
L 338.400408 68.673266 
L 338.706301 69.717318 
L 339.012194 64.976847 
L 339.318087 66.360651 
L 339.62398 65.405561 
L 339.929873 66.930858 
L 340.235766 65.697349 
L 340.541659 66.443676 
L 341.153445 70.794571 
L 341.459339 76.259715 
L 341.765232 78.258688 
L 342.377018 72.002867 
L 342.682911 70.906099 
L 342.988804 72.144502 
L 343.294697 73.973533 
L 343.60059 76.941095 
L 343.906483 76.754883 
L 344.212377 74.738189 
L 344.51827 74.723303 
L 345.130056 69.626777 
L 345.435949 69.323272 
L 345.741842 70.579633 
L 346.047735 73.120729 
L 346.353628 78.595953 
L 346.965414 81.876202 
L 347.271308 83.510207 
L 347.577201 82.648939 
L 347.883094 83.561032 
L 348.188987 85.081403 
L 348.49488 88.348598 
L 348.800773 87.279171 
L 349.106666 91.093936 
L 349.412559 88.561626 
L 349.718452 93.679397 
L 350.024345 95.43863 
L 350.330239 89.33907 
L 350.636132 89.415828 
L 350.942025 80.622272 
L 351.247918 81.421403 
L 351.553811 86.916153 
L 352.165597 84.276719 
L 352.47149 87.049062 
L 352.777383 78.822041 
L 353.083276 79.69614 
L 353.38917 86.193656 
L 353.695063 84.162562 
L 354.000956 95.994378 
L 354.306849 95.960987 
L 354.612742 93.783883 
L 354.918635 95.233724 
L 355.224528 90.396154 
L 355.530421 95.937528 
L 355.836314 95.649435 
L 356.142207 90.661003 
L 356.448101 96.234335 
L 356.753994 96.106189 
L 357.059887 95.595314 
L 357.36578 98.245723 
L 357.671673 93.095355 
L 357.977566 94.619245 
L 358.283459 101.959324 
L 358.589352 101.404135 
L 358.895245 103.108138 
L 359.507032 99.336633 
L 359.812925 103.279517 
L 360.118818 105.63348 
L 360.424711 105.466174 
L 361.036497 106.294145 
L 361.34239 106.211113 
L 361.648283 105.509979 
L 361.954176 105.737033 
L 362.26007 104.731262 
L 362.871856 104.587457 
L 363.177749 103.630867 
L 363.483642 104.533629 
L 363.789535 110.582255 
L 364.095428 112.503462 
L 364.401321 112.545591 
L 364.707214 109.016321 
L 365.013107 102.76744 
L 365.319001 105.667129 
L 365.624894 104.381097 
L 365.930787 111.805985 
L 366.23668 111.655428 
L 366.848466 111.952532 
L 367.154359 110.284871 
L 367.460252 114.692253 
L 367.766145 114.972208 
L 368.072038 110.719756 
L 368.377932 109.428899 
L 368.683825 109.384398 
L 368.989718 108.716824 
L 369.295611 112.191588 
L 369.601504 113.396439 
L 370.21329 117.138189 
L 370.825076 118.928505 
L 371.436863 116.002836 
L 371.742756 118.771295 
L 371.742756 118.771295 
" clip-path="url(#p2b668d2933)" style="fill: none; stroke-dasharray: 5.55,2.4; stroke-dashoffset: 0; stroke: #bf00bf; stroke-width: 1.5"/>
   </g>
   <g id="patch_3">
    <path d="M 52.160938 173.52 
L 52.160938 7.2 
" style="fill: none; stroke: #000000; stroke-width: 0.8; stroke-linejoin: miter; stroke-linecap: square"/>
   </g>
   <g id="patch_4">
    <path d="M 386.960938 173.52 
L 386.960938 7.2 
" style="fill: none; stroke: #000000; stroke-width: 0.8; stroke-linejoin: miter; stroke-linecap: square"/>
   </g>
   <g id="patch_5">
    <path d="M 52.160938 173.52 
L 386.960938 173.52 
" style="fill: none; stroke: #000000; stroke-width: 0.8; stroke-linejoin: miter; stroke-linecap: square"/>
   </g>
   <g id="patch_6">
    <path d="M 52.160938 7.2 
L 386.960938 7.2 
" style="fill: none; stroke: #000000; stroke-width: 0.8; stroke-linejoin: miter; stroke-linecap: square"/>
   </g>
   <g id="legend_1">
    <g id="patch_7">
     <path d="M 59.160938 168.52 
L 153.885938 168.52 
Q 155.885938 168.52 155.885938 166.52 
L 155.885938 138.16375 
Q 155.885938 136.16375 153.885938 136.16375 
L 59.160938 136.16375 
Q 57.160938 136.16375 57.160938 138.16375 
L 57.160938 166.52 
Q 57.160938 168.52 59.160938 168.52 
z
" style="fill: #ffffff; opacity: 0.8; stroke: #cccccc; stroke-linejoin: miter"/>
    </g>
    <g id="line2d_29">
     <path d="M 61.160938 144.262188 
L 71.160938 144.262188 
L 81.160938 144.262188 
" style="fill: none; stroke: #1f77b4; stroke-width: 1.5; stroke-linecap: square"/>
    </g>
    <g id="text_16">
     <!-- labels -->
     <g transform="translate(89.160938 147.762188) scale(0.1 -0.1)">
      <defs>
       <path id="DejaVuSans-6c" d="M 603 4863 
L 1178 4863 
L 1178 0 
L 603 0 
L 603 4863 
z
" transform="scale(0.015625)"/>
       <path id="DejaVuSans-61" d="M 2194 1759 
Q 1497 1759 1228 1600 
Q 959 1441 959 1056 
Q 959 750 1161 570 
Q 1363 391 1709 391 
Q 2188 391 2477 730 
Q 2766 1069 2766 1631 
L 2766 1759 
L 2194 1759 
z
M 3341 1997 
L 3341 0 
L 2766 0 
L 2766 531 
Q 2569 213 2275 61 
Q 1981 -91 1556 -91 
Q 1019 -91 701 211 
Q 384 513 384 1019 
Q 384 1609 779 1909 
Q 1175 2209 1959 2209 
L 2766 2209 
L 2766 2266 
Q 2766 2663 2505 2880 
Q 2244 3097 1772 3097 
Q 1472 3097 1187 3025 
Q 903 2953 641 2809 
L 641 3341 
Q 956 3463 1253 3523 
Q 1550 3584 1831 3584 
Q 2591 3584 2966 3190 
Q 3341 2797 3341 1997 
z
" transform="scale(0.015625)"/>
       <path id="DejaVuSans-62" d="M 3116 1747 
Q 3116 2381 2855 2742 
Q 2594 3103 2138 3103 
Q 1681 3103 1420 2742 
Q 1159 2381 1159 1747 
Q 1159 1113 1420 752 
Q 1681 391 2138 391 
Q 2594 391 2855 752 
Q 3116 1113 3116 1747 
z
M 1159 2969 
Q 1341 3281 1617 3432 
Q 1894 3584 2278 3584 
Q 2916 3584 3314 3078 
Q 3713 2572 3713 1747 
Q 3713 922 3314 415 
Q 2916 -91 2278 -91 
Q 1894 -91 1617 61 
Q 1341 213 1159 525 
L 1159 0 
L 581 0 
L 581 4863 
L 1159 4863 
L 1159 2969 
z
" transform="scale(0.015625)"/>
       <path id="DejaVuSans-73" d="M 2834 3397 
L 2834 2853 
Q 2591 2978 2328 3040 
Q 2066 3103 1784 3103 
Q 1356 3103 1142 2972 
Q 928 2841 928 2578 
Q 928 2378 1081 2264 
Q 1234 2150 1697 2047 
L 1894 2003 
Q 2506 1872 2764 1633 
Q 3022 1394 3022 966 
Q 3022 478 2636 193 
Q 2250 -91 1575 -91 
Q 1294 -91 989 -36 
Q 684 19 347 128 
L 347 722 
Q 666 556 975 473 
Q 1284 391 1588 391 
Q 1994 391 2212 530 
Q 2431 669 2431 922 
Q 2431 1156 2273 1281 
Q 2116 1406 1581 1522 
L 1381 1569 
Q 847 1681 609 1914 
Q 372 2147 372 2553 
Q 372 3047 722 3315 
Q 1072 3584 1716 3584 
Q 2034 3584 2315 3537 
Q 2597 3491 2834 3397 
z
" transform="scale(0.015625)"/>
      </defs>
      <use xlink:href="#DejaVuSans-6c"/>
      <use xlink:href="#DejaVuSans-61" x="27.783203"/>
      <use xlink:href="#DejaVuSans-62" x="89.0625"/>
      <use xlink:href="#DejaVuSans-65" x="152.539062"/>
      <use xlink:href="#DejaVuSans-6c" x="214.0625"/>
      <use xlink:href="#DejaVuSans-73" x="241.845703"/>
     </g>
    </g>
    <g id="line2d_30">
     <path d="M 61.160938 158.940313 
L 71.160938 158.940313 
L 81.160938 158.940313 
" style="fill: none; stroke-dasharray: 5.55,2.4; stroke-dashoffset: 0; stroke: #bf00bf; stroke-width: 1.5"/>
    </g>
    <g id="text_17">
     <!-- 1-step preds -->
     <g transform="translate(89.160938 162.440313) scale(0.1 -0.1)">
      <defs>
       <path id="DejaVuSans-2d" d="M 313 2009 
L 1997 2009 
L 1997 1497 
L 313 1497 
L 313 2009 
z
" transform="scale(0.015625)"/>
       <path id="DejaVuSans-70" d="M 1159 525 
L 1159 -1331 
L 581 -1331 
L 581 3500 
L 1159 3500 
L 1159 2969 
Q 1341 3281 1617 3432 
Q 1894 3584 2278 3584 
Q 2916 3584 3314 3078 
Q 3713 2572 3713 1747 
Q 3713 922 3314 415 
Q 2916 -91 2278 -91 
Q 1894 -91 1617 61 
Q 1341 213 1159 525 
z
M 3116 1747 
Q 3116 2381 2855 2742 
Q 2594 3103 2138 3103 
Q 1681 3103 1420 2742 
Q 1159 2381 1159 1747 
Q 1159 1113 1420 752 
Q 1681 391 2138 391 
Q 2594 391 2855 752 
Q 3116 1113 3116 1747 
z
" transform="scale(0.015625)"/>
       <path id="DejaVuSans-20" transform="scale(0.015625)"/>
       <path id="DejaVuSans-72" d="M 2631 2963 
Q 2534 3019 2420 3045 
Q 2306 3072 2169 3072 
Q 1681 3072 1420 2755 
Q 1159 2438 1159 1844 
L 1159 0 
L 581 0 
L 581 3500 
L 1159 3500 
L 1159 2956 
Q 1341 3275 1631 3429 
Q 1922 3584 2338 3584 
Q 2397 3584 2469 3576 
Q 2541 3569 2628 3553 
L 2631 2963 
z
" transform="scale(0.015625)"/>
       <path id="DejaVuSans-64" d="M 2906 2969 
L 2906 4863 
L 3481 4863 
L 3481 0 
L 2906 0 
L 2906 525 
Q 2725 213 2448 61 
Q 2172 -91 1784 -91 
Q 1150 -91 751 415 
Q 353 922 353 1747 
Q 353 2572 751 3078 
Q 1150 3584 1784 3584 
Q 2172 3584 2448 3432 
Q 2725 3281 2906 2969 
z
M 947 1747 
Q 947 1113 1208 752 
Q 1469 391 1925 391 
Q 2381 391 2643 752 
Q 2906 1113 2906 1747 
Q 2906 2381 2643 2742 
Q 2381 3103 1925 3103 
Q 1469 3103 1208 2742 
Q 947 2381 947 1747 
z
" transform="scale(0.015625)"/>
      </defs>
      <use xlink:href="#DejaVuSans-31"/>
      <use xlink:href="#DejaVuSans-2d" x="63.623047"/>
      <use xlink:href="#DejaVuSans-73" x="99.707031"/>
      <use xlink:href="#DejaVuSans-74" x="151.806641"/>
      <use xlink:href="#DejaVuSans-65" x="191.015625"/>
      <use xlink:href="#DejaVuSans-70" x="252.539062"/>
      <use xlink:href="#DejaVuSans-20" x="316.015625"/>
      <use xlink:href="#DejaVuSans-70" x="347.802734"/>
      <use xlink:href="#DejaVuSans-72" x="411.279297"/>
      <use xlink:href="#DejaVuSans-65" x="450.142578"/>
      <use xlink:href="#DejaVuSans-64" x="511.666016"/>
      <use xlink:href="#DejaVuSans-73" x="575.142578"/>
     </g>
    </g>
   </g>
  </g>
 </g>
 <defs>
  <clipPath id="p2b668d2933">
   <rect x="52.160938" y="7.2" width="334.8" height="166.32"/>
  </clipPath>
 </defs>
</svg>
