<?xml version="1.0" encoding="utf-8" standalone="no"?>
<!DOCTYPE svg PUBLIC "-//W3C//DTD SVG 1.1//EN"
  "http://www.w3.org/Graphics/SVG/1.1/DTD/svg11.dtd">
<svg xmlns:xlink="http://www.w3.org/1999/xlink" width="245.120313pt" height="183.35625pt" viewBox="0 0 245.120313 183.35625" xmlns="http://www.w3.org/2000/svg" version="1.1">
 <metadata>
  <rdf:RDF xmlns:dc="http://purl.org/dc/elements/1.1/" xmlns:cc="http://creativecommons.org/ns#" xmlns:rdf="http://www.w3.org/1999/02/22-rdf-syntax-ns#">
   <cc:Work>
    <dc:type rdf:resource="http://purl.org/dc/dcmitype/StillImage"/>
    <dc:date>2025-08-14T11:14:07.756399</dc:date>
    <dc:format>image/svg+xml</dc:format>
    <dc:creator>
     <cc:Agent>
      <dc:title>Matplotlib v3.7.2, https://matplotlib.org/</dc:title>
     </cc:Agent>
    </dc:creator>
   </cc:Work>
  </rdf:RDF>
 </metadata>
 <defs>
  <style type="text/css">*{stroke-linejoin: round; stroke-linecap: butt}</style>
 </defs>
 <g id="figure_1">
  <g id="patch_1">
   <path d="M 0 183.35625 
L 245.120313 183.35625 
L 245.120313 0 
L 0 0 
z
" style="fill: #ffffff"/>
  </g>
  <g id="axes_1">
   <g id="patch_2">
    <path d="M 42.620312 145.8 
L 237.920313 145.8 
L 237.920313 7.2 
L 42.620312 7.2 
z
" style="fill: #ffffff"/>
   </g>
   <g id="matplotlib.axis_1">
    <g id="xtick_1">
     <g id="line2d_1">
      <defs>
       <path id="m2b7ed09340" d="M 0 0 
L 0 3.5 
" style="stroke: #000000; stroke-width: 0.8"/>
      </defs>
      <g>
       <use xlink:href="#m2b7ed09340" x="88.393794" y="145.8" style="stroke: #000000; stroke-width: 0.8"/>
      </g>
     </g>
     <g id="text_1">
      <!-- −4 -->
      <g transform="translate(81.0227 160.398438) scale(0.1 -0.1)">
       <defs>
        <path id="DejaVuSans-2212" d="M 678 2272 
L 4684 2272 
L 4684 1741 
L 678 1741 
L 678 2272 
z
" transform="scale(0.015625)"/>
        <path id="DejaVuSans-34" d="M 2419 4116 
L 825 1625 
L 2419 1625 
L 2419 4116 
z
M 2253 4666 
L 3047 4666 
L 3047 1625 
L 3713 1625 
L 3713 1100 
L 3047 1100 
L 3047 0 
L 2419 0 
L 2419 1100 
L 313 1100 
L 313 1709 
L 2253 4666 
z
" transform="scale(0.015625)"/>
       </defs>
       <use xlink:href="#DejaVuSans-2212"/>
       <use xlink:href="#DejaVuSans-34" x="83.789062"/>
      </g>
     </g>
    </g>
    <g id="xtick_2">
     <g id="line2d_2">
      <g>
       <use xlink:href="#m2b7ed09340" x="149.425102" y="145.8" style="stroke: #000000; stroke-width: 0.8"/>
      </g>
     </g>
     <g id="text_2">
      <!-- −2 -->
      <g transform="translate(142.054008 160.398438) scale(0.1 -0.1)">
       <defs>
        <path id="DejaVuSans-32" d="M 1228 531 
L 3431 531 
L 3431 0 
L 469 0 
L 469 531 
Q 828 903 1448 1529 
Q 2069 2156 2228 2338 
Q 2531 2678 2651 2914 
Q 2772 3150 2772 3378 
Q 2772 3750 2511 3984 
Q 2250 4219 1831 4219 
Q 1534 4219 1204 4116 
Q 875 4013 500 3803 
L 500 4441 
Q 881 4594 1212 4672 
Q 1544 4750 1819 4750 
Q 2544 4750 2975 4387 
Q 3406 4025 3406 3419 
Q 3406 3131 3298 2873 
Q 3191 2616 2906 2266 
Q 2828 2175 2409 1742 
Q 1991 1309 1228 531 
z
" transform="scale(0.015625)"/>
       </defs>
       <use xlink:href="#DejaVuSans-2212"/>
       <use xlink:href="#DejaVuSans-32" x="83.789062"/>
      </g>
     </g>
    </g>
    <g id="xtick_3">
     <g id="line2d_3">
      <g>
       <use xlink:href="#m2b7ed09340" x="210.45641" y="145.8" style="stroke: #000000; stroke-width: 0.8"/>
      </g>
     </g>
     <g id="text_3">
      <!-- 0 -->
      <g transform="translate(207.27516 160.398438) scale(0.1 -0.1)">
       <defs>
        <path id="DejaVuSans-30" d="M 2034 4250 
Q 1547 4250 1301 3770 
Q 1056 3291 1056 2328 
Q 1056 1369 1301 889 
Q 1547 409 2034 409 
Q 2525 409 2770 889 
Q 3016 1369 3016 2328 
Q 3016 3291 2770 3770 
Q 2525 4250 2034 4250 
z
M 2034 4750 
Q 2819 4750 3233 4129 
Q 3647 3509 3647 2328 
Q 3647 1150 3233 529 
Q 2819 -91 2034 -91 
Q 1250 -91 836 529 
Q 422 1150 422 2328 
Q 422 3509 836 4129 
Q 1250 4750 2034 4750 
z
" transform="scale(0.015625)"/>
       </defs>
       <use xlink:href="#DejaVuSans-30"/>
      </g>
     </g>
    </g>
    <g id="text_4">
     <!-- x1 -->
     <g transform="translate(134.129687 174.076563) scale(0.1 -0.1)">
      <defs>
       <path id="DejaVuSans-78" d="M 3513 3500 
L 2247 1797 
L 3578 0 
L 2900 0 
L 1881 1375 
L 863 0 
L 184 0 
L 1544 1831 
L 300 3500 
L 978 3500 
L 1906 2253 
L 2834 3500 
L 3513 3500 
z
" transform="scale(0.015625)"/>
       <path id="DejaVuSans-31" d="M 794 531 
L 1825 531 
L 1825 4091 
L 703 3866 
L 703 4441 
L 1819 4666 
L 2450 4666 
L 2450 531 
L 3481 531 
L 3481 0 
L 794 0 
L 794 531 
z
" transform="scale(0.015625)"/>
      </defs>
      <use xlink:href="#DejaVuSans-78"/>
      <use xlink:href="#DejaVuSans-31" x="59.179688"/>
     </g>
    </g>
   </g>
   <g id="matplotlib.axis_2">
    <g id="ytick_1">
     <g id="line2d_4">
      <defs>
       <path id="maec4e77f40" d="M 0 0 
L -3.5 0 
" style="stroke: #000000; stroke-width: 0.8"/>
      </defs>
      <g>
       <use xlink:href="#maec4e77f40" x="42.620312" y="145.8" style="stroke: #000000; stroke-width: 0.8"/>
      </g>
     </g>
     <g id="text_5">
      <!-- −3 -->
      <g transform="translate(20.878125 149.599219) scale(0.1 -0.1)">
       <defs>
        <path id="DejaVuSans-33" d="M 2597 2516 
Q 3050 2419 3304 2112 
Q 3559 1806 3559 1356 
Q 3559 666 3084 287 
Q 2609 -91 1734 -91 
Q 1441 -91 1130 -33 
Q 819 25 488 141 
L 488 750 
Q 750 597 1062 519 
Q 1375 441 1716 441 
Q 2309 441 2620 675 
Q 2931 909 2931 1356 
Q 2931 1769 2642 2001 
Q 2353 2234 1838 2234 
L 1294 2234 
L 1294 2753 
L 1863 2753 
Q 2328 2753 2575 2939 
Q 2822 3125 2822 3475 
Q 2822 3834 2567 4026 
Q 2313 4219 1838 4219 
Q 1578 4219 1281 4162 
Q 984 4106 628 3988 
L 628 4550 
Q 988 4650 1302 4700 
Q 1616 4750 1894 4750 
Q 2613 4750 3031 4423 
Q 3450 4097 3450 3541 
Q 3450 3153 3228 2886 
Q 3006 2619 2597 2516 
z
" transform="scale(0.015625)"/>
       </defs>
       <use xlink:href="#DejaVuSans-2212"/>
       <use xlink:href="#DejaVuSans-33" x="83.789062"/>
      </g>
     </g>
    </g>
    <g id="ytick_2">
     <g id="line2d_5">
      <g>
       <use xlink:href="#maec4e77f40" x="42.620312" y="110.261505" style="stroke: #000000; stroke-width: 0.8"/>
      </g>
     </g>
     <g id="text_6">
      <!-- −2 -->
      <g transform="translate(20.878125 114.060723) scale(0.1 -0.1)">
       <use xlink:href="#DejaVuSans-2212"/>
       <use xlink:href="#DejaVuSans-32" x="83.789062"/>
      </g>
     </g>
    </g>
    <g id="ytick_3">
     <g id="line2d_6">
      <g>
       <use xlink:href="#maec4e77f40" x="42.620312" y="74.723009" style="stroke: #000000; stroke-width: 0.8"/>
      </g>
     </g>
     <g id="text_7">
      <!-- −1 -->
      <g transform="translate(20.878125 78.522228) scale(0.1 -0.1)">
       <use xlink:href="#DejaVuSans-2212"/>
       <use xlink:href="#DejaVuSans-31" x="83.789062"/>
      </g>
     </g>
    </g>
    <g id="ytick_4">
     <g id="line2d_7">
      <g>
       <use xlink:href="#maec4e77f40" x="42.620312" y="39.184514" style="stroke: #000000; stroke-width: 0.8"/>
      </g>
     </g>
     <g id="text_8">
      <!-- 0 -->
      <g transform="translate(29.257812 42.983732) scale(0.1 -0.1)">
       <use xlink:href="#DejaVuSans-30"/>
      </g>
     </g>
    </g>
    <g id="text_9">
     <!-- x2 -->
     <g transform="translate(14.798437 82.640625) rotate(-90) scale(0.1 -0.1)">
      <use xlink:href="#DejaVuSans-78"/>
      <use xlink:href="#DejaVuSans-32" x="59.179688"/>
     </g>
    </g>
   </g>
   <g id="line2d_8">
    <path d="M 57.87814 110.261505 
L 70.084395 96.046107 
L 78.348722 87.165818 
L 84.908055 80.53699 
L 90.459656 75.23604 
L 95.325876 70.841038 
L 99.686639 67.116633 
L 103.654385 63.914847 
L 107.304914 61.134811 
L 110.692191 58.703644 
L 113.856259 56.566323 
L 116.827804 54.679869 
L 119.630965 53.0098 
L 122.285138 51.527847 
L 124.806194 50.210441 
L 127.207316 49.037654 
L 129.499601 47.992448 
L 131.6925 47.060128 
L 133.794137 46.227924 
L 135.811564 45.484675 
L 137.750949 44.820583 
" clip-path="url(#pe176dc4e54)" style="fill: none; stroke: #ff7f0e; stroke-width: 1.5; stroke-linecap: square"/>
    <defs>
     <path id="m35250e605a" d="M 0 3 
C 0.795609 3 1.55874 2.683901 2.12132 2.12132 
C 2.683901 1.55874 3 0.795609 3 0 
C 3 -0.795609 2.683901 -1.55874 2.12132 -2.12132 
C 1.55874 -2.683901 0.795609 -3 0 -3 
C -0.795609 -3 -1.55874 -2.683901 -2.12132 -2.12132 
C -2.683901 -1.55874 -3 -0.795609 -3 0 
C -3 0.795609 -2.683901 1.55874 -2.12132 2.12132 
C -1.55874 2.683901 -0.795609 3 0 3 
z
" style="stroke: #ff7f0e"/>
    </defs>
    <g clip-path="url(#pe176dc4e54)">
     <use xlink:href="#m35250e605a" x="57.87814" y="110.261505" style="fill: #ff7f0e; stroke: #ff7f0e"/>
     <use xlink:href="#m35250e605a" x="70.084395" y="96.046107" style="fill: #ff7f0e; stroke: #ff7f0e"/>
     <use xlink:href="#m35250e605a" x="78.348722" y="87.165818" style="fill: #ff7f0e; stroke: #ff7f0e"/>
     <use xlink:href="#m35250e605a" x="84.908055" y="80.53699" style="fill: #ff7f0e; stroke: #ff7f0e"/>
     <use xlink:href="#m35250e605a" x="90.459656" y="75.23604" style="fill: #ff7f0e; stroke: #ff7f0e"/>
     <use xlink:href="#m35250e605a" x="95.325876" y="70.841038" style="fill: #ff7f0e; stroke: #ff7f0e"/>
     <use xlink:href="#m35250e605a" x="99.686639" y="67.116633" style="fill: #ff7f0e; stroke: #ff7f0e"/>
     <use xlink:href="#m35250e605a" x="103.654385" y="63.914847" style="fill: #ff7f0e; stroke: #ff7f0e"/>
     <use xlink:href="#m35250e605a" x="107.304914" y="61.134811" style="fill: #ff7f0e; stroke: #ff7f0e"/>
     <use xlink:href="#m35250e605a" x="110.692191" y="58.703644" style="fill: #ff7f0e; stroke: #ff7f0e"/>
     <use xlink:href="#m35250e605a" x="113.856259" y="56.566323" style="fill: #ff7f0e; stroke: #ff7f0e"/>
     <use xlink:href="#m35250e605a" x="116.827804" y="54.679869" style="fill: #ff7f0e; stroke: #ff7f0e"/>
     <use xlink:href="#m35250e605a" x="119.630965" y="53.0098" style="fill: #ff7f0e; stroke: #ff7f0e"/>
     <use xlink:href="#m35250e605a" x="122.285138" y="51.527847" style="fill: #ff7f0e; stroke: #ff7f0e"/>
     <use xlink:href="#m35250e605a" x="124.806194" y="50.210441" style="fill: #ff7f0e; stroke: #ff7f0e"/>
     <use xlink:href="#m35250e605a" x="127.207316" y="49.037654" style="fill: #ff7f0e; stroke: #ff7f0e"/>
     <use xlink:href="#m35250e605a" x="129.499601" y="47.992448" style="fill: #ff7f0e; stroke: #ff7f0e"/>
     <use xlink:href="#m35250e605a" x="131.6925" y="47.060128" style="fill: #ff7f0e; stroke: #ff7f0e"/>
     <use xlink:href="#m35250e605a" x="133.794137" y="46.227924" style="fill: #ff7f0e; stroke: #ff7f0e"/>
     <use xlink:href="#m35250e605a" x="135.811564" y="45.484675" style="fill: #ff7f0e; stroke: #ff7f0e"/>
     <use xlink:href="#m35250e605a" x="137.750949" y="44.820583" style="fill: #ff7f0e; stroke: #ff7f0e"/>
    </g>
   </g>
   <g id="PathCollection_1"/>
   <g id="PathCollection_2">
    <path d="M 97.100382 7.2 
L 94.496875 7.868834 
L 91.445312 8.673682 
L 88.39375 9.499428 
L 85.342187 10.346087 
L 83.907933 10.753846 
L 82.290625 11.274955 
L 79.239062 12.281881 
L 76.1875 13.312501 
L 73.307059 14.307692 
L 73.135937 14.37591 
L 70.084375 15.619766 
L 67.032812 16.890956 
L 64.751925 17.861538 
L 63.98125 18.249109 
L 60.929687 19.816046 
L 57.878125 21.415284 
L 57.877938 21.415385 
L 54.826562 23.409381 
L 52.485895 24.969231 
L 51.775 25.578339 
L 48.723437 28.243754 
L 48.409625 28.523077 
L 45.671875 31.934684 
L 45.559825 32.076923 
L 43.880097 35.630769 
L 43.32021 39.184615 
L 43.880164 42.738462 
L 45.559952 46.292308 
L 45.671875 46.434382 
L 48.409823 49.846154 
L 48.723437 50.125296 
L 51.775 52.790666 
L 52.486171 53.4 
L 54.826562 54.959647 
L 57.878125 56.953743 
L 57.878287 56.953846 
L 60.929687 58.552984 
L 63.98125 60.119906 
L 64.752362 60.507692 
L 67.032812 61.47808 
L 70.084375 62.749259 
L 73.135937 63.993103 
L 73.307606 64.061538 
L 76.1875 65.056533 
L 79.239062 66.087144 
L 82.290625 67.094063 
L 83.908603 67.615385 
L 85.342187 68.022952 
L 88.39375 68.869601 
L 91.445312 69.695345 
L 94.496875 70.500184 
L 97.101218 71.169231 
L 97.548437 71.272026 
L 100.6 71.954737 
L 103.651562 72.618745 
L 106.703125 73.264046 
L 109.754687 73.890645 
L 112.80625 74.49854 
L 113.969186 74.723077 
L 115.857812 75.053 
L 118.909375 75.569153 
L 121.960937 76.068383 
L 125.0125 76.550691 
L 128.064062 77.016075 
L 131.115625 77.464536 
L 134.167187 77.896075 
L 136.970225 78.276923 
L 137.21875 78.307754 
L 140.270312 78.670864 
L 143.321875 79.018523 
L 146.373437 79.35073 
L 149.425 79.667487 
L 152.476562 79.968792 
L 155.528125 80.254644 
L 158.579687 80.525046 
L 161.63125 80.779996 
L 164.682812 81.019495 
L 167.734375 81.243542 
L 170.785937 81.452137 
L 173.8375 81.645282 
L 176.889062 81.822974 
L 177.03568 81.830769 
L 179.940625 81.97286 
L 182.992188 82.107907 
L 186.04375 82.228739 
L 189.095312 82.335353 
L 192.146875 82.427755 
L 195.198437 82.505939 
L 198.25 82.56991 
L 201.301562 82.619664 
L 204.353125 82.655203 
L 207.404687 82.676526 
L 210.45625 82.683635 
L 213.507812 82.676528 
L 216.559375 82.655206 
L 219.610937 82.619669 
L 222.6625 82.569915 
L 225.714062 82.505947 
L 228.765625 82.427763 
L 231.817187 82.335365 
L 234.86875 82.228751 
L 237.920312 82.10792 
" clip-path="url(#pe176dc4e54)" style="fill: none; stroke: #1f77b4; stroke-width: 1.5"/>
   </g>
   <g id="PathCollection_3">
    <path d="M 42.620312 82.505944 
L 45.671875 83.280681 
L 48.723437 84.041201 
L 51.775 84.787511 
L 54.263904 85.384615 
L 54.826562 85.509602 
L 57.878125 86.174302 
L 60.929687 86.825839 
L 63.98125 87.464215 
L 67.032812 88.089426 
L 70.084375 88.701477 
L 71.291898 88.938462 
L 73.135937 89.275408 
L 76.1875 89.820738 
L 79.239062 90.353814 
L 82.290625 90.874637 
L 85.342187 91.383204 
L 88.39375 91.879518 
L 91.445312 92.363573 
L 92.277949 92.492308 
L 94.496875 92.813244 
L 97.548437 93.243144 
L 100.6 93.661581 
L 103.651562 94.068554 
L 106.703125 94.464061 
L 109.754687 94.848106 
L 112.80625 95.220689 
L 115.857812 95.581804 
L 118.909375 95.931456 
L 119.94432 96.046154 
L 121.960937 96.2561 
L 125.0125 96.563024 
L 128.064062 96.859177 
L 131.115625 97.144562 
L 134.167187 97.419178 
L 137.21875 97.683025 
L 140.270312 97.936102 
L 143.321875 98.17841 
L 146.373437 98.409947 
L 149.425 98.630716 
L 152.476562 98.840716 
L 155.528125 99.039948 
L 158.579687 99.228409 
L 161.63125 99.406104 
L 164.682812 99.573025 
L 165.209954 99.6 
L 167.734375 99.721799 
L 170.785937 99.858875 
L 173.8375 99.985799 
L 176.889062 100.102569 
L 179.940625 100.209184 
L 182.992188 100.305646 
L 186.04375 100.391955 
L 189.095312 100.468108 
L 192.146875 100.534108 
L 195.198437 100.589955 
L 198.25 100.635649 
L 201.301562 100.671187 
L 204.353125 100.696573 
L 207.404687 100.711805 
L 210.45625 100.716881 
L 213.507812 100.711805 
L 216.559375 100.696575 
L 219.610937 100.67119 
L 222.6625 100.635654 
L 225.714062 100.58996 
L 228.765625 100.534115 
L 231.817187 100.468115 
L 234.86875 100.391962 
L 237.920312 100.305656 
" clip-path="url(#pe176dc4e54)" style="fill: none; stroke: #1f77b4; stroke-width: 1.5"/>
   </g>
   <g id="PathCollection_4">
    <path d="M 42.620312 100.58996 
L 45.671875 101.143341 
L 48.723437 101.686574 
L 51.775 102.219648 
L 54.826562 102.74257 
L 57.274129 103.153846 
L 57.878125 103.249852 
L 60.929687 103.7253 
L 63.98125 104.191142 
L 67.032812 104.647379 
L 70.084375 105.09401 
L 73.135937 105.531037 
L 76.1875 105.958457 
L 79.239062 106.376274 
L 81.716563 106.707692 
L 82.290625 106.780547 
L 85.342187 107.158715 
L 88.39375 107.527769 
L 91.445312 107.887709 
L 94.496875 108.238536 
L 97.548437 108.580254 
L 100.6 108.912858 
L 103.651562 109.236349 
L 106.703125 109.550728 
L 109.754687 109.855993 
L 112.80625 110.152149 
L 113.969179 110.261538 
L 115.857812 110.430524 
L 118.909375 110.694895 
L 121.960937 110.950599 
L 125.0125 111.197635 
L 128.064062 111.436004 
L 131.115625 111.665702 
L 134.167187 111.886732 
L 137.21875 112.0991 
L 140.270312 112.302795 
L 143.321875 112.497824 
L 146.373437 112.684185 
L 149.425 112.861875 
L 152.476562 113.030902 
L 155.528125 113.191257 
L 158.579687 113.342945 
L 161.63125 113.485966 
L 164.682812 113.620319 
L 167.734375 113.746005 
L 169.543626 113.815385 
L 170.785937 113.860808 
L 173.8375 113.964116 
L 176.889062 114.05916 
L 179.940625 114.145943 
L 182.992188 114.224459 
L 186.04375 114.294706 
L 189.095312 114.356693 
L 192.146875 114.410416 
L 195.198437 114.455871 
L 198.25 114.493062 
L 201.301562 114.521992 
L 204.353125 114.542651 
L 207.404687 114.555049 
L 210.45625 114.559183 
L 213.507812 114.555053 
L 216.559375 114.542655 
L 219.610937 114.521992 
L 222.6625 114.493066 
L 225.714062 114.455875 
L 228.765625 114.41042 
L 231.817187 114.356701 
L 234.86875 114.294714 
L 237.920312 114.224467 
" clip-path="url(#pe176dc4e54)" style="fill: none; stroke: #1f77b4; stroke-width: 1.5"/>
   </g>
   <g id="PathCollection_5">
    <path d="M 42.620312 114.455875 
L 45.671875 114.906301 
L 48.723437 115.348468 
L 51.775 115.782366 
L 54.826562 116.208 
L 57.878125 116.62537 
L 60.929687 117.034475 
L 63.478147 117.369231 
L 63.98125 117.432379 
L 67.032812 117.807509 
L 70.084375 118.174738 
L 73.135937 118.534073 
L 76.1875 118.885508 
L 79.239062 119.229046 
L 82.290625 119.564688 
L 85.342187 119.892432 
L 88.39375 120.212276 
L 91.445312 120.524227 
L 94.496875 120.828277 
L 95.473695 120.923077 
L 97.548437 121.115862 
L 100.6 121.391852 
L 103.651562 121.660282 
L 106.703125 121.921151 
L 109.754687 122.174455 
L 112.80625 122.420202 
L 115.857812 122.658385 
L 118.909375 122.889007 
L 121.960937 123.112067 
L 125.0125 123.327568 
L 128.064062 123.535507 
L 131.115625 123.735882 
L 134.167187 123.928699 
L 137.21875 124.113952 
L 140.270312 124.291645 
L 143.321875 124.461776 
L 143.606193 124.476923 
L 146.373437 124.618329 
L 149.425 124.767009 
L 152.476562 124.908439 
L 155.528125 125.042614 
L 158.579687 125.169536 
L 161.63125 125.289207 
L 164.682812 125.401625 
L 167.734375 125.506791 
L 170.785937 125.604705 
L 173.8375 125.695363 
L 176.889062 125.778768 
L 179.940625 125.854925 
L 182.992188 125.923827 
L 186.04375 125.985472 
L 189.095312 126.039869 
L 192.146875 126.087014 
L 195.198437 126.126903 
L 198.25 126.15954 
L 201.301562 126.184928 
L 204.353125 126.203056 
L 207.404687 126.213936 
L 210.45625 126.217564 
L 213.507812 126.21394 
L 216.559375 126.20306 
L 219.610937 126.184928 
L 222.6625 126.159543 
L 225.714062 126.126906 
L 228.765625 126.087017 
L 231.817187 126.039876 
L 234.86875 125.985479 
L 237.920312 125.923834 
" clip-path="url(#pe176dc4e54)" style="fill: none; stroke: #1f77b4; stroke-width: 1.5"/>
   </g>
   <g id="PathCollection_6">
    <path d="M 42.620312 126.126906 
L 45.671875 126.522178 
L 48.723437 126.910202 
L 51.775 127.29097 
L 54.826562 127.664485 
L 57.878125 128.030748 
L 57.878301 128.030769 
L 60.929687 128.375682 
L 63.98125 128.713646 
L 67.032812 129.044642 
L 70.084375 129.368668 
L 73.135937 129.685729 
L 76.1875 129.995819 
L 79.239062 130.298941 
L 82.290625 130.595095 
L 85.342187 130.884281 
L 88.39375 131.166496 
L 91.445312 131.441747 
L 93.070381 131.584615 
L 94.496875 131.705294 
L 97.548437 131.956745 
L 100.6 132.201491 
L 103.651562 132.439532 
L 106.703125 132.670869 
L 109.754687 132.895497 
L 112.80625 133.113424 
L 115.857812 133.324642 
L 118.909375 133.529156 
L 121.960937 133.726965 
L 125.0125 133.918069 
L 128.064062 134.102468 
L 131.115625 134.280158 
L 134.167187 134.451147 
L 137.21875 134.615429 
L 140.270312 134.773005 
L 143.321875 134.923876 
L 146.373437 135.068043 
L 147.936732 135.138462 
L 149.425 135.203063 
L 152.476562 135.329065 
L 155.528125 135.448602 
L 158.579687 135.561679 
L 161.63125 135.668294 
L 164.682812 135.768449 
L 167.734375 135.862142 
L 170.785937 135.949374 
L 173.8375 136.030142 
L 176.889062 136.104449 
L 179.940625 136.172298 
L 182.992188 136.233683 
L 186.04375 136.288603 
L 189.095312 136.337066 
L 192.146875 136.379068 
L 195.198437 136.414605 
L 198.25 136.443682 
L 201.301562 136.4663 
L 204.353125 136.482451 
L 207.404687 136.492144 
L 210.45625 136.495376 
L 213.507812 136.492147 
L 216.559375 136.482454 
L 219.610937 136.4663 
L 222.6625 136.443685 
L 225.714062 136.414608 
L 228.765625 136.379071 
L 231.817187 136.337072 
L 234.86875 136.28861 
L 237.920312 136.233689 
" clip-path="url(#pe176dc4e54)" style="fill: none; stroke: #1f77b4; stroke-width: 1.5"/>
   </g>
   <g id="PathCollection_7">
    <path d="M 42.620312 136.414606 
L 45.671875 136.766762 
L 48.723437 137.112452 
L 51.775 137.451684 
L 54.826562 137.784454 
L 57.878125 138.110761 
L 60.929687 138.430605 
L 63.477997 138.692308 
L 63.98125 138.742177 
L 67.032812 139.038329 
L 70.084375 139.328249 
L 73.135937 139.611932 
L 76.1875 139.889384 
L 79.239062 140.160598 
L 82.290625 140.425575 
L 85.342187 140.684321 
L 88.39375 140.936835 
L 91.445312 141.183106 
L 94.496875 141.423146 
L 97.548437 141.656954 
L 100.6 141.884525 
L 103.651562 142.105864 
L 105.641848 142.246154 
L 106.703125 142.318425 
L 109.754687 142.520215 
L 112.80625 142.715974 
L 115.857812 142.905717 
L 118.909375 143.089431 
L 121.960937 143.267124 
L 125.0125 143.43879 
L 128.064062 143.604437 
L 131.115625 143.764063 
L 134.167187 143.917658 
L 137.21875 144.065232 
L 140.270312 144.206787 
L 143.321875 144.342315 
L 146.373437 144.471818 
L 149.425 144.5953 
L 152.476562 144.712757 
L 155.528125 144.824193 
L 158.579687 144.929603 
L 161.63125 145.028993 
L 164.682812 145.122358 
L 167.734375 145.209696 
L 170.785937 145.291014 
L 173.8375 145.366307 
L 176.889062 145.435579 
L 179.940625 145.498825 
L 182.992188 145.556045 
L 186.04375 145.607245 
L 189.095312 145.652425 
L 192.146875 145.691574 
L 195.198437 145.724708 
L 198.25 145.75181 
L 201.301562 145.772892 
L 204.353125 145.787954 
L 207.404687 145.79699 
L 210.45625 145.8 
" clip-path="url(#pe176dc4e54)" style="fill: none; stroke: #1f77b4; stroke-width: 1.5"/>
    <path d="M 210.45625 145.8 
L 213.507812 145.79699 
L 216.559375 145.787954 
L 219.610937 145.772898 
L 222.6625 145.751816 
L 225.714062 145.724708 
L 228.765625 145.69158 
L 231.817187 145.652425 
L 234.86875 145.607251 
L 237.920312 145.556051 
" clip-path="url(#pe176dc4e54)" style="fill: none; stroke: #1f77b4; stroke-width: 1.5"/>
   </g>
   <g id="PathCollection_8">
    <path d="M 42.620312 145.724708 
L 43.320206 145.8 
" clip-path="url(#pe176dc4e54)" style="fill: none; stroke: #1f77b4; stroke-width: 1.5"/>
   </g>
   <g id="PathCollection_9"/>
   <g id="patch_3">
    <path d="M 42.620312 145.8 
L 42.620312 7.2 
" style="fill: none; stroke: #000000; stroke-width: 0.8; stroke-linejoin: miter; stroke-linecap: square"/>
   </g>
   <g id="patch_4">
    <path d="M 237.920313 145.8 
L 237.920313 7.2 
" style="fill: none; stroke: #000000; stroke-width: 0.8; stroke-linejoin: miter; stroke-linecap: square"/>
   </g>
   <g id="patch_5">
    <path d="M 42.620312 145.8 
L 237.920312 145.8 
" style="fill: none; stroke: #000000; stroke-width: 0.8; stroke-linejoin: miter; stroke-linecap: square"/>
   </g>
   <g id="patch_6">
    <path d="M 42.620312 7.2 
L 237.920312 7.2 
" style="fill: none; stroke: #000000; stroke-width: 0.8; stroke-linejoin: miter; stroke-linecap: square"/>
   </g>
  </g>
 </g>
 <defs>
  <clipPath id="pe176dc4e54">
   <rect x="42.620312" y="7.2" width="195.3" height="138.6"/>
  </clipPath>
 </defs>
</svg>
