<?xml version="1.0" encoding="utf-8" standalone="no"?>
<!DOCTYPE svg PUBLIC "-//W3C//DTD SVG 1.1//EN"
  "http://www.w3.org/Graphics/SVG/1.1/DTD/svg11.dtd">
<svg xmlns:xlink="http://www.w3.org/1999/xlink" width="231.442188pt" height="170.613408pt" viewBox="0 0 231.442188 170.613408" xmlns="http://www.w3.org/2000/svg" version="1.1">
 <metadata>
  <rdf:RDF xmlns:dc="http://purl.org/dc/elements/1.1/" xmlns:cc="http://creativecommons.org/ns#" xmlns:rdf="http://www.w3.org/1999/02/22-rdf-syntax-ns#">
   <cc:Work>
    <dc:type rdf:resource="http://purl.org/dc/dcmitype/StillImage"/>
    <dc:date>2025-08-11T14:25:44.000126</dc:date>
    <dc:format>image/svg+xml</dc:format>
    <dc:creator>
     <cc:Agent>
      <dc:title>Matplotlib v3.7.2, https://matplotlib.org/</dc:title>
     </cc:Agent>
    </dc:creator>
   </cc:Work>
  </rdf:RDF>
 </metadata>
 <defs>
  <style type="text/css">*{stroke-linejoin: round; stroke-linecap: butt}</style>
 </defs>
 <g id="figure_1">
  <g id="patch_1">
   <path d="M 0 170.613408 
L 231.442188 170.613408 
L 231.442188 0 
L 0 0 
z
" style="fill: #ffffff"/>
  </g>
  <g id="axes_1">
   <g id="patch_2">
    <path d="M 28.942188 146.735283 
L 224.242188 146.735283 
L 224.242188 8.135283 
L 28.942188 8.135283 
z
" style="fill: #ffffff"/>
   </g>
   <g id="PathCollection_1">
    <defs>
     <path id="m96534f188f" d="M 0 3 
C 0.795609 3 1.55874 2.683901 2.12132 2.12132 
C 2.683901 1.55874 3 0.795609 3 0 
C 3 -0.795609 2.683901 -1.55874 2.12132 -2.12132 
C 1.55874 -2.683901 0.795609 -3 0 -3 
C -0.795609 -3 -1.55874 -2.683901 -2.12132 -2.12132 
C -2.683901 -1.55874 -3 -0.795609 -3 0 
C -3 0.795609 -2.683901 1.55874 -2.12132 2.12132 
C -1.55874 2.683901 -0.795609 3 0 3 
z
" style="stroke: #1f77b4"/>
    </defs>
    <g clip-path="url(#pfb303eafeb)">
     <use xlink:href="#m96534f188f" x="37.81946" y="82.817846" style="fill: #1f77b4; stroke: #1f77b4"/>
     <use xlink:href="#m96534f188f" x="41.442837" y="66.809925" style="fill: #1f77b4; stroke: #1f77b4"/>
     <use xlink:href="#m96534f188f" x="45.066213" y="53.363895" style="fill: #1f77b4; stroke: #1f77b4"/>
     <use xlink:href="#m96534f188f" x="48.68959" y="58.499408" style="fill: #1f77b4; stroke: #1f77b4"/>
     <use xlink:href="#m96534f188f" x="52.312967" y="53.474013" style="fill: #1f77b4; stroke: #1f77b4"/>
     <use xlink:href="#m96534f188f" x="55.936343" y="47.457595" style="fill: #1f77b4; stroke: #1f77b4"/>
     <use xlink:href="#m96534f188f" x="59.55972" y="52.168489" style="fill: #1f77b4; stroke: #1f77b4"/>
     <use xlink:href="#m96534f188f" x="63.183097" y="54.274822" style="fill: #1f77b4; stroke: #1f77b4"/>
     <use xlink:href="#m96534f188f" x="66.806473" y="64.989511" style="fill: #1f77b4; stroke: #1f77b4"/>
     <use xlink:href="#m96534f188f" x="70.42985" y="57.049072" style="fill: #1f77b4; stroke: #1f77b4"/>
     <use xlink:href="#m96534f188f" x="74.053226" y="55.506012" style="fill: #1f77b4; stroke: #1f77b4"/>
     <use xlink:href="#m96534f188f" x="77.676603" y="47.538614" style="fill: #1f77b4; stroke: #1f77b4"/>
     <use xlink:href="#m96534f188f" x="81.29998" y="62.333595" style="fill: #1f77b4; stroke: #1f77b4"/>
     <use xlink:href="#m96534f188f" x="84.923356" y="66.225464" style="fill: #1f77b4; stroke: #1f77b4"/>
     <use xlink:href="#m96534f188f" x="88.546733" y="50.129057" style="fill: #1f77b4; stroke: #1f77b4"/>
     <use xlink:href="#m96534f188f" x="92.17011" y="56.918072" style="fill: #1f77b4; stroke: #1f77b4"/>
     <use xlink:href="#m96534f188f" x="95.793486" y="48.623924" style="fill: #1f77b4; stroke: #1f77b4"/>
     <use xlink:href="#m96534f188f" x="99.416863" y="14.435283" style="fill: #1f77b4; stroke: #1f77b4"/>
     <use xlink:href="#m96534f188f" x="103.040239" y="34.824354" style="fill: #1f77b4; stroke: #1f77b4"/>
     <use xlink:href="#m96534f188f" x="106.663616" y="24.571016" style="fill: #1f77b4; stroke: #1f77b4"/>
     <use xlink:href="#m96534f188f" x="110.286993" y="29.328426" style="fill: #1f77b4; stroke: #1f77b4"/>
     <use xlink:href="#m96534f188f" x="113.910369" y="42.633253" style="fill: #1f77b4; stroke: #1f77b4"/>
     <use xlink:href="#m96534f188f" x="117.533746" y="49.913365" style="fill: #1f77b4; stroke: #1f77b4"/>
     <use xlink:href="#m96534f188f" x="121.157123" y="63.036001" style="fill: #1f77b4; stroke: #1f77b4"/>
     <use xlink:href="#m96534f188f" x="124.780499" y="73.726423" style="fill: #1f77b4; stroke: #1f77b4"/>
     <use xlink:href="#m96534f188f" x="128.403876" y="82.977005" style="fill: #1f77b4; stroke: #1f77b4"/>
     <use xlink:href="#m96534f188f" x="132.027252" y="73.505003" style="fill: #1f77b4; stroke: #1f77b4"/>
     <use xlink:href="#m96534f188f" x="135.650629" y="95.090491" style="fill: #1f77b4; stroke: #1f77b4"/>
     <use xlink:href="#m96534f188f" x="139.274006" y="102.951564" style="fill: #1f77b4; stroke: #1f77b4"/>
     <use xlink:href="#m96534f188f" x="142.897382" y="91.313017" style="fill: #1f77b4; stroke: #1f77b4"/>
     <use xlink:href="#m96534f188f" x="146.520759" y="90.100148" style="fill: #1f77b4; stroke: #1f77b4"/>
     <use xlink:href="#m96534f188f" x="150.144136" y="76.561837" style="fill: #1f77b4; stroke: #1f77b4"/>
     <use xlink:href="#m96534f188f" x="153.767512" y="72.788589" style="fill: #1f77b4; stroke: #1f77b4"/>
     <use xlink:href="#m96534f188f" x="157.390889" y="68.488129" style="fill: #1f77b4; stroke: #1f77b4"/>
     <use xlink:href="#m96534f188f" x="161.014265" y="66.426665" style="fill: #1f77b4; stroke: #1f77b4"/>
     <use xlink:href="#m96534f188f" x="164.637642" y="81.099309" style="fill: #1f77b4; stroke: #1f77b4"/>
     <use xlink:href="#m96534f188f" x="168.261019" y="85.522092" style="fill: #1f77b4; stroke: #1f77b4"/>
     <use xlink:href="#m96534f188f" x="171.884395" y="79.169352" style="fill: #1f77b4; stroke: #1f77b4"/>
     <use xlink:href="#m96534f188f" x="175.507772" y="106.512358" style="fill: #1f77b4; stroke: #1f77b4"/>
     <use xlink:href="#m96534f188f" x="179.131149" y="110.879388" style="fill: #1f77b4; stroke: #1f77b4"/>
     <use xlink:href="#m96534f188f" x="182.754525" y="125.126252" style="fill: #1f77b4; stroke: #1f77b4"/>
     <use xlink:href="#m96534f188f" x="186.377902" y="140.435283" style="fill: #1f77b4; stroke: #1f77b4"/>
     <use xlink:href="#m96534f188f" x="190.001278" y="130.209282" style="fill: #1f77b4; stroke: #1f77b4"/>
     <use xlink:href="#m96534f188f" x="193.624655" y="135.925758" style="fill: #1f77b4; stroke: #1f77b4"/>
     <use xlink:href="#m96534f188f" x="197.248032" y="122.197007" style="fill: #1f77b4; stroke: #1f77b4"/>
     <use xlink:href="#m96534f188f" x="200.871408" y="100.756724" style="fill: #1f77b4; stroke: #1f77b4"/>
     <use xlink:href="#m96534f188f" x="204.494785" y="107.689675" style="fill: #1f77b4; stroke: #1f77b4"/>
     <use xlink:href="#m96534f188f" x="208.118162" y="125.87317" style="fill: #1f77b4; stroke: #1f77b4"/>
     <use xlink:href="#m96534f188f" x="211.741538" y="113.628033" style="fill: #1f77b4; stroke: #1f77b4"/>
     <use xlink:href="#m96534f188f" x="215.364915" y="102.371652" style="fill: #1f77b4; stroke: #1f77b4"/>
    </g>
   </g>
   <g id="PolyCollection_1">
    <path d="M 37.81946 63.562255 
L 37.81946 88.035999 
L 38.175263 86.823902 
L 38.531065 85.63991 
L 38.886868 84.485314 
L 39.24267 83.361264 
L 39.598473 82.268744 
L 39.954275 81.208555 
L 40.310078 80.181291 
L 40.66588 79.187324 
L 41.021683 78.2268 
L 41.377485 77.299631 
L 41.733288 76.405503 
L 42.08909 75.54389 
L 42.444893 74.714076 
L 42.800695 73.91518 
L 43.156498 73.146197 
L 43.5123 72.406024 
L 43.868103 71.693506 
L 44.223905 71.007462 
L 44.579708 70.346725 
L 44.935511 69.710165 
L 45.291313 69.096712 
L 45.647116 68.505372 
L 46.002918 67.935242 
L 46.358721 67.385513 
L 46.714523 66.855477 
L 47.070326 66.344523 
L 47.426128 65.852136 
L 47.781931 65.37789 
L 48.137733 64.921445 
L 48.493536 64.482535 
L 48.849338 64.06096 
L 49.205141 63.656583 
L 49.560943 63.269314 
L 49.916746 62.899109 
L 50.272548 62.545954 
L 50.628351 62.209865 
L 50.984153 61.890876 
L 51.339956 61.589035 
L 51.695758 61.304395 
L 52.051561 61.03701 
L 52.407363 60.786931 
L 52.763166 60.554196 
L 53.118968 60.338835 
L 53.474771 60.140854 
L 53.830573 59.960244 
L 54.186376 59.796968 
L 54.542178 59.650966 
L 54.897981 59.522148 
L 55.253783 59.410395 
L 55.609586 59.315556 
L 55.965388 59.237451 
L 56.321191 59.175867 
L 56.676993 59.13056 
L 57.032796 59.101252 
L 57.388599 59.08764 
L 57.744401 59.089388 
L 58.100204 59.106134 
L 58.456006 59.137488 
L 58.811809 59.183038 
L 59.167611 59.24235 
L 59.523414 59.314968 
L 59.879216 59.400418 
L 60.235019 59.498213 
L 60.590821 59.60785 
L 60.946624 59.728816 
L 61.302426 59.860587 
L 61.658229 60.002633 
L 62.014031 60.154419 
L 62.369834 60.315405 
L 62.725636 60.485048 
L 63.081439 60.662807 
L 63.437241 60.848138 
L 63.793044 61.040499 
L 64.148846 61.239349 
L 64.504649 61.444152 
L 64.860451 61.654372 
L 65.216254 61.869475 
L 65.572056 62.088934 
L 65.927859 62.31222 
L 66.283661 62.538809 
L 66.639464 62.768179 
L 66.995266 62.99981 
L 67.351069 63.23318 
L 67.706871 63.467772 
L 68.062674 63.703065 
L 68.418476 63.938539 
L 68.774279 64.173672 
L 69.130081 64.407939 
L 69.485884 64.640813 
L 69.841686 64.871764 
L 70.197489 65.100255 
L 70.553292 65.325748 
L 70.909094 65.547698 
L 71.264897 65.765554 
L 71.620699 65.978762 
L 71.976502 66.186759 
L 72.332304 66.38898 
L 72.688107 66.584853 
L 73.043909 66.7738 
L 73.399712 66.95524 
L 73.755514 67.128587 
L 74.111317 67.293251 
L 74.467119 67.448642 
L 74.822922 67.594167 
L 75.178724 67.729231 
L 75.534527 67.853242 
L 75.890329 67.965609 
L 76.246132 68.065746 
L 76.601934 68.153071 
L 76.957737 68.227009 
L 77.313539 68.286993 
L 77.669342 68.332467 
L 78.025144 68.362887 
L 78.380947 68.377724 
L 78.736749 68.376464 
L 79.092552 68.358611 
L 79.448354 68.32369 
L 79.804157 68.271248 
L 80.159959 68.200856 
L 80.515762 68.112111 
L 80.871564 68.004639 
L 81.227367 67.878095 
L 81.583169 67.732169 
L 81.938972 67.566582 
L 82.294774 67.381092 
L 82.650577 67.175497 
L 83.00638 66.949632 
L 83.362182 66.703374 
L 83.717985 66.436643 
L 84.073787 66.149405 
L 84.42959 65.841668 
L 84.785392 65.51349 
L 85.141195 65.164978 
L 85.496997 64.796284 
L 85.8528 64.407614 
L 86.208602 63.999224 
L 86.564405 63.57142 
L 86.920207 63.124563 
L 87.27601 62.659065 
L 87.631812 62.175389 
L 87.987615 61.674053 
L 88.343417 61.155628 
L 88.69922 60.620735 
L 89.055022 60.07005 
L 89.410825 59.504298 
L 89.766627 58.924257 
L 90.12243 58.330752 
L 90.478232 57.72466 
L 90.834035 57.106902 
L 91.189837 56.478449 
L 91.54564 55.840313 
L 91.901442 55.193551 
L 92.257245 54.539261 
L 92.613047 53.878578 
L 92.96885 53.212676 
L 93.324652 52.542763 
L 93.680455 51.870078 
L 94.036257 51.19589 
L 94.39206 50.521495 
L 94.747862 49.848212 
L 95.103665 49.177382 
L 95.459468 48.510363 
L 95.81527 47.848528 
L 96.171073 47.193262 
L 96.526875 46.545957 
L 96.882678 45.908012 
L 97.23848 45.280824 
L 97.594283 44.665792 
L 97.950085 44.064307 
L 98.305888 43.477753 
L 98.66169 42.907499 
L 99.017493 42.3549 
L 99.373295 41.821292 
L 99.729098 41.307986 
L 100.0849 40.816271 
L 100.440703 40.347402 
L 100.796505 39.902605 
L 101.152308 39.483068 
L 101.50811 39.08994 
L 101.863913 38.72433 
L 102.219715 38.387301 
L 102.575518 38.079868 
L 102.93132 37.802996 
L 103.287123 37.557599 
L 103.642925 37.344535 
L 103.998728 37.164604 
L 104.35453 37.018548 
L 104.710333 36.907048 
L 105.066135 36.830721 
L 105.421938 36.790123 
L 105.77774 36.78574 
L 106.133543 36.817995 
L 106.489345 36.887241 
L 106.845148 36.993765 
L 107.20095 37.137782 
L 107.556753 37.319439 
L 107.912556 37.538814 
L 108.268358 37.795915 
L 108.624161 38.090679 
L 108.979963 38.422976 
L 109.335766 38.792604 
L 109.691568 39.199296 
L 110.047371 39.642716 
L 110.403173 40.122462 
L 110.758976 40.638068 
L 111.114778 41.189001 
L 111.470581 41.774668 
L 111.826383 42.394414 
L 112.182186 43.047526 
L 112.537988 43.733232 
L 112.893791 44.450705 
L 113.249593 45.199065 
L 113.605396 45.977379 
L 113.961198 46.784667 
L 114.317001 47.619901 
L 114.672803 48.482007 
L 115.028606 49.369871 
L 115.384408 50.282339 
L 115.740211 51.218219 
L 116.096013 52.176284 
L 116.451816 53.155276 
L 116.807618 54.153907 
L 117.163421 55.170863 
L 117.519223 56.204805 
L 117.875026 57.254372 
L 118.230828 58.318185 
L 118.586631 59.394849 
L 118.942433 60.482953 
L 119.298236 61.581077 
L 119.654038 62.687792 
L 120.009841 63.801662 
L 120.365644 64.921247 
L 120.721446 66.045107 
L 121.077249 67.171802 
L 121.433051 68.299895 
L 121.788854 69.427956 
L 122.144656 70.554561 
L 122.500459 71.678296 
L 122.856261 72.797761 
L 123.212064 73.911568 
L 123.567866 75.018345 
L 123.923669 76.116738 
L 124.279471 77.205413 
L 124.635274 78.283057 
L 124.991076 79.348379 
L 125.346879 80.400114 
L 125.702681 81.437022 
L 126.058484 82.457892 
L 126.414286 83.46154 
L 126.770089 84.446815 
L 127.125891 85.412596 
L 127.481694 86.357794 
L 127.837496 87.281357 
L 128.193299 88.182266 
L 128.549101 89.059538 
L 128.904904 89.912231 
L 129.260706 90.739437 
L 129.616509 91.54029 
L 129.972311 92.313963 
L 130.328114 93.059672 
L 130.683916 93.776674 
L 131.039719 94.464267 
L 131.395521 95.121795 
L 131.751324 95.748646 
L 132.107126 96.344251 
L 132.462929 96.90809 
L 132.818731 97.439685 
L 133.174534 97.938609 
L 133.530337 98.404479 
L 133.886139 98.836962 
L 134.241942 99.235774 
L 134.597744 99.600676 
L 134.953547 99.931484 
L 135.309349 100.228059 
L 135.665152 100.490315 
L 136.020954 100.718215 
L 136.376757 100.911772 
L 136.732559 101.071054 
L 137.088362 101.196175 
L 137.444164 101.287303 
L 137.799967 101.344659 
L 138.155769 101.368514 
L 138.511572 101.359189 
L 138.867374 101.317061 
L 139.223177 101.242554 
L 139.578979 101.136147 
L 139.934782 100.998368 
L 140.290584 100.829798 
L 140.646387 100.631067 
L 141.002189 100.402857 
L 141.357992 100.145899 
L 141.713794 99.860972 
L 142.069597 99.548906 
L 142.425399 99.210578 
L 142.781202 98.846913 
L 143.137004 98.458881 
L 143.492807 98.0475 
L 143.848609 97.613828 
L 144.204412 97.158971 
L 144.560214 96.684074 
L 144.916017 96.190324 
L 145.271819 95.678947 
L 145.627622 95.151207 
L 145.983425 94.608403 
L 146.339227 94.051869 
L 146.69503 93.482974 
L 147.050832 92.903113 
L 147.406635 92.313714 
L 147.762437 91.716229 
L 148.11824 91.112136 
L 148.474042 90.502934 
L 148.829845 89.890142 
L 149.185647 89.275297 
L 149.54145 88.659949 
L 149.897252 88.045663 
L 150.253055 87.43401 
L 150.608857 86.826571 
L 150.96466 86.224928 
L 151.320462 85.630666 
L 151.676265 85.045367 
L 152.032067 84.470608 
L 152.38787 83.907958 
L 152.743672 83.358974 
L 153.099475 82.8252 
L 153.455277 82.308163 
L 153.81108 81.809366 
L 154.166882 81.330292 
L 154.522685 80.872395 
L 154.878487 80.437098 
L 155.23429 80.025793 
L 155.590092 79.639832 
L 155.945895 79.280531 
L 156.301697 78.94916 
L 156.6575 78.646945 
L 157.013302 78.375061 
L 157.369105 78.134633 
L 157.724907 77.92673 
L 158.08071 77.752363 
L 158.436513 77.612484 
L 158.792315 77.507982 
L 159.148118 77.439678 
L 159.50392 77.408328 
L 159.859723 77.414616 
L 160.215525 77.459154 
L 160.571328 77.54248 
L 160.92713 77.665057 
L 161.282933 77.827266 
L 161.638735 78.029413 
L 161.994538 78.271722 
L 162.35034 78.554332 
L 162.706143 78.877304 
L 163.061945 79.240611 
L 163.417748 79.644144 
L 163.77355 80.087709 
L 164.129353 80.571026 
L 164.485155 81.093731 
L 164.840958 81.655375 
L 165.19676 82.255425 
L 165.552563 82.893264 
L 165.908365 83.568194 
L 166.264168 84.279433 
L 166.61997 85.026122 
L 166.975773 85.80732 
L 167.331575 86.622011 
L 167.687378 87.469106 
L 168.04318 88.347439 
L 168.398983 89.255779 
L 168.754785 90.192823 
L 169.110588 91.157205 
L 169.46639 92.147497 
L 169.822193 93.162214 
L 170.177995 94.199812 
L 170.533798 95.258699 
L 170.889601 96.337231 
L 171.245403 97.433722 
L 171.601206 98.546444 
L 171.957008 99.673633 
L 172.312811 100.813492 
L 172.668613 101.964195 
L 173.024416 103.123892 
L 173.380218 104.290714 
L 173.736021 105.462774 
L 174.091823 106.638177 
L 174.447626 107.815018 
L 174.803428 108.991391 
L 175.159231 110.165394 
L 175.515033 111.335128 
L 175.870836 112.498706 
L 176.226638 113.654258 
L 176.582441 114.799933 
L 176.938243 115.933902 
L 177.294046 117.054366 
L 177.649848 118.159558 
L 178.005651 119.247749 
L 178.361453 120.317247 
L 178.717256 121.366408 
L 179.073058 122.393634 
L 179.428861 123.39738 
L 179.784663 124.376158 
L 180.140466 125.328536 
L 180.496268 126.253146 
L 180.852071 127.148688 
L 181.207873 128.013927 
L 181.563676 128.847703 
L 181.919478 129.648928 
L 182.275281 130.416594 
L 182.631083 131.149769 
L 182.986886 131.847606 
L 183.342689 132.509342 
L 183.698491 133.134296 
L 184.054294 133.721879 
L 184.410096 134.271589 
L 184.765899 134.783012 
L 185.121701 135.255828 
L 185.477504 135.689808 
L 185.833306 136.084812 
L 186.189109 136.440797 
L 186.544911 136.757808 
L 186.900714 137.035982 
L 187.256516 137.27555 
L 187.612319 137.476829 
L 187.968121 137.640225 
L 188.323924 137.766232 
L 188.679726 137.855428 
L 189.035529 137.908472 
L 189.391331 137.926104 
L 189.747134 137.909139 
L 190.102936 137.858467 
L 190.458739 137.775044 
L 190.814541 137.659894 
L 191.170344 137.514101 
L 191.526146 137.338806 
L 191.881949 137.135201 
L 192.237751 136.904522 
L 192.593554 136.64805 
L 192.949356 136.367099 
L 193.305159 136.063012 
L 193.660961 135.737157 
L 194.016764 135.390919 
L 194.372566 135.025696 
L 194.728369 134.642891 
L 195.084171 134.243908 
L 195.439974 133.830145 
L 195.795776 133.402989 
L 196.151579 132.963812 
L 196.507382 132.513963 
L 196.863184 132.054766 
L 197.218987 131.587518 
L 197.574789 131.113476 
L 197.930592 130.633867 
L 198.286394 130.149873 
L 198.642197 129.662637 
L 198.997999 129.173256 
L 199.353802 128.682784 
L 199.709604 128.192231 
L 200.065407 127.702557 
L 200.421209 127.214683 
L 200.777012 126.729484 
L 201.132814 126.247793 
L 201.488617 125.770409 
L 201.844419 125.298091 
L 202.200222 124.831569 
L 202.556024 124.371548 
L 202.911827 123.918709 
L 203.267629 123.473718 
L 203.623432 123.037236 
L 203.979234 122.609916 
L 204.335037 122.192424 
L 204.690839 121.785435 
L 205.046642 121.389649 
L 205.402444 121.0058 
L 205.758247 120.634661 
L 206.114049 120.277055 
L 206.469852 119.933865 
L 206.825654 119.60604 
L 207.181457 119.294601 
L 207.537259 119.000645 
L 207.893062 118.725348 
L 208.248864 118.469964 
L 208.604667 118.235816 
L 208.96047 118.024287 
L 209.316272 117.836807 
L 209.672075 117.674827 
L 210.027877 117.539796 
L 210.38368 117.433133 
L 210.739482 117.356186 
L 211.095285 117.310204 
L 211.451087 117.2963 
L 211.80689 117.315418 
L 212.162692 117.368304 
L 212.518495 117.455493 
L 212.874297 117.577286 
L 213.2301 117.733756 
L 213.585902 117.924742 
L 213.941705 118.149866 
L 214.297507 118.408544 
L 214.65331 118.700011 
L 215.009112 119.023338 
L 215.364915 119.377462 
L 215.364915 94.903719 
L 215.364915 94.903719 
L 215.009112 95.45788 
L 214.65331 95.988497 
L 214.297507 96.495769 
L 213.941705 96.980027 
L 213.585902 97.441756 
L 213.2301 97.881612 
L 212.874297 98.300434 
L 212.518495 98.699258 
L 212.162692 99.079322 
L 211.80689 99.442059 
L 211.451087 99.789095 
L 211.095285 100.122222 
L 210.739482 100.443379 
L 210.38368 100.754617 
L 210.027877 101.058062 
L 209.672075 101.355874 
L 209.316272 101.650209 
L 208.96047 101.94318 
L 208.604667 102.236819 
L 208.248864 102.533051 
L 207.893062 102.833665 
L 207.537259 103.140297 
L 207.181457 103.454412 
L 206.825654 103.777299 
L 206.469852 104.110064 
L 206.114049 104.453627 
L 205.758247 104.808727 
L 205.402444 105.175923 
L 205.046642 105.555602 
L 204.690839 105.947984 
L 204.335037 106.35313 
L 203.979234 106.770951 
L 203.623432 107.201218 
L 203.267629 107.643568 
L 202.911827 108.097513 
L 202.556024 108.562452 
L 202.200222 109.037674 
L 201.844419 109.522372 
L 201.488617 110.015647 
L 201.132814 110.516518 
L 200.777012 111.023926 
L 200.421209 111.53675 
L 200.065407 112.053803 
L 199.709604 112.573847 
L 199.353802 113.095597 
L 198.997999 113.617726 
L 198.642197 114.138876 
L 198.286394 114.657658 
L 197.930592 115.172659 
L 197.574789 115.682453 
L 197.218987 116.185597 
L 196.863184 116.680645 
L 196.507382 117.166144 
L 196.151579 117.640646 
L 195.795776 118.102705 
L 195.439974 118.550889 
L 195.084171 118.983773 
L 194.728369 119.399953 
L 194.372566 119.798042 
L 194.016764 120.176676 
L 193.660961 120.534515 
L 193.305159 120.870249 
L 192.949356 121.182598 
L 192.593554 121.470314 
L 192.237751 121.732187 
L 191.881949 121.967043 
L 191.526146 122.173752 
L 191.170344 122.351225 
L 190.814541 122.498421 
L 190.458739 122.614345 
L 190.102936 122.698057 
L 189.747134 122.748668 
L 189.391331 122.765348 
L 189.035529 122.747323 
L 188.679726 122.693884 
L 188.323924 122.604384 
L 187.968121 122.478243 
L 187.612319 122.314952 
L 187.256516 122.114071 
L 186.900714 121.875236 
L 186.544911 121.598158 
L 186.189109 121.282625 
L 185.833306 120.928506 
L 185.477504 120.53575 
L 185.121701 120.104391 
L 184.765899 119.634545 
L 184.410096 119.126412 
L 184.054294 118.580281 
L 183.698491 117.996525 
L 183.342689 117.375603 
L 182.986886 116.718061 
L 182.631083 116.024531 
L 182.275281 115.295732 
L 181.919478 114.532464 
L 181.563676 113.735614 
L 181.207873 112.906149 
L 180.852071 112.045116 
L 180.496268 111.153641 
L 180.140466 110.232925 
L 179.784663 109.284241 
L 179.428861 108.308936 
L 179.073058 107.30842 
L 178.717256 106.28417 
L 178.361453 105.237721 
L 178.005651 104.170666 
L 177.649848 103.084651 
L 177.294046 101.981369 
L 176.938243 100.862558 
L 176.582441 99.729996 
L 176.226638 98.585497 
L 175.870836 97.430905 
L 175.515033 96.268088 
L 175.159231 95.09894 
L 174.803428 93.925366 
L 174.447626 92.749287 
L 174.091823 91.572628 
L 173.736021 90.397318 
L 173.380218 89.225281 
L 173.024416 88.058434 
L 172.668613 86.898682 
L 172.312811 85.747914 
L 171.957008 84.607994 
L 171.601206 83.480764 
L 171.245403 82.368033 
L 170.889601 81.271575 
L 170.533798 80.193128 
L 170.177995 79.134384 
L 169.822193 78.096991 
L 169.46639 77.082544 
L 169.110588 76.092587 
L 168.754785 75.128606 
L 168.398983 74.192026 
L 168.04318 73.284209 
L 167.687378 72.406452 
L 167.331575 71.559982 
L 166.975773 70.745957 
L 166.61997 69.965459 
L 166.264168 69.219497 
L 165.908365 68.509003 
L 165.552563 67.834829 
L 165.19676 67.197748 
L 164.840958 66.598451 
L 164.485155 66.037548 
L 164.129353 65.515565 
L 163.77355 65.032945 
L 163.417748 64.590046 
L 163.061945 64.187144 
L 162.706143 63.824428 
L 162.35034 63.502005 
L 161.994538 63.219899 
L 161.638735 62.978049 
L 161.282933 62.776313 
L 160.92713 62.614468 
L 160.571328 62.492211 
L 160.215525 62.409159 
L 159.859723 62.364853 
L 159.50392 62.358757 
L 159.148118 62.390262 
L 158.792315 62.458688 
L 158.436513 62.563282 
L 158.08071 62.703227 
L 157.724907 62.877637 
L 157.369105 63.085565 
L 157.013302 63.326003 
L 156.6575 63.597886 
L 156.301697 63.900094 
L 155.945895 64.231453 
L 155.590092 64.590742 
L 155.23429 64.976691 
L 154.878487 65.387991 
L 154.522685 65.823288 
L 154.166882 66.281194 
L 153.81108 66.760287 
L 153.455277 67.259114 
L 153.099475 67.776193 
L 152.743672 68.31002 
L 152.38787 68.859069 
L 152.032067 69.421797 
L 151.676265 69.996645 
L 151.320462 70.582043 
L 150.96466 71.176413 
L 150.608857 71.778172 
L 150.253055 72.385735 
L 149.897252 72.997518 
L 149.54145 73.611938 
L 149.185647 74.227422 
L 148.829845 74.842406 
L 148.474042 75.455336 
L 148.11824 76.064674 
L 147.762437 76.668901 
L 147.406635 77.266516 
L 147.050832 77.85604 
L 146.69503 78.436019 
L 146.339227 79.005027 
L 145.983425 79.561665 
L 145.627622 80.104565 
L 145.271819 80.632394 
L 144.916017 81.14385 
L 144.560214 81.637671 
L 144.204412 82.11263 
L 143.848609 82.567541 
L 143.492807 83.001258 
L 143.137004 83.412678 
L 142.781202 83.80074 
L 142.425399 84.164429 
L 142.069597 84.502774 
L 141.713794 84.814852 
L 141.357992 85.099786 
L 141.002189 85.356749 
L 140.646387 85.584959 
L 140.290584 85.783687 
L 139.934782 85.952253 
L 139.578979 86.090026 
L 139.223177 86.196427 
L 138.867374 86.270927 
L 138.511572 86.31305 
L 138.155769 86.32237 
L 137.799967 86.298512 
L 137.444164 86.241154 
L 137.088362 86.150025 
L 136.732559 86.024906 
L 136.376757 85.865629 
L 136.020954 85.672078 
L 135.665152 85.444188 
L 135.309349 85.181943 
L 134.953547 84.885382 
L 134.597744 84.55459 
L 134.241942 84.189705 
L 133.886139 83.790914 
L 133.530337 83.358452 
L 133.174534 82.892604 
L 132.818731 82.393704 
L 132.462929 81.862133 
L 132.107126 81.29832 
L 131.751324 80.702739 
L 131.395521 80.075913 
L 131.039719 79.41841 
L 130.683916 78.73084 
L 130.328114 78.013862 
L 129.972311 77.268175 
L 129.616509 76.494521 
L 129.260706 75.693687 
L 128.904904 74.866497 
L 128.549101 74.01382 
L 128.193299 73.136559 
L 127.837496 72.235661 
L 127.481694 71.312106 
L 127.125891 70.366912 
L 126.770089 69.401134 
L 126.414286 68.415859 
L 126.058484 67.412208 
L 125.702681 66.391333 
L 125.346879 65.354417 
L 124.991076 64.302672 
L 124.635274 63.237338 
L 124.279471 62.15968 
L 123.923669 61.070988 
L 123.567866 59.972576 
L 123.212064 58.865779 
L 122.856261 57.751951 
L 122.500459 56.632463 
L 122.144656 55.508703 
L 121.788854 54.382074 
L 121.433051 53.253988 
L 121.077249 52.12587 
L 120.721446 50.99915 
L 120.365644 49.875266 
L 120.009841 48.755657 
L 119.654038 47.641765 
L 119.298236 46.535029 
L 118.942433 45.436885 
L 118.586631 44.348763 
L 118.230828 43.272083 
L 117.875026 42.208256 
L 117.519223 41.158678 
L 117.163421 40.124727 
L 116.807618 39.107764 
L 116.451816 38.109128 
L 116.096013 37.130134 
L 115.740211 36.172069 
L 115.384408 35.236192 
L 115.028606 34.323727 
L 114.672803 33.435868 
L 114.317001 32.573767 
L 113.961198 31.73854 
L 113.605396 30.931258 
L 113.249593 30.15295 
L 112.893791 29.404594 
L 112.537988 28.687123 
L 112.182186 28.001417 
L 111.826383 27.348302 
L 111.470581 26.728548 
L 111.114778 26.142869 
L 110.758976 25.591918 
L 110.403173 25.076289 
L 110.047371 24.596512 
L 109.691568 24.153054 
L 109.335766 23.746317 
L 108.979963 23.376635 
L 108.624161 23.044276 
L 108.268358 22.749441 
L 107.912556 22.492261 
L 107.556753 22.272797 
L 107.20095 22.091044 
L 106.845148 21.946922 
L 106.489345 21.840287 
L 106.133543 21.770922 
L 105.77774 21.738542 
L 105.421938 21.742795 
L 105.066135 21.78326 
L 104.710333 21.859449 
L 104.35453 21.970811 
L 103.998728 22.116729 
L 103.642925 22.296524 
L 103.287123 22.509454 
L 102.93132 22.754721 
L 102.575518 23.031469 
L 102.219715 23.338785 
L 101.863913 23.675706 
L 101.50811 24.041218 
L 101.152308 24.434257 
L 100.796505 24.853717 
L 100.440703 25.298449 
L 100.0849 25.767264 
L 99.729098 26.258938 
L 99.373295 26.772213 
L 99.017493 27.305802 
L 98.66169 27.858392 
L 98.305888 28.428645 
L 97.950085 29.015206 
L 97.594283 29.616701 
L 97.23848 30.231746 
L 96.882678 30.858945 
L 96.526875 31.496899 
L 96.171073 32.144204 
L 95.81527 32.79946 
L 95.459468 33.46127 
L 95.103665 34.128246 
L 94.747862 34.799011 
L 94.39206 35.472202 
L 94.036257 36.146475 
L 93.680455 36.820507 
L 93.324652 37.493 
L 92.96885 38.162681 
L 92.613047 38.828308 
L 92.257245 39.488672 
L 91.901442 40.142598 
L 91.54564 40.788948 
L 91.189837 41.426626 
L 90.834035 42.054575 
L 90.478232 42.671784 
L 90.12243 43.277285 
L 89.766627 43.870159 
L 89.410825 44.449534 
L 89.055022 45.014589 
L 88.69922 45.564553 
L 88.343417 46.098704 
L 87.987615 46.616376 
L 87.631812 47.116954 
L 87.27601 47.599874 
L 86.920207 48.064628 
L 86.564405 48.510758 
L 86.208602 48.937861 
L 85.8528 49.345585 
L 85.496997 49.73363 
L 85.141195 50.101747 
L 84.785392 50.449738 
L 84.42959 50.777451 
L 84.073787 51.084787 
L 83.717985 51.37169 
L 83.362182 51.638151 
L 83.00638 51.884203 
L 82.650577 52.109926 
L 82.294774 52.315437 
L 81.938972 52.500892 
L 81.583169 52.666489 
L 81.227367 52.812456 
L 80.871564 52.93906 
L 80.515762 53.046598 
L 80.159959 53.135398 
L 79.804157 53.205815 
L 79.448354 53.258234 
L 79.092552 53.293063 
L 78.736749 53.310733 
L 78.380947 53.311698 
L 78.025144 53.296433 
L 77.669342 53.265427 
L 77.313539 53.219191 
L 76.957737 53.158247 
L 76.601934 53.083135 
L 76.246132 52.994403 
L 75.890329 52.892612 
L 75.534527 52.778334 
L 75.178724 52.652148 
L 74.822922 52.514641 
L 74.467119 52.366405 
L 74.111317 52.208038 
L 73.755514 52.040142 
L 73.399712 51.863323 
L 73.043909 51.678189 
L 72.688107 51.485347 
L 72.332304 51.285409 
L 71.976502 51.078981 
L 71.620699 50.866673 
L 71.264897 50.64909 
L 70.909094 50.426836 
L 70.553292 50.20051 
L 70.197489 49.970709 
L 69.841686 49.738025 
L 69.485884 49.503042 
L 69.130081 49.266341 
L 68.774279 49.028495 
L 68.418476 48.790072 
L 68.062674 48.551628 
L 67.706871 48.313715 
L 67.351069 48.076874 
L 66.995266 47.841638 
L 66.639464 47.60853 
L 66.283661 47.378063 
L 65.927859 47.150741 
L 65.572056 46.927057 
L 65.216254 46.707493 
L 64.860451 46.492523 
L 64.504649 46.282608 
L 64.148846 46.0782 
L 63.793044 45.879742 
L 63.437241 45.687667 
L 63.081439 45.502398 
L 62.725636 45.32435 
L 62.369834 45.153931 
L 62.014031 44.991543 
L 61.658229 44.837579 
L 61.302426 44.69243 
L 60.946624 44.55648 
L 60.590821 44.430114 
L 60.235019 44.313712 
L 59.879216 44.207656 
L 59.523414 44.112326 
L 59.167611 44.028107 
L 58.811809 43.955384 
L 58.456006 43.89455 
L 58.100204 43.845999 
L 57.744401 43.810132 
L 57.388599 43.787357 
L 57.032796 43.778086 
L 56.676993 43.782741 
L 56.321191 43.801746 
L 55.965388 43.835531 
L 55.609586 43.884533 
L 55.253783 43.949187 
L 54.897981 44.029933 
L 54.542178 44.127206 
L 54.186376 44.241439 
L 53.830573 44.373056 
L 53.474771 44.52247 
L 53.118968 44.69008 
L 52.763166 44.876263 
L 52.407363 45.081373 
L 52.051561 45.305734 
L 51.695758 45.549633 
L 51.339956 45.813317 
L 50.984153 46.096981 
L 50.628351 46.400769 
L 50.272548 46.724758 
L 49.916746 47.068958 
L 49.560943 47.433297 
L 49.205141 47.817617 
L 48.849338 48.221666 
L 48.493536 48.645084 
L 48.137733 49.087398 
L 47.781931 49.548014 
L 47.426128 50.026202 
L 47.070326 50.521095 
L 46.714523 51.031676 
L 46.358721 51.556772 
L 46.002918 52.095053 
L 45.647116 52.645024 
L 45.291313 53.205029 
L 44.935511 53.773252 
L 44.579708 54.347729 
L 44.223905 54.926355 
L 43.868103 55.506908 
L 43.5123 56.087072 
L 43.156498 56.664463 
L 42.800695 57.236665 
L 42.444893 57.801269 
L 42.08909 58.355908 
L 41.733288 58.898297 
L 41.377485 59.426273 
L 41.021683 59.937818 
L 40.66588 60.43109 
L 40.310078 60.904438 
L 39.954275 61.356411 
L 39.598473 61.785758 
L 39.24267 62.191425 
L 38.886868 62.57254 
L 38.531065 62.928397 
L 38.175263 63.258444 
L 37.81946 63.562255 
z
" clip-path="url(#pfb303eafeb)" style="fill: #ff7f0e; fill-opacity: 0.25"/>
   </g>
   <g id="matplotlib.axis_1">
    <g id="xtick_1">
     <g id="line2d_1">
      <defs>
       <path id="mb9ca7e759f" d="M 0 0 
L 0 3.5 
" style="stroke: #000000; stroke-width: 0.8"/>
      </defs>
      <g>
       <use xlink:href="#mb9ca7e759f" x="37.81946" y="146.735283" style="stroke: #000000; stroke-width: 0.8"/>
      </g>
     </g>
     <g id="text_1">
      <!-- 0 -->
      <g transform="translate(34.63821 161.333721) scale(0.1 -0.1)">
       <defs>
        <path id="DejaVuSans-30" d="M 2034 4250 
Q 1547 4250 1301 3770 
Q 1056 3291 1056 2328 
Q 1056 1369 1301 889 
Q 1547 409 2034 409 
Q 2525 409 2770 889 
Q 3016 1369 3016 2328 
Q 3016 3291 2770 3770 
Q 2525 4250 2034 4250 
z
M 2034 4750 
Q 2819 4750 3233 4129 
Q 3647 3509 3647 2328 
Q 3647 1150 3233 529 
Q 2819 -91 2034 -91 
Q 1250 -91 836 529 
Q 422 1150 422 2328 
Q 422 3509 836 4129 
Q 1250 4750 2034 4750 
z
" transform="scale(0.015625)"/>
       </defs>
       <use xlink:href="#DejaVuSans-30"/>
      </g>
     </g>
    </g>
    <g id="xtick_2">
     <g id="line2d_2">
      <g>
       <use xlink:href="#mb9ca7e759f" x="73.328551" y="146.735283" style="stroke: #000000; stroke-width: 0.8"/>
      </g>
     </g>
     <g id="text_2">
      <!-- 1 -->
      <g transform="translate(70.147301 161.333721) scale(0.1 -0.1)">
       <defs>
        <path id="DejaVuSans-31" d="M 794 531 
L 1825 531 
L 1825 4091 
L 703 3866 
L 703 4441 
L 1819 4666 
L 2450 4666 
L 2450 531 
L 3481 531 
L 3481 0 
L 794 0 
L 794 531 
z
" transform="scale(0.015625)"/>
       </defs>
       <use xlink:href="#DejaVuSans-31"/>
      </g>
     </g>
    </g>
    <g id="xtick_3">
     <g id="line2d_3">
      <g>
       <use xlink:href="#mb9ca7e759f" x="108.837642" y="146.735283" style="stroke: #000000; stroke-width: 0.8"/>
      </g>
     </g>
     <g id="text_3">
      <!-- 2 -->
      <g transform="translate(105.656392 161.333721) scale(0.1 -0.1)">
       <defs>
        <path id="DejaVuSans-32" d="M 1228 531 
L 3431 531 
L 3431 0 
L 469 0 
L 469 531 
Q 828 903 1448 1529 
Q 2069 2156 2228 2338 
Q 2531 2678 2651 2914 
Q 2772 3150 2772 3378 
Q 2772 3750 2511 3984 
Q 2250 4219 1831 4219 
Q 1534 4219 1204 4116 
Q 875 4013 500 3803 
L 500 4441 
Q 881 4594 1212 4672 
Q 1544 4750 1819 4750 
Q 2544 4750 2975 4387 
Q 3406 4025 3406 3419 
Q 3406 3131 3298 2873 
Q 3191 2616 2906 2266 
Q 2828 2175 2409 1742 
Q 1991 1309 1228 531 
z
" transform="scale(0.015625)"/>
       </defs>
       <use xlink:href="#DejaVuSans-32"/>
      </g>
     </g>
    </g>
    <g id="xtick_4">
     <g id="line2d_4">
      <g>
       <use xlink:href="#mb9ca7e759f" x="144.346733" y="146.735283" style="stroke: #000000; stroke-width: 0.8"/>
      </g>
     </g>
     <g id="text_4">
      <!-- 3 -->
      <g transform="translate(141.165483 161.333721) scale(0.1 -0.1)">
       <defs>
        <path id="DejaVuSans-33" d="M 2597 2516 
Q 3050 2419 3304 2112 
Q 3559 1806 3559 1356 
Q 3559 666 3084 287 
Q 2609 -91 1734 -91 
Q 1441 -91 1130 -33 
Q 819 25 488 141 
L 488 750 
Q 750 597 1062 519 
Q 1375 441 1716 441 
Q 2309 441 2620 675 
Q 2931 909 2931 1356 
Q 2931 1769 2642 2001 
Q 2353 2234 1838 2234 
L 1294 2234 
L 1294 2753 
L 1863 2753 
Q 2328 2753 2575 2939 
Q 2822 3125 2822 3475 
Q 2822 3834 2567 4026 
Q 2313 4219 1838 4219 
Q 1578 4219 1281 4162 
Q 984 4106 628 3988 
L 628 4550 
Q 988 4650 1302 4700 
Q 1616 4750 1894 4750 
Q 2613 4750 3031 4423 
Q 3450 4097 3450 3541 
Q 3450 3153 3228 2886 
Q 3006 2619 2597 2516 
z
" transform="scale(0.015625)"/>
       </defs>
       <use xlink:href="#DejaVuSans-33"/>
      </g>
     </g>
    </g>
    <g id="xtick_5">
     <g id="line2d_5">
      <g>
       <use xlink:href="#mb9ca7e759f" x="179.855824" y="146.735283" style="stroke: #000000; stroke-width: 0.8"/>
      </g>
     </g>
     <g id="text_5">
      <!-- 4 -->
      <g transform="translate(176.674574 161.333721) scale(0.1 -0.1)">
       <defs>
        <path id="DejaVuSans-34" d="M 2419 4116 
L 825 1625 
L 2419 1625 
L 2419 4116 
z
M 2253 4666 
L 3047 4666 
L 3047 1625 
L 3713 1625 
L 3713 1100 
L 3047 1100 
L 3047 0 
L 2419 0 
L 2419 1100 
L 313 1100 
L 313 1709 
L 2253 4666 
z
" transform="scale(0.015625)"/>
       </defs>
       <use xlink:href="#DejaVuSans-34"/>
      </g>
     </g>
    </g>
    <g id="xtick_6">
     <g id="line2d_6">
      <g>
       <use xlink:href="#mb9ca7e759f" x="215.364915" y="146.735283" style="stroke: #000000; stroke-width: 0.8"/>
      </g>
     </g>
     <g id="text_6">
      <!-- 5 -->
      <g transform="translate(212.183665 161.333721) scale(0.1 -0.1)">
       <defs>
        <path id="DejaVuSans-35" d="M 691 4666 
L 3169 4666 
L 3169 4134 
L 1269 4134 
L 1269 2991 
Q 1406 3038 1543 3061 
Q 1681 3084 1819 3084 
Q 2600 3084 3056 2656 
Q 3513 2228 3513 1497 
Q 3513 744 3044 326 
Q 2575 -91 1722 -91 
Q 1428 -91 1123 -41 
Q 819 9 494 109 
L 494 744 
Q 775 591 1075 516 
Q 1375 441 1709 441 
Q 2250 441 2565 725 
Q 2881 1009 2881 1497 
Q 2881 1984 2565 2268 
Q 2250 2553 1709 2553 
Q 1456 2553 1204 2497 
Q 953 2441 691 2322 
L 691 4666 
z
" transform="scale(0.015625)"/>
       </defs>
       <use xlink:href="#DejaVuSans-35"/>
      </g>
     </g>
    </g>
   </g>
   <g id="matplotlib.axis_2">
    <g id="ytick_1">
     <g id="line2d_7">
      <defs>
       <path id="m75b7edccbc" d="M 0 0 
L -3.5 0 
" style="stroke: #000000; stroke-width: 0.8"/>
      </defs>
      <g>
       <use xlink:href="#m75b7edccbc" x="28.942188" y="117.060272" style="stroke: #000000; stroke-width: 0.8"/>
      </g>
     </g>
     <g id="text_7">
      <!-- −1 -->
      <g transform="translate(7.2 120.859491) scale(0.1 -0.1)">
       <defs>
        <path id="DejaVuSans-2212" d="M 678 2272 
L 4684 2272 
L 4684 1741 
L 678 1741 
L 678 2272 
z
" transform="scale(0.015625)"/>
       </defs>
       <use xlink:href="#DejaVuSans-2212"/>
       <use xlink:href="#DejaVuSans-31" x="83.789062"/>
      </g>
     </g>
    </g>
    <g id="ytick_2">
     <g id="line2d_8">
      <g>
       <use xlink:href="#m75b7edccbc" x="28.942188" y="81.706587" style="stroke: #000000; stroke-width: 0.8"/>
      </g>
     </g>
     <g id="text_8">
      <!-- 0 -->
      <g transform="translate(15.579688 85.505806) scale(0.1 -0.1)">
       <use xlink:href="#DejaVuSans-30"/>
      </g>
     </g>
    </g>
    <g id="ytick_3">
     <g id="line2d_9">
      <g>
       <use xlink:href="#m75b7edccbc" x="28.942188" y="46.352903" style="stroke: #000000; stroke-width: 0.8"/>
      </g>
     </g>
     <g id="text_9">
      <!-- 1 -->
      <g transform="translate(15.579688 50.152122) scale(0.1 -0.1)">
       <use xlink:href="#DejaVuSans-31"/>
      </g>
     </g>
    </g>
    <g id="ytick_4">
     <g id="line2d_10">
      <g>
       <use xlink:href="#m75b7edccbc" x="28.942188" y="10.999219" style="stroke: #000000; stroke-width: 0.8"/>
      </g>
     </g>
     <g id="text_10">
      <!-- 2 -->
      <g transform="translate(15.579688 14.798438) scale(0.1 -0.1)">
       <use xlink:href="#DejaVuSans-32"/>
      </g>
     </g>
    </g>
   </g>
   <g id="line2d_11">
    <path d="M 37.81946 81.706587 
L 42.08909 69.288003 
L 44.223905 63.689684 
L 46.002918 59.547432 
L 47.781931 55.989154 
L 49.205141 53.616342 
L 50.628351 51.696095 
L 51.695758 50.563652 
L 52.763166 49.698629 
L 53.830573 49.1003 
L 54.897981 48.764265 
L 55.965388 48.682524 
L 57.032796 48.843606 
L 58.100204 49.232743 
L 59.167611 49.8321 
L 60.590821 50.922211 
L 62.014031 52.293407 
L 63.793044 54.30767 
L 66.995266 58.372118 
L 69.841686 61.910025 
L 71.620699 63.832129 
L 73.043909 65.112147 
L 74.467119 66.106265 
L 75.534527 66.637678 
L 76.601934 66.968707 
L 77.669342 67.087755 
L 78.736749 66.986671 
L 79.804157 66.660871 
L 80.871564 66.109411 
L 81.938972 65.335009 
L 83.362182 63.967142 
L 84.785392 62.239357 
L 86.208602 60.186942 
L 87.987615 57.234199 
L 90.478232 52.572468 
L 97.23848 39.48922 
L 99.017493 36.628801 
L 100.440703 34.690302 
L 101.863913 33.123445 
L 102.93132 32.221036 
L 103.998728 31.571081 
L 105.066135 31.186911 
L 106.133543 31.078434 
L 107.20095 31.251987 
L 108.268358 31.710241 
L 109.335766 32.452154 
L 110.403173 33.472988 
L 111.470581 34.764364 
L 112.893791 36.88599 
L 114.317001 39.429652 
L 116.096013 43.130219 
L 118.230828 48.187224 
L 121.077249 55.608595 
L 126.414286 69.724185 
L 128.549101 74.76769 
L 130.328114 78.476647 
L 132.107126 81.637079 
L 133.530337 83.723552 
L 134.953547 85.391503 
L 136.020954 86.3603 
L 137.088362 87.086135 
L 138.155769 87.571983 
L 139.223177 87.824433 
L 140.290584 87.853579 
L 141.357992 87.672861 
L 142.425399 87.29886 
L 143.848609 86.533557 
L 145.271819 85.512716 
L 147.050832 83.969136 
L 150.608857 80.485356 
L 153.099475 78.206921 
L 154.878487 76.893614 
L 156.301697 76.123932 
L 157.369105 75.746139 
L 158.436513 75.561256 
L 159.50392 75.585926 
L 160.571328 75.833655 
L 161.638735 76.314609 
L 162.706143 77.035449 
L 163.77355 77.999228 
L 165.19676 79.660581 
L 166.61997 81.740725 
L 168.04318 84.216748 
L 169.822193 87.81617 
L 171.957008 92.756842 
L 174.447626 99.133417 
L 181.563676 117.77446 
L 183.698491 122.522545 
L 185.477504 125.891287 
L 186.900714 128.129013 
L 188.323924 129.916243 
L 189.391331 130.942755 
L 190.458739 131.690483 
L 191.526146 132.154612 
L 192.593554 132.334025 
L 193.660961 132.231315 
L 194.728369 131.852745 
L 195.795776 131.20815 
L 196.863184 130.310794 
L 198.286394 128.750081 
L 199.709604 126.816929 
L 201.488617 123.961895 
L 203.623432 120.056468 
L 207.893062 111.583393 
L 210.739482 106.217834 
L 212.518495 103.260316 
L 214.297507 100.737999 
L 215.364915 99.470104 
L 215.364915 99.470104 
" clip-path="url(#pfb303eafeb)" style="fill: none; stroke: #1f77b4; stroke-width: 2; stroke-linecap: square"/>
   </g>
   <g id="line2d_12">
    <path d="M 37.81946 75.799127 
L 42.08909 66.949899 
L 44.579708 62.347227 
L 46.358721 59.471143 
L 48.137733 57.004422 
L 49.560943 55.351306 
L 50.984153 53.993929 
L 52.407363 52.934152 
L 53.830573 52.16665 
L 55.253783 51.679791 
L 56.676993 51.45665 
L 58.100204 51.476066 
L 59.523414 51.713647 
L 61.302426 52.276508 
L 63.081439 53.082602 
L 65.216254 54.288484 
L 68.774279 56.601084 
L 72.332304 58.837194 
L 74.467119 59.907523 
L 76.246132 60.530075 
L 77.669342 60.798947 
L 79.092552 60.825837 
L 80.515762 60.579355 
L 81.938972 60.033737 
L 83.362182 59.170762 
L 84.785392 57.981614 
L 86.208602 56.468542 
L 87.631812 54.646171 
L 89.410825 51.976916 
L 91.54564 48.314631 
L 95.459468 40.985817 
L 97.950085 36.539757 
L 99.729098 33.783462 
L 101.152308 31.958662 
L 102.219715 30.863043 
L 103.287123 30.033527 
L 104.35453 29.49468 
L 105.421938 29.266459 
L 106.489345 29.363764 
L 107.556753 29.796118 
L 108.624161 30.567478 
L 109.691568 31.676175 
L 110.758976 33.114993 
L 111.826383 34.871358 
L 113.249593 37.676007 
L 114.672803 40.958938 
L 116.451816 45.632202 
L 118.586631 51.871806 
L 122.856261 65.274856 
L 126.058484 74.93505 
L 128.193299 80.659412 
L 129.972311 84.791069 
L 131.395521 87.598854 
L 132.818731 89.916695 
L 133.886139 91.313938 
L 134.953547 92.408433 
L 136.020954 93.195146 
L 137.088362 93.6731 
L 138.155769 93.845442 
L 139.223177 93.71949 
L 140.290584 93.306743 
L 141.357992 92.622842 
L 142.425399 91.687503 
L 143.848609 90.090684 
L 145.271819 88.15567 
L 147.050832 85.379577 
L 153.81108 74.284827 
L 155.23429 72.501242 
L 156.301697 71.424627 
L 157.369105 70.610099 
L 158.436513 70.087883 
L 159.50392 69.883542 
L 160.215525 69.934156 
L 160.92713 70.139762 
L 161.994538 70.74581 
L 163.061945 71.713877 
L 164.129353 73.043296 
L 165.19676 74.726586 
L 166.61997 77.49579 
L 168.04318 80.815824 
L 169.822193 85.629602 
L 171.957008 92.140814 
L 179.428861 115.853158 
L 181.207873 120.460038 
L 182.631083 123.58715 
L 184.054294 126.15108 
L 185.121701 127.68011 
L 186.189109 128.861711 
L 187.256516 129.694811 
L 188.323924 130.185308 
L 189.391331 130.345726 
L 190.458739 130.194694 
L 191.526146 129.756279 
L 192.593554 129.059182 
L 194.016764 127.783798 
L 195.439974 126.190517 
L 197.574789 123.397965 
L 203.623432 115.119227 
L 205.402444 113.090862 
L 207.181457 111.374506 
L 208.96047 109.983734 
L 210.739482 108.899782 
L 212.518495 108.077375 
L 214.65331 107.344254 
L 215.364915 107.140591 
L 215.364915 107.140591 
" clip-path="url(#pfb303eafeb)" style="fill: none; stroke: #ff7f0e; stroke-width: 2; stroke-linecap: square"/>
   </g>
   <g id="patch_3">
    <path d="M 28.942188 146.735283 
L 28.942188 8.135283 
" style="fill: none; stroke: #000000; stroke-width: 0.8; stroke-linejoin: miter; stroke-linecap: square"/>
   </g>
   <g id="patch_4">
    <path d="M 224.242188 146.735283 
L 224.242188 8.135283 
" style="fill: none; stroke: #000000; stroke-width: 0.8; stroke-linejoin: miter; stroke-linecap: square"/>
   </g>
   <g id="patch_5">
    <path d="M 28.942187 146.735283 
L 224.242188 146.735283 
" style="fill: none; stroke: #000000; stroke-width: 0.8; stroke-linejoin: miter; stroke-linecap: square"/>
   </g>
   <g id="patch_6">
    <path d="M 28.942187 8.135283 
L 224.242188 8.135283 
" style="fill: none; stroke: #000000; stroke-width: 0.8; stroke-linejoin: miter; stroke-linecap: square"/>
   </g>
   <g id="legend_1">
    <g id="patch_7">
     <path d="M 35.942188 141.735283 
L 176.36875 141.735283 
Q 178.36875 141.735283 178.36875 139.735283 
L 178.36875 82.022783 
Q 178.36875 80.022783 176.36875 80.022783 
L 35.942188 80.022783 
Q 33.942188 80.022783 33.942188 82.022783 
L 33.942188 139.735283 
Q 33.942188 141.735283 35.942188 141.735283 
z
" style="fill: #ffffff; opacity: 0.8; stroke: #cccccc; stroke-linejoin: miter"/>
    </g>
    <g id="PathCollection_2">
     <g>
      <use xlink:href="#m96534f188f" x="47.942188" y="88.996221" style="fill: #1f77b4; stroke: #1f77b4"/>
     </g>
    </g>
    <g id="text_11">
     <!-- Observed Data -->
     <g transform="translate(65.942188 91.621221) scale(0.1 -0.1)">
      <defs>
       <path id="DejaVuSans-4f" d="M 2522 4238 
Q 1834 4238 1429 3725 
Q 1025 3213 1025 2328 
Q 1025 1447 1429 934 
Q 1834 422 2522 422 
Q 3209 422 3611 934 
Q 4013 1447 4013 2328 
Q 4013 3213 3611 3725 
Q 3209 4238 2522 4238 
z
M 2522 4750 
Q 3503 4750 4090 4092 
Q 4678 3434 4678 2328 
Q 4678 1225 4090 567 
Q 3503 -91 2522 -91 
Q 1538 -91 948 565 
Q 359 1222 359 2328 
Q 359 3434 948 4092 
Q 1538 4750 2522 4750 
z
" transform="scale(0.015625)"/>
       <path id="DejaVuSans-62" d="M 3116 1747 
Q 3116 2381 2855 2742 
Q 2594 3103 2138 3103 
Q 1681 3103 1420 2742 
Q 1159 2381 1159 1747 
Q 1159 1113 1420 752 
Q 1681 391 2138 391 
Q 2594 391 2855 752 
Q 3116 1113 3116 1747 
z
M 1159 2969 
Q 1341 3281 1617 3432 
Q 1894 3584 2278 3584 
Q 2916 3584 3314 3078 
Q 3713 2572 3713 1747 
Q 3713 922 3314 415 
Q 2916 -91 2278 -91 
Q 1894 -91 1617 61 
Q 1341 213 1159 525 
L 1159 0 
L 581 0 
L 581 4863 
L 1159 4863 
L 1159 2969 
z
" transform="scale(0.015625)"/>
       <path id="DejaVuSans-73" d="M 2834 3397 
L 2834 2853 
Q 2591 2978 2328 3040 
Q 2066 3103 1784 3103 
Q 1356 3103 1142 2972 
Q 928 2841 928 2578 
Q 928 2378 1081 2264 
Q 1234 2150 1697 2047 
L 1894 2003 
Q 2506 1872 2764 1633 
Q 3022 1394 3022 966 
Q 3022 478 2636 193 
Q 2250 -91 1575 -91 
Q 1294 -91 989 -36 
Q 684 19 347 128 
L 347 722 
Q 666 556 975 473 
Q 1284 391 1588 391 
Q 1994 391 2212 530 
Q 2431 669 2431 922 
Q 2431 1156 2273 1281 
Q 2116 1406 1581 1522 
L 1381 1569 
Q 847 1681 609 1914 
Q 372 2147 372 2553 
Q 372 3047 722 3315 
Q 1072 3584 1716 3584 
Q 2034 3584 2315 3537 
Q 2597 3491 2834 3397 
z
" transform="scale(0.015625)"/>
       <path id="DejaVuSans-65" d="M 3597 1894 
L 3597 1613 
L 953 1613 
Q 991 1019 1311 708 
Q 1631 397 2203 397 
Q 2534 397 2845 478 
Q 3156 559 3463 722 
L 3463 178 
Q 3153 47 2828 -22 
Q 2503 -91 2169 -91 
Q 1331 -91 842 396 
Q 353 884 353 1716 
Q 353 2575 817 3079 
Q 1281 3584 2069 3584 
Q 2775 3584 3186 3129 
Q 3597 2675 3597 1894 
z
M 3022 2063 
Q 3016 2534 2758 2815 
Q 2500 3097 2075 3097 
Q 1594 3097 1305 2825 
Q 1016 2553 972 2059 
L 3022 2063 
z
" transform="scale(0.015625)"/>
       <path id="DejaVuSans-72" d="M 2631 2963 
Q 2534 3019 2420 3045 
Q 2306 3072 2169 3072 
Q 1681 3072 1420 2755 
Q 1159 2438 1159 1844 
L 1159 0 
L 581 0 
L 581 3500 
L 1159 3500 
L 1159 2956 
Q 1341 3275 1631 3429 
Q 1922 3584 2338 3584 
Q 2397 3584 2469 3576 
Q 2541 3569 2628 3553 
L 2631 2963 
z
" transform="scale(0.015625)"/>
       <path id="DejaVuSans-76" d="M 191 3500 
L 800 3500 
L 1894 563 
L 2988 3500 
L 3597 3500 
L 2284 0 
L 1503 0 
L 191 3500 
z
" transform="scale(0.015625)"/>
       <path id="DejaVuSans-64" d="M 2906 2969 
L 2906 4863 
L 3481 4863 
L 3481 0 
L 2906 0 
L 2906 525 
Q 2725 213 2448 61 
Q 2172 -91 1784 -91 
Q 1150 -91 751 415 
Q 353 922 353 1747 
Q 353 2572 751 3078 
Q 1150 3584 1784 3584 
Q 2172 3584 2448 3432 
Q 2725 3281 2906 2969 
z
M 947 1747 
Q 947 1113 1208 752 
Q 1469 391 1925 391 
Q 2381 391 2643 752 
Q 2906 1113 2906 1747 
Q 2906 2381 2643 2742 
Q 2381 3103 1925 3103 
Q 1469 3103 1208 2742 
Q 947 2381 947 1747 
z
" transform="scale(0.015625)"/>
       <path id="DejaVuSans-20" transform="scale(0.015625)"/>
       <path id="DejaVuSans-44" d="M 1259 4147 
L 1259 519 
L 2022 519 
Q 2988 519 3436 956 
Q 3884 1394 3884 2338 
Q 3884 3275 3436 3711 
Q 2988 4147 2022 4147 
L 1259 4147 
z
M 628 4666 
L 1925 4666 
Q 3281 4666 3915 4102 
Q 4550 3538 4550 2338 
Q 4550 1131 3912 565 
Q 3275 0 1925 0 
L 628 0 
L 628 4666 
z
" transform="scale(0.015625)"/>
       <path id="DejaVuSans-61" d="M 2194 1759 
Q 1497 1759 1228 1600 
Q 959 1441 959 1056 
Q 959 750 1161 570 
Q 1363 391 1709 391 
Q 2188 391 2477 730 
Q 2766 1069 2766 1631 
L 2766 1759 
L 2194 1759 
z
M 3341 1997 
L 3341 0 
L 2766 0 
L 2766 531 
Q 2569 213 2275 61 
Q 1981 -91 1556 -91 
Q 1019 -91 701 211 
Q 384 513 384 1019 
Q 384 1609 779 1909 
Q 1175 2209 1959 2209 
L 2766 2209 
L 2766 2266 
Q 2766 2663 2505 2880 
Q 2244 3097 1772 3097 
Q 1472 3097 1187 3025 
Q 903 2953 641 2809 
L 641 3341 
Q 956 3463 1253 3523 
Q 1550 3584 1831 3584 
Q 2591 3584 2966 3190 
Q 3341 2797 3341 1997 
z
" transform="scale(0.015625)"/>
       <path id="DejaVuSans-74" d="M 1172 4494 
L 1172 3500 
L 2356 3500 
L 2356 3053 
L 1172 3053 
L 1172 1153 
Q 1172 725 1289 603 
Q 1406 481 1766 481 
L 2356 481 
L 2356 0 
L 1766 0 
Q 1100 0 847 248 
Q 594 497 594 1153 
L 594 3053 
L 172 3053 
L 172 3500 
L 594 3500 
L 594 4494 
L 1172 4494 
z
" transform="scale(0.015625)"/>
      </defs>
      <use xlink:href="#DejaVuSans-4f"/>
      <use xlink:href="#DejaVuSans-62" x="78.710938"/>
      <use xlink:href="#DejaVuSans-73" x="142.1875"/>
      <use xlink:href="#DejaVuSans-65" x="194.287109"/>
      <use xlink:href="#DejaVuSans-72" x="255.810547"/>
      <use xlink:href="#DejaVuSans-76" x="296.923828"/>
      <use xlink:href="#DejaVuSans-65" x="356.103516"/>
      <use xlink:href="#DejaVuSans-64" x="417.626953"/>
      <use xlink:href="#DejaVuSans-20" x="481.103516"/>
      <use xlink:href="#DejaVuSans-44" x="512.890625"/>
      <use xlink:href="#DejaVuSans-61" x="589.892578"/>
      <use xlink:href="#DejaVuSans-74" x="651.171875"/>
      <use xlink:href="#DejaVuSans-61" x="690.380859"/>
     </g>
    </g>
    <g id="line2d_13">
     <path d="M 37.942188 102.799346 
L 47.942188 102.799346 
L 57.942188 102.799346 
" style="fill: none; stroke: #1f77b4; stroke-width: 2; stroke-linecap: square"/>
    </g>
    <g id="text_12">
     <!-- True Function -->
     <g transform="translate(65.942188 106.299346) scale(0.1 -0.1)">
      <defs>
       <path id="DejaVuSans-54" d="M -19 4666 
L 3928 4666 
L 3928 4134 
L 2272 4134 
L 2272 0 
L 1638 0 
L 1638 4134 
L -19 4134 
L -19 4666 
z
" transform="scale(0.015625)"/>
       <path id="DejaVuSans-75" d="M 544 1381 
L 544 3500 
L 1119 3500 
L 1119 1403 
Q 1119 906 1312 657 
Q 1506 409 1894 409 
Q 2359 409 2629 706 
Q 2900 1003 2900 1516 
L 2900 3500 
L 3475 3500 
L 3475 0 
L 2900 0 
L 2900 538 
Q 2691 219 2414 64 
Q 2138 -91 1772 -91 
Q 1169 -91 856 284 
Q 544 659 544 1381 
z
M 1991 3584 
L 1991 3584 
z
" transform="scale(0.015625)"/>
       <path id="DejaVuSans-46" d="M 628 4666 
L 3309 4666 
L 3309 4134 
L 1259 4134 
L 1259 2759 
L 3109 2759 
L 3109 2228 
L 1259 2228 
L 1259 0 
L 628 0 
L 628 4666 
z
" transform="scale(0.015625)"/>
       <path id="DejaVuSans-6e" d="M 3513 2113 
L 3513 0 
L 2938 0 
L 2938 2094 
Q 2938 2591 2744 2837 
Q 2550 3084 2163 3084 
Q 1697 3084 1428 2787 
Q 1159 2491 1159 1978 
L 1159 0 
L 581 0 
L 581 3500 
L 1159 3500 
L 1159 2956 
Q 1366 3272 1645 3428 
Q 1925 3584 2291 3584 
Q 2894 3584 3203 3211 
Q 3513 2838 3513 2113 
z
" transform="scale(0.015625)"/>
       <path id="DejaVuSans-63" d="M 3122 3366 
L 3122 2828 
Q 2878 2963 2633 3030 
Q 2388 3097 2138 3097 
Q 1578 3097 1268 2742 
Q 959 2388 959 1747 
Q 959 1106 1268 751 
Q 1578 397 2138 397 
Q 2388 397 2633 464 
Q 2878 531 3122 666 
L 3122 134 
Q 2881 22 2623 -34 
Q 2366 -91 2075 -91 
Q 1284 -91 818 406 
Q 353 903 353 1747 
Q 353 2603 823 3093 
Q 1294 3584 2113 3584 
Q 2378 3584 2631 3529 
Q 2884 3475 3122 3366 
z
" transform="scale(0.015625)"/>
       <path id="DejaVuSans-69" d="M 603 3500 
L 1178 3500 
L 1178 0 
L 603 0 
L 603 3500 
z
M 603 4863 
L 1178 4863 
L 1178 4134 
L 603 4134 
L 603 4863 
z
" transform="scale(0.015625)"/>
       <path id="DejaVuSans-6f" d="M 1959 3097 
Q 1497 3097 1228 2736 
Q 959 2375 959 1747 
Q 959 1119 1226 758 
Q 1494 397 1959 397 
Q 2419 397 2687 759 
Q 2956 1122 2956 1747 
Q 2956 2369 2687 2733 
Q 2419 3097 1959 3097 
z
M 1959 3584 
Q 2709 3584 3137 3096 
Q 3566 2609 3566 1747 
Q 3566 888 3137 398 
Q 2709 -91 1959 -91 
Q 1206 -91 779 398 
Q 353 888 353 1747 
Q 353 2609 779 3096 
Q 1206 3584 1959 3584 
z
" transform="scale(0.015625)"/>
      </defs>
      <use xlink:href="#DejaVuSans-54"/>
      <use xlink:href="#DejaVuSans-72" x="46.333984"/>
      <use xlink:href="#DejaVuSans-75" x="87.447266"/>
      <use xlink:href="#DejaVuSans-65" x="150.826172"/>
      <use xlink:href="#DejaVuSans-20" x="212.349609"/>
      <use xlink:href="#DejaVuSans-46" x="244.136719"/>
      <use xlink:href="#DejaVuSans-75" x="296.15625"/>
      <use xlink:href="#DejaVuSans-6e" x="359.535156"/>
      <use xlink:href="#DejaVuSans-63" x="422.914062"/>
      <use xlink:href="#DejaVuSans-74" x="477.894531"/>
      <use xlink:href="#DejaVuSans-69" x="517.103516"/>
      <use xlink:href="#DejaVuSans-6f" x="544.886719"/>
      <use xlink:href="#DejaVuSans-6e" x="606.068359"/>
     </g>
    </g>
    <g id="line2d_14">
     <path d="M 37.942188 117.477471 
L 47.942188 117.477471 
L 57.942188 117.477471 
" style="fill: none; stroke: #ff7f0e; stroke-width: 2; stroke-linecap: square"/>
    </g>
    <g id="text_13">
     <!-- Predictive Mean -->
     <g transform="translate(65.942188 120.977471) scale(0.1 -0.1)">
      <defs>
       <path id="DejaVuSans-50" d="M 1259 4147 
L 1259 2394 
L 2053 2394 
Q 2494 2394 2734 2622 
Q 2975 2850 2975 3272 
Q 2975 3691 2734 3919 
Q 2494 4147 2053 4147 
L 1259 4147 
z
M 628 4666 
L 2053 4666 
Q 2838 4666 3239 4311 
Q 3641 3956 3641 3272 
Q 3641 2581 3239 2228 
Q 2838 1875 2053 1875 
L 1259 1875 
L 1259 0 
L 628 0 
L 628 4666 
z
" transform="scale(0.015625)"/>
       <path id="DejaVuSans-4d" d="M 628 4666 
L 1569 4666 
L 2759 1491 
L 3956 4666 
L 4897 4666 
L 4897 0 
L 4281 0 
L 4281 4097 
L 3078 897 
L 2444 897 
L 1241 4097 
L 1241 0 
L 628 0 
L 628 4666 
z
" transform="scale(0.015625)"/>
      </defs>
      <use xlink:href="#DejaVuSans-50"/>
      <use xlink:href="#DejaVuSans-72" x="58.552734"/>
      <use xlink:href="#DejaVuSans-65" x="97.416016"/>
      <use xlink:href="#DejaVuSans-64" x="158.939453"/>
      <use xlink:href="#DejaVuSans-69" x="222.416016"/>
      <use xlink:href="#DejaVuSans-63" x="250.199219"/>
      <use xlink:href="#DejaVuSans-74" x="305.179688"/>
      <use xlink:href="#DejaVuSans-69" x="344.388672"/>
      <use xlink:href="#DejaVuSans-76" x="372.171875"/>
      <use xlink:href="#DejaVuSans-65" x="431.351562"/>
      <use xlink:href="#DejaVuSans-20" x="492.875"/>
      <use xlink:href="#DejaVuSans-4d" x="524.662109"/>
      <use xlink:href="#DejaVuSans-65" x="610.941406"/>
      <use xlink:href="#DejaVuSans-61" x="672.464844"/>
      <use xlink:href="#DejaVuSans-6e" x="733.744141"/>
     </g>
    </g>
    <g id="patch_8">
     <path d="M 37.942188 135.655596 
L 57.942188 135.655596 
L 57.942188 128.655596 
L 37.942188 128.655596 
z
" style="fill: #ff7f0e; fill-opacity: 0.25"/>
    </g>
    <g id="text_14">
     <!-- 95% Set on True Func -->
     <g transform="translate(65.942188 135.655596) scale(0.1 -0.1)">
      <defs>
       <path id="DejaVuSans-39" d="M 703 97 
L 703 672 
Q 941 559 1184 500 
Q 1428 441 1663 441 
Q 2288 441 2617 861 
Q 2947 1281 2994 2138 
Q 2813 1869 2534 1725 
Q 2256 1581 1919 1581 
Q 1219 1581 811 2004 
Q 403 2428 403 3163 
Q 403 3881 828 4315 
Q 1253 4750 1959 4750 
Q 2769 4750 3195 4129 
Q 3622 3509 3622 2328 
Q 3622 1225 3098 567 
Q 2575 -91 1691 -91 
Q 1453 -91 1209 -44 
Q 966 3 703 97 
z
M 1959 2075 
Q 2384 2075 2632 2365 
Q 2881 2656 2881 3163 
Q 2881 3666 2632 3958 
Q 2384 4250 1959 4250 
Q 1534 4250 1286 3958 
Q 1038 3666 1038 3163 
Q 1038 2656 1286 2365 
Q 1534 2075 1959 2075 
z
" transform="scale(0.015625)"/>
       <path id="DejaVuSans-25" d="M 4653 2053 
Q 4381 2053 4226 1822 
Q 4072 1591 4072 1178 
Q 4072 772 4226 539 
Q 4381 306 4653 306 
Q 4919 306 5073 539 
Q 5228 772 5228 1178 
Q 5228 1588 5073 1820 
Q 4919 2053 4653 2053 
z
M 4653 2450 
Q 5147 2450 5437 2106 
Q 5728 1763 5728 1178 
Q 5728 594 5436 251 
Q 5144 -91 4653 -91 
Q 4153 -91 3862 251 
Q 3572 594 3572 1178 
Q 3572 1766 3864 2108 
Q 4156 2450 4653 2450 
z
M 1428 4353 
Q 1159 4353 1004 4120 
Q 850 3888 850 3481 
Q 850 3069 1003 2837 
Q 1156 2606 1428 2606 
Q 1700 2606 1854 2837 
Q 2009 3069 2009 3481 
Q 2009 3884 1853 4118 
Q 1697 4353 1428 4353 
z
M 4250 4750 
L 4750 4750 
L 1831 -91 
L 1331 -91 
L 4250 4750 
z
M 1428 4750 
Q 1922 4750 2215 4408 
Q 2509 4066 2509 3481 
Q 2509 2891 2217 2550 
Q 1925 2209 1428 2209 
Q 931 2209 642 2551 
Q 353 2894 353 3481 
Q 353 4063 643 4406 
Q 934 4750 1428 4750 
z
" transform="scale(0.015625)"/>
       <path id="DejaVuSans-53" d="M 3425 4513 
L 3425 3897 
Q 3066 4069 2747 4153 
Q 2428 4238 2131 4238 
Q 1616 4238 1336 4038 
Q 1056 3838 1056 3469 
Q 1056 3159 1242 3001 
Q 1428 2844 1947 2747 
L 2328 2669 
Q 3034 2534 3370 2195 
Q 3706 1856 3706 1288 
Q 3706 609 3251 259 
Q 2797 -91 1919 -91 
Q 1588 -91 1214 -16 
Q 841 59 441 206 
L 441 856 
Q 825 641 1194 531 
Q 1563 422 1919 422 
Q 2459 422 2753 634 
Q 3047 847 3047 1241 
Q 3047 1584 2836 1778 
Q 2625 1972 2144 2069 
L 1759 2144 
Q 1053 2284 737 2584 
Q 422 2884 422 3419 
Q 422 4038 858 4394 
Q 1294 4750 2059 4750 
Q 2388 4750 2728 4690 
Q 3069 4631 3425 4513 
z
" transform="scale(0.015625)"/>
      </defs>
      <use xlink:href="#DejaVuSans-39"/>
      <use xlink:href="#DejaVuSans-35" x="63.623047"/>
      <use xlink:href="#DejaVuSans-25" x="127.246094"/>
      <use xlink:href="#DejaVuSans-20" x="222.265625"/>
      <use xlink:href="#DejaVuSans-53" x="254.052734"/>
      <use xlink:href="#DejaVuSans-65" x="317.529297"/>
      <use xlink:href="#DejaVuSans-74" x="379.052734"/>
      <use xlink:href="#DejaVuSans-20" x="418.261719"/>
      <use xlink:href="#DejaVuSans-6f" x="450.048828"/>
      <use xlink:href="#DejaVuSans-6e" x="511.230469"/>
      <use xlink:href="#DejaVuSans-20" x="574.609375"/>
      <use xlink:href="#DejaVuSans-54" x="606.396484"/>
      <use xlink:href="#DejaVuSans-72" x="652.730469"/>
      <use xlink:href="#DejaVuSans-75" x="693.84375"/>
      <use xlink:href="#DejaVuSans-65" x="757.222656"/>
      <use xlink:href="#DejaVuSans-20" x="818.746094"/>
      <use xlink:href="#DejaVuSans-46" x="850.533203"/>
      <use xlink:href="#DejaVuSans-75" x="902.552734"/>
      <use xlink:href="#DejaVuSans-6e" x="965.931641"/>
      <use xlink:href="#DejaVuSans-63" x="1029.310547"/>
     </g>
    </g>
   </g>
  </g>
 </g>
 <defs>
  <clipPath id="pfb303eafeb">
   <rect x="28.942188" y="8.135283" width="195.3" height="138.6"/>
  </clipPath>
 </defs>
</svg>
